<?xml version="1.0" encoding="UTF-8"?>
<svg id="Layer_1" xmlns="http://www.w3.org/2000/svg" version="1.1" viewBox="0 0 254.7 42.4">
  <!-- Generator: Adobe Illustrator 29.2.1, SVG Export Plug-In . SVG Version: 2.1.0 Build 116)  -->
  <defs>
    <style>
      .st0 {
        fill: #fff;
        fill-rule: evenodd;
      }
    </style>
  </defs>
  <g id="Siemens_Logo_White">
    <g id="SIEMENS">
      <g>
        <path class="st0" d="M1.8,39.7v-7.6c4.3,1.4,8.1,2,11.5,2s6.9-1.2,6.9-3.6-.3-1.7-1-2.3c-.7-.7-2.4-1.6-5.3-2.7-5.1-2.1-8.3-3.8-9.9-5.3-2-1.9-3-4.4-3-7.3s1.4-6.7,4.3-8.7c2.9-2,6.6-3,11.2-3s6.2.5,11,1.4v7.3c-3.6-1.4-6.9-2.1-9.9-2.1s-6.5,1.2-6.5,3.6.4,1.6,1.3,2.2c.7.5,2.7,1.4,6,2.9,4.7,2.1,7.8,3.9,9.4,5.4,1.8,1.8,2.8,4.2,2.8,7.1,0,4.2-1.8,7.3-5.4,9.5-2.9,1.8-6.7,2.7-11.4,2.7s-7.9-.5-11.9-1.4h0Z"/>
        <polygon class="st0" points="36.6 2 36.6 2 47.3 2 47.3 40.4 36.6 40.4 36.6 2"/>
        <polygon class="st0" points="57.1 40.4 57.1 2 84.6 2 84.6 8.9 67.5 8.9 67.5 17.6 82.4 17.6 82.4 23.9 67.5 23.9 67.5 33 85.1 33 85.1 40.4 57.1 40.4"/>
        <polygon class="st0" points="92.1 40.4 92.1 2 106 2 115.6 26.5 125.5 2 138.7 2 138.7 40.4 128.6 40.4 128.6 13.2 117.3 40.8 110.7 40.8 99.6 13.2 99.6 40.4 92.1 40.4"/>
        <polygon class="st0" points="148.6 40.4 148.6 2 176.1 2 176.1 8.9 158.9 8.9 158.9 17.6 173.8 17.6 173.8 23.9 158.9 23.9 158.9 33 176.5 33 176.5 40.4 148.6 40.4"/>
        <polygon class="st0" points="183.5 40.4 183.5 2 196 2 209.2 27.7 209.2 2 216.7 2 216.7 40.4 204.6 40.4 191.1 14.3 191.1 40.4 183.5 40.4"/>
        <path class="st0" d="M224.3,39.7v-7.6c4.3,1.4,8.1,2,11.5,2s6.9-1.2,6.9-3.6-.3-1.7-1-2.3c-.7-.7-2.4-1.6-5.3-2.7-5-2.1-8.3-3.8-9.9-5.3-2-1.9-3-4.4-3-7.3s1.4-6.7,4.3-8.6c2.9-2,6.6-3,11.2-3s5.9.4,10,1.2l.9.2v7.3c-3.6-1.4-6.9-2.1-10-2.1s-6.4,1.2-6.4,3.6.4,1.6,1.3,2.2c.7.4,2.7,1.4,6,2.9,4.6,2.1,7.8,3.9,9.3,5.4,1.8,1.8,2.8,4.2,2.8,7.1,0,4.2-1.8,7.3-5.4,9.5-2.9,1.8-6.8,2.7-11.4,2.7-3.9,0-7.9-.5-11.9-1.4h0Z"/>
      </g>
    </g>
  </g>
</svg>