<?xml version="1.0" standalone="no"?>
<!DOCTYPE svg PUBLIC "-//W3C//DTD SVG 1.1//EN" "http://www.w3.org/Graphics/SVG/1.1/DTD/svg11.dtd" >
<svg xmlns="http://www.w3.org/2000/svg" xmlns:xlink="http://www.w3.org/1999/xlink" version="1.1">
<metadata>
Created by FontForge 20201107 at Fri Mar 29 18:03:02 2024
 By 
Based on a design by Hans Jurg Hunziker 2001/2007. 2023 remastered and produced by Dalton Maag Ltd. For the exclusive use by Siemens AG, its affiliates and licensees.
</metadata>
<defs>
<font id="SiemensSansPro-SBold" horiz-adv-x="0" >
  <font-face 
    font-family="SiemensSans Pro SBold"
    font-weight="600"
    font-stretch="normal"
    units-per-em="1000"
    panose-1="2 11 7 3 3 2 3 2 2 4"
    ascent="800"
    descent="-200"
    x-height="510"
    cap-height="692"
    bbox="-576 -266 1233 1129"
    underline-thickness="90"
    underline-position="-215"
    unicode-range="U+000D-FEFF"
  />
<missing-glyph horiz-adv-x="576" 
d="M60 692h456v-692h-456v692zM451 638h-326v-584h326v584z" />
    <glyph glyph-name="f_i" unicode="fi" horiz-adv-x="606" 
d="M109 420h-82v90h82v33q0 101 37.5 150.5t125.5 49.5q42 0 95 -14l-10 -95q-34 14 -59 14q-37 0 -52.5 -27t-15.5 -89v-22h238v-90h-238v-420h-121v420zM391 673q0 32 21 52.5t53 20.5t53 -21t21 -53t-21 -53t-53 -21q-33 0 -53.5 21t-20.5 54zM404 510h121v-510h-121v510
z" />
    <glyph glyph-name="f_l" unicode="fl" horiz-adv-x="607" 
d="M109 420h-82v90h82v33q0 100 40 151t143 51q38 0 64 -4.5t48 -9.5h121v-731h-121v630q-23 12 -42 17t-42 5q-49 0 -69.5 -27t-20.5 -93v-22h116v-90h-116v-420h-121v420z" />
    <glyph glyph-name="f_f_i" unicode="ffi" horiz-adv-x="899" 
d="M402 420h-172v-420h-121v420h-82v90h82v33q0 101 37.5 150.5t125.5 49.5q42 0 95 -14l-10 -95q-34 14 -59 14q-37 0 -52.5 -27t-15.5 -89v-22h172v33q0 101 37.5 150.5t125.5 49.5q42 0 95 -14l-10 -95q-34 14 -59 14q-37 0 -52.5 -27t-15.5 -89v-22h250v-90h-250v-420
h-121v420zM684 673q0 32 21 52.5t53 20.5t53 -21t21 -53t-21 -53t-53 -21q-33 0 -53.5 21t-20.5 54zM697 510h121v-510h-121v510z" />
    <glyph glyph-name="f_f_l" unicode="ffl" horiz-adv-x="897" 
d="M109 420h-82v90h82v33q0 101 37.5 150.5t125.5 49.5q42 0 95 -14l-10 -95q-34 14 -59 14q-37 0 -52.5 -27t-15.5 -89v-22h169v33q0 99 40.5 150t143.5 51q38 0 63.5 -4t47.5 -9h121v-731h-121v630q-42 21 -83 21q-50 0 -70.5 -27t-20.5 -92v-22h116v-90h-116v-420h-121
v420h-169v-420h-121v420z" />
    <glyph glyph-name="f_f" unicode="ff" horiz-adv-x="661" 
d="M109 420h-82v90h82v33q0 101 37.5 150.5t125.5 49.5q42 0 95 -14l-10 -95q-34 14 -59 14q-37 0 -52.5 -27t-15.5 -89v-22h167v33q0 101 37.5 150.5t126.5 49.5q22 0 45.5 -3.5t49.5 -10.5l-10 -95q-34 14 -59 14q-37 0 -53 -27t-16 -89v-22h116v-90h-116v-420h-121v420
h-167v-420h-121v420z" />
    <glyph glyph-name=".notdef" horiz-adv-x="576" 
d="M60 692h456v-692h-456v692zM451 638h-326v-584h326v584z" />
    <glyph glyph-name="uni0000" 
 />
    <glyph glyph-name="uni0000" 
 />
    <glyph glyph-name="uni000D" unicode="&#xd;" horiz-adv-x="250" 
 />
    <glyph glyph-name="space" unicode=" " horiz-adv-x="250" 
 />
    <glyph glyph-name="exclam" unicode="!" horiz-adv-x="342" 
d="M109 692h124l-9 -481h-106zM92 69q0 34 22.5 56t56.5 22q35 0 57 -22t22 -57q0 -34 -22 -56.5t-57 -22.5q-34 0 -56.5 22.5t-22.5 57.5z" />
    <glyph glyph-name="quotedbl" unicode="&#x22;" horiz-adv-x="400" 
d="M48 731h122l-5 -259h-112zM230 731h122l-5 -259h-112z" />
    <glyph glyph-name="numbersign" unicode="#" horiz-adv-x="576" 
d="M21 281h102l19 127h-88v89h101l29 195h97l-29 -195h113l29 195h98l-29 -195h91v-89h-104l-19 -127h90v-89h-103l-29 -192h-97l28 192h-113l-29 -192h-97l29 192h-89v89zM352 408h-113l-19 -127h113z" />
    <glyph glyph-name="dollar" unicode="$" horiz-adv-x="576" 
d="M250 -11q-62 1 -110 9.5t-100 29.5l19 106q47 -23 92.5 -34t98.5 -13v216q-70 24 -116.5 48.5t-70 60t-23.5 93.5q0 94 59.5 142.5t155.5 54.5v81h61v-81q48 -2 88 -10t91 -23l-24 -104q-36 16 -75.5 26.5t-79.5 12.5v-200q76 -24 123.5 -49t70 -63t22.5 -100
q0 -88 -57 -139.5t-164 -61.5v-84h-61v82zM406 185q0 37 -19.5 57.5t-75.5 40.5v-193q95 13 95 95zM255 602q-41 -6 -65 -27.5t-24 -58.5q0 -34 21 -54.5t68 -37.5v178z" />
    <glyph glyph-name="percent" unicode="%" horiz-adv-x="833" 
d="M482 192q0 194 159 194q158 0 158 -196t-159 -196q-158 0 -158 198zM573 191q0 -129 68 -129q67 0 67 128t-67 128q-68 0 -68 -127zM33 504q0 194 159 194q158 0 158 -196t-159 -196q-158 0 -158 198zM124 503q0 -129 68 -129q67 0 67 128t-67 128q-68 0 -68 -127z
M519 710h82l-275 -728h-81z" />
    <glyph glyph-name="ampersand" unicode="&#x26;" horiz-adv-x="714" 
d="M59 192q0 71 36 114.5t108 74.5q-45 49 -62 83t-17 74q0 76 55 120.5t149 44.5q98 0 152 -43.5t54 -121.5q0 -69 -40.5 -110.5t-117.5 -70.5l133 -145q47 69 52 168h111q-4 -72 -27 -136t-62 -112l122 -132h-153l-51 56q-49 -38 -93 -52.5t-109 -14.5q-73 0 -127 25
t-83.5 70.5t-29.5 107.5zM187 195q0 -50 33.5 -80.5t88.5 -30.5q36 0 64.5 13t55.5 37l-162 177q-80 -42 -80 -116zM248 532q0 -54 69 -111l10 4q47 22 67.5 45.5t20.5 56.5q0 38 -23 59.5t-61 21.5q-37 0 -60 -20.5t-23 -55.5z" />
    <glyph glyph-name="quotesingle" unicode="'" horiz-adv-x="218" 
d="M48 731h122l-5 -259h-112z" />
    <glyph glyph-name="parenleft" unicode="(" horiz-adv-x="413" 
d="M77 302q0 137 61 257t173 205l66 -71q-179 -157 -179 -391q0 -232 179 -389l-66 -71q-112 85 -173 204.5t-61 255.5z" />
    <glyph glyph-name="parenright" unicode=")" horiz-adv-x="413" 
d="M215 305q0 231 -179 388l66 71q113 -85 173 -204t60 -255q0 -138 -60 -258t-173 -205l-66 71q179 157 179 392z" />
    <glyph glyph-name="asterisk" unicode="*" horiz-adv-x="610" 
d="M254 720h102l-18 -147l136 60l30 -97l-142 -27l96 -107l-84 -59l-69 128l-69 -128l-83 59l95 107l-142 27l30 97l136 -60z" />
    <glyph glyph-name="plus" unicode="+" horiz-adv-x="576" 
d="M237 208h-204v94h204v208h101v-208h205v-94h-205v-208h-101v208z" />
    <glyph glyph-name="comma" unicode="," horiz-adv-x="305" 
d="M110 142h138l-101 -264h-117z" />
    <glyph glyph-name="hyphen" unicode="-" horiz-adv-x="363" 
d="M44 329h275v-94h-275v94z" />
    <glyph glyph-name="period" unicode="." horiz-adv-x="305" 
d="M73 68q0 35 22.5 57t56.5 22q35 0 57.5 -22t22.5 -57q0 -34 -23 -56.5t-57 -22.5t-56.5 22.5t-22.5 56.5z" />
    <glyph glyph-name="slash" unicode="/" horiz-adv-x="430" 
d="M313 705h117l-313 -729h-117z" />
    <glyph glyph-name="zero" unicode="0" horiz-adv-x="576" 
d="M31 346q0 181 63.5 269t193.5 88t193.5 -88t63.5 -269t-63.5 -269t-193.5 -88t-193.5 88t-63.5 269zM157 346q0 -130 32 -194t99 -64t99 63t32 195q0 258 -131 258q-67 0 -99 -63t-32 -195z" />
    <glyph glyph-name="one" unicode="1" horiz-adv-x="576" 
d="M261 560l-137 -86l-55 94l205 124h108v-692h-121v560z" />
    <glyph glyph-name="two" unicode="2" horiz-adv-x="576" 
d="M40 98q67 58 120.5 106.5t88.5 84.5q53 52 83 89.5t42.5 67.5t12.5 59q0 44 -35.5 71.5t-93.5 27.5q-39 0 -81.5 -11.5t-93.5 -37.5l-32 101q59 25 112 36t110 11q114 0 177 -50.5t63 -141.5q0 -45 -15.5 -86.5t-53.5 -90t-106 -114.5q-30 -31 -61.5 -60t-67.5 -60h310
v-100h-479v98z" />
    <glyph glyph-name="three" unicode="3" horiz-adv-x="576" 
d="M384 202q0 62 -52.5 87t-135.5 25h-25.5t-36.5 -2v95q14 -1 22.5 -1h21.5q198 0 198 106q0 44 -34 68t-95 24q-39 0 -78.5 -8.5t-88.5 -26.5l-26 98q102 36 210 36q113 0 175.5 -47t62.5 -133q0 -138 -149 -163q157 -20 157 -163q0 -67 -33.5 -114t-93.5 -71t-139 -24
q-58 0 -108.5 9t-103.5 28l28 98q87 -36 173 -36q68 0 109.5 29.5t41.5 85.5z" />
    <glyph glyph-name="four" unicode="4" horiz-adv-x="576" 
d="M331 174h-324v103l300 415h145v-425h99v-93h-99v-174h-121v174zM334 569l-211 -302h211v302z" />
    <glyph glyph-name="five" unicode="5" horiz-adv-x="576" 
d="M396 228q0 61 -41.5 93t-120.5 32q-39 0 -73.5 -6t-90.5 -20l13 365h412v-100h-293l-6 -151q27 4 42.5 5.5t36.5 1.5q116 0 181.5 -57t65.5 -165q0 -115 -73 -176t-196 -61q-61 0 -111.5 9.5t-102.5 31.5l36 100q84 -42 163 -42q72 0 115 37.5t43 102.5z" />
    <glyph glyph-name="six" unicode="6" horiz-adv-x="576" 
d="M43 280q0 122 37 217.5t115 150.5t199 55q23 0 44.5 -1.5t53.5 -5.5l-10 -103q-47 11 -83 11q-96 0 -153.5 -57t-66.5 -164q64 68 157 68q96 0 151.5 -59t55.5 -162q0 -112 -66.5 -176.5t-182.5 -64.5q-123 0 -187 74t-64 217zM171 221q0 -63 33 -99.5t92 -36.5
q56 0 89 37t33 101q0 61 -31.5 96t-87.5 35q-58 0 -93 -36.5t-35 -96.5z" />
    <glyph glyph-name="seven" unicode="7" horiz-adv-x="576" 
d="M42 692h483v-95l-303 -597h-136l305 592h-349v100z" />
    <glyph glyph-name="eight" unicode="8" horiz-adv-x="576" 
d="M33 189q0 64 33 105.5t105 67.5q-64 30 -92.5 67t-28.5 91q0 85 64.5 134t173.5 49q110 0 173.5 -49t63.5 -134q0 -53 -26 -87.5t-91 -67.5q72 -29 103 -69.5t31 -103.5q0 -95 -67.5 -149t-187.5 -54q-119 0 -186.5 53.5t-67.5 146.5zM159 189q0 -48 35 -76.5t94 -28.5
q58 0 93 28.5t35 75.5q0 44 -32 74t-103 53q-122 -35 -122 -126zM174 520q0 -39 29.5 -65.5t93.5 -47.5q105 39 105 111q0 42 -30.5 66t-83.5 24q-52 0 -83 -23.5t-31 -64.5z" />
    <glyph glyph-name="nine" unicode="9" horiz-adv-x="576" 
d="M32 462q0 112 67 176.5t182 64.5q124 0 187.5 -74t63.5 -217q0 -106 -30 -194.5t-84 -142.5q-86 -86 -240 -86q-43 0 -95 7l11 103q26 -6 44 -8.5t39 -2.5q96 0 153 57t67 164q-33 -35 -71 -51.5t-87 -16.5q-95 0 -151 59t-56 162zM158 469q0 -61 31.5 -96t86.5 -35
q59 0 94 36.5t35 96.5q0 63 -33 99.5t-92 36.5q-57 0 -89.5 -37t-32.5 -101z" />
    <glyph glyph-name="colon" unicode=":" horiz-adv-x="305" 
d="M73 68q0 35 22.5 57t56.5 22q35 0 57.5 -22t22.5 -57q0 -34 -23 -56.5t-57 -22.5t-56.5 22.5t-22.5 56.5zM73 427q0 35 22.5 57t56.5 22q35 0 57.5 -22t22.5 -57q0 -34 -23 -56.5t-57 -22.5t-56.5 22.5t-22.5 56.5z" />
    <glyph glyph-name="semicolon" unicode=";" horiz-adv-x="305" 
d="M87 427q0 35 22.5 57t56.5 22q35 0 57.5 -22t22.5 -57q0 -34 -23 -56.5t-57 -22.5t-56.5 22.5t-22.5 56.5zM100 142h138l-101 -264h-117z" />
    <glyph glyph-name="less" unicode="&#x3c;" horiz-adv-x="576" 
d="M30 296l510 225v-106l-361 -160l361 -160v-106l-510 226v81z" />
    <glyph glyph-name="equal" unicode="=" horiz-adv-x="576" 
d="M16 392h510v-94h-510v94zM16 212h510v-94h-510v94z" />
    <glyph glyph-name="greater" unicode="&#x3e;" horiz-adv-x="576" 
d="M36 95l360 160l-360 160v106l510 -225v-81l-510 -226v106z" />
    <glyph glyph-name="question" unicode="?" horiz-adv-x="456" 
d="M149 257q0 35 2 57t10 38t24.5 32t45.5 39q34 26 51 42.5t23.5 31t6.5 31.5q0 38 -24.5 60t-64.5 22q-59 0 -145 -49l-35 91q53 26 99.5 38.5t97.5 12.5q94 0 148 -45.5t54 -124.5q0 -47 -22 -81.5t-81 -78.5q-35 -27 -51.5 -44t-21 -33.5t-4.5 -43.5v-43h-113v48z
M127 69q0 34 23 56t57 22t56 -22t22 -57q0 -34 -22 -56.5t-56 -22.5q-35 0 -57.5 22.5t-22.5 57.5z" />
    <glyph glyph-name="at" unicode="@" horiz-adv-x="830" 
d="M40 346q0 105 49.5 185.5t137.5 126t203 45.5q108 0 189 -38.5t126.5 -107.5t45.5 -161q0 -69 -26.5 -124t-72 -87t-102.5 -32q-78 0 -88 70q-46 -70 -132 -70q-69 0 -109 40t-40 108q0 66 31.5 118t86 82t122.5 30q79 0 146 -24l-32 -199q-2 -13 -3.5 -24t-1.5 -21
q0 -35 30 -35q28 0 52 24.5t38.5 64t14.5 85.5q0 68 -34.5 118.5t-96 79t-143.5 28.5q-88 0 -157 -36.5t-108.5 -100.5t-39.5 -146q0 -84 39 -146.5t109 -97.5t163 -35q41 0 81 6.5t80 20.5l14 -77q-85 -27 -179 -27q-118 0 -206.5 44.5t-137.5 125t-49 187.5zM502 456
q-22 6 -40 6q-37 0 -69.5 -22.5t-52.5 -59t-20 -79.5q0 -34 18 -53.5t49 -19.5q35 0 60 24.5t32 66.5z" />
    <glyph glyph-name="A" unicode="A" horiz-adv-x="676" 
d="M135 0h-126l257 692h138l263 -692h-133l-70 196h-260zM311.5 498.5q-5.5 -15.5 -15.5 -43.5l-58 -163h192l-58 163q-8 23 -13.5 40t-11 34.5t-13.5 43.5q-8 -27 -12.5 -43t-10 -31.5z" />
    <glyph glyph-name="B" unicode="B" horiz-adv-x="600" 
d="M85 692h193q50 0 82.5 -3t56 -10t43.5 -20q36 -21 56 -60.5t20 -89.5q0 -63 -28.5 -101t-89.5 -55q133 -29 133 -162q0 -50 -20 -91.5t-58 -64.5q-31 -19 -68 -27t-105 -8h-215v692zM422 199q0 63 -41.5 85.5t-112.5 22.5h-60v-214h59q51 0 85.5 8t52 30.5t17.5 67.5z
M392 561.5q-18 22.5 -51.5 30t-79.5 7.5h-53v-205h58q69 0 106.5 19t37.5 81q0 45 -18 67.5z" />
    <glyph glyph-name="C" unicode="C" horiz-adv-x="613" 
d="M49 340q0 112 40.5 193t115.5 125.5t178 44.5q54 0 101 -10.5t104 -35.5l-41 -97q-43 23 -81 33.5t-77 10.5q-67 0 -114 -33.5t-71 -92t-24 -134.5q0 -118 57.5 -187t157.5 -69q43 0 80 11t85 36l35 -100q-38 -17 -70.5 -27.5t-64.5 -14.5t-71 -4q-108 0 -184 42.5
t-116 121.5t-40 187z" />
    <glyph glyph-name="D" unicode="D" horiz-adv-x="690" 
d="M85 692h177q69 0 118.5 -6.5t86 -21.5t67.5 -41q106 -88 106 -275q0 -103 -32.5 -178.5t-95.5 -116.5q-30 -19 -65 -31t-82 -17t-114 -5h-166v692zM510 347q0 69 -21.5 124t-59.5 83q-19 15 -40.5 23.5t-53.5 11.5t-83 3h-41v-492h46q112 0 168 38q41 29 63 83.5
t22 125.5z" />
    <glyph glyph-name="E" unicode="E" horiz-adv-x="563" 
d="M85 692h409v-100h-283v-191h269v-100h-269v-201h298v-100h-424v692z" />
    <glyph glyph-name="F" unicode="F" horiz-adv-x="545" 
d="M85 692h411v-100h-285v-191h271v-100h-271v-301h-126v692z" />
    <glyph glyph-name="G" unicode="G" horiz-adv-x="710" 
d="M49 338q0 112 42 194t120.5 126.5t187.5 44.5q61 0 114.5 -11t111.5 -37l-41 -98q-50 26 -91.5 36.5t-88.5 10.5q-73 0 -123 -33t-75.5 -92t-25.5 -137q0 -77 27 -134.5t77 -88.5t117 -31q52 0 103 19v168h-126v100h249v-343q-67 -23 -120 -33t-112 -10q-109 0 -186.5 42
t-118.5 120.5t-41 186.5z" />
    <glyph glyph-name="H" unicode="H" horiz-adv-x="707" 
d="M85 692h126v-289h285v289h125v-692h-125v304h-285v-304h-126v692z" />
    <glyph glyph-name="I" unicode="I" horiz-adv-x="296" 
d="M85 692h126v-692h-126v692z" />
    <glyph glyph-name="J" unicode="J" horiz-adv-x="414" 
d="M209 230v462h126v-431q0 -63 -3.5 -101.5t-11.5 -62t-23 -43.5q-49 -65 -161 -65q-34 0 -64 5t-58 15l11 104q26 -12 46 -17t42 -5q60 0 78 34t18 105z" />
    <glyph glyph-name="K" unicode="K" horiz-adv-x="641" 
d="M211 0h-126v692h126v-324l271 324h144l-273 -325l284 -367h-153l-273 360v-360z" />
    <glyph glyph-name="L" unicode="L" horiz-adv-x="508" 
d="M85 692h126v-592h298v-100h-424v692z" />
    <glyph glyph-name="M" unicode="M" horiz-adv-x="908" 
d="M85 692h183l151 -434q11 -31 18.5 -57t18.5 -65q11 37 18.5 63.5t18.5 58.5l149 434h181v-692h-122v568q-8 -29 -13 -47t-9.5 -32t-10 -30.5t-14.5 -41.5l-143 -417h-117l-142 408q-12 35 -23.5 71t-26.5 87v-566h-117v692z" />
    <glyph glyph-name="N" unicode="N" horiz-adv-x="727" 
d="M85 692h140l217 -363q24 -40 41.5 -72t40.5 -78q-2 21 -2 40v51v422h120v-692h-139l-211 352q-20 34 -33.5 58t-26 48t-29.5 58q2 -24 2.5 -40.5t0.5 -34.5v-47v-394h-121v692z" />
    <glyph glyph-name="O" unicode="O" horiz-adv-x="743" 
d="M49 350q0 102 38.5 181.5t110.5 125.5t173 46q102 0 174.5 -46t110.5 -125.5t38 -181.5q0 -104 -37 -185.5t-109 -128.5t-177 -47q-104 0 -176 47t-109 128.5t-37 185.5zM180 349q0 -121 51.5 -191t139.5 -70q89 0 141 70t52 191q0 117 -52 186t-141 69q-88 0 -139.5 -69
t-51.5 -186z" />
    <glyph glyph-name="P" unicode="P" horiz-adv-x="555" 
d="M85 692h171q81 0 125.5 -9t77.5 -33q37 -26 57 -69t20 -98q0 -54 -21 -97.5t-59 -69.5q-33 -22 -76.5 -31.5t-112.5 -9.5h-56v-275h-126v692zM408 480q0 47 -19 71.5t-54 34t-82 9.5h-45v-223h41q51 0 86.5 8t54 31.5t18.5 68.5z" />
    <glyph glyph-name="Q" unicode="Q" horiz-adv-x="743" 
d="M49 350q0 102 38.5 181.5t110.5 125.5t173 46q102 0 174.5 -46t110.5 -125.5t38 -181.5q0 -119 -48.5 -208.5t-141.5 -127.5q23 -24 62 -52.5t83 -54.5l-64 -86q-64 35 -119 75t-112 93q-99 4 -167 52t-103 128t-35 181zM180 349q0 -121 51.5 -191t139.5 -70q89 0 141 70
t52 191q0 117 -52 186t-141 69q-88 0 -139.5 -69t-51.5 -186z" />
    <glyph glyph-name="R" unicode="R" horiz-adv-x="597" 
d="M85 692h209q62 0 102 -8.5t68 -27.5q35 -23 54 -62t19 -86q0 -67 -35 -112.5t-100 -62.5q23 -9 38 -23t28.5 -40t32.5 -70l87 -200h-134l-63 148q-25 60 -43.5 90.5t-42 41t-63.5 10.5h-31v-290h-126v692zM409 494q0 43 -18.5 64.5t-52 29t-78.5 7.5h-52v-208h48
q73 0 113 24.5t40 82.5z" />
    <glyph glyph-name="S" unicode="S" horiz-adv-x="555" 
d="M375 187q0 28 -12 45.5t-40.5 33t-80.5 36.5q-63 27 -106 51.5t-64.5 58t-21.5 87.5q0 96 63 150t168 54q47 0 93.5 -8t105.5 -27l-26 -104q-57 23 -93 31.5t-74 8.5q-49 0 -78 -24t-29 -63q0 -22 10 -38.5t36.5 -32t77.5 -36.5q69 -28 114 -54t67 -62t22 -97
q0 -99 -64.5 -153.5t-180.5 -54.5q-56 0 -105 8.5t-105 27.5l17 107q59 -23 103 -33.5t86 -10.5q54 0 85.5 26.5t31.5 72.5z" />
    <glyph glyph-name="T" unicode="T" horiz-adv-x="548" 
d="M211 592h-200v100h527v-100h-201v-592h-126v592z" />
    <glyph glyph-name="U" unicode="U" horiz-adv-x="699" 
d="M79 307v385h126v-409q0 -55 6 -90t20 -55q36 -50 118 -50q87 0 123 53q26 36 26 136v415h121v-385q0 -71 -3 -113t-11.5 -68t-25.5 -49q-67 -88 -230 -88q-174 0 -236 99q-13 22 -20.5 47t-10.5 65.5t-3 106.5z" />
    <glyph glyph-name="V" unicode="V" horiz-adv-x="641" 
d="M345.5 210q8.5 26 16.5 49.5t20 56.5l135 376h125l-254 -692h-135l-254 692h133l133 -376q17 -46 30 -85t29 -90q13 43 21.5 69z" />
    <glyph glyph-name="W" unicode="W" horiz-adv-x="931" 
d="M684 262q5 23 15 65l84 365h119l-168 -692h-131l-94 365q-12 42 -21 79.5t-22 91.5q-8 -34 -14 -58t-12.5 -49.5t-16.5 -60.5l-99 -368h-132l-163 692h126l82 -372q8 -37 13 -60t9 -44.5t10 -54.5q10 43 17.5 75t19.5 78l98 378h130l94 -364q9 -36 15 -59t11 -45t12 -55
q6 30 9.5 50t8.5 43z" />
    <glyph glyph-name="X" unicode="X" horiz-adv-x="686" 
d="M341 253l-175 -253h-147l249 354l-236 338h146l168 -244l172 244h142l-242 -338l247 -354h-151z" />
    <glyph glyph-name="Y" unicode="Y" horiz-adv-x="621" 
d="M248 295l-255 397h146l126 -202q13 -21 23.5 -38.5t26.5 -47.5q17 31 27 48.5t24 39.5l124 200h137l-253 -397v-295h-126v295z" />
    <glyph glyph-name="Z" unicode="Z" horiz-adv-x="576" 
d="M31 92l347 500h-335v100h489v-92l-346 -500h357v-100h-512v92z" />
    <glyph glyph-name="bracketleft" unicode="[" horiz-adv-x="413" 
d="M116 749h215v-94h-100v-706h100v-96h-215v896z" />
    <glyph glyph-name="backslash" unicode="\" horiz-adv-x="430" 
d="M0 705h117l313 -729h-117z" />
    <glyph glyph-name="bracketright" unicode="]" horiz-adv-x="413" 
d="M82 -52h100v706h-100v95h215v-896h-215v95z" />
    <glyph glyph-name="asciicircum" unicode="^" horiz-adv-x="576" 
d="M137 313h-126l234 379h86l234 -379h-126l-152 257z" />
    <glyph glyph-name="underscore" unicode="_" horiz-adv-x="500" 
d="M-36 -125h572v-90h-572v90z" />
    <glyph glyph-name="grave" unicode="`" horiz-adv-x="500" 
d="M353 585h-113l-155 146h147z" />
    <glyph glyph-name="a" unicode="a" horiz-adv-x="559" 
d="M38 144q0 95 76 140q26 14 64 21t93 7q18 0 35.5 -0.5t47.5 -1.5v8q0 115 -113 115q-33 0 -65 -9.5t-73 -32.5l-31 85q44 23 90.5 34t95.5 11q60 0 106 -17t72 -49q16 -18 24 -39t11.5 -52.5t3.5 -81.5v-152q0 -45 1.5 -76.5t3.5 -53.5h-115l-4 58q-37 -38 -72.5 -53.5
t-85.5 -15.5q-78 0 -121.5 41t-43.5 114zM163 146q0 -34 21.5 -55t55.5 -21q65 0 114 70v96q-18 1 -28.5 1.5t-23.5 0.5q-65 0 -102 -21t-37 -71z" />
    <glyph glyph-name="b" unicode="b" horiz-adv-x="600" 
d="M80 179v552h121v-285q59 75 149 75q63 0 109 -32.5t71.5 -92.5t25.5 -141q0 -77 -24 -137t-69.5 -94.5t-112.5 -34.5q-51 0 -86.5 19t-68.5 65l-3 -73h-117q2 34 3 56.5t1.5 49.5t0.5 73zM201 345v-177q51 -88 119 -88q50 0 80 48.5t30 128.5t-30.5 126.5t-82.5 46.5
q-67 0 -116 -85z" />
    <glyph glyph-name="c" unicode="c" horiz-adv-x="484" 
d="M44 254q0 123 63.5 195t179.5 72q46 0 85.5 -9t81.5 -29l-36 -89q-60 37 -117 37q-63 0 -97 -45.5t-34 -130.5q0 -83 37 -129t104 -46q59 0 115 40l39 -88q-73 -43 -167 -43q-119 0 -186.5 70.5t-67.5 194.5z" />
    <glyph glyph-name="d" unicode="d" horiz-adv-x="600" 
d="M44 255q0 81 25.5 141t72 92.5t108.5 32.5q92 0 149 -75v285h121v-552q0 -46 0.5 -73.5t1.5 -50t3 -55.5h-117l-3 73q-34 -46 -69.5 -65t-85.5 -19q-66 0 -112 35t-70 95.5t-24 135.5zM170 254q0 -79 31 -126.5t83 -47.5q32 0 59.5 20.5t55.5 64.5v177q-46 88 -119 88
q-50 0 -80 -48t-30 -128z" />
    <glyph glyph-name="e" unicode="e" horiz-adv-x="570" 
d="M44 254q0 123 65.5 195t181.5 72q92 0 143.5 -35.5t72.5 -103.5t21 -165h-357q7 -68 41 -103.5t105 -35.5q76 0 153 49l42 -88q-46 -25 -93.5 -37.5t-103.5 -12.5q-130 0 -200.5 68.5t-70.5 196.5zM373 399q-29 34 -82 34q-54 0 -83.5 -34.5t-36.5 -97.5h233
q-2 64 -31 98z" />
    <glyph glyph-name="f" unicode="f" horiz-adv-x="373" 
d="M109 420h-82v90h82v33q0 101 37.5 150.5t125.5 49.5q42 0 95 -14l-10 -95q-34 14 -59 14q-37 0 -52.5 -27t-15.5 -89v-22h116v-90h-116v-420h-121v420z" />
    <glyph glyph-name="g" unicode="g" horiz-adv-x="605" 
d="M401 50v36q-34 -39 -69 -56.5t-82 -17.5q-63 0 -109 31t-71.5 88t-25.5 133q0 78 25.5 135.5t72 89.5t108.5 32q101 0 157 -81l4 70h116q-2 -47 -3 -80t-1.5 -60.5t-0.5 -60.5v-250q0 -58 -3.5 -95t-13.5 -62t-28 -47q-63 -81 -212 -81q-108 0 -199 45l37 89
q76 -44 152 -44q60 0 91.5 21.5t43 63t11.5 101.5zM401 336q-19 44 -51 69t-70 25q-51 0 -80.5 -44.5t-29.5 -121.5q0 -74 30 -117t82 -43q35 0 66 22.5t53 63.5v146z" />
    <glyph glyph-name="h" unicode="h" horiz-adv-x="616" 
d="M82 731h122v-289q40 42 80.5 60.5t91.5 18.5q65 0 100 -25t48.5 -73t13.5 -116v-307h-121v301q0 40 -5.5 68.5t-22.5 44.5t-53 16q-69 0 -132 -86v-344h-122v731z" />
    <glyph glyph-name="i" unicode="i" horiz-adv-x="283" 
d="M68 673q0 32 21 52.5t53 20.5t53 -21t21 -53t-21 -53t-53 -21q-33 0 -53.5 21t-20.5 54zM81 510h121v-510h-121v510z" />
    <glyph glyph-name="j" unicode="j" horiz-adv-x="293" 
d="M91 -18v528h121v-512q0 -68 -6 -104t-23 -59q-40 -61 -135 -61q-40 0 -87 12l10 92q17 -5 28 -7t23 -2q38 0 53.5 25.5t15.5 87.5zM77 673q0 32 21 52.5t53 20.5t53 -21t21 -53t-21 -53t-53 -21q-33 0 -53.5 21t-20.5 54z" />
    <glyph glyph-name="k" unicode="k" horiz-adv-x="545" 
d="M203 0h-121v731h121v-436l178 215h139l-194 -223l215 -287h-147l-191 261v-261z" />
    <glyph glyph-name="l" unicode="l" horiz-adv-x="285" 
d="M82 731h121v-731h-121v731z" />
    <glyph glyph-name="m" unicode="m" horiz-adv-x="907" 
d="M83 330q0 42 -0.5 68t-1.5 51t-3 61h114l4 -75q41 47 80 66.5t88 19.5q107 0 139 -92q45 51 83 71.5t89 20.5q63 0 96 -26t45.5 -73.5t12.5 -114.5v-307h-121v301q0 39 -4.5 68t-20 45t-48.5 16q-62 0 -119 -86v-344h-121v314q0 54 -14.5 85t-55.5 31q-63 0 -121 -86
v-344h-121v330z" />
    <glyph glyph-name="n" unicode="n" horiz-adv-x="616" 
d="M83 330q0 37 -0.5 65t-1.5 55t-3 60h114l4 -75q46 47 86 66.5t94 19.5q65 0 100 -25.5t48.5 -73t13.5 -115.5v-307h-121v301q0 40 -5.5 68.5t-22.5 44.5t-53 16q-69 0 -132 -86v-344h-121v330z" />
    <glyph glyph-name="o" unicode="o" horiz-adv-x="591" 
d="M44 258q0 81 30.5 140t87 91t134.5 32t134.5 -32t86.5 -91t30 -140q0 -123 -65.5 -196t-185.5 -73q-121 0 -186.5 73t-65.5 196zM170 257q0 -84 33.5 -131t92.5 -47t92.5 47t33.5 131q0 81 -33.5 127.5t-92.5 46.5q-58 0 -92 -46.5t-34 -127.5z" />
    <glyph glyph-name="p" unicode="p" horiz-adv-x="600" 
d="M80 306v69.5t-1 48t-1.5 40.5t-2.5 46h116l4 -70q36 44 71.5 62.5t83.5 18.5q63 0 109 -32.5t71.5 -92.5t25.5 -141q0 -77 -24 -137t-69.5 -94.5t-112.5 -34.5q-49 0 -84 18t-65 58v-280h-121v521zM430 257q0 80 -30.5 126.5t-82.5 46.5q-65 0 -116 -84v-178
q53 -88 119 -88q50 0 80 48.5t30 128.5z" />
    <glyph glyph-name="q" unicode="q" horiz-adv-x="600" 
d="M399 65q-31 -40 -65.5 -58t-83.5 -18q-66 0 -112 35t-70 95.5t-24 135.5q0 81 25.5 141t72 92.5t108.5 32.5q48 0 83.5 -18.5t71.5 -62.5l4 70h116q-1 -26 -2 -46t-2 -41t-1 -48.5v-68.5v-521h-121v280zM399 346q-51 84 -116 84q-52 0 -82.5 -46.5t-30.5 -126.5
t30 -128.5t80 -48.5q66 0 119 88v178z" />
    <glyph glyph-name="r" unicode="r" horiz-adv-x="393" 
d="M84 320q0 27 -1 61l-2 68t-2 61h114l4 -96q45 104 135 104q12 0 21.5 -1t23.5 -5l-7 -105q-24 4 -41 4q-44 0 -76 -30t-49 -86v-295h-120v320z" />
    <glyph glyph-name="s" unicode="s" horiz-adv-x="459" 
d="M295 143q0 30 -23 43t-79 33q-47 17 -79.5 34.5t-49.5 44t-17 69.5q0 71 51 112.5t139 41.5q43 0 81.5 -8.5t87.5 -28.5l-32 -91q-69 40 -131 40q-36 0 -56.5 -15.5t-20.5 -42.5q0 -22 16 -34.5t64 -31.5q58 -20 95 -40t55.5 -47t18.5 -69q0 -78 -56 -121t-145 -43
q-91 0 -170 40l32 91q38 -22 70 -32t67 -10q39 0 60.5 17t21.5 48z" />
    <glyph glyph-name="t" unicode="t" horiz-adv-x="376" 
d="M109 179v241h-82v90h82v110l121 24v-134h116v-90h-116v-235q0 -55 15.5 -77.5t52.5 -22.5q23 0 56 12l10 -91q-54 -17 -107 -17q-58 0 -90.5 20.5t-45 63t-12.5 106.5z" />
    <glyph glyph-name="u" unicode="u" horiz-adv-x="611" 
d="M78 203v307h121v-301q0 -59 14 -94t65 -35q66 0 129 86v344h121v-330q0 -40 0.5 -67.5t1.5 -52.5t3 -60h-114l-4 75q-44 -46 -84.5 -66t-92.5 -20q-64 0 -99 25.5t-48 73.5t-13 115z" />
    <glyph glyph-name="v" unicode="v" horiz-adv-x="544" 
d="M278 119q7 21 17 50t22 63l101 278h115l-192 -510h-136l-194 510h126l103 -279q12 -34 22 -61.5t16 -50.5z" />
    <glyph glyph-name="w" unicode="w" horiz-adv-x="833" 
d="M244 128q11 45 18.5 74.5t19.5 69.5l70 238h129l72 -236q12 -39 21.5 -69.5t20.5 -76.5q8 35 13 55t10.5 39t13.5 49l67 239h110l-151 -510h-127l-74 241q-11 33 -17.5 55t-12.5 44l-15 55q-10 -42 -19.5 -77.5t-22.5 -78.5l-71 -239h-128l-148 510h120l66 -241
q7 -23 12 -42.5t10.5 -42t12.5 -56.5z" />
    <glyph glyph-name="x" unicode="x" horiz-adv-x="556" 
d="M281 342l125 168h134l-192 -246l195 -264h-139l-125 177l-131 -177h-134l198 258l-186 252h139z" />
    <glyph glyph-name="y" unicode="y" horiz-adv-x="542" 
d="M27 -115q35 -15 64 -15q40 0 67 30t55 109l-206 501h129l101 -256l15 -40t12 -32.5t15 -44.5q10 30 16 46.5t11.5 32t16.5 44.5l94 250h118l-206 -519q-30 -76 -58 -124t-64.5 -70.5t-94.5 -22.5q-28 0 -53.5 4.5t-52.5 13.5z" />
    <glyph glyph-name="z" unicode="z" horiz-adv-x="466" 
d="M29 80l249 340h-236v90h384v-84l-246 -336h254v-90h-405v80z" />
    <glyph glyph-name="braceleft" unicode="{" horiz-adv-x="413" 
d="M145 31v127q0 42 -6 63.5t-24.5 30t-56.5 10.5v79q38 2 56.5 10.5t24.5 30.5t6 63v127q0 71 13.5 109t49 53t99.5 15h59v-86h-46q-35 0 -47 -17.5t-12 -70.5v-149q0 -43 -7.5 -68t-28.5 -37.5t-62 -18.5q41 -7 62 -19.5t28.5 -37.5t7.5 -68v-150q0 -52 12 -69.5t47 -17.5
h46v-87h-59q-64 0 -99.5 15t-49 53.5t-13.5 109.5z" />
    <glyph glyph-name="bar" unicode="|" horiz-adv-x="305" 
d="M93 692h119v-907h-119v907z" />
    <glyph glyph-name="braceright" unicode="}" horiz-adv-x="413" 
d="M47 -60h46q35 0 46.5 17.5t11.5 69.5v150q0 43 8 68t29 37.5t62 19.5q-41 6 -62 18.5t-29 37.5t-8 68v149q0 53 -11.5 70.5t-46.5 17.5h-46v86h59q65 0 100 -15t48.5 -53t13.5 -109v-127q0 -41 6 -63t25 -30.5t56 -10.5v-79q-37 -2 -56 -10.5t-25 -30t-6 -63.5v-127
q0 -71 -13.5 -109.5t-48.5 -53.5t-100 -15h-59v87z" />
    <glyph glyph-name="asciitilde" unicode="~" horiz-adv-x="576" 
d="M486.5 200q-36.5 -34 -83.5 -34q-19 0 -38 4.5t-44.5 16t-65.5 32.5q-31 17 -45.5 22.5t-31.5 5.5q-23 0 -42 -15t-48 -58l-68 42q42 68 78 98t78 30q18 0 33 -3.5t38 -14t62 -30.5q39 -21 56 -27t33 -6q27 0 47.5 18t43.5 54l66 -41q-32 -60 -68.5 -94z" />
    <glyph glyph-name="uni00A0" unicode="&#xa0;" horiz-adv-x="250" 
 />
    <glyph glyph-name="exclamdown" unicode="&#xa1;" horiz-adv-x="342" 
d="M118 299h106l9 -463h-124zM92 442q0 35 22.5 57t56.5 22q35 0 57 -22.5t22 -57.5q0 -34 -22.5 -56t-56.5 -22t-56.5 22.5t-22.5 56.5z" />
    <glyph glyph-name="cent" unicode="&#xa2;" horiz-adv-x="576" 
d="M292 168q-113 9 -171 75t-58 183q0 125 59.5 192t169.5 76v86h62v-86q40 -1 71 -9t66 -23l-29 -92q-28 14 -52.5 22.5t-55.5 10.5v-343q30 2 58.5 10.5t57.5 26.5l24 -92q-61 -34 -140 -38v-82h-62v83zM292 600q-103 -21 -103 -168t103 -169v337z" />
    <glyph glyph-name="sterling" unicode="&#xa3;" horiz-adv-x="576" 
d="M31 98h81q12 21 16.5 55t4.5 104v57h-92v89h92v46q0 52 4 85.5t14 56.5t27 42q60 68 185 68q47 0 88 -8.5t96 -30.5l-32 -99q-46 22 -78 30t-64 8q-68 0 -93 -39t-25 -121v-38h164v-89h-164v-57q0 -65 -3 -100t-15 -59h300v-98h-506v98z" />
    <glyph glyph-name="currency" unicode="&#xa4;" horiz-adv-x="576" 
d="M24 352q0 86 42 152l-64 64l62 61l62 -62q32 23 72.5 36t89.5 13q48 0 89 -12.5t73 -36.5l62 62l61 -61l-64 -65q42 -66 42 -157q0 -87 -42 -151l64 -65l-61 -61l-62 62q-32 -23 -73 -35.5t-89 -12.5q-49 0 -89.5 12.5t-72.5 35.5l-62 -62l-62 62l64 64q-42 66 -42 157z
M121 351q0 -79 45 -129t122 -50q51 0 88.5 23t57.5 62.5t20 89.5q0 80 -44.5 129.5t-121.5 49.5t-122 -49.5t-45 -125.5z" />
    <glyph glyph-name="yen" unicode="&#xa5;" horiz-adv-x="576" 
d="M227 180h-173v73h173v44h-175v73h132l-198 322h143l162 -275l162 275h136l-198 -322h131v-73h-173v-44h172v-73h-172v-180h-122v180z" />
    <glyph glyph-name="brokenbar" unicode="&#xa6;" horiz-adv-x="305" 
d="M93 153h119v-368h-119v368zM93 692h119v-362h-119v362z" />
    <glyph glyph-name="section" unicode="&#xa7;" horiz-adv-x="576" 
d="M358 17q0 36 -32.5 54t-92.5 41q-47 19 -81 38.5t-52 47t-18 69.5q0 79 84 140q-40 29 -56 57t-16 71q0 80 54.5 124t151.5 44q48 0 93.5 -10t88.5 -31l-32 -96q-39 18 -75 28t-67 10q-40 0 -61.5 -17t-21.5 -47q0 -36 33.5 -53t92.5 -40q51 -20 84 -40t49 -46.5
t16 -67.5q0 -42 -19 -75.5t-62 -65.5q38 -26 54 -55t16 -72q0 -85 -59 -129.5t-157 -44.5q-53 0 -103 11t-97 32l32 96q44 -20 82.5 -29.5t75.5 -9.5q95 0 95 66zM369 306.5q-17 15.5 -49.5 30t-78.5 34.5q-45 -39 -45 -77q0 -36 39.5 -58t109.5 -48q41 42 41 78
q0 25 -17 40.5z" />
    <glyph glyph-name="dieresis" unicode="&#xa8;" horiz-adv-x="500" 
d="M285 675q0 30 19.5 49.5t50.5 19.5t50.5 -19.5t19.5 -50.5t-19.5 -50.5t-50.5 -19.5t-50.5 20t-19.5 51zM215 674q0 -31 -19 -50.5t-51 -19.5q-31 0 -50.5 20t-19.5 51q0 30 20 49.5t50 19.5q32 0 51 -19.5t19 -50.5z" />
    <glyph glyph-name="copyright" unicode="&#xa9;" horiz-adv-x="800" 
d="M44 351q0 75 27 139t75 111.5t113 74t141 26.5q77 0 142 -26.5t113 -74.5t74.5 -113t26.5 -142t-26.5 -142t-74 -113t-112.5 -74.5t-142 -26.5q-104 0 -185 46t-126.5 127.5t-45.5 187.5zM90 350q0 -94 40 -166.5t110 -114t161 -41.5q89 0 159 41.5t110 113.5t40 163
q0 92 -40 164t-110 113t-160 41q-88 0 -158.5 -41t-111 -112t-40.5 -161zM227 343q0 87 51 138t139 51q33 0 62 -6t60 -19l-20 -64q-24 11 -44.5 15.5t-43.5 4.5q-52 0 -81.5 -31.5t-29.5 -87.5q0 -55 31.5 -87t86.5 -32q23 0 42.5 5.5t46.5 18.5l19 -66q-57 -27 -125 -27
q-90 0 -142 50t-52 137z" />
    <glyph glyph-name="ordfeminine" unicode="&#xaa;" horiz-adv-x="339" 
d="M32 489q0 55 40.5 76t104.5 21q9 0 16.5 -0.5t18.5 -0.5v7q0 49 -59 49q-39 0 -88 -20l-10 55q35 13 59.5 17.5t54.5 4.5q80 0 107 -40q7 -10 10 -20t4 -26.5t1 -46.5v-76v-26.5t1 -22t3 -32.5h-73l-3 29q-22 -19 -42.5 -27t-48.5 -8q-46 0 -71 23t-25 64zM113 492
q0 -33 39 -33q35 0 60 28v51q-8 1 -12.5 1h-9.5q-77 0 -77 -47z" />
    <glyph glyph-name="guillemotleft" unicode="&#xab;" horiz-adv-x="563" 
d="M165 255l126 -168l-80 -60l-180 228l180 228l80 -60zM396 255l126 -168l-80 -60l-180 228l180 228l80 -60z" />
    <glyph glyph-name="logicalnot" unicode="&#xac;" horiz-adv-x="576" 
d="M415 288h-388v93h492v-308h-104v215z" />
    <glyph glyph-name="uni00AD" unicode="&#xad;" horiz-adv-x="363" 
d="M44 329h275v-94h-275v94z" />
    <glyph glyph-name="registered" unicode="&#xae;" horiz-adv-x="600" 
d="M41 499q0 73 34 130.5t92.5 91t132.5 33.5q75 0 133.5 -33.5t92 -92t33.5 -133.5q0 -74 -33.5 -133t-91.5 -92.5t-133 -33.5q-76 0 -134.5 33.5t-92 93t-33.5 136.5zM85 498q0 -66 27.5 -117t76.5 -80t112 -29q62 0 110 29t76 79.5t28 114.5q0 65 -28 115t-76.5 79
t-110.5 29q-61 0 -110 -28.5t-77 -78.5t-28 -113zM270 359h-63v270h81q37 0 56 -2.5t33 -9.5q36 -19 36 -63q0 -54 -59 -70q16 -6 23.5 -15t16.5 -30l34 -80h-67l-22 55q-12 31 -23.5 40.5t-35.5 9.5h-10v-105zM333 576.5q-13 8.5 -44 8.5h-19v-80h11q36 0 50.5 9.5
t14.5 32.5q0 21 -13 29.5z" />
    <glyph glyph-name="macron" unicode="&#xaf;" horiz-adv-x="500" 
d="M83 695h334v-76h-334v76z" />
    <glyph glyph-name="degree" unicode="&#xb0;" horiz-adv-x="388" 
d="M36 549q0 68 44 110.5t113 42.5q72 0 116 -43t44 -112t-44 -112t-115 -43t-114.5 43t-43.5 114zM98 548q0 -46 25.5 -73.5t70.5 -27.5q44 0 70.5 27t26.5 73t-26.5 72.5t-70.5 26.5q-43 0 -69.5 -26.5t-26.5 -71.5z" />
    <glyph glyph-name="plusminus" unicode="&#xb1;" horiz-adv-x="576" 
d="M33 384h204v133h101v-133h205v-93h-205v-133h-101v133h-204v93zM33 92h510v-92h-510v92z" />
    <glyph glyph-name="uni00B2" unicode="&#xb2;" horiz-adv-x="363" 
d="M35 473q101 75 149 127q39 44 39 75q0 23 -17 35.5t-46 12.5q-22 0 -45.5 -7t-61.5 -25l-18 69q35 15 68.5 23t67.5 8q68 0 105 -28.5t37 -79.5t-47 -107q-40 -47 -113 -103h163v-68h-281v68z" />
    <glyph glyph-name="uni00B3" unicode="&#xb3;" horiz-adv-x="361" 
d="M229 519q0 53 -92 53h-17t-20 -2v61q10 -1 17 -1.5t19 -0.5q43 0 66.5 13.5t23.5 37.5q0 21 -18.5 32.5t-51.5 11.5q-21 0 -43.5 -4t-51.5 -15l-14 67q64 19 126 19q70 0 107 -26t37 -75q0 -33 -17.5 -54t-55.5 -33q41 -10 60 -32t19 -58q0 -55 -40.5 -84.5t-116.5 -29.5
q-65 0 -134 21l15 69q35 -13 58 -17.5t52 -4.5q34 0 53 13.5t19 38.5z" />
    <glyph glyph-name="acute" unicode="&#xb4;" horiz-adv-x="500" 
d="M279 731h147l-155 -146h-113z" />
    <glyph glyph-name="mu" unicode="&#xb5;" horiz-adv-x="576" 
d="M60 510h121v-301q0 -129 85 -129q66 0 123 86v344h121v-371q0 -54 41 -54q15 0 31 6l10 -88q-19 -6 -41.5 -10t-44.5 -4q-93 0 -112 81q-34 -43 -66.5 -62t-67.5 -19q-55 0 -81 40q1 -20 1.5 -43t0.5 -51v-150h-121v725z" />
    <glyph glyph-name="paragraph" unicode="&#xb6;" horiz-adv-x="700" 
d="M240 291q-97 5 -150.5 57t-53.5 142q0 58 25 103t69 70q21 11 42.5 17.5t52 9t76.5 2.5h283v-810h-115v710h-114v-710h-115v409z" />
    <glyph glyph-name="periodcentered" unicode="&#xb7;" horiz-adv-x="305" 
d="M73 286q0 33 22.5 55.5t56.5 22.5q35 0 57 -22.5t22 -57.5q0 -34 -22 -56t-57 -22q-34 0 -56.5 22.5t-22.5 57.5z" />
    <glyph glyph-name="cedilla" unicode="&#xb8;" horiz-adv-x="500" 
d="M293 -124q0 29 -45 29q-13 0 -23.5 -2t-23.5 -6l22 110h57l-9 -50q7 1 12 1q51 0 79.5 -21t28.5 -59q0 -52 -37 -75t-95 -23q-34 0 -76 9l4 60q15 -4 25.5 -5t22.5 -1q26 0 42 7.5t16 25.5z" />
    <glyph glyph-name="uni00B9" unicode="&#xb9;" horiz-adv-x="299" 
d="M126 702l-82 -48l-32 61l124 70h76v-380h-86v297z" />
    <glyph glyph-name="ordmasculine" unicode="&#xba;" horiz-adv-x="346" 
d="M29 552q0 68 38.5 107t105.5 39q68 0 106 -39.5t38 -108.5t-38 -108.5t-106 -39.5q-67 0 -105.5 40t-38.5 110zM111 549q0 -40 16.5 -62.5t45.5 -22.5t45.5 23.5t16.5 63.5q0 39 -16.5 62t-45.5 23t-45.5 -23t-16.5 -64z" />
    <glyph glyph-name="guillemotright" unicode="&#xbb;" horiz-adv-x="563" 
d="M167 255l-126 168l80 60l181 -228l-181 -228l-80 59zM398 255l-126 168l80 60l181 -228l-181 -228l-80 59z" />
    <glyph glyph-name="onequarter" unicode="&#xbc;" horiz-adv-x="816" 
d="M477 710h82l-275 -728h-81zM647 86h-190v67l163 227h111v-232h55v-62h-55v-86h-84v86zM650 317l-118 -169h118v169zM126 609l-82 -48l-32 61l124 70h76v-380h-86v297z" />
    <glyph glyph-name="onehalf" unicode="&#xbd;" horiz-adv-x="827" 
d="M477 710h82l-275 -728h-81zM499 68q101 75 149 127q39 44 39 75q0 23 -17 35.5t-46 12.5q-22 0 -45.5 -7t-61.5 -25l-18 69q35 15 68.5 23t67.5 8q68 0 105 -28.5t37 -79.5t-47 -107q-40 -47 -113 -103h163v-68h-281v68zM126 609l-82 -48l-32 61l124 70h76v-380h-86v297z
" />
    <glyph glyph-name="threequarters" unicode="&#xbe;" horiz-adv-x="868" 
d="M229 426q0 53 -92 53h-17t-20 -2v61q10 -1 17 -1.5t19 -0.5q43 0 66.5 13.5t23.5 37.5q0 21 -18.5 32.5t-51.5 11.5q-21 0 -43.5 -4t-51.5 -15l-14 67q64 19 126 19q70 0 107 -26t37 -75q0 -33 -17.5 -54t-55.5 -33q41 -10 60 -32t19 -58q0 -55 -40.5 -84.5t-116.5 -29.5
q-65 0 -134 21l15 69q35 -13 58 -17.5t52 -4.5q34 0 53 13.5t19 38.5zM528 710h82l-275 -728h-81zM698 86h-190v67l163 227h111v-232h55v-62h-55v-86h-84v86zM701 317l-118 -169h118v169z" />
    <glyph glyph-name="questiondown" unicode="&#xbf;" horiz-adv-x="456" 
d="M13 -13q0 46 23 81t81 78q35 28 51 44t20.5 33t4.5 44v33h114v-37q0 -36 -2.5 -58t-10.5 -38t-24.5 -32t-45.5 -39q-33 -25 -50 -42t-23.5 -31t-6.5 -31q0 -34 24.5 -54.5t64.5 -20.5q57 0 145 49l34 -91q-52 -27 -98.5 -39t-97.5 -12q-94 0 -148.5 43.5t-54.5 119.5z
M192.5 499q22.5 22 56.5 22q35 0 57 -22.5t22 -57.5q0 -34 -22.5 -56t-56.5 -22t-56.5 22.5t-22.5 56.5q0 35 22.5 57z" />
    <glyph glyph-name="Agrave" unicode="&#xc0;" horiz-adv-x="676" 
d="M135 0h-126l257 692h138l263 -692h-133l-70 196h-260zM311.5 498.5q-5.5 -15.5 -15.5 -43.5l-58 -163h192l-58 163q-8 23 -13.5 40t-11 34.5t-13.5 43.5q-8 -27 -12.5 -43t-10 -31.5zM429 755h-113l-155 146h147z" />
    <glyph glyph-name="Aacute" unicode="&#xc1;" horiz-adv-x="676" 
d="M135 0h-126l257 692h138l263 -692h-133l-70 196h-260zM311.5 498.5q-5.5 -15.5 -15.5 -43.5l-58 -163h192l-58 163q-8 23 -13.5 40t-11 34.5t-13.5 43.5q-8 -27 -12.5 -43t-10 -31.5zM378 901h147l-155 -146h-113z" />
    <glyph glyph-name="Acircumflex" unicode="&#xc2;" horiz-adv-x="676" 
d="M135 0h-126l257 692h138l263 -692h-133l-70 196h-260zM311.5 498.5q-5.5 -15.5 -15.5 -43.5l-58 -163h192l-58 163q-8 23 -13.5 40t-11 34.5t-13.5 43.5q-8 -27 -12.5 -43t-10 -31.5zM266 901h144l111 -146h-113l-70 91l-70 -91h-113z" />
    <glyph glyph-name="Atilde" unicode="&#xc3;" horiz-adv-x="676" 
d="M135 0h-126l257 692h138l263 -692h-133l-70 196h-260zM311.5 498.5q-5.5 -15.5 -15.5 -43.5l-58 -163h192l-58 163q-8 23 -13.5 40t-11 34.5t-13.5 43.5q-8 -27 -12.5 -43t-10 -31.5zM493.5 803q-27.5 -33 -69.5 -33q-18 0 -40 5t-56 16q-31 11 -43.5 14.5t-23.5 3.5
q-35 0 -41 -41h-69q5 57 32 90t69 33q18 0 40 -4.5t56 -16.5q32 -11 44 -14.5t23 -3.5q35 0 41 41h69q-4 -57 -31.5 -90z" />
    <glyph glyph-name="Adieresis" unicode="&#xc4;" horiz-adv-x="676" 
d="M135 0h-126l257 692h138l263 -692h-133l-70 196h-260zM311.5 498.5q-5.5 -15.5 -15.5 -43.5l-58 -163h192l-58 163q-8 23 -13.5 40t-11 34.5t-13.5 43.5q-8 -27 -12.5 -43t-10 -31.5zM161 833q0 31 20.5 51t51.5 20q32 0 52.5 -20t20.5 -52q0 -31 -20.5 -52t-52.5 -21
t-52 21t-20 53zM391 884q21 20 52 20q32 0 52 -20t20 -52q0 -31 -20 -52t-52 -21t-52.5 21t-20.5 53q0 31 21 51z" />
    <glyph glyph-name="Aring" unicode="&#xc5;" horiz-adv-x="676" 
d="M135 0h-126l257 692h138l263 -692h-133l-70 196h-260zM311.5 498.5q-5.5 -15.5 -15.5 -43.5l-58 -163h192l-58 163q-8 23 -13.5 40t-11 34.5t-13.5 43.5q-8 -27 -12.5 -43t-10 -31.5zM229 828q0 45 31.5 76t77.5 31q47 0 78 -31t31 -77t-31 -77t-78 -31t-78 31t-31 78z
M288 827q0 -25 14 -39t36 -14q23 0 36 14.5t13 38.5t-13 38.5t-36 14.5q-22 0 -36 -14.5t-14 -38.5z" />
    <glyph glyph-name="AE" unicode="&#xc6;" horiz-adv-x="929" 
d="M860 592h-283v-191h269v-100h-269v-201h298v-100h-424v177h-249l-100 -177h-143l414 692h487v-100zM451 601h-8l-186 -328h194v328z" />
    <glyph glyph-name="Ccedilla" unicode="&#xc7;" horiz-adv-x="613" 
d="M49 340q0 112 40.5 193t115.5 125.5t178 44.5q54 0 101 -10.5t104 -35.5l-41 -97q-43 23 -81 33.5t-77 10.5q-67 0 -114 -33.5t-71 -92t-24 -134.5q0 -118 57.5 -187t157.5 -69q43 0 80 11t85 36l35 -100q-38 -17 -70.5 -27.5t-64.5 -14.5t-71 -4q-108 0 -184 42.5
t-116 121.5t-40 187zM406 -124q0 29 -45 29q-13 0 -23.5 -2t-23.5 -6l21 110h58l-9 -50q7 1 12 1q51 0 79.5 -21t28.5 -59q0 -52 -37 -75t-95 -23q-34 0 -76 9l4 60q15 -4 25.5 -5t22.5 -1q26 0 42 7.5t16 25.5z" />
    <glyph glyph-name="Egrave" unicode="&#xc8;" horiz-adv-x="563" 
d="M85 692h409v-100h-283v-191h269v-100h-269v-201h298v-100h-424v692zM378 755h-113l-155 146h147z" />
    <glyph glyph-name="Eacute" unicode="&#xc9;" horiz-adv-x="563" 
d="M85 692h409v-100h-283v-191h269v-100h-269v-201h298v-100h-424v692zM327 901h147l-155 -146h-113z" />
    <glyph glyph-name="Ecircumflex" unicode="&#xca;" horiz-adv-x="563" 
d="M85 692h409v-100h-283v-191h269v-100h-269v-201h298v-100h-424v692zM215 901h144l111 -146h-113l-70 91l-70 -91h-113z" />
    <glyph glyph-name="Edieresis" unicode="&#xcb;" horiz-adv-x="563" 
d="M85 692h409v-100h-283v-191h269v-100h-269v-201h298v-100h-424v692zM110 833q0 31 20.5 51t51.5 20q32 0 52.5 -20t20.5 -52q0 -31 -20.5 -52t-52.5 -21t-52 21t-20 53zM340 884q21 20 52 20q32 0 52 -20t20 -52q0 -31 -20 -52t-52 -21t-52.5 21t-20.5 53q0 31 21 51z
" />
    <glyph glyph-name="Igrave" unicode="&#xcc;" horiz-adv-x="296" 
d="M85 692h126v-692h-126v692zM239 755h-113l-155 146h147z" />
    <glyph glyph-name="Iacute" unicode="&#xcd;" horiz-adv-x="296" 
d="M85 692h126v-692h-126v692zM188 901h147l-155 -146h-113z" />
    <glyph glyph-name="Icircumflex" unicode="&#xce;" horiz-adv-x="296" 
d="M85 692h126v-692h-126v692zM76 901h144l111 -146h-113l-70 91l-70 -91h-113z" />
    <glyph glyph-name="Idieresis" unicode="&#xcf;" horiz-adv-x="296" 
d="M85 692h126v-692h-126v692zM-29 833q0 31 20.5 51t51.5 20q32 0 52.5 -20t20.5 -52q0 -31 -20.5 -52t-52.5 -21t-52 21t-20 53zM201 884q21 20 52 20q32 0 52 -20t20 -52q0 -31 -20 -52t-52 -21t-52.5 21t-20.5 53q0 31 21 51z" />
    <glyph glyph-name="Eth" unicode="&#xd0;" horiz-adv-x="690" 
d="M85 316h-84v73h84v303h177q69 0 118.5 -6.5t86 -21.5t67.5 -41q106 -88 106 -275q0 -103 -32.5 -178.5t-95.5 -116.5q-30 -19 -65 -31t-82 -17t-114 -5h-166v316zM510 347q0 69 -21.5 124t-59.5 83q-19 15 -40.5 23.5t-53.5 11.5t-83 3h-41v-203h137v-73h-137v-216h46
q112 0 168 38q41 29 63 83.5t22 125.5z" />
    <glyph glyph-name="Ntilde" unicode="&#xd1;" horiz-adv-x="727" 
d="M85 692h140l217 -363q24 -40 41.5 -72t40.5 -78q-2 21 -2 40v51v422h120v-692h-139l-211 352q-20 34 -33.5 58t-26 48t-29.5 58q2 -24 2.5 -40.5t0.5 -34.5v-47v-394h-121v692zM519.5 803q-27.5 -33 -69.5 -33q-18 0 -40 5t-56 16q-31 11 -43.5 14.5t-23.5 3.5
q-35 0 -41 -41h-69q5 57 32 90t69 33q18 0 40 -4.5t56 -16.5q32 -11 44 -14.5t23 -3.5q35 0 41 41h69q-4 -57 -31.5 -90z" />
    <glyph glyph-name="Ograve" unicode="&#xd2;" horiz-adv-x="743" 
d="M49 350q0 102 38.5 181.5t110.5 125.5t173 46q102 0 174.5 -46t110.5 -125.5t38 -181.5q0 -104 -37 -185.5t-109 -128.5t-177 -47q-104 0 -176 47t-109 128.5t-37 185.5zM180 349q0 -121 51.5 -191t139.5 -70q89 0 141 70t52 191q0 117 -52 186t-141 69q-88 0 -139.5 -69
t-51.5 -186zM463 755h-113l-155 146h147z" />
    <glyph glyph-name="Oacute" unicode="&#xd3;" horiz-adv-x="743" 
d="M49 350q0 102 38.5 181.5t110.5 125.5t173 46q102 0 174.5 -46t110.5 -125.5t38 -181.5q0 -104 -37 -185.5t-109 -128.5t-177 -47q-104 0 -176 47t-109 128.5t-37 185.5zM180 349q0 -121 51.5 -191t139.5 -70q89 0 141 70t52 191q0 117 -52 186t-141 69q-88 0 -139.5 -69
t-51.5 -186zM412 901h147l-155 -146h-113z" />
    <glyph glyph-name="Ocircumflex" unicode="&#xd4;" horiz-adv-x="743" 
d="M49 350q0 102 38.5 181.5t110.5 125.5t173 46q102 0 174.5 -46t110.5 -125.5t38 -181.5q0 -104 -37 -185.5t-109 -128.5t-177 -47q-104 0 -176 47t-109 128.5t-37 185.5zM180 349q0 -121 51.5 -191t139.5 -70q89 0 141 70t52 191q0 117 -52 186t-141 69q-88 0 -139.5 -69
t-51.5 -186zM300 901h144l111 -146h-113l-70 91l-70 -91h-113z" />
    <glyph glyph-name="Otilde" unicode="&#xd5;" horiz-adv-x="743" 
d="M49 350q0 102 38.5 181.5t110.5 125.5t173 46q102 0 174.5 -46t110.5 -125.5t38 -181.5q0 -104 -37 -185.5t-109 -128.5t-177 -47q-104 0 -176 47t-109 128.5t-37 185.5zM180 349q0 -121 51.5 -191t139.5 -70q89 0 141 70t52 191q0 117 -52 186t-141 69q-88 0 -139.5 -69
t-51.5 -186zM527.5 803q-27.5 -33 -69.5 -33q-18 0 -40 5t-56 16q-31 11 -43.5 14.5t-23.5 3.5q-35 0 -41 -41h-69q5 57 32 90t69 33q18 0 40 -4.5t56 -16.5q32 -11 44 -14.5t23 -3.5q35 0 41 41h69q-4 -57 -31.5 -90z" />
    <glyph glyph-name="Odieresis" unicode="&#xd6;" horiz-adv-x="743" 
d="M49 350q0 102 38.5 181.5t110.5 125.5t173 46q102 0 174.5 -46t110.5 -125.5t38 -181.5q0 -104 -37 -185.5t-109 -128.5t-177 -47q-104 0 -176 47t-109 128.5t-37 185.5zM180 349q0 -121 51.5 -191t139.5 -70q89 0 141 70t52 191q0 117 -52 186t-141 69q-88 0 -139.5 -69
t-51.5 -186zM195 833q0 31 20.5 51t51.5 20q32 0 52.5 -20t20.5 -52q0 -31 -20.5 -52t-52.5 -21t-52 21t-20 53zM425 884q21 20 52 20q32 0 52 -20t20 -52q0 -31 -20 -52t-52 -21t-52.5 21t-20.5 53q0 31 21 51z" />
    <glyph glyph-name="multiply" unicode="&#xd7;" horiz-adv-x="576" 
d="M514 414l-157 -157l159 -159l-71 -72l-160 160l-157 -157l-67 66l158 157l-160 160l72 72l160 -160l157 157z" />
    <glyph glyph-name="Oslash" unicode="&#xd8;" horiz-adv-x="743" 
d="M49 350q0 102 38.5 181.5t110.5 125.5t173 46q62 0 113.5 -18t91.5 -50l64 75l51 -44l-68 -80q71 -94 71 -236q0 -104 -37 -185.5t-109 -128.5t-177 -47q-63 0 -114 17.5t-90 49.5l-64 -74l-50 44l68 79q-72 96 -72 245zM538 489l-296 -345q50 -56 129 -56q89 0 141 70
t52 191q0 80 -26 140zM501 548q-51 56 -130 56q-88 0 -139.5 -69t-51.5 -186q0 -84 26 -145z" />
    <glyph glyph-name="Ugrave" unicode="&#xd9;" horiz-adv-x="699" 
d="M79 307v385h126v-409q0 -55 6 -90t20 -55q36 -50 118 -50q87 0 123 53q26 36 26 136v415h121v-385q0 -71 -3 -113t-11.5 -68t-25.5 -49q-67 -88 -230 -88q-174 0 -236 99q-13 22 -20.5 47t-10.5 65.5t-3 106.5zM441 755h-113l-155 146h147z" />
    <glyph glyph-name="Uacute" unicode="&#xda;" horiz-adv-x="699" 
d="M79 307v385h126v-409q0 -55 6 -90t20 -55q36 -50 118 -50q87 0 123 53q26 36 26 136v415h121v-385q0 -71 -3 -113t-11.5 -68t-25.5 -49q-67 -88 -230 -88q-174 0 -236 99q-13 22 -20.5 47t-10.5 65.5t-3 106.5zM390 901h147l-155 -146h-113z" />
    <glyph glyph-name="Ucircumflex" unicode="&#xdb;" horiz-adv-x="699" 
d="M79 307v385h126v-409q0 -55 6 -90t20 -55q36 -50 118 -50q87 0 123 53q26 36 26 136v415h121v-385q0 -71 -3 -113t-11.5 -68t-25.5 -49q-67 -88 -230 -88q-174 0 -236 99q-13 22 -20.5 47t-10.5 65.5t-3 106.5zM278 901h144l111 -146h-113l-70 91l-70 -91h-113z" />
    <glyph glyph-name="Udieresis" unicode="&#xdc;" horiz-adv-x="699" 
d="M79 307v385h126v-409q0 -55 6 -90t20 -55q36 -50 118 -50q87 0 123 53q26 36 26 136v415h121v-385q0 -71 -3 -113t-11.5 -68t-25.5 -49q-67 -88 -230 -88q-174 0 -236 99q-13 22 -20.5 47t-10.5 65.5t-3 106.5zM173 833q0 31 20.5 51t51.5 20q32 0 52.5 -20t20.5 -52
q0 -31 -20.5 -52t-52.5 -21t-52 21t-20 53zM403 884q21 20 52 20q32 0 52 -20t20 -52q0 -31 -20 -52t-52 -21t-52.5 21t-20.5 53q0 31 21 51z" />
    <glyph glyph-name="Yacute" unicode="&#xdd;" horiz-adv-x="621" 
d="M248 295l-255 397h146l126 -202q13 -21 23.5 -38.5t26.5 -47.5q17 31 27 48.5t24 39.5l124 200h137l-253 -397v-295h-126v295zM351 901h147l-155 -146h-113z" />
    <glyph glyph-name="Thorn" unicode="&#xde;" horiz-adv-x="555" 
d="M85 692h126v-136h45q81 0 125.5 -9t77.5 -33q37 -26 57 -69t20 -98q0 -54 -21 -97.5t-59 -69.5q-33 -22 -76.5 -31.5t-112.5 -9.5h-56v-139h-126v692zM408 344q0 47 -19 71.5t-54 34t-82 9.5h-42v-223h38q51 0 86.5 8t54 31.5t18.5 68.5z" />
    <glyph glyph-name="germandbls" unicode="&#xdf;" horiz-adv-x="602" 
d="M432 209q0 62 -35 98t-97 36h-8t-10 -1v91q112 1 112 113q0 50 -25 78t-70 28q-61 0 -80 -41.5t-19 -124.5v-486h-121v484q0 72 7.5 111t26.5 67q54 81 183 81q103 0 163.5 -49.5t60.5 -144.5q0 -116 -106 -154q144 -36 144 -189q0 -100 -59 -158.5t-160 -58.5
q-21 0 -40.5 2t-46.5 8l13 93q28 -7 49 -7q56 0 87 33t31 91z" />
    <glyph glyph-name="agrave" unicode="&#xe0;" horiz-adv-x="559" 
d="M38 144q0 95 76 140q26 14 64 21t93 7q18 0 35.5 -0.5t47.5 -1.5v8q0 115 -113 115q-33 0 -65 -9.5t-73 -32.5l-31 85q44 23 90.5 34t95.5 11q60 0 106 -17t72 -49q16 -18 24 -39t11.5 -52.5t3.5 -81.5v-152q0 -45 1.5 -76.5t3.5 -53.5h-115l-4 58q-37 -38 -72.5 -53.5
t-85.5 -15.5q-78 0 -121.5 41t-43.5 114zM163 146q0 -34 21.5 -55t55.5 -21q65 0 114 70v96q-18 1 -28.5 1.5t-23.5 0.5q-65 0 -102 -21t-37 -71zM355 585h-113l-155 146h147z" />
    <glyph glyph-name="aacute" unicode="&#xe1;" horiz-adv-x="559" 
d="M38 144q0 95 76 140q26 14 64 21t93 7q18 0 35.5 -0.5t47.5 -1.5v8q0 115 -113 115q-33 0 -65 -9.5t-73 -32.5l-31 85q44 23 90.5 34t95.5 11q60 0 106 -17t72 -49q16 -18 24 -39t11.5 -52.5t3.5 -81.5v-152q0 -45 1.5 -76.5t3.5 -53.5h-115l-4 58q-37 -38 -72.5 -53.5
t-85.5 -15.5q-78 0 -121.5 41t-43.5 114zM163 146q0 -34 21.5 -55t55.5 -21q65 0 114 70v96q-18 1 -28.5 1.5t-23.5 0.5q-65 0 -102 -21t-37 -71zM298 731h147l-155 -146h-113z" />
    <glyph glyph-name="acircumflex" unicode="&#xe2;" horiz-adv-x="559" 
d="M38 144q0 95 76 140q26 14 64 21t93 7q18 0 35.5 -0.5t47.5 -1.5v8q0 115 -113 115q-33 0 -65 -9.5t-73 -32.5l-31 85q44 23 90.5 34t95.5 11q60 0 106 -17t72 -49q16 -18 24 -39t11.5 -52.5t3.5 -81.5v-152q0 -45 1.5 -76.5t3.5 -53.5h-115l-4 58q-37 -38 -72.5 -53.5
t-85.5 -15.5q-78 0 -121.5 41t-43.5 114zM163 146q0 -34 21.5 -55t55.5 -21q65 0 114 70v96q-18 1 -28.5 1.5t-23.5 0.5q-65 0 -102 -21t-37 -71zM187 731h144l111 -146h-113l-70 91l-70 -91h-113z" />
    <glyph glyph-name="atilde" unicode="&#xe3;" horiz-adv-x="559" 
d="M38 144q0 95 76 140q26 14 64 21t93 7q18 0 35.5 -0.5t47.5 -1.5v8q0 115 -113 115q-33 0 -65 -9.5t-73 -32.5l-31 85q44 23 90.5 34t95.5 11q60 0 106 -17t72 -49q16 -18 24 -39t11.5 -52.5t3.5 -81.5v-152q0 -45 1.5 -76.5t3.5 -53.5h-115l-4 58q-37 -38 -72.5 -53.5
t-85.5 -15.5q-78 0 -121.5 41t-43.5 114zM163 146q0 -34 21.5 -55t55.5 -21q65 0 114 70v96q-18 1 -28.5 1.5t-23.5 0.5q-65 0 -102 -21t-37 -71zM414.5 629q-27.5 -33 -69.5 -33q-18 0 -40 5t-56 16q-31 11 -43.5 14.5t-23.5 3.5q-35 0 -41 -41h-69q5 57 32 90t69 33
q18 0 40 -4.5t56 -16.5q32 -11 44 -14.5t23 -3.5q35 0 41 41h69q-4 -57 -31.5 -90z" />
    <glyph glyph-name="adieresis" unicode="&#xe4;" horiz-adv-x="559" 
d="M38 144q0 95 76 140q26 14 64 21t93 7q18 0 35.5 -0.5t47.5 -1.5v8q0 115 -113 115q-33 0 -65 -9.5t-73 -32.5l-31 85q44 23 90.5 34t95.5 11q60 0 106 -17t72 -49q16 -18 24 -39t11.5 -52.5t3.5 -81.5v-152q0 -45 1.5 -76.5t3.5 -53.5h-115l-4 58q-37 -38 -72.5 -53.5
t-85.5 -15.5q-78 0 -121.5 41t-43.5 114zM163 146q0 -34 21.5 -55t55.5 -21q65 0 114 70v96q-18 1 -28.5 1.5t-23.5 0.5q-65 0 -102 -21t-37 -71zM294 675q0 30 19.5 49.5t50.5 19.5t50.5 -19.5t19.5 -50.5t-19.5 -50.5t-50.5 -19.5t-50.5 20t-19.5 51zM224 674
q0 -31 -19 -50.5t-51 -19.5q-31 0 -50.5 20t-19.5 51q0 30 20 49.5t50 19.5q32 0 51 -19.5t19 -50.5z" />
    <glyph glyph-name="aring" unicode="&#xe5;" horiz-adv-x="559" 
d="M38 144q0 95 76 140q26 14 64 21t93 7q18 0 35.5 -0.5t47.5 -1.5v8q0 115 -113 115q-33 0 -65 -9.5t-73 -32.5l-31 85q44 23 90.5 34t95.5 11q60 0 106 -17t72 -49q16 -18 24 -39t11.5 -52.5t3.5 -81.5v-152q0 -45 1.5 -76.5t3.5 -53.5h-115l-4 58q-37 -38 -72.5 -53.5
t-85.5 -15.5q-78 0 -121.5 41t-43.5 114zM163 146q0 -34 21.5 -55t55.5 -21q65 0 114 70v96q-18 1 -28.5 1.5t-23.5 0.5q-65 0 -102 -21t-37 -71zM150 674q0 45 31.5 76t77.5 31q47 0 78 -31t31 -77t-31 -77t-78 -31t-78 31t-31 78zM209 673q0 -25 14 -39t36 -14
q23 0 36 14.5t13 38.5t-13 38.5t-36 14.5q-22 0 -36 -14.5t-14 -38.5z" />
    <glyph glyph-name="ae" unicode="&#xe6;" horiz-adv-x="873" 
d="M38 141q0 92 62.5 129.5t169.5 37.5q19 0 36.5 -0.5t47.5 -2.5v14q0 56 -29 85t-85 29q-33 0 -65.5 -9.5t-71.5 -32.5l-31 85q44 23 90.5 34t95.5 11q118 0 175 -63q33 32 71 47.5t90 15.5q92 0 143.5 -35.5t72.5 -103.5t21 -165h-354q6 -68 38.5 -103.5t103.5 -35.5
q77 0 154 49l42 -88q-46 -25 -94.5 -37.5t-107.5 -12.5q-79 0 -125.5 20t-80.5 69q-38 -49 -82.5 -69t-112.5 -20q-82 0 -128 39t-46 113zM163 145q0 -34 21.5 -54.5t55.5 -20.5q66 0 114 70v90q-18 2 -28 2h-24q-71 0 -105 -21.5t-34 -65.5zM675.5 399q-29.5 34 -81.5 34
q-54 0 -82.5 -34.5t-34.5 -97.5h230q-2 64 -31.5 98z" />
    <glyph glyph-name="ccedilla" unicode="&#xe7;" horiz-adv-x="484" 
d="M44 254q0 123 63.5 195t179.5 72q46 0 85.5 -9t81.5 -29l-36 -89q-60 37 -117 37q-63 0 -97 -45.5t-34 -130.5q0 -83 37 -129t104 -46q59 0 115 40l39 -88q-73 -43 -167 -43q-119 0 -186.5 70.5t-67.5 194.5zM298 -124q0 29 -45 29q-13 0 -23.5 -2t-23.5 -6l22 110h57
l-9 -50q7 1 12 1q51 0 79.5 -21t28.5 -59q0 -52 -37 -75t-95 -23q-34 0 -76 9l4 60q15 -4 25.5 -5t22.5 -1q26 0 42 7.5t16 25.5z" />
    <glyph glyph-name="egrave" unicode="&#xe8;" horiz-adv-x="570" 
d="M44 254q0 123 65.5 195t181.5 72q92 0 143.5 -35.5t72.5 -103.5t21 -165h-357q7 -68 41 -103.5t105 -35.5q76 0 153 49l42 -88q-46 -25 -93.5 -37.5t-103.5 -12.5q-130 0 -200.5 68.5t-70.5 196.5zM373 399q-29 34 -82 34q-54 0 -83.5 -34.5t-36.5 -97.5h233
q-2 64 -31 98zM382 585h-113l-155 146h147z" />
    <glyph glyph-name="eacute" unicode="&#xe9;" horiz-adv-x="570" 
d="M44 254q0 123 65.5 195t181.5 72q92 0 143.5 -35.5t72.5 -103.5t21 -165h-357q7 -68 41 -103.5t105 -35.5q76 0 153 49l42 -88q-46 -25 -93.5 -37.5t-103.5 -12.5q-130 0 -200.5 68.5t-70.5 196.5zM373 399q-29 34 -82 34q-54 0 -83.5 -34.5t-36.5 -97.5h233
q-2 64 -31 98zM325 731h147l-155 -146h-113z" />
    <glyph glyph-name="ecircumflex" unicode="&#xea;" horiz-adv-x="570" 
d="M44 254q0 123 65.5 195t181.5 72q92 0 143.5 -35.5t72.5 -103.5t21 -165h-357q7 -68 41 -103.5t105 -35.5q76 0 153 49l42 -88q-46 -25 -93.5 -37.5t-103.5 -12.5q-130 0 -200.5 68.5t-70.5 196.5zM373 399q-29 34 -82 34q-54 0 -83.5 -34.5t-36.5 -97.5h233
q-2 64 -31 98zM214 731h144l111 -146h-113l-70 91l-70 -91h-113z" />
    <glyph glyph-name="edieresis" unicode="&#xeb;" horiz-adv-x="570" 
d="M44 254q0 123 65.5 195t181.5 72q92 0 143.5 -35.5t72.5 -103.5t21 -165h-357q7 -68 41 -103.5t105 -35.5q76 0 153 49l42 -88q-46 -25 -93.5 -37.5t-103.5 -12.5q-130 0 -200.5 68.5t-70.5 196.5zM373 399q-29 34 -82 34q-54 0 -83.5 -34.5t-36.5 -97.5h233
q-2 64 -31 98zM321 675q0 30 19.5 49.5t50.5 19.5t50.5 -19.5t19.5 -50.5t-19.5 -50.5t-50.5 -19.5t-50.5 20t-19.5 51zM251 674q0 -31 -19 -50.5t-51 -19.5q-31 0 -50.5 20t-19.5 51q0 30 20 49.5t50 19.5q32 0 51 -19.5t19 -50.5z" />
    <glyph glyph-name="igrave" unicode="&#xec;" horiz-adv-x="283" 
d="M81 510h121v-510h-121v510zM238 585h-113l-155 146h147z" />
    <glyph glyph-name="iacute" unicode="&#xed;" horiz-adv-x="283" 
d="M81 510h121v-510h-121v510zM181 731h147l-155 -146h-113z" />
    <glyph glyph-name="icircumflex" unicode="&#xee;" horiz-adv-x="283" 
d="M81 510h121v-510h-121v510zM70 731h144l111 -146h-113l-70 91l-70 -91h-113z" />
    <glyph glyph-name="idieresis" unicode="&#xef;" horiz-adv-x="283" 
d="M81 510h121v-510h-121v510zM177 675q0 30 19.5 49.5t50.5 19.5t50.5 -19.5t19.5 -50.5t-19.5 -50.5t-50.5 -19.5t-50.5 20t-19.5 51zM107 674q0 -31 -19 -50.5t-51 -19.5q-31 0 -50.5 20t-19.5 51q0 30 20 49.5t50 19.5q32 0 51 -19.5t19 -50.5z" />
    <glyph glyph-name="eth" unicode="&#xf0;" horiz-adv-x="570" 
d="M44 236q0 73 26 126t73 82.5t111 29.5q28 0 48 -4.5t45 -15.5q-37 67 -90 112l-141 -65l-22 53l108 50q-50 28 -112 43l28 93q55 -10 105 -31t93 -53l132 61l24 -52l-107 -49q75 -70 118 -166t43 -203q0 -124 -64 -191t-181 -67q-111 0 -174 66t-63 181zM170 235
q0 -73 30.5 -114t82.5 -41q57 0 87 45t30 110q0 69 -31.5 109t-86.5 40q-53 0 -82.5 -39t-29.5 -110z" />
    <glyph glyph-name="ntilde" unicode="&#xf1;" horiz-adv-x="616" 
d="M83 330q0 37 -0.5 65t-1.5 55t-3 60h114l4 -75q46 47 86 66.5t94 19.5q65 0 100 -25.5t48.5 -73t13.5 -115.5v-307h-121v301q0 40 -5.5 68.5t-22.5 44.5t-53 16q-69 0 -132 -86v-344h-121v330zM463.5 629q-27.5 -33 -69.5 -33q-18 0 -40 5t-56 16q-31 11 -43.5 14.5
t-23.5 3.5q-35 0 -41 -41h-69q5 57 32 90t69 33q18 0 40 -4.5t56 -16.5q32 -11 44 -14.5t23 -3.5q35 0 41 41h69q-4 -57 -31.5 -90z" />
    <glyph glyph-name="ograve" unicode="&#xf2;" horiz-adv-x="591" 
d="M44 258q0 81 30.5 140t87 91t134.5 32t134.5 -32t86.5 -91t30 -140q0 -123 -65.5 -196t-185.5 -73q-121 0 -186.5 73t-65.5 196zM170 257q0 -84 33.5 -131t92.5 -47t92.5 47t33.5 131q0 81 -33.5 127.5t-92.5 46.5q-58 0 -92 -46.5t-34 -127.5zM392 585h-113l-155 146
h147z" />
    <glyph glyph-name="oacute" unicode="&#xf3;" horiz-adv-x="591" 
d="M44 258q0 81 30.5 140t87 91t134.5 32t134.5 -32t86.5 -91t30 -140q0 -123 -65.5 -196t-185.5 -73q-121 0 -186.5 73t-65.5 196zM170 257q0 -84 33.5 -131t92.5 -47t92.5 47t33.5 131q0 81 -33.5 127.5t-92.5 46.5q-58 0 -92 -46.5t-34 -127.5zM335 731h147l-155 -146
h-113z" />
    <glyph glyph-name="ocircumflex" unicode="&#xf4;" horiz-adv-x="591" 
d="M44 258q0 81 30.5 140t87 91t134.5 32t134.5 -32t86.5 -91t30 -140q0 -123 -65.5 -196t-185.5 -73q-121 0 -186.5 73t-65.5 196zM170 257q0 -84 33.5 -131t92.5 -47t92.5 47t33.5 131q0 81 -33.5 127.5t-92.5 46.5q-58 0 -92 -46.5t-34 -127.5zM224 731h144l111 -146
h-113l-70 91l-70 -91h-113z" />
    <glyph glyph-name="otilde" unicode="&#xf5;" horiz-adv-x="591" 
d="M44 258q0 81 30.5 140t87 91t134.5 32t134.5 -32t86.5 -91t30 -140q0 -123 -65.5 -196t-185.5 -73q-121 0 -186.5 73t-65.5 196zM170 257q0 -84 33.5 -131t92.5 -47t92.5 47t33.5 131q0 81 -33.5 127.5t-92.5 46.5q-58 0 -92 -46.5t-34 -127.5zM451.5 629
q-27.5 -33 -69.5 -33q-18 0 -40 5t-56 16q-31 11 -43.5 14.5t-23.5 3.5q-35 0 -41 -41h-69q5 57 32 90t69 33q18 0 40 -4.5t56 -16.5q32 -11 44 -14.5t23 -3.5q35 0 41 41h69q-4 -57 -31.5 -90z" />
    <glyph glyph-name="odieresis" unicode="&#xf6;" horiz-adv-x="591" 
d="M44 258q0 81 30.5 140t87 91t134.5 32t134.5 -32t86.5 -91t30 -140q0 -123 -65.5 -196t-185.5 -73q-121 0 -186.5 73t-65.5 196zM170 257q0 -84 33.5 -131t92.5 -47t92.5 47t33.5 131q0 81 -33.5 127.5t-92.5 46.5q-58 0 -92 -46.5t-34 -127.5zM331 675q0 30 19.5 49.5
t50.5 19.5t50.5 -19.5t19.5 -50.5t-19.5 -50.5t-50.5 -19.5t-50.5 20t-19.5 51zM261 674q0 -31 -19 -50.5t-51 -19.5q-31 0 -50.5 20t-19.5 51q0 30 20 49.5t50 19.5q32 0 51 -19.5t19 -50.5z" />
    <glyph glyph-name="divide" unicode="&#xf7;" horiz-adv-x="576" 
d="M33 302h510v-94h-510v94zM216 432q0 30 20.5 50t51.5 20t51.5 -20t20.5 -51t-20.5 -51.5t-51.5 -20.5t-51.5 20.5t-20.5 52.5zM216 80q0 30 20.5 50.5t51.5 20.5q30 0 50.5 -20.5t20.5 -51.5t-20.5 -51t-50.5 -20q-31 0 -51.5 20t-20.5 52z" />
    <glyph glyph-name="oslash" unicode="&#xf8;" horiz-adv-x="591" 
d="M44 258q0 81 30.5 140t87 91t134.5 32q97 0 161 -51l61 63l46 -45l-63 -65q46 -66 46 -165q0 -123 -65.5 -196t-185.5 -73q-100 0 -165 52l-61 -63l-45 45l64 66q-45 67 -45 169zM413 332l-205 -212q33 -41 88 -41q59 0 92.5 47t33.5 131q0 41 -9 75zM382 392
q-33 39 -86 39q-58 0 -92 -46.5t-34 -127.5q0 -42 9 -75z" />
    <glyph glyph-name="ugrave" unicode="&#xf9;" horiz-adv-x="611" 
d="M78 203v307h121v-301q0 -59 14 -94t65 -35q66 0 129 86v344h121v-330q0 -40 0.5 -67.5t1.5 -52.5t3 -60h-114l-4 75q-44 -46 -84.5 -66t-92.5 -20q-64 0 -99 25.5t-48 73.5t-13 115zM402 585h-113l-155 146h147z" />
    <glyph glyph-name="uacute" unicode="&#xfa;" horiz-adv-x="611" 
d="M78 203v307h121v-301q0 -59 14 -94t65 -35q66 0 129 86v344h121v-330q0 -40 0.5 -67.5t1.5 -52.5t3 -60h-114l-4 75q-44 -46 -84.5 -66t-92.5 -20q-64 0 -99 25.5t-48 73.5t-13 115zM345 731h147l-155 -146h-113z" />
    <glyph glyph-name="ucircumflex" unicode="&#xfb;" horiz-adv-x="611" 
d="M78 203v307h121v-301q0 -59 14 -94t65 -35q66 0 129 86v344h121v-330q0 -40 0.5 -67.5t1.5 -52.5t3 -60h-114l-4 75q-44 -46 -84.5 -66t-92.5 -20q-64 0 -99 25.5t-48 73.5t-13 115zM234 731h144l111 -146h-113l-70 91l-70 -91h-113z" />
    <glyph glyph-name="udieresis" unicode="&#xfc;" horiz-adv-x="611" 
d="M78 203v307h121v-301q0 -59 14 -94t65 -35q66 0 129 86v344h121v-330q0 -40 0.5 -67.5t1.5 -52.5t3 -60h-114l-4 75q-44 -46 -84.5 -66t-92.5 -20q-64 0 -99 25.5t-48 73.5t-13 115zM341 675q0 30 19.5 49.5t50.5 19.5t50.5 -19.5t19.5 -50.5t-19.5 -50.5t-50.5 -19.5
t-50.5 20t-19.5 51zM271 674q0 -31 -19 -50.5t-51 -19.5q-31 0 -50.5 20t-19.5 51q0 30 20 49.5t50 19.5q32 0 51 -19.5t19 -50.5z" />
    <glyph glyph-name="yacute" unicode="&#xfd;" horiz-adv-x="542" 
d="M27 -115q35 -15 64 -15q40 0 67 30t55 109l-206 501h129l101 -256l15 -40t12 -32.5t15 -44.5q10 30 16 46.5t11.5 32t16.5 44.5l94 250h118l-206 -519q-30 -76 -58 -124t-64.5 -70.5t-94.5 -22.5q-28 0 -53.5 4.5t-52.5 13.5zM310 731h147l-155 -146h-113z" />
    <glyph glyph-name="thorn" unicode="&#xfe;" horiz-adv-x="600" 
d="M80 731h121v-284q33 39 68 56.5t81 17.5q63 0 109 -32.5t71.5 -92.5t25.5 -141q0 -77 -24 -137t-69.5 -94.5t-112.5 -34.5q-49 0 -84 18t-65 58v-280h-121v946zM430 257q0 80 -30.5 126.5t-82.5 46.5q-67 0 -116 -85v-177q53 -88 119 -88q50 0 80 48.5t30 128.5z" />
    <glyph glyph-name="ydieresis" unicode="&#xff;" horiz-adv-x="542" 
d="M27 -115q35 -15 64 -15q40 0 67 30t55 109l-206 501h129l101 -256l15 -40t12 -32.5t15 -44.5q10 30 16 46.5t11.5 32t16.5 44.5l94 250h118l-206 -519q-30 -76 -58 -124t-64.5 -70.5t-94.5 -22.5q-28 0 -53.5 4.5t-52.5 13.5zM306 675q0 30 19.5 49.5t50.5 19.5
t50.5 -19.5t19.5 -50.5t-19.5 -50.5t-50.5 -19.5t-50.5 20t-19.5 51zM236 674q0 -31 -19 -50.5t-51 -19.5q-31 0 -50.5 20t-19.5 51q0 30 20 49.5t50 19.5q32 0 51 -19.5t19 -50.5z" />
    <glyph glyph-name="Amacron" unicode="&#x100;" horiz-adv-x="676" 
d="M135 0h-126l257 692h138l263 -692h-133l-70 196h-260zM311.5 498.5q-5.5 -15.5 -15.5 -43.5l-58 -163h192l-58 163q-8 23 -13.5 40t-11 34.5t-13.5 43.5q-8 -27 -12.5 -43t-10 -31.5zM171 858h334v-76h-334v76z" />
    <glyph glyph-name="amacron" unicode="&#x101;" horiz-adv-x="559" 
d="M38 144q0 95 76 140q26 14 64 21t93 7q18 0 35.5 -0.5t47.5 -1.5v8q0 115 -113 115q-33 0 -65 -9.5t-73 -32.5l-31 85q44 23 90.5 34t95.5 11q60 0 106 -17t72 -49q16 -18 24 -39t11.5 -52.5t3.5 -81.5v-152q0 -45 1.5 -76.5t3.5 -53.5h-115l-4 58q-37 -38 -72.5 -53.5
t-85.5 -15.5q-78 0 -121.5 41t-43.5 114zM163 146q0 -34 21.5 -55t55.5 -21q65 0 114 70v96q-18 1 -28.5 1.5t-23.5 0.5q-65 0 -102 -21t-37 -71zM92 695h334v-76h-334v76z" />
    <glyph glyph-name="Abreve" unicode="&#x102;" horiz-adv-x="676" 
d="M135 0h-126l257 692h138l263 -692h-133l-70 196h-260zM311.5 498.5q-5.5 -15.5 -15.5 -43.5l-58 -163h192l-58 163q-8 23 -13.5 40t-11 34.5t-13.5 43.5q-8 -27 -12.5 -43t-10 -31.5zM461.5 789.5q-41.5 -37.5 -123.5 -37.5t-123 37.5t-43 118.5h75q4 -41 24.5 -59
t66.5 -18q47 0 67 18t24 59h75q-1 -81 -42.5 -118.5z" />
    <glyph glyph-name="abreve" unicode="&#x103;" horiz-adv-x="559" 
d="M38 144q0 95 76 140q26 14 64 21t93 7q18 0 35.5 -0.5t47.5 -1.5v8q0 115 -113 115q-33 0 -65 -9.5t-73 -32.5l-31 85q44 23 90.5 34t95.5 11q60 0 106 -17t72 -49q16 -18 24 -39t11.5 -52.5t3.5 -81.5v-152q0 -45 1.5 -76.5t3.5 -53.5h-115l-4 58q-37 -38 -72.5 -53.5
t-85.5 -15.5q-78 0 -121.5 41t-43.5 114zM163 146q0 -34 21.5 -55t55.5 -21q65 0 114 70v96q-18 1 -28.5 1.5t-23.5 0.5q-65 0 -102 -21t-37 -71zM382.5 612.5q-41.5 -37.5 -123.5 -37.5t-123 37.5t-43 118.5h75q4 -41 24.5 -59t66.5 -18q47 0 67 18t24 59h75
q-1 -81 -42.5 -118.5z" />
    <glyph glyph-name="Aogonek" unicode="&#x104;" horiz-adv-x="676" 
d="M135 0h-126l257 692h138l263 -692h-133l-70 196h-260zM311.5 498.5q-5.5 -15.5 -15.5 -43.5l-58 -163h192l-58 163q-8 23 -13.5 40t-11 34.5t-13.5 43.5q-8 -27 -12.5 -43t-10 -31.5zM443 -124q0 37 25.5 70.5t64.5 53.5h120q-29 -3 -54.5 -17.5t-41.5 -36.5t-16 -49
q0 -25 16.5 -39.5t46.5 -14.5q11 0 19 1.5t21 5.5l6 -60q-40 -10 -70 -10q-66 0 -101.5 25t-35.5 71z" />
    <glyph glyph-name="aogonek" unicode="&#x105;" horiz-adv-x="559" 
d="M38 144q0 95 76 140q26 14 64 21t93 7q18 0 35.5 -0.5t47.5 -1.5v8q0 115 -113 115q-33 0 -65 -9.5t-73 -32.5l-31 85q44 23 90.5 34t95.5 11q60 0 106 -17t72 -49q16 -18 24 -39t11.5 -52.5t3.5 -81.5v-152q0 -45 1.5 -76.5t3.5 -53.5h-115l-4 58q-37 -38 -72.5 -53.5
t-85.5 -15.5q-78 0 -121.5 41t-43.5 114zM163 146q0 -34 21.5 -55t55.5 -21q65 0 114 70v96q-18 1 -28.5 1.5t-23.5 0.5q-65 0 -102 -21t-37 -71zM269 -124q0 41 34 80t88 63l88 -19q-46 -4 -79 -33.5t-33 -69.5q0 -25 16.5 -39.5t46.5 -14.5q11 0 19 1.5t21 5.5l6 -60
q-40 -10 -70 -10q-66 0 -101.5 25t-35.5 71z" />
    <glyph glyph-name="Cacute" unicode="&#x106;" horiz-adv-x="613" 
d="M49 340q0 112 40.5 193t115.5 125.5t178 44.5q54 0 101 -10.5t104 -35.5l-41 -97q-43 23 -81 33.5t-77 10.5q-67 0 -114 -33.5t-71 -92t-24 -134.5q0 -118 57.5 -187t157.5 -69q43 0 80 11t85 36l35 -100q-38 -17 -70.5 -27.5t-64.5 -14.5t-71 -4q-108 0 -184 42.5
t-116 121.5t-40 187zM416 901h147l-155 -146h-113z" />
    <glyph glyph-name="cacute" unicode="&#x107;" horiz-adv-x="484" 
d="M44 254q0 123 63.5 195t179.5 72q46 0 85.5 -9t81.5 -29l-36 -89q-60 37 -117 37q-63 0 -97 -45.5t-34 -130.5q0 -83 37 -129t104 -46q59 0 115 40l39 -88q-73 -43 -167 -43q-119 0 -186.5 70.5t-67.5 194.5zM294 731h147l-155 -146h-113z" />
    <glyph glyph-name="Ccircumflex" unicode="&#x108;" horiz-adv-x="613" 
d="M49 340q0 112 40.5 193t115.5 125.5t178 44.5q54 0 101 -10.5t104 -35.5l-41 -97q-43 23 -81 33.5t-77 10.5q-67 0 -114 -33.5t-71 -92t-24 -134.5q0 -118 57.5 -187t157.5 -69q43 0 80 11t85 36l35 -100q-38 -17 -70.5 -27.5t-64.5 -14.5t-71 -4q-108 0 -184 42.5
t-116 121.5t-40 187zM304 901h144l111 -146h-113l-70 91l-70 -91h-113z" />
    <glyph glyph-name="ccircumflex" unicode="&#x109;" horiz-adv-x="484" 
d="M44 254q0 123 63.5 195t179.5 72q46 0 85.5 -9t81.5 -29l-36 -89q-60 37 -117 37q-63 0 -97 -45.5t-34 -130.5q0 -83 37 -129t104 -46q59 0 115 40l39 -88q-73 -43 -167 -43q-119 0 -186.5 70.5t-67.5 194.5zM183 731h144l111 -146h-113l-70 91l-70 -91h-113z" />
    <glyph glyph-name="Cdotaccent" unicode="&#x10a;" horiz-adv-x="613" 
d="M49 340q0 112 40.5 193t115.5 125.5t178 44.5q54 0 101 -10.5t104 -35.5l-41 -97q-43 23 -81 33.5t-77 10.5q-67 0 -114 -33.5t-71 -92t-24 -134.5q0 -118 57.5 -187t157.5 -69q43 0 80 11t85 36l35 -100q-38 -17 -70.5 -27.5t-64.5 -14.5t-71 -4q-108 0 -184 42.5
t-116 121.5t-40 187zM304 833q0 31 20.5 51t51.5 20q32 0 52 -20t20 -52q0 -31 -20 -52t-52 -21t-52 21t-20 53z" />
    <glyph glyph-name="cdotaccent" unicode="&#x10b;" horiz-adv-x="484" 
d="M44 254q0 123 63.5 195t179.5 72q46 0 85.5 -9t81.5 -29l-36 -89q-60 37 -117 37q-63 0 -97 -45.5t-34 -130.5q0 -83 37 -129t104 -46q59 0 115 40l39 -88q-73 -43 -167 -43q-119 0 -186.5 70.5t-67.5 194.5zM181 673q0 32 21 52.5t53 20.5t53 -21t21 -53t-21 -53
t-53 -21q-33 0 -53.5 21t-20.5 54z" />
    <glyph glyph-name="Ccaron" unicode="&#x10c;" horiz-adv-x="613" 
d="M49 340q0 112 40.5 193t115.5 125.5t178 44.5q54 0 101 -10.5t104 -35.5l-41 -97q-43 23 -81 33.5t-77 10.5q-67 0 -114 -33.5t-71 -92t-24 -134.5q0 -118 57.5 -187t157.5 -69q43 0 80 11t85 36l35 -100q-38 -17 -70.5 -27.5t-64.5 -14.5t-71 -4q-108 0 -184 42.5
t-116 121.5t-40 187zM193 901h113l70 -91l70 91h113l-111 -146h-144z" />
    <glyph glyph-name="ccaron" unicode="&#x10d;" horiz-adv-x="484" 
d="M44 254q0 123 63.5 195t179.5 72q46 0 85.5 -9t81.5 -29l-36 -89q-60 37 -117 37q-63 0 -97 -45.5t-34 -130.5q0 -83 37 -129t104 -46q59 0 115 40l39 -88q-73 -43 -167 -43q-119 0 -186.5 70.5t-67.5 194.5zM72 731h113l70 -91l70 91h113l-111 -146h-144z" />
    <glyph glyph-name="Dcaron" unicode="&#x10e;" horiz-adv-x="690" 
d="M85 692h177q69 0 118.5 -6.5t86 -21.5t67.5 -41q106 -88 106 -275q0 -103 -32.5 -178.5t-95.5 -116.5q-30 -19 -65 -31t-82 -17t-114 -5h-166v692zM510 347q0 69 -21.5 124t-59.5 83q-19 15 -40.5 23.5t-53.5 11.5t-83 3h-41v-492h46q112 0 168 38q41 29 63 83.5
t22 125.5zM180 901h113l70 -91l70 91h113l-111 -146h-144z" />
    <glyph glyph-name="dcaron" unicode="&#x10f;" horiz-adv-x="600" 
d="M44 255q0 81 25.5 141t72 92.5t108.5 32.5q92 0 149 -75v285h121v-552q0 -46 0.5 -73.5t1.5 -50t3 -55.5h-117l-3 73q-34 -46 -69.5 -65t-85.5 -19q-66 0 -112 35t-70 95.5t-24 135.5zM170 254q0 -79 31 -126.5t83 -47.5q32 0 59.5 20.5t55.5 64.5v177q-46 88 -119 88
q-50 0 -80 -48t-30 -128zM657 731h124l-103 -259h-100z" />
    <glyph glyph-name="Dcroat" unicode="&#x110;" horiz-adv-x="690" 
d="M85 316h-84v73h84v303h177q69 0 118.5 -6.5t86 -21.5t67.5 -41q106 -88 106 -275q0 -103 -32.5 -178.5t-95.5 -116.5q-30 -19 -65 -31t-82 -17t-114 -5h-166v316zM510 347q0 69 -21.5 124t-59.5 83q-19 15 -40.5 23.5t-53.5 11.5t-83 3h-41v-203h137v-73h-137v-216h46
q112 0 168 38q41 29 63 83.5t22 125.5z" />
    <glyph glyph-name="dcroat" unicode="&#x111;" horiz-adv-x="600" 
d="M44 255q0 81 25.5 141t72 92.5t108.5 32.5q90 0 149 -74v136h-144v76h144v72h121v-72h79v-76h-79v-404q0 -46 0.5 -73.5t1.5 -50t3 -55.5h-117l-4 73q-32 -46 -67.5 -65t-86.5 -19q-66 0 -112 35t-70 95.5t-24 135.5zM170 257q0 -80 30 -128.5t80 -48.5q67 0 119 88v177
q-49 85 -116 85q-52 0 -82.5 -46.5t-30.5 -126.5z" />
    <glyph glyph-name="Emacron" unicode="&#x112;" horiz-adv-x="563" 
d="M85 692h409v-100h-283v-191h269v-100h-269v-201h298v-100h-424v692zM120 858h334v-76h-334v76z" />
    <glyph glyph-name="emacron" unicode="&#x113;" horiz-adv-x="570" 
d="M44 254q0 123 65.5 195t181.5 72q92 0 143.5 -35.5t72.5 -103.5t21 -165h-357q7 -68 41 -103.5t105 -35.5q76 0 153 49l42 -88q-46 -25 -93.5 -37.5t-103.5 -12.5q-130 0 -200.5 68.5t-70.5 196.5zM373 399q-29 34 -82 34q-54 0 -83.5 -34.5t-36.5 -97.5h233
q-2 64 -31 98zM119 695h334v-76h-334v76z" />
    <glyph glyph-name="Ebreve" unicode="&#x114;" horiz-adv-x="563" 
d="M85 692h409v-100h-283v-191h269v-100h-269v-201h298v-100h-424v692zM410.5 789.5q-41.5 -37.5 -123.5 -37.5t-123 37.5t-43 118.5h75q4 -41 24.5 -59t66.5 -18q47 0 67 18t24 59h75q-1 -81 -42.5 -118.5z" />
    <glyph glyph-name="ebreve" unicode="&#x115;" horiz-adv-x="570" 
d="M44 254q0 123 65.5 195t181.5 72q92 0 143.5 -35.5t72.5 -103.5t21 -165h-357q7 -68 41 -103.5t105 -35.5q76 0 153 49l42 -88q-46 -25 -93.5 -37.5t-103.5 -12.5q-130 0 -200.5 68.5t-70.5 196.5zM373 399q-29 34 -82 34q-54 0 -83.5 -34.5t-36.5 -97.5h233
q-2 64 -31 98zM409.5 612.5q-41.5 -37.5 -123.5 -37.5t-123 37.5t-43 118.5h75q4 -41 24.5 -59t66.5 -18q47 0 67 18t24 59h75q-1 -81 -42.5 -118.5z" />
    <glyph glyph-name="Edotaccent" unicode="&#x116;" horiz-adv-x="563" 
d="M85 692h409v-100h-283v-191h269v-100h-269v-201h298v-100h-424v692zM215 833q0 31 20.5 51t51.5 20q32 0 52 -20t20 -52q0 -31 -20 -52t-52 -21t-52 21t-20 53z" />
    <glyph glyph-name="edotaccent" unicode="&#x117;" horiz-adv-x="570" 
d="M44 254q0 123 65.5 195t181.5 72q92 0 143.5 -35.5t72.5 -103.5t21 -165h-357q7 -68 41 -103.5t105 -35.5q76 0 153 49l42 -88q-46 -25 -93.5 -37.5t-103.5 -12.5q-130 0 -200.5 68.5t-70.5 196.5zM373 399q-29 34 -82 34q-54 0 -83.5 -34.5t-36.5 -97.5h233
q-2 64 -31 98zM212 673q0 32 21 52.5t53 20.5t53 -21t21 -53t-21 -53t-53 -21q-33 0 -53.5 21t-20.5 54z" />
    <glyph glyph-name="Eogonek" unicode="&#x118;" horiz-adv-x="563" 
d="M85 692h409v-100h-283v-191h269v-100h-269v-201h298v-100h-424v692zM299 -124q0 37 25.5 70.5t64.5 53.5h120q-29 -3 -54.5 -17.5t-41.5 -36.5t-16 -49q0 -25 16.5 -39.5t46.5 -14.5q11 0 19 1.5t21 5.5l6 -60q-40 -10 -70 -10q-66 0 -101.5 25t-35.5 71z" />
    <glyph glyph-name="eogonek" unicode="&#x119;" horiz-adv-x="570" 
d="M44 254q0 123 65.5 195t181.5 72q92 0 143.5 -35.5t72.5 -103.5t21 -165h-357q7 -68 41 -103.5t105 -35.5q76 0 153 49l42 -88q-46 -25 -93.5 -37.5t-103.5 -12.5q-130 0 -200.5 68.5t-70.5 196.5zM373 399q-29 34 -82 34q-54 0 -83.5 -34.5t-36.5 -97.5h233
q-2 64 -31 98zM243 -128q0 87 130 133l139 34q-41 -21 -62 -33q-58 -32 -84 -59.5t-26 -56.5q0 -22 17 -34.5t45 -12.5q9 0 18 1t23 4l6 -59q-23 -4 -41.5 -6.5t-36.5 -2.5q-59 0 -93.5 25t-34.5 67z" />
    <glyph glyph-name="Ecaron" unicode="&#x11a;" horiz-adv-x="563" 
d="M85 692h409v-100h-283v-191h269v-100h-269v-201h298v-100h-424v692zM104 901h113l70 -91l70 91h113l-111 -146h-144z" />
    <glyph glyph-name="ecaron" unicode="&#x11b;" horiz-adv-x="570" 
d="M44 254q0 123 65.5 195t181.5 72q92 0 143.5 -35.5t72.5 -103.5t21 -165h-357q7 -68 41 -103.5t105 -35.5q76 0 153 49l42 -88q-46 -25 -93.5 -37.5t-103.5 -12.5q-130 0 -200.5 68.5t-70.5 196.5zM373 399q-29 34 -82 34q-54 0 -83.5 -34.5t-36.5 -97.5h233
q-2 64 -31 98zM103 731h113l70 -91l70 91h113l-111 -146h-144z" />
    <glyph glyph-name="Gcircumflex" unicode="&#x11c;" horiz-adv-x="710" 
d="M49 338q0 112 42 194t120.5 126.5t187.5 44.5q61 0 114.5 -11t111.5 -37l-41 -98q-50 26 -91.5 36.5t-88.5 10.5q-73 0 -123 -33t-75.5 -92t-25.5 -137q0 -77 27 -134.5t77 -88.5t117 -31q52 0 103 19v168h-126v100h249v-343q-67 -23 -120 -33t-112 -10q-109 0 -186.5 42
t-118.5 120.5t-41 186.5zM303 901h144l111 -146h-113l-70 91l-70 -91h-113z" />
    <glyph glyph-name="gcircumflex" unicode="&#x11d;" horiz-adv-x="605" 
d="M401 50v36q-34 -39 -69 -56.5t-82 -17.5q-63 0 -109 31t-71.5 88t-25.5 133q0 78 25.5 135.5t72 89.5t108.5 32q101 0 157 -81l4 70h116q-2 -47 -3 -80t-1.5 -60.5t-0.5 -60.5v-250q0 -58 -3.5 -95t-13.5 -62t-28 -47q-63 -81 -212 -81q-108 0 -199 45l37 89
q76 -44 152 -44q60 0 91.5 21.5t43 63t11.5 101.5zM401 336q-19 44 -51 69t-70 25q-51 0 -80.5 -44.5t-29.5 -121.5q0 -74 30 -117t82 -43q35 0 66 22.5t53 63.5v146zM209 731h144l111 -146h-113l-70 91l-70 -91h-113z" />
    <glyph glyph-name="Gbreve" unicode="&#x11e;" horiz-adv-x="710" 
d="M49 338q0 112 42 194t120.5 126.5t187.5 44.5q61 0 114.5 -11t111.5 -37l-41 -98q-50 26 -91.5 36.5t-88.5 10.5q-73 0 -123 -33t-75.5 -92t-25.5 -137q0 -77 27 -134.5t77 -88.5t117 -31q52 0 103 19v168h-126v100h249v-343q-67 -23 -120 -33t-112 -10q-109 0 -186.5 42
t-118.5 120.5t-41 186.5zM498.5 789.5q-41.5 -37.5 -123.5 -37.5t-123 37.5t-43 118.5h75q4 -41 24.5 -59t66.5 -18q47 0 67 18t24 59h75q-1 -81 -42.5 -118.5z" />
    <glyph glyph-name="gbreve" unicode="&#x11f;" horiz-adv-x="605" 
d="M401 50v36q-34 -39 -69 -56.5t-82 -17.5q-63 0 -109 31t-71.5 88t-25.5 133q0 78 25.5 135.5t72 89.5t108.5 32q101 0 157 -81l4 70h116q-2 -47 -3 -80t-1.5 -60.5t-0.5 -60.5v-250q0 -58 -3.5 -95t-13.5 -62t-28 -47q-63 -81 -212 -81q-108 0 -199 45l37 89
q76 -44 152 -44q60 0 91.5 21.5t43 63t11.5 101.5zM401 336q-19 44 -51 69t-70 25q-51 0 -80.5 -44.5t-29.5 -121.5q0 -74 30 -117t82 -43q35 0 66 22.5t53 63.5v146zM404.5 612.5q-41.5 -37.5 -123.5 -37.5t-123 37.5t-43 118.5h75q4 -41 24.5 -59t66.5 -18q47 0 67 18
t24 59h75q-1 -81 -42.5 -118.5z" />
    <glyph glyph-name="Gdotaccent" unicode="&#x120;" horiz-adv-x="710" 
d="M49 338q0 112 42 194t120.5 126.5t187.5 44.5q61 0 114.5 -11t111.5 -37l-41 -98q-50 26 -91.5 36.5t-88.5 10.5q-73 0 -123 -33t-75.5 -92t-25.5 -137q0 -77 27 -134.5t77 -88.5t117 -31q52 0 103 19v168h-126v100h249v-343q-67 -23 -120 -33t-112 -10q-109 0 -186.5 42
t-118.5 120.5t-41 186.5zM303 833q0 31 20.5 51t51.5 20q32 0 52 -20t20 -52q0 -31 -20 -52t-52 -21t-52 21t-20 53z" />
    <glyph glyph-name="gdotaccent" unicode="&#x121;" horiz-adv-x="605" 
d="M401 50v36q-34 -39 -69 -56.5t-82 -17.5q-63 0 -109 31t-71.5 88t-25.5 133q0 78 25.5 135.5t72 89.5t108.5 32q101 0 157 -81l4 70h116q-2 -47 -3 -80t-1.5 -60.5t-0.5 -60.5v-250q0 -58 -3.5 -95t-13.5 -62t-28 -47q-63 -81 -212 -81q-108 0 -199 45l37 89
q76 -44 152 -44q60 0 91.5 21.5t43 63t11.5 101.5zM401 336q-19 44 -51 69t-70 25q-51 0 -80.5 -44.5t-29.5 -121.5q0 -74 30 -117t82 -43q35 0 66 22.5t53 63.5v146zM207 673q0 32 21 52.5t53 20.5t53 -21t21 -53t-21 -53t-53 -21q-33 0 -53.5 21t-20.5 54z" />
    <glyph glyph-name="uni0122" unicode="&#x122;" horiz-adv-x="710" 
d="M49 338q0 112 42 194t120.5 126.5t187.5 44.5q61 0 114.5 -11t111.5 -37l-41 -98q-50 26 -91.5 36.5t-88.5 10.5q-73 0 -123 -33t-75.5 -92t-25.5 -137q0 -77 27 -134.5t77 -88.5t117 -31q52 0 103 19v168h-126v100h249v-343q-67 -23 -120 -33t-112 -10q-109 0 -186.5 42
t-118.5 120.5t-41 186.5zM345 -53h136l-141 -151h-113z" />
    <glyph glyph-name="uni0123" unicode="&#x123;" horiz-adv-x="605" 
d="M401 50v36q-34 -39 -69 -56.5t-82 -17.5q-63 0 -109 31t-71.5 88t-25.5 133q0 78 25.5 135.5t72 89.5t108.5 32q101 0 157 -81l4 70h116q-2 -47 -3 -80t-1.5 -60.5t-0.5 -60.5v-250q0 -58 -3.5 -95t-13.5 -62t-28 -47q-63 -81 -212 -81q-108 0 -199 45l37 89
q76 -44 152 -44q60 0 91.5 21.5t43 63t11.5 101.5zM401 336q-19 44 -51 69t-70 25q-51 0 -80.5 -44.5t-29.5 -121.5q0 -74 30 -117t82 -43q35 0 66 22.5t53 63.5v146zM339 581h-136l141 151h113z" />
    <glyph glyph-name="Hcircumflex" unicode="&#x124;" horiz-adv-x="707" 
d="M85 692h126v-289h285v289h125v-692h-125v304h-285v-304h-126v692zM282 901h144l111 -146h-113l-70 91l-70 -91h-113z" />
    <glyph glyph-name="hcircumflex" unicode="&#x125;" horiz-adv-x="616" 
d="M82 731h122v-289q40 42 80.5 60.5t91.5 18.5q65 0 100 -25t48.5 -73t13.5 -116v-307h-121v301q0 40 -5.5 68.5t-22.5 44.5t-53 16q-69 0 -132 -86v-344h-122v731zM71 915h144l111 -146h-113l-70 91l-70 -91h-113z" />
    <glyph glyph-name="Hbar" unicode="&#x126;" horiz-adv-x="707" 
d="M496 304h-285v-304h-126v506h-61v71h61v115h126v-115h285v115h125v-115h62v-71h-62v-506h-125v304zM496 506h-285v-103h285v103z" />
    <glyph glyph-name="hbar" unicode="&#x127;" horiz-adv-x="616" 
d="M82 583h-80v76h80v72h122v-72h142v-76h-142v-141q40 42 80.5 60.5t91.5 18.5q65 0 100 -25t48.5 -73t13.5 -116v-307h-121v301q0 40 -5.5 68.5t-22.5 44.5t-53 16q-69 0 -132 -86v-344h-122v583z" />
    <glyph glyph-name="Itilde" unicode="&#x128;" horiz-adv-x="296" 
d="M85 692h126v-692h-126v692zM303.5 803q-27.5 -33 -69.5 -33q-18 0 -40 5t-56 16q-31 11 -43.5 14.5t-23.5 3.5q-35 0 -41 -41h-69q5 57 32 90t69 33q18 0 40 -4.5t56 -16.5q32 -11 44 -14.5t23 -3.5q35 0 41 41h69q-4 -57 -31.5 -90z" />
    <glyph glyph-name="itilde" unicode="&#x129;" horiz-adv-x="283" 
d="M81 510h121v-510h-121v510zM297.5 629q-27.5 -33 -69.5 -33q-18 0 -40 5t-56 16q-31 11 -43.5 14.5t-23.5 3.5q-35 0 -41 -41h-69q5 57 32 90t69 33q18 0 40 -4.5t56 -16.5q32 -11 44 -14.5t23 -3.5q35 0 41 41h69q-4 -57 -31.5 -90z" />
    <glyph glyph-name="Imacron" unicode="&#x12a;" horiz-adv-x="296" 
d="M85 692h126v-692h-126v692zM-19 858h334v-76h-334v76z" />
    <glyph glyph-name="imacron" unicode="&#x12b;" horiz-adv-x="283" 
d="M81 510h121v-510h-121v510zM-25 695h334v-76h-334v76z" />
    <glyph glyph-name="Ibreve" unicode="&#x12c;" horiz-adv-x="296" 
d="M85 692h126v-692h-126v692zM271.5 789.5q-41.5 -37.5 -123.5 -37.5t-123 37.5t-43 118.5h75q4 -41 24.5 -59t66.5 -18q47 0 67 18t24 59h75q-1 -81 -42.5 -118.5z" />
    <glyph glyph-name="ibreve" unicode="&#x12d;" horiz-adv-x="283" 
d="M81 510h121v-510h-121v510zM265.5 612.5q-41.5 -37.5 -123.5 -37.5t-123 37.5t-43 118.5h75q4 -41 24.5 -59t66.5 -18q47 0 67 18t24 59h75q-1 -81 -42.5 -118.5z" />
    <glyph glyph-name="Iogonek" unicode="&#x12e;" horiz-adv-x="296" 
d="M85 692h126v-692h-126v692zM-5 -124q0 37 25.5 70.5t64.5 53.5h120q-29 -3 -54.5 -17.5t-41.5 -36.5t-16 -49q0 -25 16.5 -39.5t46.5 -14.5q11 0 19 1.5t21 5.5l6 -60q-40 -10 -70 -10q-66 0 -101.5 25t-35.5 71z" />
    <glyph glyph-name="iogonek" unicode="&#x12f;" horiz-adv-x="283" 
d="M68 673q0 32 21 52.5t53 20.5t53 -21t21 -53t-21 -53t-53 -21q-33 0 -53.5 21t-20.5 54zM81 510h121v-510h-121v510zM-8 -124q0 41 34 80t88 63l88 -19q-46 -4 -79 -33.5t-33 -69.5q0 -25 16.5 -39.5t46.5 -14.5q11 0 19 1.5t21 5.5l6 -60q-40 -10 -70 -10
q-66 0 -101.5 25t-35.5 71z" />
    <glyph glyph-name="Idotaccent" unicode="&#x130;" horiz-adv-x="296" 
d="M85 692h126v-692h-126v692zM76 833q0 31 20.5 51t51.5 20q32 0 52 -20t20 -52q0 -31 -20 -52t-52 -21t-52 21t-20 53z" />
    <glyph glyph-name="dotlessi" unicode="&#x131;" horiz-adv-x="283" 
d="M81 510h121v-510h-121v510z" />
    <glyph glyph-name="IJ" unicode="&#x132;" horiz-adv-x="710" 
d="M85 692h126v-692h-126v692zM505 230v462h126v-431q0 -63 -3.5 -101.5t-11.5 -62t-23 -43.5q-49 -65 -161 -65q-34 0 -64 5t-58 15l11 104q26 -12 46 -17t42 -5q60 0 78 34t18 105z" />
    <glyph glyph-name="ij" unicode="&#x133;" horiz-adv-x="534" 
d="M68 673q0 32 21 52.5t53 20.5t53 -21t21 -53t-21 -53t-53 -21q-33 0 -53.5 21t-20.5 54zM81 510h121v-510h-121v510zM332 -18v528h121v-512q0 -68 -6 -104t-23 -59q-40 -61 -135 -61q-40 0 -87 12l10 92q17 -5 28 -7t23 -2q38 0 53.5 25.5t15.5 87.5zM318 673
q0 32 21 52.5t53 20.5t53 -21t21 -53t-21 -53t-53 -21q-33 0 -53.5 21t-20.5 54z" />
    <glyph glyph-name="Jcircumflex" unicode="&#x134;" horiz-adv-x="414" 
d="M209 230v462h126v-431q0 -63 -3.5 -101.5t-11.5 -62t-23 -43.5q-49 -65 -161 -65q-34 0 -64 5t-58 15l11 104q26 -12 46 -17t42 -5q60 0 78 34t18 105zM200 901h144l111 -146h-113l-70 91l-70 -91h-113z" />
    <glyph glyph-name="jcircumflex" unicode="&#x135;" horiz-adv-x="293" 
d="M91 -18v528h121v-512q0 -68 -6 -104t-23 -59q-40 -61 -135 -61q-40 0 -87 12l10 92q17 -5 28 -7t23 -2q38 0 53.5 25.5t15.5 87.5zM79 731h144l111 -146h-113l-70 91l-70 -91h-113z" />
    <glyph glyph-name="uni0136" unicode="&#x136;" horiz-adv-x="641" 
d="M211 0h-126v692h126v-324l271 324h144l-273 -325l284 -367h-153l-273 360v-360zM314 -53h136l-141 -151h-113z" />
    <glyph glyph-name="uni0137" unicode="&#x137;" horiz-adv-x="545" 
d="M203 0h-121v731h121v-436l178 215h139l-194 -223l215 -287h-147l-191 261v-261zM250 -53h136l-141 -151h-112z" />
    <glyph glyph-name="kgreenlandic" unicode="&#x138;" horiz-adv-x="545" 
d="M203 0h-121v510h121v-215l178 215h139l-194 -223l215 -287h-147l-191 261v-261z" />
    <glyph glyph-name="Lacute" unicode="&#x139;" horiz-adv-x="508" 
d="M85 692h126v-592h298v-100h-424v692zM188 901h147l-155 -146h-113z" />
    <glyph glyph-name="lacute" unicode="&#x13a;" horiz-adv-x="285" 
d="M82 731h121v-731h-121v731zM182 915h147l-155 -146h-113z" />
    <glyph glyph-name="uni013B" unicode="&#x13b;" horiz-adv-x="508" 
d="M85 692h126v-592h298v-100h-424v692zM250 -53h136l-141 -151h-113z" />
    <glyph glyph-name="uni013C" unicode="&#x13c;" horiz-adv-x="285" 
d="M82 731h121v-731h-121v731zM101 -53h136l-141 -151h-112z" />
    <glyph glyph-name="Lcaron" unicode="&#x13d;" horiz-adv-x="508" 
d="M85 692h126v-592h298v-100h-424v692zM389 731h124l-103 -259h-100z" />
    <glyph glyph-name="lcaron" unicode="&#x13e;" horiz-adv-x="285" 
d="M82 731h121v-731h-121v731zM340 731h124l-103 -259h-100z" />
    <glyph glyph-name="Ldot" unicode="&#x13f;" horiz-adv-x="508" 
d="M85 692h126v-592h298v-100h-424v692zM325 368q0 33 22.5 55.5t56.5 22.5q35 0 57 -22.5t22 -57.5q0 -34 -22 -56t-57 -22q-34 0 -56.5 22.5t-22.5 57.5z" />
    <glyph glyph-name="ldot" unicode="&#x140;" horiz-adv-x="394" 
d="M82 731h121v-731h-121v731zM260 338q0 33 22.5 55.5t56.5 22.5q35 0 57 -22.5t22 -57.5q0 -34 -22 -56t-57 -22q-34 0 -56.5 22.5t-22.5 57.5z" />
    <glyph glyph-name="Lslash" unicode="&#x141;" horiz-adv-x="522" 
d="M99 281l-84 -58v87l84 58v324h125v-238l114 78v-87l-114 -78v-267h299v-100h-424v281z" />
    <glyph glyph-name="lslash" unicode="&#x142;" horiz-adv-x="309" 
d="M94 304l-83 -61v89l83 60v339h121v-250l83 60v-88l-83 -61v-392h-121v304z" />
    <glyph glyph-name="Nacute" unicode="&#x143;" horiz-adv-x="727" 
d="M85 692h140l217 -363q24 -40 41.5 -72t40.5 -78q-2 21 -2 40v51v422h120v-692h-139l-211 352q-20 34 -33.5 58t-26 48t-29.5 58q2 -24 2.5 -40.5t0.5 -34.5v-47v-394h-121v692zM404 901h147l-155 -146h-113z" />
    <glyph glyph-name="nacute" unicode="&#x144;" horiz-adv-x="616" 
d="M83 330q0 37 -0.5 65t-1.5 55t-3 60h114l4 -75q46 47 86 66.5t94 19.5q65 0 100 -25.5t48.5 -73t13.5 -115.5v-307h-121v301q0 40 -5.5 68.5t-22.5 44.5t-53 16q-69 0 -132 -86v-344h-121v330zM347 731h147l-155 -146h-113z" />
    <glyph glyph-name="uni0145" unicode="&#x145;" horiz-adv-x="727" 
d="M85 692h140l217 -363q24 -40 41.5 -72t40.5 -78q-2 21 -2 40v51v422h120v-692h-139l-211 352q-20 34 -33.5 58t-26 48t-29.5 58q2 -24 2.5 -40.5t0.5 -34.5v-47v-394h-121v692zM317 -53h136l-141 -151h-113z" />
    <glyph glyph-name="uni0146" unicode="&#x146;" horiz-adv-x="616" 
d="M83 330q0 37 -0.5 65t-1.5 55t-3 60h114l4 -75q46 47 86 66.5t94 19.5q65 0 100 -25.5t48.5 -73t13.5 -115.5v-307h-121v301q0 40 -5.5 68.5t-22.5 44.5t-53 16q-69 0 -132 -86v-344h-121v330zM269 -53h136l-141 -151h-112z" />
    <glyph glyph-name="Ncaron" unicode="&#x147;" horiz-adv-x="727" 
d="M85 692h140l217 -363q24 -40 41.5 -72t40.5 -78q-2 21 -2 40v51v422h120v-692h-139l-211 352q-20 34 -33.5 58t-26 48t-29.5 58q2 -24 2.5 -40.5t0.5 -34.5v-47v-394h-121v692zM181 901h113l70 -91l70 91h113l-111 -146h-144z" />
    <glyph glyph-name="ncaron" unicode="&#x148;" horiz-adv-x="616" 
d="M83 330q0 37 -0.5 65t-1.5 55t-3 60h114l4 -75q46 47 86 66.5t94 19.5q65 0 100 -25.5t48.5 -73t13.5 -115.5v-307h-121v301q0 40 -5.5 68.5t-22.5 44.5t-53 16q-69 0 -132 -86v-344h-121v330zM125 731h113l70 -91l70 91h113l-111 -146h-144z" />
    <glyph glyph-name="napostrophe" unicode="&#x149;" horiz-adv-x="740" 
d="M60 669h120l-82 -197h-98zM207 330q0 37 -0.5 65t-1.5 55t-3 60h114l4 -75q46 47 86 66.5t94 19.5q65 0 100 -25.5t48.5 -73t13.5 -115.5v-307h-121v301q0 40 -5.5 68.5t-22.5 44.5t-53 16q-69 0 -132 -86v-344h-121v330z" />
    <glyph glyph-name="Eng" unicode="&#x14a;" horiz-adv-x="727" 
d="M520 -30v30h-17l-211 352q-20 34 -33.5 58t-26 48.5t-29.5 57.5q2 -25 2.5 -41t0.5 -33.5v-47.5v-394h-121v692h140l217 -363q16 -27 28.5 -49t25 -46t28.5 -58q-1 23 -1.5 41.5t-0.5 52.5v422h120v-696q-1 -48 -4 -78t-8.5 -48.5t-16.5 -34.5q-40 -61 -135 -61
q-40 0 -87 12l10 92q18 -5 29 -7t22 -2q37 0 52.5 24.5t15.5 76.5z" />
    <glyph glyph-name="eng" unicode="&#x14b;" horiz-adv-x="616" 
d="M417 -18v319q0 40 -5.5 68.5t-22.5 44.5t-53 16q-69 0 -132 -86v-344h-121v330q0 37 -0.5 65t-1.5 55t-3 60h114l4 -75q46 47 86 66.5t94 19.5q65 0 100 -25.5t48.5 -73t13.5 -115.5v-311q0 -68 -6.5 -103t-22.5 -58q-40 -61 -136 -61q-39 0 -87 12l11 92q17 -5 28 -7
t22 -2q38 0 54 25.5t16 87.5z" />
    <glyph glyph-name="Omacron" unicode="&#x14c;" horiz-adv-x="743" 
d="M49 350q0 102 38.5 181.5t110.5 125.5t173 46q102 0 174.5 -46t110.5 -125.5t38 -181.5q0 -104 -37 -185.5t-109 -128.5t-177 -47q-104 0 -176 47t-109 128.5t-37 185.5zM180 349q0 -121 51.5 -191t139.5 -70q89 0 141 70t52 191q0 117 -52 186t-141 69q-88 0 -139.5 -69
t-51.5 -186zM205 858h334v-76h-334v76z" />
    <glyph glyph-name="omacron" unicode="&#x14d;" horiz-adv-x="591" 
d="M44 258q0 81 30.5 140t87 91t134.5 32t134.5 -32t86.5 -91t30 -140q0 -123 -65.5 -196t-185.5 -73q-121 0 -186.5 73t-65.5 196zM170 257q0 -84 33.5 -131t92.5 -47t92.5 47t33.5 131q0 81 -33.5 127.5t-92.5 46.5q-58 0 -92 -46.5t-34 -127.5zM129 695h334v-76h-334v76z
" />
    <glyph glyph-name="Obreve" unicode="&#x14e;" horiz-adv-x="743" 
d="M49 350q0 102 38.5 181.5t110.5 125.5t173 46q102 0 174.5 -46t110.5 -125.5t38 -181.5q0 -104 -37 -185.5t-109 -128.5t-177 -47q-104 0 -176 47t-109 128.5t-37 185.5zM180 349q0 -121 51.5 -191t139.5 -70q89 0 141 70t52 191q0 117 -52 186t-141 69q-88 0 -139.5 -69
t-51.5 -186zM495.5 789.5q-41.5 -37.5 -123.5 -37.5t-123 37.5t-43 118.5h75q4 -41 24.5 -59t66.5 -18q47 0 67 18t24 59h75q-1 -81 -42.5 -118.5z" />
    <glyph glyph-name="obreve" unicode="&#x14f;" horiz-adv-x="591" 
d="M44 258q0 81 30.5 140t87 91t134.5 32t134.5 -32t86.5 -91t30 -140q0 -123 -65.5 -196t-185.5 -73q-121 0 -186.5 73t-65.5 196zM170 257q0 -84 33.5 -131t92.5 -47t92.5 47t33.5 131q0 81 -33.5 127.5t-92.5 46.5q-58 0 -92 -46.5t-34 -127.5zM419.5 612.5
q-41.5 -37.5 -123.5 -37.5t-123 37.5t-43 118.5h75q4 -41 24.5 -59t66.5 -18q47 0 67 18t24 59h75q-1 -81 -42.5 -118.5z" />
    <glyph glyph-name="Ohungarumlaut" unicode="&#x150;" horiz-adv-x="743" 
d="M49 350q0 102 38.5 181.5t110.5 125.5t173 46q102 0 174.5 -46t110.5 -125.5t38 -181.5q0 -104 -37 -185.5t-109 -128.5t-177 -47q-104 0 -176 47t-109 128.5t-37 185.5zM180 349q0 -121 51.5 -191t139.5 -70q89 0 141 70t52 191q0 117 -52 186t-141 69q-88 0 -139.5 -69
t-51.5 -186zM317 901h145l-147 -146h-111zM519 901h146l-149 -146h-109z" />
    <glyph glyph-name="ohungarumlaut" unicode="&#x151;" horiz-adv-x="591" 
d="M44 258q0 81 30.5 140t87 91t134.5 32t134.5 -32t86.5 -91t30 -140q0 -123 -65.5 -196t-185.5 -73q-121 0 -186.5 73t-65.5 196zM170 257q0 -84 33.5 -131t92.5 -47t92.5 47t33.5 131q0 81 -33.5 127.5t-92.5 46.5q-58 0 -92 -46.5t-34 -127.5zM241 731h145l-147 -146
h-111zM443 731h146l-149 -146h-109z" />
    <glyph glyph-name="OE" unicode="&#x152;" horiz-adv-x="965" 
d="M49 347q0 99 34.5 175t96.5 117q42 29 93 41t127 12h496v-100h-284v-191h270v-100h-270v-201h299v-100h-465q-44 0 -73 1t-50 4t-42 8q-112 29 -172 115t-60 219zM180 350q0 -67 20 -119.5t57 -83.5q32 -26 74 -36.5t114 -10.5h42v492h-42q-57 0 -93.5 -4t-61 -15
t-45.5 -31q-32 -31 -48.5 -80t-16.5 -112z" />
    <glyph glyph-name="oe" unicode="&#x153;" horiz-adv-x="936" 
d="M44 255q0 82 30 141.5t84.5 92t129.5 32.5q121 0 187 -85q33 44 76.5 64.5t105.5 20.5q92 0 143.5 -35.5t72.5 -103.5t21 -165h-357q13 -139 144 -139q78 0 155 49l42 -88q-46 -25 -94 -37.5t-105 -12.5q-72 0 -120 20.5t-85 67.5q-36 -47 -79 -67.5t-104 -20.5
q-115 0 -181 71t-66 195zM170 257q0 -84 32 -131t90 -47t90 47t32 129q0 83 -32 129.5t-90 46.5q-57 0 -89.5 -46.5t-32.5 -127.5zM538 301h232q-2 64 -31.5 98t-82.5 34q-52 0 -83.5 -35t-34.5 -97z" />
    <glyph glyph-name="Racute" unicode="&#x154;" horiz-adv-x="597" 
d="M85 692h209q62 0 102 -8.5t68 -27.5q35 -23 54 -62t19 -86q0 -67 -35 -112.5t-100 -62.5q23 -9 38 -23t28.5 -40t32.5 -70l87 -200h-134l-63 148q-25 60 -43.5 90.5t-42 41t-63.5 10.5h-31v-290h-126v692zM409 494q0 43 -18.5 64.5t-52 29t-78.5 7.5h-52v-208h48
q73 0 113 24.5t40 82.5zM336 901h147l-155 -146h-113z" />
    <glyph glyph-name="racute" unicode="&#x155;" horiz-adv-x="393" 
d="M84 320q0 27 -1 61l-2 68t-2 61h114l4 -96q45 104 135 104q12 0 21.5 -1t23.5 -5l-7 -105q-24 4 -41 4q-44 0 -76 -30t-49 -86v-295h-120v320zM267 731h147l-155 -146h-113z" />
    <glyph glyph-name="uni0156" unicode="&#x156;" horiz-adv-x="597" 
d="M85 692h209q62 0 102 -8.5t68 -27.5q35 -23 54 -62t19 -86q0 -67 -35 -112.5t-100 -62.5q23 -9 38 -23t28.5 -40t32.5 -70l87 -200h-134l-63 148q-25 60 -43.5 90.5t-42 41t-63.5 10.5h-31v-290h-126v692zM409 494q0 43 -18.5 64.5t-52 29t-78.5 7.5h-52v-208h48
q73 0 113 24.5t40 82.5zM274 -53h136l-141 -151h-113z" />
    <glyph glyph-name="uni0157" unicode="&#x157;" horiz-adv-x="393" 
d="M84 320q0 27 -1 61l-2 68t-2 61h114l4 -96q45 104 135 104q12 0 21.5 -1t23.5 -5l-7 -105q-24 4 -41 4q-44 0 -76 -30t-49 -86v-295h-120v320zM101 -53h136l-141 -151h-112z" />
    <glyph glyph-name="Rcaron" unicode="&#x158;" horiz-adv-x="597" 
d="M85 692h209q62 0 102 -8.5t68 -27.5q35 -23 54 -62t19 -86q0 -67 -35 -112.5t-100 -62.5q23 -9 38 -23t28.5 -40t32.5 -70l87 -200h-134l-63 148q-25 60 -43.5 90.5t-42 41t-63.5 10.5h-31v-290h-126v692zM409 494q0 43 -18.5 64.5t-52 29t-78.5 7.5h-52v-208h48
q73 0 113 24.5t40 82.5zM113 901h113l70 -91l70 91h113l-111 -146h-144z" />
    <glyph glyph-name="rcaron" unicode="&#x159;" horiz-adv-x="393" 
d="M84 320q0 27 -1 61l-2 68t-2 61h114l4 -96q45 104 135 104q12 0 21.5 -1t23.5 -5l-7 -105q-24 4 -41 4q-44 0 -76 -30t-49 -86v-295h-120v320zM45 731h113l70 -91l70 91h113l-111 -146h-144z" />
    <glyph glyph-name="Sacute" unicode="&#x15a;" horiz-adv-x="555" 
d="M375 187q0 28 -12 45.5t-40.5 33t-80.5 36.5q-63 27 -106 51.5t-64.5 58t-21.5 87.5q0 96 63 150t168 54q47 0 93.5 -8t105.5 -27l-26 -104q-57 23 -93 31.5t-74 8.5q-49 0 -78 -24t-29 -63q0 -22 10 -38.5t36.5 -32t77.5 -36.5q69 -28 114 -54t67 -62t22 -97
q0 -99 -64.5 -153.5t-180.5 -54.5q-56 0 -105 8.5t-105 27.5l17 107q59 -23 103 -33.5t86 -10.5q54 0 85.5 26.5t31.5 72.5zM336 901h147l-155 -146h-113z" />
    <glyph glyph-name="sacute" unicode="&#x15b;" horiz-adv-x="459" 
d="M295 143q0 30 -23 43t-79 33q-47 17 -79.5 34.5t-49.5 44t-17 69.5q0 71 51 112.5t139 41.5q43 0 81.5 -8.5t87.5 -28.5l-32 -91q-69 40 -131 40q-36 0 -56.5 -15.5t-20.5 -42.5q0 -22 16 -34.5t64 -31.5q58 -20 95 -40t55.5 -47t18.5 -69q0 -78 -56 -121t-145 -43
q-91 0 -170 40l32 91q38 -22 70 -32t67 -10q39 0 60.5 17t21.5 48zM269 731h147l-155 -146h-113z" />
    <glyph glyph-name="Scircumflex" unicode="&#x15c;" horiz-adv-x="555" 
d="M375 187q0 28 -12 45.5t-40.5 33t-80.5 36.5q-63 27 -106 51.5t-64.5 58t-21.5 87.5q0 96 63 150t168 54q47 0 93.5 -8t105.5 -27l-26 -104q-57 23 -93 31.5t-74 8.5q-49 0 -78 -24t-29 -63q0 -22 10 -38.5t36.5 -32t77.5 -36.5q69 -28 114 -54t67 -62t22 -97
q0 -99 -64.5 -153.5t-180.5 -54.5q-56 0 -105 8.5t-105 27.5l17 107q59 -23 103 -33.5t86 -10.5q54 0 85.5 26.5t31.5 72.5zM224 901h144l111 -146h-113l-70 91l-70 -91h-113z" />
    <glyph glyph-name="scircumflex" unicode="&#x15d;" horiz-adv-x="459" 
d="M295 143q0 30 -23 43t-79 33q-47 17 -79.5 34.5t-49.5 44t-17 69.5q0 71 51 112.5t139 41.5q43 0 81.5 -8.5t87.5 -28.5l-32 -91q-69 40 -131 40q-36 0 -56.5 -15.5t-20.5 -42.5q0 -22 16 -34.5t64 -31.5q58 -20 95 -40t55.5 -47t18.5 -69q0 -78 -56 -121t-145 -43
q-91 0 -170 40l32 91q38 -22 70 -32t67 -10q39 0 60.5 17t21.5 48zM158 731h144l111 -146h-113l-70 91l-70 -91h-113z" />
    <glyph glyph-name="Scedilla" unicode="&#x15e;" horiz-adv-x="555" 
d="M375 187q0 28 -12 45.5t-40.5 33t-80.5 36.5q-63 27 -106 51.5t-64.5 58t-21.5 87.5q0 96 63 150t168 54q47 0 93.5 -8t105.5 -27l-26 -104q-57 23 -93 31.5t-74 8.5q-49 0 -78 -24t-29 -63q0 -22 10 -38.5t36.5 -32t77.5 -36.5q69 -28 114 -54t67 -62t22 -97
q0 -99 -64.5 -153.5t-180.5 -54.5q-56 0 -105 8.5t-105 27.5l17 107q59 -23 103 -33.5t86 -10.5q54 0 85.5 26.5t31.5 72.5zM318 -124q0 29 -45 29q-13 0 -23.5 -2t-23.5 -6l21 110h58l-9 -50q7 1 12 1q51 0 79.5 -21t28.5 -59q0 -52 -37 -75t-95 -23q-34 0 -76 9l4 60
q15 -4 25.5 -5t22.5 -1q26 0 42 7.5t16 25.5z" />
    <glyph glyph-name="scedilla" unicode="&#x15f;" horiz-adv-x="459" 
d="M295 143q0 30 -23 43t-79 33q-47 17 -79.5 34.5t-49.5 44t-17 69.5q0 71 51 112.5t139 41.5q43 0 81.5 -8.5t87.5 -28.5l-32 -91q-69 40 -131 40q-36 0 -56.5 -15.5t-20.5 -42.5q0 -22 16 -34.5t64 -31.5q58 -20 95 -40t55.5 -47t18.5 -69q0 -78 -56 -121t-145 -43
q-91 0 -170 40l32 91q38 -22 70 -32t67 -10q39 0 60.5 17t21.5 48zM272 -124q0 29 -45 29q-13 0 -23.5 -2t-23.5 -6l22 110h57l-9 -50q7 1 12 1q51 0 79.5 -21t28.5 -59q0 -52 -37 -75t-95 -23q-34 0 -76 9l4 60q15 -4 25.5 -5t22.5 -1q26 0 42 7.5t16 25.5z" />
    <glyph glyph-name="Scaron" unicode="&#x160;" horiz-adv-x="555" 
d="M375 187q0 28 -12 45.5t-40.5 33t-80.5 36.5q-63 27 -106 51.5t-64.5 58t-21.5 87.5q0 96 63 150t168 54q47 0 93.5 -8t105.5 -27l-26 -104q-57 23 -93 31.5t-74 8.5q-49 0 -78 -24t-29 -63q0 -22 10 -38.5t36.5 -32t77.5 -36.5q69 -28 114 -54t67 -62t22 -97
q0 -99 -64.5 -153.5t-180.5 -54.5q-56 0 -105 8.5t-105 27.5l17 107q59 -23 103 -33.5t86 -10.5q54 0 85.5 26.5t31.5 72.5zM113 901h113l70 -91l70 91h113l-111 -146h-144z" />
    <glyph glyph-name="scaron" unicode="&#x161;" horiz-adv-x="459" 
d="M295 143q0 30 -23 43t-79 33q-47 17 -79.5 34.5t-49.5 44t-17 69.5q0 71 51 112.5t139 41.5q43 0 81.5 -8.5t87.5 -28.5l-32 -91q-69 40 -131 40q-36 0 -56.5 -15.5t-20.5 -42.5q0 -22 16 -34.5t64 -31.5q58 -20 95 -40t55.5 -47t18.5 -69q0 -78 -56 -121t-145 -43
q-91 0 -170 40l32 91q38 -22 70 -32t67 -10q39 0 60.5 17t21.5 48zM47 731h113l70 -91l70 91h113l-111 -146h-144z" />
    <glyph glyph-name="uni0162" unicode="&#x162;" horiz-adv-x="548" 
d="M211 592h-200v100h527v-100h-201v-592h-126v592zM319 -124q0 29 -45 29q-13 0 -23.5 -2t-23.5 -6l21 110h58l-9 -50q7 1 12 1q51 0 79.5 -21t28.5 -59q0 -52 -37 -75t-95 -23q-34 0 -76 9l4 60q15 -4 25.5 -5t22.5 -1q26 0 42 7.5t16 25.5z" />
    <glyph glyph-name="uni0163" unicode="&#x163;" horiz-adv-x="376" 
d="M109 179v241h-82v90h82v110l121 24v-134h116v-90h-116v-235q0 -55 15.5 -77.5t52.5 -22.5q23 0 56 12l10 -91q-54 -17 -107 -17q-58 0 -90.5 20.5t-45 63t-12.5 106.5zM259 -124q0 29 -45 29q-13 0 -23.5 -2t-23.5 -6l22 110h57l-9 -50q7 1 12 1q51 0 79.5 -21t28.5 -59
q0 -52 -37 -75t-95 -23q-34 0 -76 9l4 60q15 -4 25.5 -5t22.5 -1q26 0 42 7.5t16 25.5z" />
    <glyph glyph-name="Tcaron" unicode="&#x164;" horiz-adv-x="548" 
d="M211 592h-200v100h527v-100h-201v-592h-126v592zM93 901h113l70 -91l70 91h113l-111 -146h-144z" />
    <glyph glyph-name="tcaron" unicode="&#x165;" horiz-adv-x="376" 
d="M109 179v241h-82v90h82v110l121 24v-134h116v-90h-116v-235q0 -55 15.5 -77.5t52.5 -22.5q23 0 56 12l10 -91q-54 -17 -107 -17q-58 0 -90.5 20.5t-45 63t-12.5 106.5zM356 759h120l-82 -197h-98z" />
    <glyph glyph-name="Tbar" unicode="&#x166;" horiz-adv-x="548" 
d="M106 410h105v182h-200v100h527v-100h-201v-182h107v-93h-107v-317h-126v317h-105v93z" />
    <glyph glyph-name="tbar" unicode="&#x167;" horiz-adv-x="376" 
d="M109 179v114h-84l1 75h83v67h-82v75h82v110l121 24v-134h116v-75h-116v-67h116v-75h-116v-108q0 -55 15.5 -77.5t52.5 -22.5q23 0 56 12l10 -91q-54 -17 -107 -17q-87 0 -117.5 46.5t-30.5 143.5z" />
    <glyph glyph-name="Utilde" unicode="&#x168;" horiz-adv-x="699" 
d="M79 307v385h126v-409q0 -55 6 -90t20 -55q36 -50 118 -50q87 0 123 53q26 36 26 136v415h121v-385q0 -71 -3 -113t-11.5 -68t-25.5 -49q-67 -88 -230 -88q-174 0 -236 99q-13 22 -20.5 47t-10.5 65.5t-3 106.5zM505.5 803q-27.5 -33 -69.5 -33q-18 0 -40 5t-56 16
q-31 11 -43.5 14.5t-23.5 3.5q-35 0 -41 -41h-69q5 57 32 90t69 33q18 0 40 -4.5t56 -16.5q32 -11 44 -14.5t23 -3.5q35 0 41 41h69q-4 -57 -31.5 -90z" />
    <glyph glyph-name="utilde" unicode="&#x169;" horiz-adv-x="611" 
d="M78 203v307h121v-301q0 -59 14 -94t65 -35q66 0 129 86v344h121v-330q0 -40 0.5 -67.5t1.5 -52.5t3 -60h-114l-4 75q-44 -46 -84.5 -66t-92.5 -20q-64 0 -99 25.5t-48 73.5t-13 115zM461.5 629q-27.5 -33 -69.5 -33q-18 0 -40 5t-56 16q-31 11 -43.5 14.5t-23.5 3.5
q-35 0 -41 -41h-69q5 57 32 90t69 33q18 0 40 -4.5t56 -16.5q32 -11 44 -14.5t23 -3.5q35 0 41 41h69q-4 -57 -31.5 -90z" />
    <glyph glyph-name="Umacron" unicode="&#x16a;" horiz-adv-x="699" 
d="M79 307v385h126v-409q0 -55 6 -90t20 -55q36 -50 118 -50q87 0 123 53q26 36 26 136v415h121v-385q0 -71 -3 -113t-11.5 -68t-25.5 -49q-67 -88 -230 -88q-174 0 -236 99q-13 22 -20.5 47t-10.5 65.5t-3 106.5zM183 858h334v-76h-334v76z" />
    <glyph glyph-name="umacron" unicode="&#x16b;" horiz-adv-x="611" 
d="M78 203v307h121v-301q0 -59 14 -94t65 -35q66 0 129 86v344h121v-330q0 -40 0.5 -67.5t1.5 -52.5t3 -60h-114l-4 75q-44 -46 -84.5 -66t-92.5 -20q-64 0 -99 25.5t-48 73.5t-13 115zM139 695h334v-76h-334v76z" />
    <glyph glyph-name="Ubreve" unicode="&#x16c;" horiz-adv-x="699" 
d="M79 307v385h126v-409q0 -55 6 -90t20 -55q36 -50 118 -50q87 0 123 53q26 36 26 136v415h121v-385q0 -71 -3 -113t-11.5 -68t-25.5 -49q-67 -88 -230 -88q-174 0 -236 99q-13 22 -20.5 47t-10.5 65.5t-3 106.5zM473.5 789.5q-41.5 -37.5 -123.5 -37.5t-123 37.5
t-43 118.5h75q4 -41 24.5 -59t66.5 -18q47 0 67 18t24 59h75q-1 -81 -42.5 -118.5z" />
    <glyph glyph-name="ubreve" unicode="&#x16d;" horiz-adv-x="611" 
d="M78 203v307h121v-301q0 -59 14 -94t65 -35q66 0 129 86v344h121v-330q0 -40 0.5 -67.5t1.5 -52.5t3 -60h-114l-4 75q-44 -46 -84.5 -66t-92.5 -20q-64 0 -99 25.5t-48 73.5t-13 115zM429.5 612.5q-41.5 -37.5 -123.5 -37.5t-123 37.5t-43 118.5h75q4 -41 24.5 -59
t66.5 -18q47 0 67 18t24 59h75q-1 -81 -42.5 -118.5z" />
    <glyph glyph-name="Uring" unicode="&#x16e;" horiz-adv-x="699" 
d="M79 307v385h126v-409q0 -55 6 -90t20 -55q36 -50 118 -50q87 0 123 53q26 36 26 136v415h121v-385q0 -71 -3 -113t-11.5 -68t-25.5 -49q-67 -88 -230 -88q-174 0 -236 99q-13 22 -20.5 47t-10.5 65.5t-3 106.5zM241 828q0 45 31.5 76t77.5 31q47 0 78 -31t31 -77t-31 -77
t-78 -31t-78 31t-31 78zM300 827q0 -25 14 -39t36 -14q23 0 36 14.5t13 38.5t-13 38.5t-36 14.5q-22 0 -36 -14.5t-14 -38.5z" />
    <glyph glyph-name="uring" unicode="&#x16f;" horiz-adv-x="611" 
d="M78 203v307h121v-301q0 -59 14 -94t65 -35q66 0 129 86v344h121v-330q0 -40 0.5 -67.5t1.5 -52.5t3 -60h-114l-4 75q-44 -46 -84.5 -66t-92.5 -20q-64 0 -99 25.5t-48 73.5t-13 115zM197 674q0 45 31.5 76t77.5 31q47 0 78 -31t31 -77t-31 -77t-78 -31t-78 31t-31 78z
M256 673q0 -25 14 -39t36 -14q23 0 36 14.5t13 38.5t-13 38.5t-36 14.5q-22 0 -36 -14.5t-14 -38.5z" />
    <glyph glyph-name="Uhungarumlaut" unicode="&#x170;" horiz-adv-x="699" 
d="M79 307v385h126v-409q0 -55 6 -90t20 -55q36 -50 118 -50q87 0 123 53q26 36 26 136v415h121v-385q0 -71 -3 -113t-11.5 -68t-25.5 -49q-67 -88 -230 -88q-174 0 -236 99q-13 22 -20.5 47t-10.5 65.5t-3 106.5zM295 901h145l-147 -146h-111zM497 901h146l-149 -146h-109z
" />
    <glyph glyph-name="uhungarumlaut" unicode="&#x171;" horiz-adv-x="611" 
d="M78 203v307h121v-301q0 -59 14 -94t65 -35q66 0 129 86v344h121v-330q0 -40 0.5 -67.5t1.5 -52.5t3 -60h-114l-4 75q-44 -46 -84.5 -66t-92.5 -20q-64 0 -99 25.5t-48 73.5t-13 115zM251 731h145l-147 -146h-111zM453 731h146l-149 -146h-109z" />
    <glyph glyph-name="Uogonek" unicode="&#x172;" horiz-adv-x="699" 
d="M79 307v385h126v-409q0 -55 6 -90t20 -55q36 -50 118 -50q87 0 123 53q26 36 26 136v415h121v-385q0 -71 -3 -113t-11.5 -68t-25.5 -49q-67 -88 -230 -88q-174 0 -236 99q-13 22 -20.5 47t-10.5 65.5t-3 106.5zM244 -124q0 38 26 71.5t66 52.5h117q-47 -10 -79 -37.5
t-32 -65.5q0 -25 17 -39.5t46 -14.5q12 0 20 1.5t20 5.5l6 -60q-41 -10 -70 -10q-66 0 -101.5 25t-35.5 71z" />
    <glyph glyph-name="uogonek" unicode="&#x173;" horiz-adv-x="611" 
d="M78 203v307h121v-301q0 -59 14 -94t65 -35q66 0 129 86v344h121v-330q0 -40 0.5 -67.5t1.5 -52.5t3 -60h-114l-4 75q-44 -46 -84.5 -66t-92.5 -20q-64 0 -99 25.5t-48 73.5t-13 115zM323 -124q0 41 34 80t88 63l88 -19q-46 -4 -79 -33.5t-33 -69.5q0 -25 16.5 -39.5
t46.5 -14.5q11 0 19 1.5t21 5.5l6 -60q-40 -10 -70 -10q-66 0 -101.5 25t-35.5 71z" />
    <glyph glyph-name="Wcircumflex" unicode="&#x174;" horiz-adv-x="931" 
d="M684 262q5 23 15 65l84 365h119l-168 -692h-131l-94 365q-12 42 -21 79.5t-22 91.5q-8 -34 -14 -58t-12.5 -49.5t-16.5 -60.5l-99 -368h-132l-163 692h126l82 -372q8 -37 13 -60t9 -44.5t10 -54.5q10 43 17.5 75t19.5 78l98 378h130l94 -364q9 -36 15 -59t11 -45t12 -55
q6 30 9.5 50t8.5 43zM394 901h144l111 -146h-113l-70 91l-70 -91h-113z" />
    <glyph glyph-name="wcircumflex" unicode="&#x175;" horiz-adv-x="833" 
d="M244 128q11 45 18.5 74.5t19.5 69.5l70 238h129l72 -236q12 -39 21.5 -69.5t20.5 -76.5q8 35 13 55t10.5 39t13.5 49l67 239h110l-151 -510h-127l-74 241q-11 33 -17.5 55t-12.5 44l-15 55q-10 -42 -19.5 -77.5t-22.5 -78.5l-71 -239h-128l-148 510h120l66 -241
q7 -23 12 -42.5t10.5 -42t12.5 -56.5zM345 731h144l111 -146h-113l-70 91l-70 -91h-113z" />
    <glyph glyph-name="Ycircumflex" unicode="&#x176;" horiz-adv-x="621" 
d="M248 295l-255 397h146l126 -202q13 -21 23.5 -38.5t26.5 -47.5q17 31 27 48.5t24 39.5l124 200h137l-253 -397v-295h-126v295zM239 901h144l111 -146h-113l-70 91l-70 -91h-113z" />
    <glyph glyph-name="ycircumflex" unicode="&#x177;" horiz-adv-x="542" 
d="M27 -115q35 -15 64 -15q40 0 67 30t55 109l-206 501h129l101 -256l15 -40t12 -32.5t15 -44.5q10 30 16 46.5t11.5 32t16.5 44.5l94 250h118l-206 -519q-30 -76 -58 -124t-64.5 -70.5t-94.5 -22.5q-28 0 -53.5 4.5t-52.5 13.5zM199 731h144l111 -146h-113l-70 91l-70 -91
h-113z" />
    <glyph glyph-name="Ydieresis" unicode="&#x178;" horiz-adv-x="621" 
d="M248 295l-255 397h146l126 -202q13 -21 23.5 -38.5t26.5 -47.5q17 31 27 48.5t24 39.5l124 200h137l-253 -397v-295h-126v295zM134 833q0 31 20.5 51t51.5 20q32 0 52.5 -20t20.5 -52q0 -31 -20.5 -52t-52.5 -21t-52 21t-20 53zM364 884q21 20 52 20q32 0 52 -20t20 -52
q0 -31 -20 -52t-52 -21t-52.5 21t-20.5 53q0 31 21 51z" />
    <glyph glyph-name="Zacute" unicode="&#x179;" horiz-adv-x="576" 
d="M31 92l347 500h-335v100h489v-92l-346 -500h357v-100h-512v92zM327 901h147l-155 -146h-113z" />
    <glyph glyph-name="zacute" unicode="&#x17a;" horiz-adv-x="466" 
d="M29 80l249 340h-236v90h384v-84l-246 -336h254v-90h-405v80zM271 731h147l-155 -146h-113z" />
    <glyph glyph-name="Zdotaccent" unicode="&#x17b;" horiz-adv-x="576" 
d="M31 92l347 500h-335v100h489v-92l-346 -500h357v-100h-512v92zM215 833q0 31 20.5 51t51.5 20q32 0 52 -20t20 -52q0 -31 -20 -52t-52 -21t-52 21t-20 53z" />
    <glyph glyph-name="zdotaccent" unicode="&#x17c;" horiz-adv-x="466" 
d="M29 80l249 340h-236v90h384v-84l-246 -336h254v-90h-405v80zM158 673q0 32 21 52.5t53 20.5t53 -21t21 -53t-21 -53t-53 -21q-33 0 -53.5 21t-20.5 54z" />
    <glyph glyph-name="Zcaron" unicode="&#x17d;" horiz-adv-x="576" 
d="M31 92l347 500h-335v100h489v-92l-346 -500h357v-100h-512v92zM104 901h113l70 -91l70 91h113l-111 -146h-144z" />
    <glyph glyph-name="zcaron" unicode="&#x17e;" horiz-adv-x="466" 
d="M29 80l249 340h-236v90h384v-84l-246 -336h254v-90h-405v80zM49 731h113l70 -91l70 91h113l-111 -146h-144z" />
    <glyph glyph-name="longs" unicode="&#x17f;" horiz-adv-x="373" 
d="M109 420h-82v90h82v33q0 101 37.5 150.5t125.5 49.5q42 0 95 -14l-10 -95q-34 14 -59 14q-37 0 -52.5 -27t-15.5 -89v-532h-121v420z" />
    <glyph glyph-name="uni018E" unicode="&#x18e;" horiz-adv-x="563" 
d="M54 100h298v201h-269v100h269v191h-283v100h409v-692h-424v100z" />
    <glyph glyph-name="uni018F" unicode="&#x18f;" horiz-adv-x="663" 
d="M52 380h430q-5 68 -24.5 117.5t-61.5 77t-114 27.5q-45 0 -83.5 -10.5t-82.5 -33.5l-42 97q58 25 106 35.5t108 10.5q121 0 192 -44t102.5 -125.5t31.5 -192.5q0 -166 -76 -258t-212 -92q-148 0 -211 100t-63 291zM218.5 138.5q32.5 -50.5 105.5 -50.5q141 0 157 192
h-298q3 -91 35.5 -141.5z" />
    <glyph glyph-name="florin" unicode="&#x192;" horiz-adv-x="576" 
d="M107 399h106l15 79q15 79 36.5 128.5t59 72.5t100.5 23q28 0 55.5 -5t60.5 -16l-25 -89q-22 8 -37.5 11t-32.5 3q-28 0 -45.5 -12t-29 -44t-22.5 -91l-11 -60h130v-87h-146l-36 -196q-15 -81 -35 -134t-57 -79t-107 -26q-28 0 -55 4.5t-59 15.5l23 92q21 -8 37.5 -12
t33.5 -4q32 0 49.5 17t28.5 55.5t23 101.5l30 165h-90v87z" />
    <glyph glyph-name="Ohorn" unicode="&#x1a0;" horiz-adv-x="764" 
d="M49 350q0 102 38.5 181.5t110.5 125.5t173 46q64 0 116.5 -18.5t92.5 -52.5q17 -2 33 -2q30 0 39.5 12.5t9.5 49.5v67h92v-79q0 -61 -26.5 -92t-82.5 -35q49 -86 49 -203q0 -104 -37 -185.5t-109 -128.5t-177 -47q-104 0 -176 47t-109 128.5t-37 185.5zM180 349
q0 -121 51.5 -191t139.5 -70q89 0 141 70t52 191q0 117 -52 186t-141 69q-88 0 -139.5 -69t-51.5 -186z" />
    <glyph glyph-name="ohorn" unicode="&#x1a1;" horiz-adv-x="591" 
d="M44 258q0 81 30.5 140t87 91t134.5 32q57 0 102 -17.5t78 -49.5q15 -2 26 -2q31 0 40.5 12.5t9.5 50.5v67h92v-79q0 -64 -29 -94.5t-89 -32.5q21 -52 21 -118q0 -123 -65.5 -196t-185.5 -73q-121 0 -186.5 73t-65.5 196zM170 257q0 -84 33.5 -131t92.5 -47t92.5 47
t33.5 131q0 81 -33.5 127.5t-92.5 46.5q-58 0 -92 -46.5t-34 -127.5z" />
    <glyph glyph-name="Uhorn" unicode="&#x1af;" horiz-adv-x="699" 
d="M79 307v385h126v-409q0 -55 6 -90t20 -55q36 -50 118 -50q87 0 123 53q26 36 26 136v415h121v-63q30 1 40 12.5t10 50.5v67h92v-79q0 -127 -119 -127h-11.5t-11.5 1v-247q0 -71 -3 -113t-11.5 -68t-25.5 -49q-67 -88 -230 -88q-174 0 -236 99q-13 22 -20.5 47t-10.5 65.5
t-3 106.5z" />
    <glyph glyph-name="uhorn" unicode="&#x1b0;" horiz-adv-x="664" 
d="M78 203v307h121v-301q0 -59 14 -94t65 -35q66 0 129 86v344h121v-58h6q31 0 40.5 12.5t9.5 50.5v67h92v-79q0 -64 -28.5 -95.5t-89.5 -31.5h-10.5t-19.5 1v-197q0 -40 0.5 -67.5t1.5 -52.5t3 -60h-114l-4 75q-44 -46 -84.5 -66t-92.5 -20q-64 0 -99 25.5t-48 73.5
t-13 115z" />
    <glyph glyph-name="uni01C4" unicode="&#x1c4;" horiz-adv-x="1265" 
d="M85 692h177q69 0 118.5 -6.5t86 -21.5t67.5 -41q106 -88 106 -275q0 -103 -32.5 -178.5t-95.5 -116.5q-30 -19 -65 -31t-82 -17t-114 -5h-166v692zM510 347q0 69 -21.5 124t-59.5 83q-19 15 -40.5 23.5t-53.5 11.5t-83 3h-41v-492h46q112 0 168 38q41 29 63 83.5
t22 125.5zM721 92l347 500h-335v100h489v-92l-346 -500h357v-100h-512v92zM794 901h113l70 -91l70 91h113l-111 -146h-144z" />
    <glyph glyph-name="uni01C5" unicode="&#x1c5;" horiz-adv-x="1155" 
d="M85 692h177q69 0 118.5 -6.5t86 -21.5t67.5 -41q106 -88 106 -275q0 -103 -32.5 -178.5t-95.5 -116.5q-30 -19 -65 -31t-82 -17t-114 -5h-166v692zM510 347q0 69 -21.5 124t-59.5 83q-19 15 -40.5 23.5t-53.5 11.5t-83 3h-41v-492h46q112 0 168 38q41 29 63 83.5
t22 125.5zM719 80l249 340h-236v90h384v-84l-246 -336h254v-90h-405v80zM739 731h113l70 -91l70 91h113l-111 -146h-144z" />
    <glyph glyph-name="uni01C6" unicode="&#x1c6;" horiz-adv-x="1066" 
d="M44 255q0 81 25.5 141t72 92.5t108.5 32.5q92 0 149 -75v285h121v-552q0 -46 0.5 -73.5t1.5 -50t3 -55.5h-117l-3 73q-34 -46 -69.5 -65t-85.5 -19q-66 0 -112 35t-70 95.5t-24 135.5zM170 254q0 -79 31 -126.5t83 -47.5q32 0 59.5 20.5t55.5 64.5v177q-46 88 -119 88
q-50 0 -80 -48t-30 -128zM629 80l249 340h-236v90h384v-84l-246 -336h254v-90h-405v80zM649 731h113l70 -91l70 91h113l-111 -146h-144z" />
    <glyph glyph-name="uni01C7" unicode="&#x1c7;" horiz-adv-x="943" 
d="M85 692h126v-592h298v-100h-424v692zM738 230v462h126v-431q0 -63 -3.5 -101.5t-11.5 -62t-23 -43.5q-49 -65 -161 -65q-34 0 -64 5t-58 15l11 104q26 -12 46 -17t42 -5q60 0 78 34t18 105z" />
    <glyph glyph-name="uni01C8" unicode="&#x1c8;" horiz-adv-x="801" 
d="M85 692h126v-592h298v-100h-424v692zM599 -18v528h121v-512q0 -68 -6 -104t-23 -59q-40 -61 -135 -61q-40 0 -87 12l10 92q17 -5 28 -7t23 -2q38 0 53.5 25.5t15.5 87.5zM585 673q0 32 21 52.5t53 20.5t53 -21t21 -53t-21 -53t-53 -21q-33 0 -53.5 21t-20.5 54z" />
    <glyph glyph-name="uni01C9" unicode="&#x1c9;" horiz-adv-x="535" 
d="M82 731h121v-731h-121v731zM333 -18v528h121v-512q0 -68 -6 -104t-23 -59q-40 -61 -135 -61q-40 0 -87 12l10 92q17 -5 28 -7t23 -2q38 0 53.5 25.5t15.5 87.5zM319 673q0 32 21 52.5t53 20.5t53 -21t21 -53t-21 -53t-53 -21q-33 0 -53.5 21t-20.5 54z" />
    <glyph glyph-name="uni01CA" unicode="&#x1ca;" horiz-adv-x="1129" 
d="M85 692h140l217 -363q24 -40 41.5 -72t40.5 -78q-2 21 -2 40v51v422h120v-692h-139l-211 352q-20 34 -33.5 58t-26 48t-29.5 58q2 -24 2.5 -40.5t0.5 -34.5v-47v-394h-121v692zM924 230v462h126v-431q0 -63 -3.5 -101.5t-11.5 -62t-23 -43.5q-49 -65 -161 -65
q-34 0 -64 5t-58 15l11 104q26 -12 46 -17t42 -5q60 0 78 34t18 105z" />
    <glyph glyph-name="uni01CB" unicode="&#x1cb;" horiz-adv-x="1010" 
d="M85 692h140l217 -363q24 -40 41.5 -72t40.5 -78q-2 21 -2 40v51v422h120v-692h-139l-211 352q-20 34 -33.5 58t-26 48t-29.5 58q2 -24 2.5 -40.5t0.5 -34.5v-47v-394h-121v692zM808 -18v528h121v-512q0 -68 -6 -104t-23 -59q-40 -61 -135 -61q-40 0 -87 12l10 92
q17 -5 28 -7t23 -2q38 0 53.5 25.5t15.5 87.5zM794 673q0 32 21 52.5t53 20.5t53 -21t21 -53t-21 -53t-53 -21q-33 0 -53.5 21t-20.5 54z" />
    <glyph glyph-name="uni01CC" unicode="&#x1cc;" horiz-adv-x="873" 
d="M83 330q0 37 -0.5 65t-1.5 55t-3 60h114l4 -75q46 47 86 66.5t94 19.5q65 0 100 -25.5t48.5 -73t13.5 -115.5v-307h-121v301q0 40 -5.5 68.5t-22.5 44.5t-53 16q-69 0 -132 -86v-344h-121v330zM671 -18v528h121v-512q0 -68 -6 -104t-23 -59q-40 -61 -135 -61
q-40 0 -87 12l10 92q17 -5 28 -7t23 -2q38 0 53.5 25.5t15.5 87.5zM657 673q0 32 21 52.5t53 20.5t53 -21t21 -53t-21 -53t-53 -21q-33 0 -53.5 21t-20.5 54z" />
    <glyph glyph-name="uni01CD" unicode="&#x1cd;" horiz-adv-x="676" 
d="M135 0h-126l257 692h138l263 -692h-133l-70 196h-260zM311.5 498.5q-5.5 -15.5 -15.5 -43.5l-58 -163h192l-58 163q-8 23 -13.5 40t-11 34.5t-13.5 43.5q-8 -27 -12.5 -43t-10 -31.5zM155 901h113l70 -91l70 91h113l-111 -146h-144z" />
    <glyph glyph-name="uni01CE" unicode="&#x1ce;" horiz-adv-x="559" 
d="M38 144q0 95 76 140q26 14 64 21t93 7q18 0 35.5 -0.5t47.5 -1.5v8q0 115 -113 115q-33 0 -65 -9.5t-73 -32.5l-31 85q44 23 90.5 34t95.5 11q60 0 106 -17t72 -49q16 -18 24 -39t11.5 -52.5t3.5 -81.5v-152q0 -45 1.5 -76.5t3.5 -53.5h-115l-4 58q-37 -38 -72.5 -53.5
t-85.5 -15.5q-78 0 -121.5 41t-43.5 114zM163 146q0 -34 21.5 -55t55.5 -21q65 0 114 70v96q-18 1 -28.5 1.5t-23.5 0.5q-65 0 -102 -21t-37 -71zM76 731h113l70 -91l70 91h113l-111 -146h-144z" />
    <glyph glyph-name="uni01CF" unicode="&#x1cf;" horiz-adv-x="296" 
d="M85 692h126v-692h-126v692zM-35 901h113l70 -91l70 91h113l-111 -146h-144z" />
    <glyph glyph-name="uni01D0" unicode="&#x1d0;" horiz-adv-x="283" 
d="M81 510h121v-510h-121v510zM-41 731h113l70 -91l70 91h113l-111 -146h-144z" />
    <glyph glyph-name="uni01D1" unicode="&#x1d1;" horiz-adv-x="743" 
d="M49 350q0 102 38.5 181.5t110.5 125.5t173 46q102 0 174.5 -46t110.5 -125.5t38 -181.5q0 -104 -37 -185.5t-109 -128.5t-177 -47q-104 0 -176 47t-109 128.5t-37 185.5zM180 349q0 -121 51.5 -191t139.5 -70q89 0 141 70t52 191q0 117 -52 186t-141 69q-88 0 -139.5 -69
t-51.5 -186zM189 901h113l70 -91l70 91h113l-111 -146h-144z" />
    <glyph glyph-name="uni01D2" unicode="&#x1d2;" horiz-adv-x="591" 
d="M44 258q0 81 30.5 140t87 91t134.5 32t134.5 -32t86.5 -91t30 -140q0 -123 -65.5 -196t-185.5 -73q-121 0 -186.5 73t-65.5 196zM170 257q0 -84 33.5 -131t92.5 -47t92.5 47t33.5 131q0 81 -33.5 127.5t-92.5 46.5q-58 0 -92 -46.5t-34 -127.5zM113 731h113l70 -91l70 91
h113l-111 -146h-144z" />
    <glyph glyph-name="uni01D3" unicode="&#x1d3;" horiz-adv-x="699" 
d="M79 307v385h126v-409q0 -55 6 -90t20 -55q36 -50 118 -50q87 0 123 53q26 36 26 136v415h121v-385q0 -71 -3 -113t-11.5 -68t-25.5 -49q-67 -88 -230 -88q-174 0 -236 99q-13 22 -20.5 47t-10.5 65.5t-3 106.5zM167 901h113l70 -91l70 91h113l-111 -146h-144z" />
    <glyph glyph-name="uni01D4" unicode="&#x1d4;" horiz-adv-x="611" 
d="M78 203v307h121v-301q0 -59 14 -94t65 -35q66 0 129 86v344h121v-330q0 -40 0.5 -67.5t1.5 -52.5t3 -60h-114l-4 75q-44 -46 -84.5 -66t-92.5 -20q-64 0 -99 25.5t-48 73.5t-13 115zM123 731h113l70 -91l70 91h113l-111 -146h-144z" />
    <glyph glyph-name="uni01DD" unicode="&#x1dd;" horiz-adv-x="570" 
d="M528 256q0 -123 -65.5 -195t-181.5 -72q-80 0 -134.5 32.5t-77.5 93.5q-9 24 -14.5 47t-7.5 54t-3 77h357q-7 67 -40.5 103t-104.5 36q-77 0 -154 -49l-42 88q47 26 94.5 38t102.5 12q131 0 201 -68.5t70 -196.5zM199.5 111q29.5 -34 81.5 -34q59 0 86.5 37.5t33.5 94.5
h-233q2 -64 31.5 -98z" />
    <glyph glyph-name="Gcaron" unicode="&#x1e6;" horiz-adv-x="710" 
d="M49 338q0 112 42 194t120.5 126.5t187.5 44.5q61 0 114.5 -11t111.5 -37l-41 -98q-50 26 -91.5 36.5t-88.5 10.5q-73 0 -123 -33t-75.5 -92t-25.5 -137q0 -77 27 -134.5t77 -88.5t117 -31q52 0 103 19v168h-126v100h249v-343q-67 -23 -120 -33t-112 -10q-109 0 -186.5 42
t-118.5 120.5t-41 186.5zM192 901h113l70 -91l70 91h113l-111 -146h-144z" />
    <glyph glyph-name="gcaron" unicode="&#x1e7;" horiz-adv-x="605" 
d="M401 50v36q-34 -39 -69 -56.5t-82 -17.5q-63 0 -109 31t-71.5 88t-25.5 133q0 78 25.5 135.5t72 89.5t108.5 32q101 0 157 -81l4 70h116q-2 -47 -3 -80t-1.5 -60.5t-0.5 -60.5v-250q0 -58 -3.5 -95t-13.5 -62t-28 -47q-63 -81 -212 -81q-108 0 -199 45l37 89
q76 -44 152 -44q60 0 91.5 21.5t43 63t11.5 101.5zM401 336q-19 44 -51 69t-70 25q-51 0 -80.5 -44.5t-29.5 -121.5q0 -74 30 -117t82 -43q35 0 66 22.5t53 63.5v146zM98 731h113l70 -91l70 91h113l-111 -146h-144z" />
    <glyph glyph-name="uni01F4" unicode="&#x1f4;" horiz-adv-x="710" 
d="M49 338q0 112 42 194t120.5 126.5t187.5 44.5q61 0 114.5 -11t111.5 -37l-41 -98q-50 26 -91.5 36.5t-88.5 10.5q-73 0 -123 -33t-75.5 -92t-25.5 -137q0 -77 27 -134.5t77 -88.5t117 -31q52 0 103 19v168h-126v100h249v-343q-67 -23 -120 -33t-112 -10q-109 0 -186.5 42
t-118.5 120.5t-41 186.5zM415 901h147l-155 -146h-113z" />
    <glyph glyph-name="uni01F5" unicode="&#x1f5;" horiz-adv-x="605" 
d="M401 50v36q-34 -39 -69 -56.5t-82 -17.5q-63 0 -109 31t-71.5 88t-25.5 133q0 78 25.5 135.5t72 89.5t108.5 32q101 0 157 -81l4 70h116q-2 -47 -3 -80t-1.5 -60.5t-0.5 -60.5v-250q0 -58 -3.5 -95t-13.5 -62t-28 -47q-63 -81 -212 -81q-108 0 -199 45l37 89
q76 -44 152 -44q60 0 91.5 21.5t43 63t11.5 101.5zM401 336q-19 44 -51 69t-70 25q-51 0 -80.5 -44.5t-29.5 -121.5q0 -74 30 -117t82 -43q35 0 66 22.5t53 63.5v146zM320 731h147l-155 -146h-113z" />
    <glyph glyph-name="Aringacute" unicode="&#x1fa;" horiz-adv-x="676" 
d="M135 0h-126l257 692h138l263 -692h-133l-70 196h-260zM311.5 498.5q-5.5 -15.5 -15.5 -43.5l-58 -163h192l-58 163q-8 23 -13.5 40t-11 34.5t-13.5 43.5q-8 -27 -12.5 -43t-10 -31.5zM229 828q0 45 31.5 76t77.5 31q47 0 78 -31t31 -77t-31 -77t-78 -31t-78 31t-31 78z
M288 827q0 -25 14 -39t36 -14q23 0 36 14.5t13 38.5t-13 38.5t-36 14.5q-22 0 -36 -14.5t-14 -38.5zM378 1106h147l-155 -146h-113z" />
    <glyph glyph-name="aringacute" unicode="&#x1fb;" horiz-adv-x="559" 
d="M38 144q0 95 76 140q26 14 64 21t93 7q18 0 35.5 -0.5t47.5 -1.5v8q0 115 -113 115q-33 0 -65 -9.5t-73 -32.5l-31 85q44 23 90.5 34t95.5 11q60 0 106 -17t72 -49q16 -18 24 -39t11.5 -52.5t3.5 -81.5v-152q0 -45 1.5 -76.5t3.5 -53.5h-115l-4 58q-37 -38 -72.5 -53.5
t-85.5 -15.5q-78 0 -121.5 41t-43.5 114zM163 146q0 -34 21.5 -55t55.5 -21q65 0 114 70v96q-18 1 -28.5 1.5t-23.5 0.5q-65 0 -102 -21t-37 -71zM150 674q0 45 31.5 76t77.5 31q47 0 78 -31t31 -77t-31 -77t-78 -31t-78 31t-31 78zM209 673q0 -25 14 -39t36 -14
q23 0 36 14.5t13 38.5t-13 38.5t-36 14.5q-22 0 -36 -14.5t-14 -38.5zM298 954h147l-155 -146h-113z" />
    <glyph glyph-name="AEacute" unicode="&#x1fc;" horiz-adv-x="929" 
d="M860 592h-283v-191h269v-100h-269v-201h298v-100h-424v177h-249l-100 -177h-143l414 692h487v-100zM451 601h-8l-186 -328h194v328zM578 901h147l-155 -146h-113z" />
    <glyph glyph-name="aeacute" unicode="&#x1fd;" horiz-adv-x="873" 
d="M38 141q0 92 62.5 129.5t169.5 37.5q19 0 36.5 -0.5t47.5 -2.5v14q0 56 -29 85t-85 29q-33 0 -65.5 -9.5t-71.5 -32.5l-31 85q44 23 90.5 34t95.5 11q118 0 175 -63q33 32 71 47.5t90 15.5q92 0 143.5 -35.5t72.5 -103.5t21 -165h-354q6 -68 38.5 -103.5t103.5 -35.5
q77 0 154 49l42 -88q-46 -25 -94.5 -37.5t-107.5 -12.5q-79 0 -125.5 20t-80.5 69q-38 -49 -82.5 -69t-112.5 -20q-82 0 -128 39t-46 113zM163 145q0 -34 21.5 -54.5t55.5 -20.5q66 0 114 70v90q-18 2 -28 2h-24q-71 0 -105 -21.5t-34 -65.5zM675.5 399q-29.5 34 -81.5 34
q-54 0 -82.5 -34.5t-34.5 -97.5h230q-2 64 -31.5 98zM468 731h147l-155 -146h-113z" />
    <glyph glyph-name="Oslashacute" unicode="&#x1fe;" horiz-adv-x="743" 
d="M49 350q0 102 38.5 181.5t110.5 125.5t173 46q62 0 113.5 -18t91.5 -50l64 75l51 -44l-68 -80q71 -94 71 -236q0 -104 -37 -185.5t-109 -128.5t-177 -47q-63 0 -114 17.5t-90 49.5l-64 -74l-50 44l68 79q-72 96 -72 245zM538 489l-296 -345q50 -56 129 -56q89 0 141 70
t52 191q0 80 -26 140zM501 548q-51 56 -130 56q-88 0 -139.5 -69t-51.5 -186q0 -84 26 -145zM412 901h147l-155 -146h-113z" />
    <glyph glyph-name="oslashacute" unicode="&#x1ff;" horiz-adv-x="591" 
d="M44 258q0 81 30.5 140t87 91t134.5 32q97 0 161 -51l61 63l46 -45l-63 -65q46 -66 46 -165q0 -123 -65.5 -196t-185.5 -73q-100 0 -165 52l-61 -63l-45 45l64 66q-45 67 -45 169zM413 332l-205 -212q33 -41 88 -41q59 0 92.5 47t33.5 131q0 41 -9 75zM382 392
q-33 39 -86 39q-58 0 -92 -46.5t-34 -127.5q0 -42 9 -75zM335 731h147l-155 -146h-113z" />
    <glyph glyph-name="uni0200" unicode="&#x200;" horiz-adv-x="676" 
d="M135 0h-126l257 692h138l263 -692h-133l-70 196h-260zM311.5 498.5q-5.5 -15.5 -15.5 -43.5l-58 -163h192l-58 163q-8 23 -13.5 40t-11 34.5t-13.5 43.5q-8 -27 -12.5 -43t-10 -31.5zM492 755h-111l-147 146h145zM289 755h-110l-148 146h145z" />
    <glyph glyph-name="uni0201" unicode="&#x201;" horiz-adv-x="559" 
d="M38 144q0 95 76 140q26 14 64 21t93 7q18 0 35.5 -0.5t47.5 -1.5v8q0 115 -113 115q-33 0 -65 -9.5t-73 -32.5l-31 85q44 23 90.5 34t95.5 11q60 0 106 -17t72 -49q16 -18 24 -39t11.5 -52.5t3.5 -81.5v-152q0 -45 1.5 -76.5t3.5 -53.5h-115l-4 58q-37 -38 -72.5 -53.5
t-85.5 -15.5q-78 0 -121.5 41t-43.5 114zM163 146q0 -34 21.5 -55t55.5 -21q65 0 114 70v96q-18 1 -28.5 1.5t-23.5 0.5q-65 0 -102 -21t-37 -71zM427 585h-111l-147 146h146zM224 585h-109l-148 146h145z" />
    <glyph glyph-name="uni0218" unicode="&#x218;" horiz-adv-x="555" 
d="M375 187q0 28 -12 45.5t-40.5 33t-80.5 36.5q-63 27 -106 51.5t-64.5 58t-21.5 87.5q0 96 63 150t168 54q47 0 93.5 -8t105.5 -27l-26 -104q-57 23 -93 31.5t-74 8.5q-49 0 -78 -24t-29 -63q0 -22 10 -38.5t36.5 -32t77.5 -36.5q69 -28 114 -54t67 -62t22 -97
q0 -99 -64.5 -153.5t-180.5 -54.5q-56 0 -105 8.5t-105 27.5l17 107q59 -23 103 -33.5t86 -10.5q54 0 85.5 26.5t31.5 72.5zM228 -53h136l-141 -151h-113z" />
    <glyph glyph-name="uni0219" unicode="&#x219;" horiz-adv-x="459" 
d="M295 143q0 30 -23 43t-79 33q-47 17 -79.5 34.5t-49.5 44t-17 69.5q0 71 51 112.5t139 41.5q43 0 81.5 -8.5t87.5 -28.5l-32 -91q-69 40 -131 40q-36 0 -56.5 -15.5t-20.5 -42.5q0 -22 16 -34.5t64 -31.5q58 -20 95 -40t55.5 -47t18.5 -69q0 -78 -56 -121t-145 -43
q-91 0 -170 40l32 91q38 -22 70 -32t67 -10q39 0 60.5 17t21.5 48zM187 -53h136l-141 -151h-112z" />
    <glyph glyph-name="uni021A" unicode="&#x21a;" horiz-adv-x="548" 
d="M211 592h-200v100h527v-100h-201v-592h-126v592zM229 -53h136l-141 -151h-113z" />
    <glyph glyph-name="uni021B" unicode="&#x21b;" horiz-adv-x="376" 
d="M109 179v241h-82v90h82v110l121 24v-134h116v-90h-116v-235q0 -55 15.5 -77.5t52.5 -22.5q23 0 56 12l10 -91q-54 -17 -107 -17q-58 0 -90.5 20.5t-45 63t-12.5 106.5zM174 -53h136l-141 -151h-112z" />
    <glyph glyph-name="uni0226" unicode="&#x226;" horiz-adv-x="676" 
d="M135 0h-126l257 692h138l263 -692h-133l-70 196h-260zM311.5 498.5q-5.5 -15.5 -15.5 -43.5l-58 -163h192l-58 163q-8 23 -13.5 40t-11 34.5t-13.5 43.5q-8 -27 -12.5 -43t-10 -31.5zM266 833q0 31 20.5 51t51.5 20q32 0 52 -20t20 -52q0 -31 -20 -52t-52 -21t-52 21
t-20 53z" />
    <glyph glyph-name="uni0227" unicode="&#x227;" horiz-adv-x="559" 
d="M38 144q0 95 76 140q26 14 64 21t93 7q18 0 35.5 -0.5t47.5 -1.5v8q0 115 -113 115q-33 0 -65 -9.5t-73 -32.5l-31 85q44 23 90.5 34t95.5 11q60 0 106 -17t72 -49q16 -18 24 -39t11.5 -52.5t3.5 -81.5v-152q0 -45 1.5 -76.5t3.5 -53.5h-115l-4 58q-37 -38 -72.5 -53.5
t-85.5 -15.5q-78 0 -121.5 41t-43.5 114zM163 146q0 -34 21.5 -55t55.5 -21q65 0 114 70v96q-18 1 -28.5 1.5t-23.5 0.5q-65 0 -102 -21t-37 -71zM185 673q0 32 21 52.5t53 20.5t53 -21t21 -53t-21 -53t-53 -21q-33 0 -53.5 21t-20.5 54z" />
    <glyph glyph-name="uni0237" unicode="&#x237;" horiz-adv-x="293" 
d="M91 -18v528h121v-512q0 -68 -6 -104t-23 -59q-40 -61 -135 -61q-40 0 -87 12l10 92q17 -5 28 -7t23 -2q38 0 53.5 25.5t15.5 87.5z" />
    <glyph glyph-name="uni0259" unicode="&#x259;" horiz-adv-x="570" 
d="M44 293h358q-7 68 -41 103.5t-105 35.5q-77 0 -154 -49l-42 88q47 26 94.5 38t102.5 12q131 0 201 -68.5t70 -196.5q0 -123 -65.5 -195t-181.5 -72q-92 0 -143.5 35.5t-72.5 103.5t-21 165zM199.5 111q29.5 -34 81.5 -34q54 0 84 34.5t37 97.5h-234q2 -64 31.5 -98z" />
    <glyph glyph-name="uni02B0" unicode="&#x2b0;" horiz-adv-x="365" 
d="M55 806h80v-152q23 23 43 32t48 9q59 0 82 -40q8 -13 10.5 -30.5t2.5 -49.5v-170h-80v167q0 34 -9 47.5t-30 13.5q-34 0 -67 -42v-186h-80v401z" />
    <glyph glyph-name="uni02BB" unicode="&#x2bb;" horiz-adv-x="230" 
d="M140 472h-136l103 259h112z" />
    <glyph glyph-name="uni02BC" unicode="&#x2bc;" horiz-adv-x="215" 
d="M80 731h135l-103 -259h-112z" />
    <glyph glyph-name="circumflex" unicode="&#x2c6;" horiz-adv-x="500" 
d="M178 731h144l111 -146h-113l-70 91l-70 -91h-113z" />
    <glyph glyph-name="caron" unicode="&#x2c7;" horiz-adv-x="500" 
d="M67 731h113l70 -91l70 91h113l-111 -146h-144z" />
    <glyph glyph-name="uni02C9" unicode="&#x2c9;" horiz-adv-x="500" 
d="M83 695h334v-76h-334v76z" />
    <glyph glyph-name="uni02CB" unicode="&#x2cb;" horiz-adv-x="500" 
d="M353 585h-113l-155 146h147z" />
    <glyph glyph-name="breve" unicode="&#x2d8;" horiz-adv-x="500" 
d="M373.5 612.5q-41.5 -37.5 -123.5 -37.5t-123 37.5t-43 118.5h75q4 -41 24.5 -59t66.5 -18q47 0 67 18t24 59h75q-1 -81 -42.5 -118.5z" />
    <glyph glyph-name="dotaccent" unicode="&#x2d9;" horiz-adv-x="500" 
d="M176 673q0 32 21 52.5t53 20.5t53 -21t21 -53t-21 -53t-53 -21q-33 0 -53.5 21t-20.5 54z" />
    <glyph glyph-name="ring" unicode="&#x2da;" horiz-adv-x="500" 
d="M141 674q0 45 31.5 76t77.5 31q47 0 78 -31t31 -77t-31 -77t-78 -31t-78 31t-31 78zM200 673q0 -25 14 -39t36 -14q23 0 36 14.5t13 38.5t-13 38.5t-36 14.5q-22 0 -36 -14.5t-14 -38.5z" />
    <glyph glyph-name="ogonek" unicode="&#x2db;" horiz-adv-x="500" 
d="M101 -124q0 41 34 80t88 63l88 -19q-46 -4 -79 -33.5t-33 -69.5q0 -25 16.5 -39.5t46.5 -14.5q11 0 19 1.5t21 5.5l6 -60q-40 -10 -70 -10q-66 0 -101.5 25t-35.5 71z" />
    <glyph glyph-name="tilde" unicode="&#x2dc;" horiz-adv-x="500" 
d="M405.5 629q-27.5 -33 -69.5 -33q-18 0 -40 5t-56 16q-31 11 -43.5 14.5t-23.5 3.5q-35 0 -41 -41h-69q5 57 32 90t69 33q18 0 40 -4.5t56 -16.5q32 -11 44 -14.5t23 -3.5q35 0 41 41h69q-4 -57 -31.5 -90z" />
    <glyph glyph-name="hungarumlaut" unicode="&#x2dd;" horiz-adv-x="500" 
d="M196 731h145l-147 -146h-111zM398 731h146l-149 -146h-109z" />
    <glyph glyph-name="uni02E3" unicode="&#x2e3;" horiz-adv-x="356" 
d="M180 602l66 88h90l-112 -138l113 -147h-92l-67 92l-70 -92h-89l115 144l-108 141h92z" />
    <glyph glyph-name="gravecomb" unicode="&#x300;" 
d="M96 585h-113l-155 146h147z" />
    <glyph glyph-name="acutecomb" unicode="&#x301;" 
d="M39 731h147l-155 -146h-113z" />
    <glyph glyph-name="uni0302" unicode="&#x302;" 
d="M-72 731h144l111 -146h-113l-70 91l-70 -91h-113z" />
    <glyph glyph-name="tildecomb" unicode="&#x303;" 
d="M155.5 629q-27.5 -33 -69.5 -33q-18 0 -40 5t-56 16q-31 11 -43.5 14.5t-23.5 3.5q-35 0 -41 -41h-69q5 57 32 90t69 33q18 0 40 -4.5t56 -16.5q32 -11 44 -14.5t23 -3.5q35 0 41 41h69q-4 -57 -31.5 -90z" />
    <glyph glyph-name="uni0304" unicode="&#x304;" 
d="M-167 695h334v-76h-334v76z" />
    <glyph glyph-name="uni0305" unicode="&#x305;" 
d="M-522 695h474v-76h-474v76z" />
    <glyph glyph-name="uni0306" unicode="&#x306;" 
d="M123.5 612.5q-41.5 -37.5 -123.5 -37.5t-123 37.5t-43 118.5h75q4 -41 24.5 -59t66.5 -18q47 0 67 18t24 59h75q-1 -81 -42.5 -118.5z" />
    <glyph glyph-name="uni0307" unicode="&#x307;" 
d="M-74 673q0 32 21 52.5t53 20.5t53 -21t21 -53t-21 -53t-53 -21q-33 0 -53.5 21t-20.5 54z" />
    <glyph glyph-name="uni0308" unicode="&#x308;" 
d="M35 675q0 30 19.5 49.5t50.5 19.5t50.5 -19.5t19.5 -50.5t-19.5 -50.5t-50.5 -19.5t-50.5 20t-19.5 51zM-35 674q0 -31 -19 -50.5t-51 -19.5q-31 0 -50.5 20t-19.5 51q0 30 20 49.5t50 19.5q32 0 51 -19.5t19 -50.5z" />
    <glyph glyph-name="hookabovecomb" unicode="&#x309;" 
d="M-33 577q0 27 10 42t38 41q22 19 22 38q0 17 -11 27.5t-28 10.5q-15 0 -27 -7.5t-35 -29.5l-29 61q30 23 51 31t48 8q45 0 73.5 -25.5t28.5 -66.5q0 -25 -9.5 -42t-33.5 -38q-20 -17 -26 -29t-6 -27v-6h-66v12z" />
    <glyph glyph-name="uni030A" unicode="&#x30a;" 
d="M-109 674q0 45 31.5 76t77.5 31q47 0 78 -31t31 -77t-31 -77t-78 -31t-78 31t-31 78zM-50 673q0 -25 14 -39t36 -14q23 0 36 14.5t13 38.5t-13 38.5t-36 14.5q-22 0 -36 -14.5t-14 -38.5z" />
    <glyph glyph-name="uni030B" unicode="&#x30b;" 
d="M-55 731h145l-147 -146h-111zM147 731h146l-149 -146h-109z" />
    <glyph glyph-name="uni030C" unicode="&#x30c;" 
d="M-183 731h113l70 -91l70 91h113l-111 -146h-144z" />
    <glyph glyph-name="uni030D" unicode="&#x30d;" 
d="M-335 775h122l-5 -259h-112z" />
    <glyph glyph-name="uni030E" unicode="&#x30e;" 
d="M-444 775h123l-5 -259h-113zM-262 775h123l-5 -259h-113z" />
    <glyph glyph-name="uni030F" unicode="&#x30f;" 
d="M168 585h-111l-147 146h146zM-35 585h-109l-148 146h145z" />
    <glyph glyph-name="uni0310" unicode="&#x310;" 
d="M-159.5 612.5q-40.5 -37.5 -123.5 -37.5q-82 0 -122.5 37.5t-42.5 118.5h76q3 -41 23.5 -59t65.5 -18q46 0 66 18t24 59h75q-1 -81 -41.5 -118.5zM-209 773q0 -31 -20 -51.5t-52 -20.5q-31 0 -51.5 20.5t-20.5 52.5t20.5 52t51.5 20q32 0 52 -20.5t20 -52.5z" />
    <glyph glyph-name="uni0311" unicode="&#x311;" 
d="M-116 575h-76q-3 41 -23.5 59t-67.5 18t-67.5 -18t-23.5 -59h-76q2 81 42.5 118.5t124.5 37.5q83 0 124.5 -37.5t42.5 -118.5z" />
    <glyph glyph-name="uni0312" unicode="&#x312;" 
d="M58 583h-136l141 151h113z" />
    <glyph glyph-name="uni0313" unicode="&#x313;" 
d="M-299 731h123l-103 -259h-100z" />
    <glyph glyph-name="uni0314" unicode="&#x314;" 
d="M-155 472h-101l-102 259h123z" />
    <glyph glyph-name="uni0315" unicode="&#x315;" 
d="M82 731h124l-103 -259h-100z" />
    <glyph glyph-name="uni0316" unicode="&#x316;" 
d="M-139 -199h-113l-155 146h147z" />
    <glyph glyph-name="uni0317" unicode="&#x317;" 
d="M-283 -53h147l-155 -146h-113z" />
    <glyph glyph-name="uni0318" unicode="&#x318;" 
d="M-277 -168h-98v62h98v61h69v-185h-69v62z" />
    <glyph glyph-name="uni0319" unicode="&#x319;" 
d="M-325 -45h69v-61h96v-62h-96v-62h-69v185z" />
    <glyph glyph-name="uni031A" unicode="&#x31a;" 
d="M-114 599h-208v62h277v-166h-69v104z" />
    <glyph glyph-name="uni031B" unicode="&#x31b;" 
d="M54 515v67h92v-79q0 -127 -118 -127q-4 0 -16 0.5t-34 1.5l-35 82q30 -5 40.5 -6.5t20.5 -1.5q31 0 40.5 12.5t9.5 50.5z" />
    <glyph glyph-name="uni031C" unicode="&#x31c;" 
d="M-367 -138q0 60 42 83t114 24v-48q-41 -2 -59.5 -15.5t-18.5 -42.5q0 -30 18.5 -43.5t59.5 -15.5v-49q-73 2 -114.5 25.5t-41.5 81.5z" />
    <glyph glyph-name="uni031D" unicode="&#x31d;" 
d="M-362 -129h61v85h69v-85h61v-62h-191v62z" />
    <glyph glyph-name="uni031E" unicode="&#x31e;" 
d="M-301 -107h-61v62h191v-62h-61v-84h-69v84z" />
    <glyph glyph-name="uni031F" unicode="&#x31f;" 
d="M-301 -168h-58v62h58v61h68v-61h58v-62h-58v-61h-68v61z" />
    <glyph glyph-name="uni0320" unicode="&#x320;" 
d="M-431 -55h335v-76h-335v76z" />
    <glyph glyph-name="uni0321" unicode="&#x321;" 
d="M-153 -68v80h91v-92q0 -37 -8 -60.5t-26 -38.5q-29 -26 -80 -26q-23 0 -40.5 3t-47.5 13l12 72q8 -3 27 -7t29 -4q26 0 34.5 12.5t8.5 47.5z" />
    <glyph glyph-name="uni0322" unicode="&#x322;" 
d="M-192 -80v92h91v-80q0 -35 8.5 -47.5t33.5 -12.5q11 0 30 4t26 7l12 -72q-30 -10 -47 -13t-40 -3q-24 0 -45 6.5t-35 19.5q-18 15 -26 38.5t-8 60.5z" />
    <glyph glyph-name="dotbelowcomb" unicode="&#x323;" 
d="M-72 -146q0 31 20.5 51t51.5 20q32 0 52 -20.5t20 -52.5q0 -31 -20 -51.5t-52 -20.5t-52 20.5t-20 53.5z" />
    <glyph glyph-name="uni0324" unicode="&#x324;" 
d="M-237 -127q0 30 19.5 49.5t50.5 19.5t50.5 -19.5t19.5 -50.5t-19.5 -50.5t-50.5 -19.5t-50.5 20t-19.5 51zM-307 -128q0 -31 -19 -50.5t-51 -19.5q-31 0 -50.5 20t-19.5 51q0 30 20 49.5t50 19.5q32 0 51 -19.5t19 -50.5z" />
    <glyph glyph-name="uni0325" unicode="&#x325;" 
d="M-377 -157q0 45 31.5 76t77.5 31q47 0 78 -31t31 -77t-31 -77t-78 -31t-78 31t-31 78zM-318 -158q0 -25 14 -39t36 -14q23 0 36 14.5t13 38.5t-13 38.5t-36 14.5q-22 0 -36 -14.5t-14 -38.5z" />
    <glyph glyph-name="uni0326" unicode="&#x326;" 
d="M-42 -53h136l-141 -151h-112z" />
    <glyph glyph-name="uni0327" unicode="&#x327;" 
d="M43 -124q0 29 -45 29q-13 0 -23.5 -2t-23.5 -6l22 110h57l-9 -50q7 1 12 1q51 0 79.5 -21t28.5 -59q0 -52 -37 -75t-95 -23q-34 0 -76 9l4 60q15 -4 25.5 -5t22.5 -1q26 0 42 7.5t16 25.5z" />
    <glyph glyph-name="uni0328" unicode="&#x328;" 
d="M-210 -124q0 41 34 80t88 63l88 -19q-46 -4 -79 -33.5t-33 -69.5q0 -25 16.5 -39.5t46.5 -14.5q11 0 19 1.5t21 5.5l6 -60q-40 -10 -70 -10q-66 0 -101.5 25t-35.5 71z" />
    <glyph glyph-name="uni0329" unicode="&#x329;" 
d="M-300 -52h66v-145h-66v145z" />
    <glyph glyph-name="uni032A" unicode="&#x32a;" 
d="M-393 -45h252v-135h-69v73h-114v-73h-69v135z" />
    <glyph glyph-name="uni032B" unicode="&#x32b;" 
d="M-402 -98v53h56v-42q0 -20 24 -20q27 0 27 20v42h56v-42q0 -20 27 -20q24 0 24 20v42h56v-53q0 -30 -20 -47.5t-56 -17.5q-21 0 -33.5 4.5t-25.5 15.5q-13 -11 -25.5 -15.5t-33.5 -4.5q-36 0 -56 17t-20 48z" />
    <glyph glyph-name="uni032C" unicode="&#x32c;" 
d="M-456 -41h113l70 -91l70 91h113l-111 -146h-144z" />
    <glyph glyph-name="uni032D" unicode="&#x32d;" 
d="M-351 -43h144l111 -146h-113l-70 91l-70 -91h-113z" />
    <glyph glyph-name="uni032E" unicode="&#x32e;" 
d="M-157.5 -175.5q-41.5 -37.5 -123.5 -37.5t-123 37.5t-43 118.5h75q4 -41 24.5 -59t66.5 -18q47 0 67 18t24 59h75q-1 -81 -42.5 -118.5z" />
    <glyph glyph-name="uni032F" unicode="&#x32f;" 
d="M-116 -210h-76q-3 41 -23.5 59t-67.5 18t-67.5 -18t-23.5 -59h-76q2 81 42.5 118.5t124.5 37.5q83 0 124.5 -37.5t42.5 -118.5z" />
    <glyph glyph-name="uni0330" unicode="&#x330;" 
d="M-135.5 -161q-27.5 -33 -69.5 -33q-18 0 -40 5t-56 16q-31 11 -43.5 14.5t-23.5 3.5q-35 0 -41 -41h-69q5 57 32 90t69 33q18 0 40 -4.5t56 -16.5q32 -11 44 -14.5t23 -3.5q35 0 41 41h69q-4 -57 -31.5 -90z" />
    <glyph glyph-name="uni0331" unicode="&#x331;" 
d="M-436 -58h334v-76h-334v76z" />
    <glyph glyph-name="uni0332" unicode="&#x332;" 
d="M-572 -54h474v-76h-474v76z" />
    <glyph glyph-name="uni0333" unicode="&#x333;" 
d="M-576 -151h528v-76h-528v76zM-576 -45h528v-76h-528v76z" />
    <glyph glyph-name="uni0334" unicode="&#x334;" 
d="M-117.5 220q-27.5 -33 -69.5 -33q-18 0 -40 5t-56 16q-31 11 -43.5 14.5t-23.5 3.5q-35 0 -41 -41h-69q5 57 32 90t69 33q18 0 40 -4.5t56 -16.5q32 -11 44 -14.5t23 -3.5q35 0 41 41h69q-4 -57 -31.5 -90z" />
    <glyph glyph-name="uni0335" unicode="&#x335;" 
d="M-441 274h334v-76h-334v76z" />
    <glyph glyph-name="uni0336" unicode="&#x336;" 
d="M-541 274h510v-76h-510v76z" />
    <glyph glyph-name="uni0337" unicode="&#x337;" 
d="M-144 412l33 -27l-290 -328l-29 31z" />
    <glyph glyph-name="uni0338" unicode="&#x338;" 
d="M-54 513l32 -27l-456 -516l-32 28z" />
    <glyph glyph-name="uni0339" unicode="&#x339;" 
d="M-367 -196q41 2 59 15.5t18 43.5q0 29 -18 42.5t-59 15.5v48q71 -1 113.5 -24t42.5 -83q0 -58 -41.5 -81.5t-114.5 -25.5v49z" />
    <glyph glyph-name="uni033A" unicode="&#x33a;" 
d="M-393 -45h69v-73h114v73h69v-135h-252v135z" />
    <glyph glyph-name="uni033B" unicode="&#x33b;" 
d="M-364 -44h195v-183h-195v183zM-230 -100h-72v-71h72v71z" />
    <glyph glyph-name="uni033C" unicode="&#x33c;" 
d="M-303.5 -119q-15.5 7 -30.5 7t-25.5 -5.5t-27.5 -23.5l-42 43q37 31 55 40t40 9q19 0 33.5 -5.5t33.5 -19.5q19 14 33.5 19.5t33.5 5.5q23 0 40.5 -9t54.5 -40l-42 -43q-17 18 -27.5 23.5t-25.5 5.5t-30 -7t-29 -22l-8 -8l-8 8q-13 15 -28.5 22z" />
    <glyph glyph-name="uni033D" unicode="&#x33d;" 
d="M-419 579l81 30l-81 30l24 50l128 -51l129 51l24 -50l-80 -30l80 -30l-24 -50l-128 50l-129 -50z" />
    <glyph glyph-name="uni033E" unicode="&#x33e;" 
d="M-320 540q40 9 40 38q0 7 -1 13t-5 19.5t-13 39.5q-9 27 -13 42t-5.5 25.5t-1.5 22.5q0 94 124 103v-69q-41 -6 -41 -40q0 -13 3.5 -25t14.5 -44q12 -33 16.5 -55t4.5 -40q0 -42 -33 -69t-90 -32v71z" />
    <glyph glyph-name="uni033F" unicode="&#x33f;" 
d="M-575 650h528v-76h-528v76zM-575 756h528v-76h-528v76z" />
    <glyph glyph-name="uni0340" unicode="&#x340;" 
d="M-179 585h-113l-155 146h147z" />
    <glyph glyph-name="uni0341" unicode="&#x341;" 
d="M-245 731h147l-155 -146h-113z" />
    <glyph glyph-name="uni0342" unicode="&#x342;" 
d="M-133.5 629q-27.5 -33 -69.5 -33q-18 0 -40 5t-56 16q-31 11 -43.5 14.5t-23.5 3.5q-35 0 -41 -41h-69q5 57 32 90t69 33q18 0 40 -4.5t56 -16.5q32 -11 44 -14.5t23 -3.5q35 0 41 41h69q-4 -57 -31.5 -90z" />
    <glyph glyph-name="uni0343" unicode="&#x343;" 
d="M-300 731h123l-103 -259h-100z" />
    <glyph glyph-name="uni0344" unicode="&#x344;" 
d="M-19 796h121l-80 -180h-74zM-209 674q0 30 18.5 48.5t48.5 18.5t48.5 -18.5t18.5 -48.5t-18.5 -48.5t-48.5 -18.5t-48.5 18.5t-18.5 48.5zM108.5 722.5q18.5 18.5 48.5 18.5q29 0 48 -18.5t19 -48.5t-19 -48.5t-48 -18.5q-30 0 -48.5 18.5t-18.5 48.5t18.5 48.5z" />
    <glyph glyph-name="uni0345" unicode="&#x345;" 
d="M-333 -93v60h91v-48q0 -35 8.5 -47.5t33.5 -12.5q12 0 23.5 2.5t32.5 8.5l12 -71q-22 -8 -43 -12.5t-44 -4.5q-24 0 -45 7t-35 18q-19 16 -26.5 39t-7.5 61z" />
    <glyph glyph-name="uni037A" unicode="&#x37a;" horiz-adv-x="360" 
d="M93 -93v93h91v-81q0 -35 8.5 -47.5t33.5 -12.5q13 0 24 2.5t32 8.5l13 -71q-22 -8 -43 -12.5t-45 -4.5t-45 7t-35 18q-18 16 -26 39t-8 61z" />
    <glyph glyph-name="uni037E" unicode="&#x37e;" horiz-adv-x="305" 
d="M87 427q0 35 22.5 57t56.5 22q35 0 57.5 -22t22.5 -57q0 -34 -23 -56.5t-57 -22.5t-56.5 22.5t-22.5 56.5zM100 142h138l-101 -264h-117z" />
    <glyph glyph-name="tonos" unicode="&#x384;" horiz-adv-x="500" 
d="M167 749h144l-78 -174h-98z" />
    <glyph glyph-name="dieresistonos" unicode="&#x385;" horiz-adv-x="500" 
d="M231 796h121l-80 -180h-74zM41 674q0 30 18.5 48.5t48.5 18.5t48.5 -18.5t18.5 -48.5t-18.5 -48.5t-48.5 -18.5t-48.5 18.5t-18.5 48.5zM358.5 722.5q18.5 18.5 48.5 18.5q29 0 48 -18.5t19 -48.5t-19 -48.5t-48 -18.5q-30 0 -48.5 18.5t-18.5 48.5t18.5 48.5z" />
    <glyph glyph-name="Alphatonos" unicode="&#x386;" horiz-adv-x="676" 
d="M135 0h-126l257 692h138l263 -692h-133l-70 196h-260zM311.5 498.5q-5.5 -15.5 -15.5 -43.5l-58 -163h192l-58 163q-8 23 -13.5 40t-11 34.5t-13.5 43.5q-8 -27 -12.5 -43t-10 -31.5zM6 692h152l-99 -216h-106z" />
    <glyph glyph-name="anoteleia" unicode="&#x387;" horiz-adv-x="305" 
d="M73 427q0 35 22.5 57t56.5 22q35 0 57.5 -22t22.5 -57q0 -34 -23 -56.5t-57 -22.5t-56.5 22.5t-22.5 56.5z" />
    <glyph glyph-name="Epsilontonos" unicode="&#x388;" horiz-adv-x="563" 
d="M85 692h409v-100h-283v-191h269v-100h-269v-201h298v-100h-424v692zM-132 692h152l-99 -216h-106z" />
    <glyph glyph-name="Etatonos" unicode="&#x389;" horiz-adv-x="707" 
d="M85 692h126v-289h285v289h125v-692h-125v304h-285v-304h-126v692zM-132 692h152l-99 -216h-106z" />
    <glyph glyph-name="Iotatonos" unicode="&#x38a;" horiz-adv-x="296" 
d="M85 692h126v-692h-126v692zM-132 692h152l-99 -216h-106z" />
    <glyph glyph-name="Omicrontonos" unicode="&#x38c;" horiz-adv-x="743" 
d="M49 350q0 102 38.5 181.5t110.5 125.5t173 46q102 0 174.5 -46t110.5 -125.5t38 -181.5q0 -104 -37 -185.5t-109 -128.5t-177 -47q-104 0 -176 47t-109 128.5t-37 185.5zM180 349q0 -121 51.5 -191t139.5 -70q89 0 141 70t52 191q0 117 -52 186t-141 69q-88 0 -139.5 -69
t-51.5 -186zM-86 692h152l-99 -216h-106z" />
    <glyph glyph-name="Upsilontonos" unicode="&#x38e;" horiz-adv-x="621" 
d="M248 295l-255 397h146l126 -202q13 -21 23.5 -38.5t26.5 -47.5q17 31 27 48.5t24 39.5l124 200h137l-253 -397v-295h-126v295zM-222 692h152l-99 -216h-106z" />
    <glyph glyph-name="Omegatonos" unicode="&#x38f;" horiz-adv-x="743" 
d="M47 100h171v34q-80 36 -122.5 104t-42.5 160q0 91 40 159.5t112 107t166 38.5q95 0 167 -38.5t112 -107t40 -159.5q0 -92 -42.5 -160t-122.5 -104v-34h171v-100h-275v178q65 23 101.5 81.5t36.5 136.5q0 94 -51 151t-137 57q-85 0 -136 -57t-51 -151q0 -78 36.5 -136.5
t100.5 -81.5v-178h-274v100zM-89 692h152l-99 -216h-106z" />
    <glyph glyph-name="iotadieresistonos" unicode="&#x390;" horiz-adv-x="344" 
d="M78 179v331h121v-325q0 -55 15.5 -77.5t52.5 -22.5q23 0 56 12l10 -91q-28 -9 -53.5 -13t-51.5 -4q-59 0 -92 20.5t-45.5 63t-12.5 106.5zM119 796h121l-80 -180h-74zM-71 674q0 30 18.5 48.5t48.5 18.5t48.5 -18.5t18.5 -48.5t-18.5 -48.5t-48.5 -18.5t-48.5 18.5
t-18.5 48.5zM246.5 722.5q18.5 18.5 48.5 18.5q29 0 48 -18.5t19 -48.5t-19 -48.5t-48 -18.5q-30 0 -48.5 18.5t-18.5 48.5t18.5 48.5z" />
    <glyph glyph-name="Alpha" unicode="&#x391;" horiz-adv-x="676" 
d="M135 0h-126l257 692h138l263 -692h-133l-70 196h-260zM311.5 498.5q-5.5 -15.5 -15.5 -43.5l-58 -163h192l-58 163q-8 23 -13.5 40t-11 34.5t-13.5 43.5q-8 -27 -12.5 -43t-10 -31.5z" />
    <glyph glyph-name="Beta" unicode="&#x392;" horiz-adv-x="600" 
d="M85 692h193q50 0 82.5 -3t56 -10t43.5 -20q36 -21 56 -60.5t20 -89.5q0 -63 -28.5 -101t-89.5 -55q133 -29 133 -162q0 -50 -20 -91.5t-58 -64.5q-31 -19 -68 -27t-105 -8h-215v692zM422 199q0 63 -41.5 85.5t-112.5 22.5h-60v-214h59q51 0 85.5 8t52 30.5t17.5 67.5z
M392 561.5q-18 22.5 -51.5 30t-79.5 7.5h-53v-205h58q69 0 106.5 19t37.5 81q0 45 -18 67.5z" />
    <glyph glyph-name="Gamma" unicode="&#x393;" horiz-adv-x="499" 
d="M85 692h405v-100h-279v-592h-126v692z" />
    <glyph glyph-name="uni0394" unicode="&#x394;" horiz-adv-x="659" 
d="M27 91l233 601h138l234 -601v-91h-605v91zM324 566q-14 -42 -38 -107l-133 -362h342l-134 362q-12 34 -21 59t-16 48z" />
    <glyph glyph-name="Epsilon" unicode="&#x395;" horiz-adv-x="563" 
d="M85 692h409v-100h-283v-191h269v-100h-269v-201h298v-100h-424v692z" />
    <glyph glyph-name="Zeta" unicode="&#x396;" horiz-adv-x="576" 
d="M31 92l347 500h-335v100h489v-92l-346 -500h357v-100h-512v92z" />
    <glyph glyph-name="Eta" unicode="&#x397;" horiz-adv-x="707" 
d="M85 692h126v-289h285v289h125v-692h-125v304h-285v-304h-126v692z" />
    <glyph glyph-name="Theta" unicode="&#x398;" horiz-adv-x="743" 
d="M49 350q0 102 38.5 181.5t110.5 125.5t173 46q102 0 174.5 -46t110.5 -125.5t38 -181.5q0 -104 -37 -185.5t-109 -128.5t-177 -47q-104 0 -176 47t-109 128.5t-37 185.5zM178 347q0 -121 51.5 -191t142.5 -70q90 0 142 70t52 191q0 119 -52.5 189t-141.5 70
q-90 0 -142 -70t-52 -189zM244 400h255v-98h-255v98z" />
    <glyph glyph-name="Iota" unicode="&#x399;" horiz-adv-x="296" 
d="M85 692h126v-692h-126v692z" />
    <glyph glyph-name="Kappa" unicode="&#x39a;" horiz-adv-x="641" 
d="M211 0h-126v692h126v-324l271 324h144l-273 -325l284 -367h-153l-273 360v-360z" />
    <glyph glyph-name="Lambda" unicode="&#x39b;" horiz-adv-x="654" 
d="M324 550q-7 -22 -13.5 -43.5t-16.5 -51.5l-158 -455h-127l249 692h138l249 -692h-133l-158 455q-10 30 -17 51.5t-13 43.5z" />
    <glyph glyph-name="Mu" unicode="&#x39c;" horiz-adv-x="908" 
d="M85 692h183l151 -434q11 -31 18.5 -57t18.5 -65q11 37 18.5 63.5t18.5 58.5l149 434h181v-692h-122v568q-8 -29 -13 -47t-9.5 -32t-10 -30.5t-14.5 -41.5l-143 -417h-117l-142 408q-12 35 -23.5 71t-26.5 87v-566h-117v692z" />
    <glyph glyph-name="Nu" unicode="&#x39d;" horiz-adv-x="727" 
d="M85 692h140l217 -363q24 -40 41.5 -72t40.5 -78q-2 21 -2 40v51v422h120v-692h-139l-211 352q-20 34 -33.5 58t-26 48t-29.5 58q2 -24 2.5 -40.5t0.5 -34.5v-47v-394h-121v692z" />
    <glyph glyph-name="Xi" unicode="&#x39e;" horiz-adv-x="575" 
d="M54 103h466v-103h-466v103zM69 692h436v-103h-436v103zM129 402h316v-100h-316v100z" />
    <glyph glyph-name="Omicron" unicode="&#x39f;" horiz-adv-x="743" 
d="M49 350q0 102 38.5 181.5t110.5 125.5t173 46q102 0 174.5 -46t110.5 -125.5t38 -181.5q0 -104 -37 -185.5t-109 -128.5t-177 -47q-104 0 -176 47t-109 128.5t-37 185.5zM180 349q0 -121 51.5 -191t139.5 -70q89 0 141 70t52 191q0 117 -52 186t-141 69q-88 0 -139.5 -69
t-51.5 -186z" />
    <glyph glyph-name="Pi" unicode="&#x3a0;" horiz-adv-x="687" 
d="M85 692h517v-692h-125v592h-266v-592h-126v692z" />
    <glyph glyph-name="Rho" unicode="&#x3a1;" horiz-adv-x="555" 
d="M85 692h171q81 0 125.5 -9t77.5 -33q37 -26 57 -69t20 -98q0 -54 -21 -97.5t-59 -69.5q-33 -22 -76.5 -31.5t-112.5 -9.5h-56v-275h-126v692zM408 480q0 47 -19 71.5t-54 34t-82 9.5h-45v-223h41q51 0 86.5 8t54 31.5t18.5 68.5z" />
    <glyph glyph-name="Sigma" unicode="&#x3a3;" horiz-adv-x="570" 
d="M35 92l223 258l-212 250v92h468v-100h-306l199 -234l-224 -258h346v-100h-494v92z" />
    <glyph glyph-name="Tau" unicode="&#x3a4;" horiz-adv-x="548" 
d="M211 592h-200v100h527v-100h-201v-592h-126v592z" />
    <glyph glyph-name="Upsilon" unicode="&#x3a5;" horiz-adv-x="621" 
d="M248 295l-255 397h146l126 -202q13 -21 23.5 -38.5t26.5 -47.5q17 31 27 48.5t24 39.5l124 200h137l-253 -397v-295h-126v295z" />
    <glyph glyph-name="Phi" unicode="&#x3a6;" horiz-adv-x="866" 
d="M376 45q-101 8 -173.5 48t-111.5 105t-39 148t39 148t111.5 105t173.5 48v66h115v-66q101 -8 173.5 -48t111.5 -105t39 -148t-39 -148t-111.5 -105t-173.5 -48v-66h-115v66zM181 346q0 -84 51 -140t144 -69v418q-93 -13 -144 -69t-51 -140zM686 346q0 84 -51 140t-144 69
v-418q93 13 144 69t51 140z" />
    <glyph glyph-name="Chi" unicode="&#x3a7;" horiz-adv-x="686" 
d="M341 253l-175 -253h-147l249 354l-236 338h146l168 -244l172 244h142l-242 -338l247 -354h-151z" />
    <glyph glyph-name="Psi" unicode="&#x3a8;" horiz-adv-x="844" 
d="M359 173q-158 3 -230.5 81t-72.5 243v195h126v-195q0 -115 41 -167.5t136 -56.5v419h126v-419q95 5 136 57t41 167v195h125v-195q0 -165 -72 -243t-230 -81v-173h-126v173z" />
    <glyph glyph-name="uni03A9" unicode="&#x3a9;" horiz-adv-x="743" 
d="M47 100h171v34q-80 36 -122.5 104t-42.5 160q0 91 40 159.5t112 107t166 38.5q95 0 167 -38.5t112 -107t40 -159.5q0 -92 -42.5 -160t-122.5 -104v-34h171v-100h-275v178q65 23 101.5 81.5t36.5 136.5q0 94 -51 151t-137 57q-85 0 -136 -57t-51 -151q0 -78 36.5 -136.5
t100.5 -81.5v-178h-274v100z" />
    <glyph glyph-name="Iotadieresis" unicode="&#x3aa;" horiz-adv-x="296" 
d="M85 692h126v-692h-126v692zM-29 833q0 31 20.5 51t51.5 20q32 0 52.5 -20t20.5 -52q0 -31 -20.5 -52t-52.5 -21t-52 21t-20 53zM201 884q21 20 52 20q32 0 52 -20t20 -52q0 -31 -20 -52t-52 -21t-52.5 21t-20.5 53q0 31 21 51z" />
    <glyph glyph-name="Upsilondieresis" unicode="&#x3ab;" horiz-adv-x="621" 
d="M248 295l-255 397h146l126 -202q13 -21 23.5 -38.5t26.5 -47.5q17 31 27 48.5t24 39.5l124 200h137l-253 -397v-295h-126v295zM134 833q0 31 20.5 51t51.5 20q32 0 52.5 -20t20.5 -52q0 -31 -20.5 -52t-52.5 -21t-52 21t-20 53zM364 884q21 20 52 20q32 0 52 -20t20 -52
q0 -31 -20 -52t-52 -21t-52.5 21t-20.5 53q0 31 21 51z" />
    <glyph glyph-name="alphatonos" unicode="&#x3ac;" horiz-adv-x="623" 
d="M44 256q0 122 56.5 193.5t153.5 71.5q44 0 78.5 -18t70.5 -62l6 69h117q-2 -22 -3.5 -46t-2 -57.5t-0.5 -84.5v-183q0 -54 41 -54q15 0 31 6l10 -88q-19 -6 -41.5 -10t-44.5 -4q-94 0 -112 83q-30 -44 -66 -63.5t-84 -19.5q-64 0 -111 32.5t-73 92.5t-26 142zM170 256
q0 -79 30.5 -127.5t81.5 -48.5q66 0 117 89v177q-51 84 -115 84q-52 0 -83 -47t-31 -127zM264 749h144l-78 -174h-98z" />
    <glyph glyph-name="epsilontonos" unicode="&#x3ad;" horiz-adv-x="489" 
d="M53 380q0 68 55 104.5t155 36.5t182 -41l-35 -88q-34 21 -68 31.5t-71 10.5q-97 0 -97 -63q0 -33 31 -50t98 -17q15 0 31 0.5t35 1.5v-85q-13 1 -28 1.5t-30 0.5q-73 0 -107.5 -17.5t-34.5 -55.5q0 -35 27 -53.5t77 -18.5q40 0 76.5 12t79.5 38l41 -89q-44 -24 -96 -37
t-116 -13q-105 0 -159.5 37t-54.5 109q0 51 26.5 84.5t71.5 44.5q-42 12 -65.5 41.5t-23.5 74.5zM257 749h144l-78 -174h-98z" />
    <glyph glyph-name="etatonos" unicode="&#x3ae;" horiz-adv-x="636" 
d="M103 371q0 54 -41 54q-14 0 -31 -6l-10 88q20 6 42 10t44 4q93 0 111 -81q46 44 86 62.5t92 18.5q86 0 124 -48.5t38 -160.5v-527h-121v521q0 67 -17.5 95.5t-60.5 28.5q-70 0 -135 -87v-343h-121v371zM280 749h144l-78 -174h-98z" />
    <glyph glyph-name="iotatonos" unicode="&#x3af;" horiz-adv-x="344" 
d="M78 179v331h121v-325q0 -55 15.5 -77.5t52.5 -22.5q23 0 56 12l10 -91q-28 -9 -53.5 -13t-51.5 -4q-59 0 -92 20.5t-45.5 63t-12.5 106.5zM123 749h144l-78 -174h-98z" />
    <glyph glyph-name="upsilondieresistonos" unicode="&#x3b0;" horiz-adv-x="581" 
d="M212 385v-140q0 -85 23 -125.5t71 -40.5q107 0 107 198q0 62 -11 113.5t-36 104.5l118 27q29 -61 41 -115.5t12 -116.5q0 -146 -61.5 -223.5t-177.5 -77.5q-207 0 -207 255v127q0 54 -41 54q-14 0 -31 -6l-10 88q19 6 41.5 10t44.5 4q60 0 88.5 -32.5t28.5 -103.5z
M250 796h121l-80 -180h-74zM60 674q0 30 18.5 48.5t48.5 18.5t48.5 -18.5t18.5 -48.5t-18.5 -48.5t-48.5 -18.5t-48.5 18.5t-18.5 48.5zM377.5 722.5q18.5 18.5 48.5 18.5q29 0 48 -18.5t19 -48.5t-19 -48.5t-48 -18.5q-30 0 -48.5 18.5t-18.5 48.5t18.5 48.5z" />
    <glyph glyph-name="alpha" unicode="&#x3b1;" horiz-adv-x="623" 
d="M44 256q0 122 56.5 193.5t153.5 71.5q44 0 78.5 -18t70.5 -62l6 69h117q-2 -22 -3.5 -46t-2 -57.5t-0.5 -84.5v-183q0 -54 41 -54q15 0 31 6l10 -88q-19 -6 -41.5 -10t-44.5 -4q-94 0 -112 83q-30 -44 -66 -63.5t-84 -19.5q-64 0 -111 32.5t-73 92.5t-26 142zM170 256
q0 -79 30.5 -127.5t81.5 -48.5q66 0 117 89v177q-51 84 -115 84q-52 0 -83 -47t-31 -127z" />
    <glyph glyph-name="beta" unicode="&#x3b2;" horiz-adv-x="624" 
d="M83 507q0 116 58 176t172 60q106 0 167 -50.5t61 -139.5q0 -59 -27 -99.5t-76 -58.5q67 -18 104 -67.5t37 -123.5q0 -64 -27 -112.5t-76.5 -75.5t-116.5 -27q-97 0 -155 67v-271h-121v722zM455 207q0 64 -37 99.5t-100 35.5h-10.5t-12.5 -1v93q7 -1 10.5 -1h7.5
q47 0 75.5 29.5t28.5 82.5q0 52 -27 79.5t-76 27.5q-110 0 -110 -162v-333q53 -77 131 -77q56 0 88 34t32 93z" />
    <glyph glyph-name="gamma" unicode="&#x3b3;" horiz-adv-x="586" 
d="M240 6q-22 72 -42 129.5t-42.5 111.5t-51.5 118q-15 35 -28.5 47.5t-30.5 12.5q-6 0 -12 -1t-13 -4l-10 90q30 11 67 11q48 0 78 -24t56 -83q29 -66 49 -117.5t36 -103.5q12 -36 19 -68q33 77 57 140.5t41 122t30 122.5h114q-15 -63 -32.5 -120t-40 -115t-52.5 -125
t-71 -149v-216h-121v221z" />
    <glyph glyph-name="delta" unicode="&#x3b4;" horiz-adv-x="591" 
d="M195 472q-49 26 -69.5 56t-20.5 69q0 68 54 107t148 39q47 0 92 -10t85 -29l-32 -89q-73 39 -144 39q-40 0 -62.5 -13.5t-22.5 -39.5q0 -21 20 -38.5t80 -41.5l16 -7q109 -44 158.5 -108t49.5 -159q0 -79 -31 -137t-87.5 -89.5t-134.5 -31.5q-77 0 -133 30.5t-86.5 86
t-30.5 130.5q0 167 151 236zM170 243q0 -76 33.5 -120t91.5 -44q59 0 93 44.5t34 119.5q0 68 -33.5 112t-113.5 82q-105 -71 -105 -194z" />
    <glyph glyph-name="epsilon" unicode="&#x3b5;" horiz-adv-x="489" 
d="M53 380q0 68 55 104.5t155 36.5t182 -41l-35 -88q-34 21 -68 31.5t-71 10.5q-97 0 -97 -63q0 -33 31 -50t98 -17q15 0 31 0.5t35 1.5v-85q-13 1 -28 1.5t-30 0.5q-73 0 -107.5 -17.5t-34.5 -55.5q0 -35 27 -53.5t77 -18.5q40 0 76.5 12t79.5 38l41 -89q-44 -24 -96 -37
t-116 -13q-105 0 -159.5 37t-54.5 109q0 51 26.5 84.5t71.5 44.5q-42 12 -65.5 41.5t-23.5 74.5z" />
    <glyph glyph-name="zeta" unicode="&#x3b6;" horiz-adv-x="440" 
d="M316 -64q0 24 -13 37t-48 23l-42 12q-87 25 -126.5 77.5t-39.5 132.5q0 104 63.5 206.5t195.5 212.5h-243v94h366v-84q-78 -71 -135.5 -138t-89.5 -133t-32 -136q0 -54 26 -87t81 -49l18 -6q71 -20 103.5 -52.5t32.5 -85.5q0 -37 -15 -81.5t-44 -88.5l-102 34
q44 66 44 112z" />
    <glyph glyph-name="eta" unicode="&#x3b7;" horiz-adv-x="636" 
d="M103 371q0 54 -41 54q-14 0 -31 -6l-10 88q20 6 42 10t44 4q93 0 111 -81q46 44 86 62.5t92 18.5q86 0 124 -48.5t38 -160.5v-527h-121v521q0 67 -17.5 95.5t-60.5 28.5q-70 0 -135 -87v-343h-121v371z" />
    <glyph glyph-name="theta" unicode="&#x3b8;" horiz-adv-x="581" 
d="M44 366q0 185 63 281t184 96t183.5 -96t62.5 -281q0 -184 -62.5 -280.5t-183.5 -96.5t-184 96.5t-63 280.5zM291 79q117 0 123 261h-247q6 -261 124 -261zM291 652q-111 0 -123 -228h245q-12 228 -122 228z" />
    <glyph glyph-name="iota" unicode="&#x3b9;" horiz-adv-x="344" 
d="M78 179v331h121v-325q0 -55 15.5 -77.5t52.5 -22.5q23 0 56 12l10 -91q-28 -9 -53.5 -13t-51.5 -4q-59 0 -92 20.5t-45.5 63t-12.5 106.5z" />
    <glyph glyph-name="kappa" unicode="&#x3ba;" horiz-adv-x="569" 
d="M199 0h-121v510h121v-217l145 160q34 38 60 53t60 15q31 0 56 -11l-10 -91q-15 6 -29 6q-15 0 -28 -8t-33 -29l-98 -103l226 -285h-144l-205 262v-262z" />
    <glyph glyph-name="lambda" unicode="&#x3bb;" horiz-adv-x="567" 
d="M41 730q23 6 46 9.5t44 3.5q49 0 83 -18t61.5 -60t53.5 -116l151 -418q10 -25 20.5 -35.5t28.5 -10.5q12 0 26 5l10 -90q-31 -11 -69 -11q-49 0 -78 23.5t-49 81.5l-62 175q-9 25 -18.5 53.5t-18.5 54.5q-17 -52 -40 -115l-95 -262h-117l200 514l-14 39q-19 53 -41 73.5
t-59 20.5q-27 0 -53 -9z" />
    <glyph glyph-name="uni03BC" unicode="&#x3bc;" horiz-adv-x="631" 
d="M78 510h121v-301q0 -129 85 -129q66 0 123 86v344h121v-371q0 -54 41 -54q15 0 31 6l10 -88q-19 -6 -41.5 -10t-44.5 -4q-93 0 -112 81q-34 -43 -66.5 -62t-67.5 -19q-55 0 -81 40q1 -20 1.5 -43t0.5 -51v-150h-121v725z" />
    <glyph glyph-name="nu" unicode="&#x3bd;" horiz-adv-x="566" 
d="M10 510q30 11 67 11q48 0 78 -24t56 -83q26 -60 44 -109.5t34 -108.5q12 -41 19 -72q32 78 52.5 141.5t35 122.5t27.5 122h114q-16 -67 -32 -126t-36.5 -117.5t-48 -123.5t-65.5 -143h-130q-20 75 -37 134.5t-36.5 114.5t-47.5 116q-15 35 -28.5 47.5t-30.5 12.5
q-6 0 -12 -1t-13 -4z" />
    <glyph glyph-name="xi" unicode="&#x3be;" horiz-adv-x="485" 
d="M362 -64q0 24 -13.5 37t-47.5 23l-42 12q-112 32 -162 81t-50 125q0 73 40 121.5t107 61.5q-58 8 -90.5 40.5t-32.5 82.5q0 43 24 73.5t68 45.5h-108v92h397v-93h-50q-107 0 -158.5 -25.5t-51.5 -79.5q0 -44 32 -68t90 -24q20 0 40 0.5t39 1.5v-96q-15 2 -32 2h-42
q-147 0 -147 -119q0 -46 28 -72.5t100 -46.5l42 -13q72 -20 104 -52.5t32 -84.5q0 -38 -15 -82.5t-43 -88.5l-103 34q45 67 45 112z" />
    <glyph glyph-name="omicron" unicode="&#x3bf;" horiz-adv-x="591" 
d="M44 258q0 81 30.5 140t87 91t134.5 32t134.5 -32t86.5 -91t30 -140q0 -123 -65.5 -196t-185.5 -73q-121 0 -186.5 73t-65.5 196zM170 257q0 -84 33.5 -131t92.5 -47t92.5 47t33.5 131q0 81 -33.5 127.5t-92.5 46.5q-58 0 -92 -46.5t-34 -127.5z" />
    <glyph glyph-name="pi" unicode="&#x3c0;" horiz-adv-x="694" 
d="M418 165v251h-154v-48q0 -97 -9.5 -189.5t-28.5 -178.5h-121q19 87 28.5 178.5t9.5 188.5v46q-61 -3 -122 -13v94q56 8 115 12t123 4h378v-94h-98v-248q0 -46 12.5 -64.5t43.5 -18.5q11 0 21.5 2t23.5 7l10 -90q-21 -7 -46 -11t-50 -4q-74 0 -105 39.5t-31 136.5z" />
    <glyph glyph-name="rho" unicode="&#x3c1;" horiz-adv-x="606" 
d="M78 274q0 116 64 181.5t176 65.5q116 0 180 -70.5t64 -198.5q0 -80 -26.5 -139.5t-74.5 -91.5t-115 -32q-46 0 -81 18t-66 58v-280h-121v489zM437 257q0 82 -33 128t-92 46q-54 0 -83.5 -39t-29.5 -112v-111q53 -89 119 -89q55 0 87 48t32 129z" />
    <glyph glyph-name="sigma1" unicode="&#x3c2;" horiz-adv-x="471" 
d="M347 -64q0 24 -13 37t-48 23l-42 12q-101 29 -150.5 92t-49.5 165q0 121 65.5 188.5t183.5 67.5q41 0 80 -9t81 -29l-36 -89q-60 37 -113 37q-66 0 -100.5 -42.5t-34.5 -120.5q0 -66 27.5 -103t88.5 -54l42 -13q72 -20 104 -52.5t32 -84.5q0 -38 -15.5 -82.5t-43.5 -88.5
l-102 34q23 35 33.5 62t10.5 50z" />
    <glyph glyph-name="sigma" unicode="&#x3c3;" horiz-adv-x="597" 
d="M532 224q0 -69 -30.5 -122t-85.5 -83t-129 -30q-112 0 -177.5 70t-65.5 190q0 125 71.5 193t200.5 68h260v-94h-129q85 -81 85 -192zM412 251q0 104 -63 165h-32q-71 0 -109 -43t-38 -126q0 -78 32 -123t88 -45q57 0 89.5 46t32.5 126z" />
    <glyph glyph-name="tau" unicode="&#x3c4;" horiz-adv-x="499" 
d="M2 494q56 8 115 12t123 4h215v-94h-179v-231q0 -55 15 -77.5t52 -22.5q23 0 56 12l11 -91q-55 -17 -106 -17q-59 0 -91.5 20.5t-45 63t-12.5 106.5v236q-37 -1 -75 -5t-78 -10v94z" />
    <glyph glyph-name="upsilon" unicode="&#x3c5;" horiz-adv-x="581" 
d="M212 385v-140q0 -85 23 -125.5t71 -40.5q107 0 107 198q0 62 -11 113.5t-36 104.5l118 27q29 -61 41 -115.5t12 -116.5q0 -146 -61.5 -223.5t-177.5 -77.5q-207 0 -207 255v127q0 54 -41 54q-14 0 -31 -6l-10 88q19 6 41.5 10t44.5 4q60 0 88.5 -32.5t28.5 -103.5z" />
    <glyph glyph-name="phi" unicode="&#x3c6;" horiz-adv-x="746" 
d="M311 -10q-128 10 -197.5 84.5t-69.5 203.5q0 72 23 132t69 112l98 -51q-67 -76 -67 -187q0 -87 37 -139t107 -64v238q0 98 45.5 150t130.5 52q65 0 113.5 -31t75 -87t26.5 -132q0 -124 -71.5 -197.5t-199.5 -83.5v-205h-120v205zM579 281q0 68 -22.5 109t-60.5 41
q-31 0 -48 -29.5t-17 -82.5v-239q72 11 110 62.5t38 138.5z" />
    <glyph glyph-name="chi" unicode="&#x3c7;" horiz-adv-x="580" 
d="M29 508q17 7 35 10t35 3q44 0 74.5 -22.5t55.5 -77.5l44 -93q8 -17 15.5 -34.5t15.5 -35.5q7 17 15.5 34t18.5 36l94 182h125l-190 -350l120 -234q17 -31 29 -43.5t28 -12.5q13 0 26 6l11 -89q-33 -13 -69 -13q-46 0 -75.5 22.5t-55.5 77.5l-49 106q-8 18 -16 36.5
t-16 37.5q-7 -14 -14.5 -29.5t-16.5 -33.5l-107 -206h-126l199 366l-112 218q-16 32 -28 44t-29 12q-11 0 -26 -6z" />
    <glyph glyph-name="psi" unicode="&#x3c8;" horiz-adv-x="760" 
d="M337 -10q-116 9 -181 79t-65 186v116q0 54 -41 54q-14 0 -31 -6l-10 88q19 6 41.5 10t44.5 4q60 0 88.5 -32.5t28.5 -103.5v-126q0 -159 125 -179v558h120v-558q136 21 136 211q0 105 -44 202l117 28q26 -56 37.5 -109.5t11.5 -111.5q0 -143 -66 -222t-192 -88v-205h-120
v205z" />
    <glyph glyph-name="omega" unicode="&#x3c9;" horiz-adv-x="745" 
d="M44 245q0 153 71 276l117 -33q-32 -52 -47.5 -110.5t-15.5 -134.5q0 -164 75 -164q68 0 68 135v168h121v-168q0 -135 69 -135q74 0 74 163q0 77 -15.5 135.5t-47.5 110.5l117 33q71 -123 71 -276q0 -123 -48 -189.5t-134 -66.5q-56 0 -94 26t-52 71q-15 -45 -53 -71
t-94 -26q-87 0 -134.5 66.5t-47.5 189.5z" />
    <glyph glyph-name="iotadieresis" unicode="&#x3ca;" horiz-adv-x="344" 
d="M78 179v331h121v-325q0 -55 15.5 -77.5t52.5 -22.5q23 0 56 12l10 -91q-28 -9 -53.5 -13t-51.5 -4q-59 0 -92 20.5t-45.5 63t-12.5 106.5zM173 675q0 30 19.5 49.5t50.5 19.5t50.5 -19.5t19.5 -50.5t-19.5 -50.5t-50.5 -19.5t-50.5 20t-19.5 51zM103 674q0 -31 -19 -50.5
t-51 -19.5q-31 0 -50.5 20t-19.5 51q0 30 20 49.5t50 19.5q32 0 51 -19.5t19 -50.5z" />
    <glyph glyph-name="upsilondieresis" unicode="&#x3cb;" horiz-adv-x="581" 
d="M212 385v-140q0 -85 23 -125.5t71 -40.5q107 0 107 198q0 62 -11 113.5t-36 104.5l118 27q29 -61 41 -115.5t12 -116.5q0 -146 -61.5 -223.5t-177.5 -77.5q-207 0 -207 255v127q0 54 -41 54q-14 0 -31 -6l-10 88q19 6 41.5 10t44.5 4q60 0 88.5 -32.5t28.5 -103.5z
M304 675q0 30 19.5 49.5t50.5 19.5t50.5 -19.5t19.5 -50.5t-19.5 -50.5t-50.5 -19.5t-50.5 20t-19.5 51zM234 674q0 -31 -19 -50.5t-51 -19.5q-31 0 -50.5 20t-19.5 51q0 30 20 49.5t50 19.5q32 0 51 -19.5t19 -50.5z" />
    <glyph glyph-name="omicrontonos" unicode="&#x3cc;" horiz-adv-x="591" 
d="M44 258q0 81 30.5 140t87 91t134.5 32t134.5 -32t86.5 -91t30 -140q0 -123 -65.5 -196t-185.5 -73q-121 0 -186.5 73t-65.5 196zM170 257q0 -84 33.5 -131t92.5 -47t92.5 47t33.5 131q0 81 -33.5 127.5t-92.5 46.5q-58 0 -92 -46.5t-34 -127.5zM281 749h144l-78 -174h-98
z" />
    <glyph glyph-name="upsilontonos" unicode="&#x3cd;" horiz-adv-x="581" 
d="M212 385v-140q0 -85 23 -125.5t71 -40.5q107 0 107 198q0 62 -11 113.5t-36 104.5l118 27q29 -61 41 -115.5t12 -116.5q0 -146 -61.5 -223.5t-177.5 -77.5q-207 0 -207 255v127q0 54 -41 54q-14 0 -31 -6l-10 88q19 6 41.5 10t44.5 4q60 0 88.5 -32.5t28.5 -103.5z
M254 749h144l-78 -174h-98z" />
    <glyph glyph-name="omegatonos" unicode="&#x3ce;" horiz-adv-x="745" 
d="M44 245q0 153 71 276l117 -33q-32 -52 -47.5 -110.5t-15.5 -134.5q0 -164 75 -164q68 0 68 135v168h121v-168q0 -135 69 -135q74 0 74 163q0 77 -15.5 135.5t-47.5 110.5l117 33q71 -123 71 -276q0 -123 -48 -189.5t-134 -66.5q-56 0 -94 26t-52 71q-15 -45 -53 -71
t-94 -26q-87 0 -134.5 66.5t-47.5 189.5zM358 749h144l-78 -174h-98z" />
    <glyph glyph-name="theta1" unicode="&#x3d1;" horiz-adv-x="563" 
d="M91 203v10q0 54 -41 54q-14 0 -31 -6l-10 88q19 6 41.5 10t44.5 4q60 0 88.5 -32.5t28.5 -103.5v-27q0 -121 74 -121t74 118v154h-8q-112 0 -174 48.5t-62 135.5q0 78 48.5 123t132.5 45q182 0 182 -231v-31h67v-90h-67v-148q0 -104 -50 -159t-145 -55q-94 0 -143.5 55
t-49.5 159zM222 537q0 -46 33.5 -71t96.5 -25h8v37q0 135 -72 135q-31 0 -48.5 -20.5t-17.5 -55.5z" />
    <glyph glyph-name="phi1" unicode="&#x3d5;" horiz-adv-x="744" 
d="M312 -11q-125 5 -196.5 75.5t-71.5 190.5t71.5 190.5t196.5 75.5v117h120v-117q125 -5 196.5 -75.5t71.5 -190.5t-71.5 -190.5t-196.5 -75.5v-204h-120v204zM577 255q0 79 -39 125.5t-109 51.5v-354q70 5 109 51.5t39 125.5zM167 255q0 -79 39 -125.5t109 -51.5v354
q-70 -5 -109 -51.5t-39 -125.5z" />
    <glyph glyph-name="uni0400" unicode="&#x400;" horiz-adv-x="563" 
d="M85 692h409v-100h-283v-191h269v-100h-269v-201h298v-100h-424v692zM378 755h-113l-155 146h147z" />
    <glyph glyph-name="uni0401" unicode="&#x401;" horiz-adv-x="563" 
d="M85 692h409v-100h-283v-191h269v-100h-269v-201h298v-100h-424v692zM110 833q0 31 20.5 51t51.5 20q32 0 52.5 -20t20.5 -52q0 -31 -20.5 -52t-52.5 -21t-52 21t-20 53zM340 884q21 20 52 20q32 0 52 -20t20 -52q0 -31 -20 -52t-52 -21t-52.5 21t-20.5 53q0 31 21 51z
" />
    <glyph glyph-name="uni0402" unicode="&#x402;" horiz-adv-x="805" 
d="M607 153q0 112 -26 156.5t-93 44.5q-73 0 -146 -41v-313h-126v592h-207v100h574v-100h-241v-180q82 42 170 42q81 0 129.5 -28.5t70 -92.5t21.5 -171q0 -109 -12.5 -181.5t-43 -115t-83 -60.5t-132.5 -20l-10 103q50 5 81 17t47 39.5t21.5 77.5t5.5 131z" />
    <glyph glyph-name="uni0403" unicode="&#x403;" horiz-adv-x="499" 
d="M85 692h405v-100h-279v-592h-126v692zM322 901h147l-155 -146h-113z" />
    <glyph glyph-name="uni0404" unicode="&#x404;" horiz-adv-x="613" 
d="M49 340q0 112 40.5 193t115.5 125.5t178 44.5q54 0 101 -10.5t104 -35.5l-41 -97q-43 23 -81 33.5t-77 10.5q-88 0 -141 -55.5t-66 -145.5h333v-99h-335q10 -101 66.5 -158.5t148.5 -57.5q43 0 80 11t85 36l35 -100q-38 -17 -70.5 -27.5t-64.5 -14.5t-71 -4
q-108 0 -184 42.5t-116 121.5t-40 187z" />
    <glyph glyph-name="uni0405" unicode="&#x405;" horiz-adv-x="555" 
d="M375 187q0 28 -12 45.5t-40.5 33t-80.5 36.5q-63 27 -106 51.5t-64.5 58t-21.5 87.5q0 96 63 150t168 54q47 0 93.5 -8t105.5 -27l-26 -104q-57 23 -93 31.5t-74 8.5q-49 0 -78 -24t-29 -63q0 -22 10 -38.5t36.5 -32t77.5 -36.5q69 -28 114 -54t67 -62t22 -97
q0 -99 -64.5 -153.5t-180.5 -54.5q-56 0 -105 8.5t-105 27.5l17 107q59 -23 103 -33.5t86 -10.5q54 0 85.5 26.5t31.5 72.5z" />
    <glyph glyph-name="uni0406" unicode="&#x406;" horiz-adv-x="296" 
d="M85 692h126v-692h-126v692z" />
    <glyph glyph-name="uni0407" unicode="&#x407;" horiz-adv-x="296" 
d="M85 692h126v-692h-126v692zM-29 833q0 31 20.5 51t51.5 20q32 0 52.5 -20t20.5 -52q0 -31 -20.5 -52t-52.5 -21t-52 21t-20 53zM201 884q21 20 52 20q32 0 52 -20t20 -52q0 -31 -20 -52t-52 -21t-52.5 21t-20.5 53q0 31 21 51z" />
    <glyph glyph-name="uni0408" unicode="&#x408;" horiz-adv-x="414" 
d="M209 230v462h126v-431q0 -63 -3.5 -101.5t-11.5 -62t-23 -43.5q-49 -65 -161 -65q-34 0 -64 5t-58 15l11 104q26 -12 46 -17t42 -5q60 0 78 34t18 105z" />
    <glyph glyph-name="uni0409" unicode="&#x409;" horiz-adv-x="968" 
d="M148 588v104h440v-254h61q72 0 119 -10t81 -33q41 -28 61 -73.5t20 -102.5q0 -117 -78 -175q-34 -25 -82 -34.5t-133 -9.5h-175v592h-196v-73q0 -154 -9 -254t-34.5 -157t-74.5 -81t-130 -27l-11 107q39 2 64.5 11.5t41 35.5t23 78t10 138.5t2.5 217.5zM588 97h45
q53 0 90.5 10t57.5 37t20 78t-19.5 76.5t-58 34t-95.5 8.5h-40v-244z" />
    <glyph glyph-name="uni040A" unicode="&#x40a;" horiz-adv-x="984" 
d="M85 692h126v-272h253v272h126v-272h86q69 0 114.5 -9t77.5 -32q39 -26 58.5 -70t19.5 -99q0 -54 -18.5 -98t-55.5 -70q-34 -24 -80 -33t-127 -9h-201v321h-253v-321h-126v692zM590 93h75q75 0 113.5 23t38.5 94q0 48 -17.5 73.5t-51.5 34.5t-83 9h-75v-234z" />
    <glyph glyph-name="uni040B" unicode="&#x40b;" horiz-adv-x="807" 
d="M216 592h-207v100h574v-100h-241v-181q84 43 174 43q212 0 212 -209v-245h-126v229q0 65 -27 95t-83 30q-75 0 -150 -41v-313h-126v592z" />
    <glyph glyph-name="uni040C" unicode="&#x40c;" horiz-adv-x="634" 
d="M209 0h-124v692h124v-297h40q30 0 50.5 10t40 38.5t46.5 84.5l81 164h126l-102 -199q-22 -44 -38 -70.5t-34 -41t-45 -24.5q33 -10 54.5 -25t39 -40.5t38.5 -67.5l112 -224h-136l-82 164q-28 58 -49 88t-44 40.5t-57 10.5h-41v-303zM375 901h147l-155 -146h-113z" />
    <glyph glyph-name="uni040D" unicode="&#x40d;" horiz-adv-x="712" 
d="M85 692h121v-422q0 -27 -1 -46.5t-2 -48.5q17 34 29 58.5t26 48.5t34 58l212 352h123v-692h-120v394v47t0.5 34.5t2.5 40.5q-17 -33 -29.5 -57.5t-26.5 -48.5t-34 -58l-212 -352h-123v692zM443 755h-113l-155 146h147z" />
    <glyph glyph-name="uni040E" unicode="&#x40e;" horiz-adv-x="614" 
d="M77 106q25 -8 47 -13t49 -5q36 0 57 17t38 56l-254 531h138l106 -247q20 -47 37.5 -86.5t34.5 -84.5q9 26 17.5 49.5t19 50.5t25.5 64l103 254h123l-218 -517q-29 -68 -57.5 -109t-66 -59t-93.5 -18q-34 0 -63 5t-61 17zM447 786q-43 -42 -123 -42t-122.5 42t-44.5 122
h103q2 -42 17 -63.5t47 -21.5t47.5 21.5t16.5 63.5h103q-1 -80 -44 -122z" />
    <glyph glyph-name="uni040F" unicode="&#x40f;" horiz-adv-x="673" 
d="M281 0h-196v692h126v-592h251v592h126v-692h-196v-173h-111v173z" />
    <glyph glyph-name="uni0410" unicode="&#x410;" horiz-adv-x="676" 
d="M135 0h-126l257 692h138l263 -692h-133l-70 196h-260zM311.5 498.5q-5.5 -15.5 -15.5 -43.5l-58 -163h192l-58 163q-8 23 -13.5 40t-11 34.5t-13.5 43.5q-8 -27 -12.5 -43t-10 -31.5z" />
    <glyph glyph-name="uni0411" unicode="&#x411;" horiz-adv-x="597" 
d="M85 692h423v-100h-297v-160h86q69 0 107 -8.5t69 -29.5q80 -55 80 -178q0 -124 -80 -178q-30 -21 -67 -29.5t-101 -8.5h-220v692zM211 93h53q80 0 120 24.5t40 100.5q0 51 -17.5 77t-52.5 35t-90 9h-53v-246z" />
    <glyph glyph-name="uni0412" unicode="&#x412;" horiz-adv-x="600" 
d="M85 692h193q50 0 82.5 -3t56 -10t43.5 -20q36 -21 56 -60.5t20 -89.5q0 -63 -28.5 -101t-89.5 -55q133 -29 133 -162q0 -50 -20 -91.5t-58 -64.5q-31 -19 -68 -27t-105 -8h-215v692zM422 199q0 63 -41.5 85.5t-112.5 22.5h-60v-214h59q51 0 85.5 8t52 30.5t17.5 67.5z
M392 561.5q-18 22.5 -51.5 30t-79.5 7.5h-53v-205h58q69 0 106.5 19t37.5 81q0 45 -18 67.5z" />
    <glyph glyph-name="uni0413" unicode="&#x413;" horiz-adv-x="499" 
d="M85 692h405v-100h-279v-592h-126v692z" />
    <glyph glyph-name="uni0414" unicode="&#x414;" horiz-adv-x="723" 
d="M26 100h66q38 59 57.5 185t19.5 313v94h458v-592h74v-273h-113v173h-449v-173h-113v273zM501 592h-213v-48q0 -154 -18 -268t-47 -178h278v494z" />
    <glyph glyph-name="uni0415" unicode="&#x415;" horiz-adv-x="563" 
d="M85 692h409v-100h-283v-191h269v-100h-269v-201h298v-100h-424v692z" />
    <glyph glyph-name="uni0416" unicode="&#x416;" horiz-adv-x="906" 
d="M513 0h-120v303h-29q-27 0 -45.5 -10.5t-37.5 -40.5t-48 -88l-81 -164h-136l111 224q21 41 38 66.5t38 40.5t52 25q-28 9 -46.5 24t-35.5 41.5t-39 71.5l-102 199h127l81 -164q27 -56 44.5 -84.5t35.5 -38.5t45 -10h28v297h120v-297h28q27 0 44.5 10t36 38.5t44.5 84.5
l81 164h126l-101 -199q-23 -45 -39.5 -71.5t-35 -41.5t-47.5 -24q32 -10 52.5 -25t38 -40.5t37.5 -66.5l112 -224h-136l-82 164q-28 58 -47 88t-37.5 40.5t-45.5 10.5h-29v-303z" />
    <glyph glyph-name="uni0417" unicode="&#x417;" horiz-adv-x="580" 
d="M404 201q0 59 -48 86t-153 27h-33.5t-40.5 -2v95q15 -1 25.5 -1h30.5q204 0 204 106q0 44 -35.5 68t-100.5 24q-38 0 -76 -9t-86 -30l-31 97q54 21 104 31t103 10q119 0 183.5 -46.5t64.5 -134.5q0 -65 -35 -106t-100 -54q151 -30 151 -165q0 -100 -72 -154t-206 -54
q-63 0 -113.5 9t-106.5 29l33 100q81 -39 175 -39q79 0 121 29t42 84z" />
    <glyph glyph-name="uni0418" unicode="&#x418;" horiz-adv-x="712" 
d="M85 692h121v-422q0 -27 -1 -46.5t-2 -48.5q17 34 29 58.5t26 48.5t34 58l212 352h123v-692h-120v394v47t0.5 34.5t2.5 40.5q-17 -33 -29.5 -57.5t-26.5 -48.5t-34 -58l-212 -352h-123v692z" />
    <glyph glyph-name="uni0419" unicode="&#x419;" horiz-adv-x="712" 
d="M85 692h121v-422q0 -27 -1 -46.5t-2 -48.5q17 34 29 58.5t26 48.5t34 58l212 352h123v-692h-120v394v47t0.5 34.5t2.5 40.5q-17 -33 -29.5 -57.5t-26.5 -48.5t-34 -58l-212 -352h-123v692zM475 786q-43 -42 -123 -42t-122.5 42t-44.5 122h103q2 -42 17 -63.5t47 -21.5
t47.5 21.5t16.5 63.5h103q-1 -80 -44 -122z" />
    <glyph glyph-name="uni041A" unicode="&#x41a;" horiz-adv-x="634" 
d="M209 0h-124v692h124v-297h40q30 0 50.5 10t40 38.5t46.5 84.5l81 164h126l-102 -199q-22 -44 -38 -70.5t-34 -41t-45 -24.5q33 -10 54.5 -25t39 -40.5t38.5 -67.5l112 -224h-136l-82 164q-28 58 -49 88t-44 40.5t-57 10.5h-41v-303z" />
    <glyph glyph-name="uni041B" unicode="&#x41b;" horiz-adv-x="686" 
d="M148 588v104h453v-692h-126v592h-209v-73q0 -154 -9 -254t-34.5 -157t-74.5 -81t-130 -27l-11 107q39 2 64.5 11.5t41 35.5t23 78t10 138.5t2.5 217.5z" />
    <glyph glyph-name="uni041C" unicode="&#x41c;" horiz-adv-x="908" 
d="M85 692h183l151 -434q11 -31 18.5 -57t18.5 -65q11 37 18.5 63.5t18.5 58.5l149 434h181v-692h-122v568q-8 -29 -13 -47t-9.5 -32t-10 -30.5t-14.5 -41.5l-143 -417h-117l-142 408q-12 35 -23.5 71t-26.5 87v-566h-117v692z" />
    <glyph glyph-name="uni041D" unicode="&#x41d;" horiz-adv-x="707" 
d="M85 692h126v-289h285v289h125v-692h-125v304h-285v-304h-126v692z" />
    <glyph glyph-name="uni041E" unicode="&#x41e;" horiz-adv-x="743" 
d="M49 350q0 102 38.5 181.5t110.5 125.5t173 46q102 0 174.5 -46t110.5 -125.5t38 -181.5q0 -104 -37 -185.5t-109 -128.5t-177 -47q-104 0 -176 47t-109 128.5t-37 185.5zM180 349q0 -121 51.5 -191t139.5 -70q89 0 141 70t52 191q0 117 -52 186t-141 69q-88 0 -139.5 -69
t-51.5 -186z" />
    <glyph glyph-name="uni041F" unicode="&#x41f;" horiz-adv-x="687" 
d="M85 692h517v-692h-125v592h-266v-592h-126v692z" />
    <glyph glyph-name="uni0420" unicode="&#x420;" horiz-adv-x="555" 
d="M85 692h171q81 0 125.5 -9t77.5 -33q37 -26 57 -69t20 -98q0 -54 -21 -97.5t-59 -69.5q-33 -22 -76.5 -31.5t-112.5 -9.5h-56v-275h-126v692zM408 480q0 47 -19 71.5t-54 34t-82 9.5h-45v-223h41q51 0 86.5 8t54 31.5t18.5 68.5z" />
    <glyph glyph-name="uni0421" unicode="&#x421;" horiz-adv-x="613" 
d="M49 340q0 112 40.5 193t115.5 125.5t178 44.5q54 0 101 -10.5t104 -35.5l-41 -97q-43 23 -81 33.5t-77 10.5q-67 0 -114 -33.5t-71 -92t-24 -134.5q0 -118 57.5 -187t157.5 -69q43 0 80 11t85 36l35 -100q-38 -17 -70.5 -27.5t-64.5 -14.5t-71 -4q-108 0 -184 42.5
t-116 121.5t-40 187z" />
    <glyph glyph-name="uni0422" unicode="&#x422;" horiz-adv-x="548" 
d="M211 592h-200v100h527v-100h-201v-592h-126v592z" />
    <glyph glyph-name="uni0423" unicode="&#x423;" horiz-adv-x="614" 
d="M77 106q25 -8 47 -13t49 -5q36 0 57 17t38 56l-254 531h138l106 -247q20 -47 37.5 -86.5t34.5 -84.5q9 26 17.5 49.5t19 50.5t25.5 64l103 254h123l-218 -517q-29 -68 -57.5 -109t-66 -59t-93.5 -18q-34 0 -63 5t-61 17z" />
    <glyph glyph-name="uni0424" unicode="&#x424;" horiz-adv-x="866" 
d="M376 45q-101 8 -173.5 48t-111.5 105t-39 148t39 148t111.5 105t173.5 48v66h115v-66q101 -8 173.5 -48t111.5 -105t39 -148t-39 -148t-111.5 -105t-173.5 -48v-66h-115v66zM181 346q0 -84 51 -140t144 -69v418q-93 -13 -144 -69t-51 -140zM686 346q0 84 -51 140t-144 69
v-418q93 13 144 69t51 140z" />
    <glyph glyph-name="uni0425" unicode="&#x425;" horiz-adv-x="686" 
d="M341 253l-175 -253h-147l249 354l-236 338h146l168 -244l172 244h142l-242 -338l247 -354h-151z" />
    <glyph glyph-name="uni0426" unicode="&#x426;" horiz-adv-x="684" 
d="M548 0h-463v692h126v-592h251v592h126v-593h73v-272h-113v173z" />
    <glyph glyph-name="uni0427" unicode="&#x427;" horiz-adv-x="684" 
d="M470 234q-39 -17 -78.5 -23.5t-83.5 -6.5q-124 0 -179 54.5t-55 159.5v274h126v-262q0 -67 29.5 -96.5t96.5 -29.5q38 0 74.5 6.5t69.5 22.5v359h126v-692h-126v234z" />
    <glyph glyph-name="uni0428" unicode="&#x428;" horiz-adv-x="1006" 
d="M85 692h126v-592h229v592h126v-592h229v592h125v-692h-835v692z" />
    <glyph glyph-name="uni0429" unicode="&#x429;" horiz-adv-x="1017" 
d="M881 0h-796v692h126v-592h229v592h126v-592h229v592h125v-593h74v-272h-113v173z" />
    <glyph glyph-name="uni042A" unicode="&#x42a;" horiz-adv-x="708" 
d="M203 592h-194v100h320v-254h61q71 0 118.5 -10t81.5 -33q41 -28 61 -73.5t20 -102.5q0 -117 -78 -175q-34 -25 -82 -34.5t-133 -9.5h-175v592zM329 97h45q52 0 89.5 10t58 37t20.5 78t-19.5 76.5t-58.5 34t-96 8.5h-39v-244z" />
    <glyph glyph-name="uni042B" unicode="&#x42b;" horiz-adv-x="853" 
d="M85 692h126v-254h61q72 0 119 -10t81 -33q41 -28 61 -73.5t20 -102.5t-19.5 -102t-58.5 -73q-34 -25 -82 -34.5t-133 -9.5h-175v692zM211 97h45q53 0 90.5 10t57.5 37t20 78t-19.5 76.5t-58 34t-95.5 8.5h-40v-244zM642 692h126v-692h-126v692z" />
    <glyph glyph-name="uni042C" unicode="&#x42c;" horiz-adv-x="591" 
d="M85 692h126v-254h61q72 0 119 -10t81 -33q41 -28 61 -73.5t20 -102.5t-19.5 -102t-58.5 -73q-34 -25 -82 -34.5t-133 -9.5h-175v692zM211 97h45q53 0 90.5 10t57.5 37t20 78t-19.5 76.5t-58 34t-95.5 8.5h-40v-244z" />
    <glyph glyph-name="uni042D" unicode="&#x42d;" horiz-adv-x="634" 
d="M111 403h343q-12 99 -64.5 150t-142.5 51q-71 0 -162 -46l-35 95q101 50 203 50q159 0 245.5 -95t86.5 -268q0 -169 -86.5 -260t-247.5 -91q-118 0 -215 49l40 94q83 -44 166 -44q97 0 151 55t62 161h-344v99z" />
    <glyph glyph-name="uni042E" unicode="&#x42e;" horiz-adv-x="1015" 
d="M85 692h126v-289h143q9 87 46.5 154.5t102.5 106.5t155 39q101 0 169 -47t103 -128t35 -182q0 -102 -35 -182.5t-103.5 -127.5t-168.5 -47q-93 0 -158.5 40.5t-102.5 112t-44 162.5h-142v-304h-126v692zM835 346q0 119 -47.5 188.5t-129.5 69.5q-81 0 -128.5 -69.5
t-47.5 -188.5t47.5 -188.5t128.5 -69.5q82 0 129.5 69.5t47.5 188.5z" />
    <glyph glyph-name="uni042F" unicode="&#x42f;" horiz-adv-x="610" 
d="M60 498q0 48 21 89.5t55 64.5q28 20 68 30t102 10h218v-692h-125v285h-36q-32 0 -53.5 -5t-37.5 -19t-31 -42t-35 -73l-63 -146h-134l86 197q19 43 33 68.5t28.5 39t36.5 21.5q-63 18 -98 61t-35 111zM401 597h-65q-68 0 -108 -21t-40 -86q0 -60 40 -84.5t113 -24.5h60
v216z" />
    <glyph glyph-name="uni0430" unicode="&#x430;" horiz-adv-x="559" 
d="M38 144q0 95 76 140q26 14 64 21t93 7q18 0 35.5 -0.5t47.5 -1.5v8q0 115 -113 115q-33 0 -65 -9.5t-73 -32.5l-31 85q44 23 90.5 34t95.5 11q60 0 106 -17t72 -49q16 -18 24 -39t11.5 -52.5t3.5 -81.5v-152q0 -45 1.5 -76.5t3.5 -53.5h-115l-4 58q-37 -38 -72.5 -53.5
t-85.5 -15.5q-78 0 -121.5 41t-43.5 114zM163 146q0 -34 21.5 -55t55.5 -21q65 0 114 70v96q-18 1 -28.5 1.5t-23.5 0.5q-65 0 -102 -21t-37 -71z" />
    <glyph glyph-name="uni0431" unicode="&#x431;" horiz-adv-x="583" 
d="M50 311q0 143 23.5 224.5t72.5 119.5q40 35 95 50t134 22l114 12l8 -107l-116 -14q-57 -7 -92 -13.5t-55.5 -17t-35.5 -29.5q-18 -22 -25.5 -50.5t-12.5 -82.5q35 49 72.5 69.5t91.5 20.5q65 0 113 -32t74 -90.5t26 -136.5q0 -123 -63.5 -195t-179.5 -72
q-93 0 -146.5 39.5t-75.5 112t-22 170.5zM176 283q0 -95 25.5 -149.5t92.5 -54.5q56 0 86.5 47t30.5 130q0 78 -29.5 123.5t-82.5 45.5q-76 0 -123 -94v-48z" />
    <glyph glyph-name="uni0432" unicode="&#x432;" horiz-adv-x="571" 
d="M81 510h232q92 0 144 -29.5t52 -105.5q0 -41 -19 -67t-62 -45q50 -17 71.5 -44.5t21.5 -72.5q0 -78 -53.5 -112t-142.5 -34h-244v510zM394 153q0 68 -84 68h-110v-136h112q82 0 82 68zM307 425h-107v-126h112q75 0 75 64q0 62 -80 62z" />
    <glyph glyph-name="uni0433" unicode="&#x433;" horiz-adv-x="429" 
d="M81 510h341v-90h-220v-420h-121v510z" />
    <glyph glyph-name="uni0434" unicode="&#x434;" horiz-adv-x="607" 
d="M20 90h52q33 51 50 138.5t17 218.5v63h383v-420h60v-238h-105v148h-352v-148h-105v238zM401 420h-150v-23q0 -105 -14 -178.5t-39 -129.5h203v331z" />
    <glyph glyph-name="uni0435" unicode="&#x435;" horiz-adv-x="570" 
d="M44 254q0 123 65.5 195t181.5 72q92 0 143.5 -35.5t72.5 -103.5t21 -165h-357q7 -68 41 -103.5t105 -35.5q76 0 153 49l42 -88q-46 -25 -93.5 -37.5t-103.5 -12.5q-130 0 -200.5 68.5t-70.5 196.5zM373 399q-29 34 -82 34q-54 0 -83.5 -34.5t-36.5 -97.5h233
q-2 64 -31 98z" />
    <glyph glyph-name="uni0436" unicode="&#x436;" horiz-adv-x="801" 
d="M456 0h-116v221h-25q-31 0 -51 -18t-48 -73l-68 -130h-131l88 161q26 48 46.5 68.5t51.5 32.5q-28 10 -47 31t-45 69l-81 148h123l61 -118q28 -54 47.5 -72.5t47.5 -18.5h31v209h116v-209h30q28 0 47.5 18.5t47.5 72.5l61 118h124l-81 -148q-26 -48 -45 -68.5t-48 -31.5
q32 -11 52 -32t47 -69l87 -161h-131l-68 130q-28 55 -48 73t-51 18h-24v-221z" />
    <glyph glyph-name="uni0437" unicode="&#x437;" horiz-adv-x="501" 
d="M326 152q0 38 -34 55t-111 17h-27.5t-41.5 -1v84q19 -1 30 -1.5t26 -0.5q82 0 115.5 16.5t33.5 50.5q0 29 -24 44.5t-66 15.5q-70 0 -147 -39l-28 91q49 20 90 28.5t94 8.5q99 0 151 -35.5t52 -105.5q0 -42 -20.5 -68.5t-65.5 -43.5q48 -15 72.5 -44t24.5 -76
q0 -159 -223 -159q-58 0 -101 8.5t-96 28.5l30 93q40 -20 76.5 -30t78.5 -10q53 0 82 19t29 54z" />
    <glyph glyph-name="uni0438" unicode="&#x438;" horiz-adv-x="612" 
d="M81 510h120v-350q11 23 27 53.5t33 57.5l146 239h124v-510h-120v349q-11 -23 -27 -53t-32 -57l-146 -239h-125v510z" />
    <glyph glyph-name="uni0439" unicode="&#x439;" horiz-adv-x="612" 
d="M81 510h120v-350q11 23 27 53.5t33 57.5l146 239h124v-510h-120v349q-11 -23 -27 -53t-32 -57l-146 -239h-125v510zM426.5 612.5q-40.5 -42.5 -125.5 -42.5t-125 42.5t-42 118.5h103q2 -46 19 -64.5t45 -18.5q29 0 46 18.5t18 64.5h103q-1 -76 -41.5 -118.5z" />
    <glyph glyph-name="uni043A" unicode="&#x43a;" horiz-adv-x="561" 
d="M201 0h-120v510h120v-209h39q32 0 52.5 18t48.5 73l61 118h123l-81 -148q-26 -48 -45.5 -69t-47.5 -31q31 -12 51.5 -32.5t47.5 -68.5l88 -161h-131l-68 130q-19 37 -34 56.5t-31.5 27t-39.5 7.5h-33v-221z" />
    <glyph glyph-name="uni043B" unicode="&#x43b;" horiz-adv-x="582" 
d="M120 403v107h381v-510h-121v420h-146v-34q0 -113 -10.5 -187t-35 -117t-67 -61.5t-106.5 -20.5l-10 93q35 3 57 14.5t35 42.5t18 91.5t5 161.5z" />
    <glyph glyph-name="uni043C" unicode="&#x43c;" horiz-adv-x="769" 
d="M81 510h166l116 -323q6 -16 11 -31t12 -41l12 39t11 32l116 324h163v-510h-117v389q-10 -37 -18.5 -63.5t-16.5 -50.5l-100 -275h-105l-102 276q-9 23 -16.5 48t-18.5 65v-389h-113v510z" />
    <glyph glyph-name="uni043D" unicode="&#x43d;" horiz-adv-x="607" 
d="M405 214h-203v-214h-121v510h121v-203h203v203h121v-510h-121v214z" />
    <glyph glyph-name="uni043E" unicode="&#x43e;" horiz-adv-x="591" 
d="M44 258q0 81 30.5 140t87 91t134.5 32t134.5 -32t86.5 -91t30 -140q0 -123 -65.5 -196t-185.5 -73q-121 0 -186.5 73t-65.5 196zM170 257q0 -84 33.5 -131t92.5 -47t92.5 47t33.5 131q0 81 -33.5 127.5t-92.5 46.5q-58 0 -92 -46.5t-34 -127.5z" />
    <glyph glyph-name="uni043F" unicode="&#x43f;" horiz-adv-x="600" 
d="M81 510h438v-510h-121v420h-196v-420h-121v510z" />
    <glyph glyph-name="uni0440" unicode="&#x440;" horiz-adv-x="600" 
d="M80 306v69.5t-1 48t-1.5 40.5t-2.5 46h116l4 -70q36 44 71.5 62.5t83.5 18.5q63 0 109 -32.5t71.5 -92.5t25.5 -141q0 -77 -24 -137t-69.5 -94.5t-112.5 -34.5q-49 0 -84 18t-65 58v-280h-121v521zM430 257q0 80 -30.5 126.5t-82.5 46.5q-65 0 -116 -84v-178
q53 -88 119 -88q50 0 80 48.5t30 128.5z" />
    <glyph glyph-name="uni0441" unicode="&#x441;" horiz-adv-x="484" 
d="M44 254q0 123 63.5 195t179.5 72q46 0 85.5 -9t81.5 -29l-36 -89q-60 37 -117 37q-63 0 -97 -45.5t-34 -130.5q0 -83 37 -129t104 -46q59 0 115 40l39 -88q-73 -43 -167 -43q-119 0 -186.5 70.5t-67.5 194.5z" />
    <glyph glyph-name="uni0442" unicode="&#x442;" horiz-adv-x="451" 
d="M164 420h-156v90h435v-90h-158v-420h-121v420z" />
    <glyph glyph-name="uni0443" unicode="&#x443;" horiz-adv-x="542" 
d="M27 -115q35 -15 64 -15q40 0 67 30t55 109l-206 501h129l101 -256l15 -40t12 -32.5t15 -44.5q10 30 16 46.5t11.5 32t16.5 44.5l94 250h118l-206 -519q-30 -76 -58 -124t-64.5 -70.5t-94.5 -22.5q-28 0 -53.5 4.5t-52.5 13.5z" />
    <glyph glyph-name="uni0444" unicode="&#x444;" horiz-adv-x="844" 
d="M366 65q-28 -40 -59.5 -58t-75.5 -18q-86 0 -136.5 71t-50.5 193q0 82 23.5 142t66.5 93t101 33q81 0 131 -71v281h112v-281q29 38 61 54.5t72 16.5q57 0 99.5 -32.5t66 -92.5t23.5 -141t-23.5 -141t-65.5 -92.5t-100 -32.5q-43 0 -74 18t-59 58v-280h-112v280zM366 346
q-44 84 -99 84q-46 0 -73 -46.5t-27 -126.5q0 -81 26 -129t70 -48q58 0 103 88v178zM478 346v-178q45 -88 102 -88q44 0 70 49t26 128q0 80 -26.5 126.5t-72.5 46.5q-55 0 -99 -84z" />
    <glyph glyph-name="uni0445" unicode="&#x445;" horiz-adv-x="556" 
d="M281 342l125 168h134l-192 -246l195 -264h-139l-125 177l-131 -177h-134l198 258l-186 252h139z" />
    <glyph glyph-name="uni0446" unicode="&#x446;" horiz-adv-x="592" 
d="M464 0h-383v510h121v-420h185v420h121v-420h60v-238h-104v148z" />
    <glyph glyph-name="uni0447" unicode="&#x447;" horiz-adv-x="596" 
d="M394 168q-34 -15 -67 -20.5t-67 -5.5q-107 0 -149.5 45t-42.5 134v189h121v-181q0 -50 20.5 -73t71.5 -23q27 0 56.5 5.5t56.5 19.5v252h121v-510h-121v168z" />
    <glyph glyph-name="uni0448" unicode="&#x448;" horiz-adv-x="875" 
d="M81 510h121v-420h175v420h121v-420h175v420h121v-510h-713v510z" />
    <glyph glyph-name="uni0449" unicode="&#x449;" horiz-adv-x="879" 
d="M749 0h-668v510h121v-420h175v420h121v-420h175v420h121v-420h60v-238h-105v148z" />
    <glyph glyph-name="uni044A" unicode="&#x44a;" horiz-adv-x="598" 
d="M148 420h-140v90h259v-164h83q59 0 90 -6.5t56 -23.5q65 -42 65 -143t-65 -143q-25 -17 -56 -23.5t-90 -6.5h-202v420zM267 86h62q56 0 82.5 18t26.5 69q0 53 -27.5 70.5t-81.5 17.5h-62v-175z" />
    <glyph glyph-name="uni044B" unicode="&#x44b;" horiz-adv-x="776" 
d="M81 510h121v-164h83q58 0 88.5 -6.5t56.5 -23.5q65 -42 65 -143t-65 -143q-26 -17 -57 -23.5t-88 -6.5h-204v510zM202 86h61q56 0 82.5 18t26.5 69q0 53 -27 70.5t-82 17.5h-61v-175zM574 510h121v-510h-121v510z" />
    <glyph glyph-name="uni044C" unicode="&#x44c;" horiz-adv-x="532" 
d="M81 510h121v-164h83q58 0 88.5 -6.5t56.5 -23.5q65 -42 65 -143t-65 -143q-26 -17 -57 -23.5t-88 -6.5h-204v510zM202 86h61q56 0 82.5 18t26.5 69q0 53 -27 70.5t-82 17.5h-61v-175z" />
    <glyph glyph-name="uni044D" unicode="&#x44d;" horiz-adv-x="511" 
d="M103 304h235q-8 66 -39 96.5t-88 30.5q-37 0 -69 -9t-68 -29l-37 86q47 23 90 32.5t94 9.5q121 0 183.5 -72.5t62.5 -196.5q0 -127 -67 -195t-194 -68q-51 0 -97 10.5t-81 29.5l39 88q63 -37 126 -37q134 0 147 138h-237v86z" />
    <glyph glyph-name="uni044E" unicode="&#x44e;" horiz-adv-x="841" 
d="M202 0h-121v510h121v-203h117q13 98 74 156t163 58q77 0 131 -33t82 -93t28 -140t-28.5 -140t-82 -93t-130.5 -33q-104 0 -166 61t-72 164h-116v-214zM640.5 384.5q-30.5 46.5 -84.5 46.5q-53 0 -83.5 -46.5t-30.5 -129.5q0 -82 30.5 -129t83.5 -47q54 0 84.5 47
t30.5 129q0 83 -30.5 129.5z" />
    <glyph glyph-name="uni044F" unicode="&#x44f;" horiz-adv-x="570" 
d="M60 361q0 77 49.5 113t153.5 36h226v-510h-121v189h-64q-27 0 -44 -7t-31 -26t-33 -55l-52 -101h-133l85 147q17 29 26.5 44t17.5 22t19 13q-52 20 -75.5 52t-23.5 83zM370 423h-80q-59 0 -83.5 -16.5t-24.5 -55.5q0 -41 25.5 -58t86.5 -17h76v147z" />
    <glyph glyph-name="uni0450" unicode="&#x450;" horiz-adv-x="570" 
d="M44 254q0 123 65.5 195t181.5 72q92 0 143.5 -35.5t72.5 -103.5t21 -165h-357q7 -68 41 -103.5t105 -35.5q76 0 153 49l42 -88q-46 -25 -93.5 -37.5t-103.5 -12.5q-130 0 -200.5 68.5t-70.5 196.5zM373 399q-29 34 -82 34q-54 0 -83.5 -34.5t-36.5 -97.5h233
q-2 64 -31 98zM382 585h-113l-155 146h147z" />
    <glyph glyph-name="uni0451" unicode="&#x451;" horiz-adv-x="570" 
d="M44 254q0 123 65.5 195t181.5 72q92 0 143.5 -35.5t72.5 -103.5t21 -165h-357q7 -68 41 -103.5t105 -35.5q76 0 153 49l42 -88q-46 -25 -93.5 -37.5t-103.5 -12.5q-130 0 -200.5 68.5t-70.5 196.5zM373 399q-29 34 -82 34q-54 0 -83.5 -34.5t-36.5 -97.5h233
q-2 64 -31 98zM321 675q0 30 19.5 49.5t50.5 19.5t50.5 -19.5t19.5 -50.5t-19.5 -50.5t-50.5 -19.5t-50.5 20t-19.5 51zM251 674q0 -31 -19 -50.5t-51 -19.5q-31 0 -50.5 20t-19.5 51q0 30 20 49.5t50 19.5q32 0 51 -19.5t19 -50.5z" />
    <glyph glyph-name="uni0452" unicode="&#x452;" horiz-adv-x="621" 
d="M417 116v170q0 40 -5.5 68.5t-22.5 44.5t-53 16q-69 0 -132 -86v-329h-122v572h-80v85h80v74h122v-74h148v-85h-148v-144q40 41 80.5 59.5t91.5 18.5q65 0 100 -25t48.5 -72.5t13.5 -115.5v-134q0 -102 -7 -173t-32 -115t-76.5 -64t-140.5 -22l-10 93q47 3 76 12.5
t44 33.5t20 70t5 122z" />
    <glyph glyph-name="uni0453" unicode="&#x453;" horiz-adv-x="429" 
d="M81 510h341v-90h-220v-420h-121v510zM276 731h147l-155 -146h-113z" />
    <glyph glyph-name="uni0454" unicode="&#x454;" horiz-adv-x="514" 
d="M47 251q0 129 64 199.5t181 70.5q50 0 92.5 -9.5t89.5 -32.5l-37 -86q-34 20 -64.5 29t-63.5 9q-62 0 -94 -34t-39 -93h235v-86h-236q7 -67 42 -102.5t103 -35.5q64 0 127 37l38 -88q-74 -40 -177 -40q-127 0 -194 67.5t-67 194.5z" />
    <glyph glyph-name="uni0455" unicode="&#x455;" horiz-adv-x="459" 
d="M295 143q0 30 -23 43t-79 33q-47 17 -79.5 34.5t-49.5 44t-17 69.5q0 71 51 112.5t139 41.5q43 0 81.5 -8.5t87.5 -28.5l-32 -91q-69 40 -131 40q-36 0 -56.5 -15.5t-20.5 -42.5q0 -22 16 -34.5t64 -31.5q58 -20 95 -40t55.5 -47t18.5 -69q0 -78 -56 -121t-145 -43
q-91 0 -170 40l32 91q38 -22 70 -32t67 -10q39 0 60.5 17t21.5 48z" />
    <glyph glyph-name="uni0456" unicode="&#x456;" horiz-adv-x="283" 
d="M68 673q0 32 21 52.5t53 20.5t53 -21t21 -53t-21 -53t-53 -21q-33 0 -53.5 21t-20.5 54zM81 510h121v-510h-121v510z" />
    <glyph glyph-name="uni0457" unicode="&#x457;" horiz-adv-x="283" 
d="M81 510h121v-510h-121v510zM177 675q0 30 19.5 49.5t50.5 19.5t50.5 -19.5t19.5 -50.5t-19.5 -50.5t-50.5 -19.5t-50.5 20t-19.5 51zM107 674q0 -31 -19 -50.5t-51 -19.5q-31 0 -50.5 20t-19.5 51q0 30 20 49.5t50 19.5q32 0 51 -19.5t19 -50.5z" />
    <glyph glyph-name="uni0458" unicode="&#x458;" horiz-adv-x="293" 
d="M91 -18v528h121v-512q0 -68 -6 -104t-23 -59q-40 -61 -135 -61q-40 0 -87 12l10 92q17 -5 28 -7t23 -2q38 0 53.5 25.5t15.5 87.5zM77 673q0 32 21 52.5t53 20.5t53 -21t21 -53t-21 -53t-53 -21q-33 0 -53.5 21t-20.5 54z" />
    <glyph glyph-name="uni0459" unicode="&#x459;" horiz-adv-x="819" 
d="M120 403v107h377v-164h74q58 0 88.5 -6.5t56.5 -23.5q65 -42 65 -143t-65 -143q-26 -17 -57 -23.5t-88 -6.5h-195v420h-142v-34q0 -113 -10.5 -187t-35 -117t-67 -61.5t-106.5 -20.5l-10 93q35 3 57 14.5t35 42.5t18 91.5t5 161.5zM497 86h52q56 0 82.5 18t26.5 69
q0 53 -27 70.5t-82 17.5h-52v-175z" />
    <glyph glyph-name="uni045A" unicode="&#x45a;" horiz-adv-x="841" 
d="M81 510h121v-183h196v183h121v-167h73q59 0 90.5 -6.5t56.5 -23.5q65 -42 65 -142t-65 -142q-25 -16 -56.5 -22.5t-90.5 -6.5h-194v236h-196v-236h-121v510zM519 86h53q56 0 82.5 17.5t26.5 67.5q0 52 -27.5 69.5t-81.5 17.5h-53v-172z" />
    <glyph glyph-name="uni045B" unicode="&#x45b;" horiz-adv-x="616" 
d="M82 572h-80v85h80v74h122v-74h148v-85h-148v-144q40 41 80.5 59.5t91.5 18.5q65 0 100 -25t48.5 -72.5t13.5 -115.5v-293h-121v286q0 40 -5.5 68.5t-22.5 44.5t-53 16q-69 0 -132 -86v-329h-122v572z" />
    <glyph glyph-name="uni045C" unicode="&#x45c;" horiz-adv-x="561" 
d="M201 0h-120v510h120v-209h39q32 0 52.5 18t48.5 73l61 118h123l-81 -148q-26 -48 -45.5 -69t-47.5 -31q31 -12 51.5 -32.5t47.5 -68.5l88 -161h-131l-68 130q-19 37 -34 56.5t-31.5 27t-39.5 7.5h-33v-221zM351 731h147l-155 -146h-113z" />
    <glyph glyph-name="uni045D" unicode="&#x45d;" horiz-adv-x="612" 
d="M81 510h120v-350q11 23 27 53.5t33 57.5l146 239h124v-510h-120v349q-11 -23 -27 -53t-32 -57l-146 -239h-125v510zM397 585h-113l-155 146h147z" />
    <glyph glyph-name="uni045E" unicode="&#x45e;" horiz-adv-x="542" 
d="M27 -115q35 -15 64 -15q40 0 67 30t55 109l-206 501h129l101 -256l15 -40t12 -32.5t15 -44.5q10 30 16 46.5t11.5 32t16.5 44.5l94 250h118l-206 -519q-30 -76 -58 -124t-64.5 -70.5t-94.5 -22.5q-28 0 -53.5 4.5t-52.5 13.5zM396.5 612.5q-40.5 -42.5 -125.5 -42.5
t-125 42.5t-42 118.5h103q2 -46 19 -64.5t45 -18.5q29 0 46 18.5t18 64.5h103q-1 -76 -41.5 -118.5z" />
    <glyph glyph-name="uni045F" unicode="&#x45f;" horiz-adv-x="603" 
d="M250 0h-165v510h121v-420h191v420h121v-510h-164v-148h-104v148z" />
    <glyph glyph-name="uni0462" unicode="&#x462;" horiz-adv-x="711" 
d="M9 609h165v83h126v-83h249v-97h-249v-100h110q69 0 107 -8.5t69 -29.5q80 -52 80 -168q0 -117 -80 -168q-31 -20 -68 -29t-100 -9h-244v512h-165v97zM300 93h77q80 0 120 22.5t40 92.5q0 47 -17.5 70.5t-52.5 32t-90 8.5h-77v-226z" />
    <glyph glyph-name="uni0463" unicode="&#x463;" horiz-adv-x="581" 
d="M109 420h-82v90h82v221h121v-221h136v-90h-136v-80h103q58 0 88.5 -5.5t56.5 -22.5q65 -42 65 -142t-65 -142q-26 -17 -57 -22.5t-88 -5.5h-224v420zM230 86h81q56 0 82.5 16.5t26.5 67.5q0 53 -27 69t-82 16h-81v-169z" />
    <glyph glyph-name="uni0472" unicode="&#x472;" horiz-adv-x="743" 
d="M49 350q0 105 39.5 184.5t111.5 124t171 44.5q100 0 172 -44.5t111.5 -124t39.5 -184.5q0 -108 -38 -189t-110 -126.5t-175 -45.5q-101 0 -173.5 45.5t-110.5 126.5t-38 189zM503 545.5q-51 58.5 -132 58.5t-131 -58.5t-59 -159.5q26 16 49.5 22t47.5 6q45 0 93 -24
l41 -21q27 -13 58 -13q22 0 43 6.5t49 23.5q-8 101 -59 159.5zM562 305q-26 -15 -49 -21t-47 -6t-45.5 5t-47.5 18l-41 21q-27 13 -58 13q-22 0 -43 -6t-49 -24q9 -102 59 -159.5t130 -57.5q81 0 131.5 57.5t59.5 159.5z" />
    <glyph glyph-name="uni0473" unicode="&#x473;" horiz-adv-x="591" 
d="M44 258q0 122 68 192.5t184 70.5q78 0 134 -32t86.5 -91t30.5 -140q0 -126 -66.5 -197.5t-184.5 -71.5t-185 71.5t-67 197.5zM419 213q-27 -16 -53 -16q-18 0 -34 5.5t-32 12.5l-31 15q-11 5 -23 8t-20 3q-15 0 -27 -4t-27 -13q6 -69 38.5 -107t85.5 -38q51 0 83 35
t40 99zM381.5 393q-32.5 38 -85.5 38q-51 0 -83 -35t-40 -98q27 16 53 16q18 0 34 -5t32 -13l31 -15q24 -11 43 -11q15 0 27 4t28 14q-7 67 -39.5 105z" />
    <glyph glyph-name="uni0474" unicode="&#x474;" horiz-adv-x="700" 
d="M674 574q-20 7 -38 7q-22 0 -34.5 -14.5t-27.5 -56.5l-186 -510h-135l-254 692h133l133 -376q20 -55 33 -94t25 -82q12 36 20.5 63.5t17.5 53.5t21 59l90 243q23 65 51.5 100.5t83.5 35.5q20 0 42.5 -4t41.5 -11z" />
    <glyph glyph-name="uni0475" unicode="&#x475;" horiz-adv-x="577" 
d="M555 410l-12 2t-14 1q-19 0 -31.5 -14t-26.5 -49l-130 -350h-136l-194 510h125l104 -279q24 -64 39 -111q7 23 16.5 52t21.5 60l56 148q27 71 56 106t81 35q14 0 27 -2t29 -7z" />
    <glyph glyph-name="uni0490" unicode="&#x490;" horiz-adv-x="516" 
d="M85 692h294v118h111v-218h-279v-592h-126v692z" />
    <glyph glyph-name="uni0491" unicode="&#x491;" horiz-adv-x="448" 
d="M85 510h237v104h104v-194h-220v-420h-121v510z" />
    <glyph glyph-name="uni0492" unicode="&#x492;" horiz-adv-x="590" 
d="M130 303h-121v98h121v291h410v-100h-285v-191h201v-98h-201v-303h-125v303z" />
    <glyph glyph-name="uni0493" unicode="&#x493;" horiz-adv-x="477" 
d="M111 200h-84v90h84v220h341v-90h-220v-130h147v-90h-147v-200h-121v200z" />
    <glyph glyph-name="uni0496" unicode="&#x496;" horiz-adv-x="935" 
d="M808 0h-54l-82 164q-28 58 -47 88t-37.5 40.5t-45.5 10.5h-29v-303h-120v303h-29q-27 0 -45.5 -10.5t-37.5 -40.5t-48 -88l-81 -164h-136l111 224q21 41 38 66.5t38 40.5t52 25q-28 9 -46.5 24t-35.5 41.5t-39 71.5l-102 199h127l81 -164q27 -56 44.5 -84.5t35.5 -38.5
t45 -10h28v297h120v-297h28q27 0 44.5 10t36 38.5t44.5 84.5l81 164h126l-101 -199q-23 -45 -39.5 -71.5t-35 -41.5t-47.5 -24q32 -10 52.5 -25t38 -40.5t37.5 -66.5l66 -132h76v-265h-112v173z" />
    <glyph glyph-name="uni0497" unicode="&#x497;" horiz-adv-x="811" 
d="M688 0h-41l-68 130q-28 55 -48 73t-51 18h-24v-221h-116v221h-25q-31 0 -51 -18t-48 -73l-68 -130h-131l88 161q26 48 46.5 68.5t51.5 32.5q-28 10 -47 31t-45 69l-81 148h123l61 -118q28 -54 47.5 -72.5t47.5 -18.5h31v209h116v-209h30q28 0 47.5 18.5t47.5 72.5l61 118
h124l-81 -148q-26 -48 -45 -68.5t-48 -31.5q32 -11 52 -32t47 -69l38 -71h63v-238h-104v148z" />
    <glyph glyph-name="uni0498" unicode="&#x498;" horiz-adv-x="580" 
d="M404 201q0 59 -48 86t-153 27h-33.5t-40.5 -2v95q15 -1 25.5 -1h30.5q204 0 204 106q0 44 -35.5 68t-100.5 24q-38 0 -76 -9t-86 -30l-31 97q54 21 104 31t103 10q119 0 183.5 -46.5t64.5 -134.5q0 -65 -35 -106t-100 -54q151 -30 151 -165q0 -100 -72 -154t-206 -54
q-63 0 -113.5 9t-106.5 29l33 100q81 -39 175 -39q79 0 121 29t42 84zM231 32h112v-205h-112v205z" />
    <glyph glyph-name="uni0499" unicode="&#x499;" horiz-adv-x="501" 
d="M326 152q0 38 -34 55t-111 17h-27.5t-41.5 -1v84q19 -1 30 -1.5t26 -0.5q82 0 115.5 16.5t33.5 50.5q0 29 -24 44.5t-66 15.5q-70 0 -147 -39l-28 91q49 20 90 28.5t94 8.5q99 0 151 -35.5t52 -105.5q0 -42 -20.5 -68.5t-65.5 -43.5q48 -15 72.5 -44t24.5 -76
q0 -159 -223 -159q-58 0 -101 8.5t-96 28.5l30 93q40 -20 76.5 -30t78.5 -10q53 0 82 19t29 54zM201 32h104v-180h-104v180z" />
    <glyph glyph-name="uni049A" unicode="&#x49a;" horiz-adv-x="673" 
d="M548 0h-66l-82 164q-28 58 -49 88t-44 40.5t-57 10.5h-41v-303h-124v692h124v-297h40q30 0 50.5 10t40 38.5t46.5 84.5l81 164h126l-102 -199q-22 -44 -38 -70.5t-34 -41t-45 -24.5q33 -10 54.5 -25t39 -40.5t38.5 -67.5l66 -132h88v-265h-112v173z" />
    <glyph glyph-name="uni049B" unicode="&#x49b;" horiz-adv-x="590" 
d="M466 0h-59l-68 130q-19 37 -34 56.5t-31.5 27t-39.5 7.5h-33v-221h-120v510h120v-209h39q32 0 52.5 18t48.5 73l61 118h123l-81 -148q-26 -48 -45.5 -69t-47.5 -31q31 -12 51.5 -32.5t47.5 -68.5l39 -71h82v-238h-105v148z" />
    <glyph glyph-name="uni049C" unicode="&#x49c;" horiz-adv-x="647" 
d="M313 172h-65v131h-39v-303h-124v692h124v-297h39v125h65v-115q21 11 40 39.5t46 83.5l81 164h126l-102 -199q-22 -44 -38 -70.5t-34 -41t-45 -24.5q33 -10 54.5 -25t39 -40.5t38.5 -67.5l112 -224h-136l-82 164q-30 62 -51.5 91.5t-48.5 40.5v-124z" />
    <glyph glyph-name="uni049D" unicode="&#x49d;" horiz-adv-x="574" 
d="M295 97h-57v124h-37v-221h-120v510h120v-209h37v119h57v-108q25 16 59 80l61 118h123l-81 -148q-26 -48 -45.5 -69t-47.5 -31q31 -11 51.5 -31.5t47.5 -69.5l88 -161h-131l-68 130q-32 62 -57 79v-112z" />
    <glyph glyph-name="uni04A0" unicode="&#x4a0;" horiz-adv-x="671" 
d="M9 692h237v-297h40q30 0 50.5 10t40.5 38.5t46 84.5l81 164h127l-102 -199q-22 -44 -38 -70.5t-34 -41t-45 -24.5q32 -10 53.5 -25t39.5 -40.5t39 -67.5l111 -224h-136l-81 164q-28 58 -49.5 88t-44.5 40.5t-57 10.5h-41v-303h-123v592h-114v100z" />
    <glyph glyph-name="uni04A1" unicode="&#x4a1;" horiz-adv-x="628" 
d="M148 420h-140v90h260v-209h39q32 0 52.5 18t48.5 73l61 118h123l-80 -148q-26 -48 -45.5 -69t-47.5 -32q31 -11 51 -31.5t47 -68.5l88 -161h-131l-68 130q-19 37 -34 56.5t-31.5 27t-39.5 7.5h-33v-221h-120v420z" />
    <glyph glyph-name="uni04A2" unicode="&#x4a2;" horiz-adv-x="711" 
d="M568 0h-72v304h-285v-304h-126v692h126v-289h285v289h125v-600h59v-265h-112v173z" />
    <glyph glyph-name="uni04A3" unicode="&#x4a3;" horiz-adv-x="611" 
d="M478 0h-73v214h-203v-214h-121v510h121v-203h203v203h121v-420h57v-238h-105v148z" />
    <glyph glyph-name="uni04AA" unicode="&#x4aa;" horiz-adv-x="613" 
d="M49 340q0 112 40.5 193t115.5 125.5t178 44.5q54 0 101 -10.5t104 -35.5l-41 -97q-43 23 -81 33.5t-77 10.5q-67 0 -114 -33.5t-71 -92t-24 -134.5q0 -118 57.5 -187t157.5 -69q43 0 80 11t85 36l35 -100q-38 -17 -70.5 -27.5t-64.5 -14.5t-71 -4q-108 0 -184 42.5
t-116 121.5t-40 187zM307 32h112v-205h-112v205z" />
    <glyph glyph-name="uni04AB" unicode="&#x4ab;" horiz-adv-x="484" 
d="M44 254q0 123 63.5 195t179.5 72q46 0 85.5 -9t81.5 -29l-36 -89q-60 37 -117 37q-63 0 -97 -45.5t-34 -130.5q0 -83 37 -129t104 -46q59 0 115 40l39 -88q-73 -43 -167 -43q-119 0 -186.5 70.5t-67.5 194.5zM203 32h104v-180h-104v180z" />
    <glyph glyph-name="uni04AE" unicode="&#x4ae;" horiz-adv-x="621" 
d="M248 295l-255 397h146l126 -202q13 -21 23.5 -38.5t26.5 -47.5q17 31 27 48.5t24 39.5l124 200h137l-253 -397v-295h-126v295z" />
    <glyph glyph-name="uni04AF" unicode="&#x4af;" horiz-adv-x="543" 
d="M208 0l-201 510h129l101 -263q9 -24 15 -39t12 -32t15 -46q9 27 15.5 45t13 35.5t15.5 41.5l94 258h118l-206 -513v-197h-121v200z" />
    <glyph glyph-name="uni04B0" unicode="&#x4b0;" horiz-adv-x="621" 
d="M143 216h105v79l-255 397h146l126 -202q13 -21 23.5 -38.5t26.5 -47.5q17 31 27 48.5t24 39.5l124 200h137l-253 -397v-79h104v-76h-104v-140h-126v140h-105v76z" />
    <glyph glyph-name="uni04B1" unicode="&#x4b1;" horiz-adv-x="543" 
d="M103 19h98l-194 491h129l101 -263q9 -24 15 -39t12 -32t15 -46q9 27 15.5 45t13 35.5t15.5 41.5l94 258h118l-197 -491h99v-76h-108v-143h-121v143h-105v76z" />
    <glyph glyph-name="uni04B2" unicode="&#x4b2;" horiz-adv-x="705" 
d="M574 0h-60l-173 253l-175 -253h-147l249 354l-236 338h146l168 -244l172 244h142l-242 -338l183 -262h85v-265h-112v173z" />
    <glyph glyph-name="uni04B3" unicode="&#x4b3;" horiz-adv-x="585" 
d="M462 0h-58l-125 178l-131 -178h-134l198 258l-186 252h139l116 -169l125 169h134l-192 -247l128 -173h90v-238h-104v148z" />
    <glyph glyph-name="uni04B6" unicode="&#x4b6;" horiz-adv-x="683" 
d="M544 0h-74v234q-39 -17 -78.5 -23.5t-83.5 -6.5q-124 0 -179 54.5t-55 159.5v274h126v-262q0 -67 29.5 -96.5t96.5 -29.5q38 0 74.5 6.5t69.5 22.5v359h126v-600h60v-265h-112v173z" />
    <glyph glyph-name="uni04B7" unicode="&#x4b7;" horiz-adv-x="600" 
d="M467 0h-73v168q-34 -15 -67 -20.5t-67 -5.5q-107 0 -149.5 45t-42.5 134v189h121v-181q0 -50 20.5 -73t71.5 -23q27 0 56.5 5.5t56.5 19.5v252h121v-420h56v-238h-104v148z" />
    <glyph glyph-name="uni04B8" unicode="&#x4b8;" horiz-adv-x="681" 
d="M291 204q-115 4 -166 58.5t-51 155.5v274h126v-262q0 -58 21.5 -87.5t69.5 -36.5v87h76v-87q27 2 53 8.5t50 18.5v359h126v-692h-126v234q-26 -11 -51 -17.5t-52 -9.5v-148h-76v145z" />
    <glyph glyph-name="uni04B9" unicode="&#x4b9;" horiz-adv-x="600" 
d="M250 142q-101 2 -141.5 47t-40.5 132v189h121v-181q0 -42 14 -64.5t47 -28.5v136h76v-136q17 3 34.5 8t33.5 14v252h121v-510h-121v168q-33 -14 -68 -20v-111h-76v105z" />
    <glyph glyph-name="uni04BA" unicode="&#x4ba;" horiz-adv-x="671" 
d="M85 692h126v-275q84 43 174 43q212 0 212 -209v-251h-126v235q0 65 -27 95t-83 30q-75 0 -150 -41v-319h-126v692z" />
    <glyph glyph-name="uni04BB" unicode="&#x4bb;" horiz-adv-x="616" 
d="M82 731h122v-289q40 42 80.5 60.5t91.5 18.5q65 0 100 -25t48.5 -73t13.5 -116v-307h-121v301q0 40 -5.5 68.5t-22.5 44.5t-53 16q-69 0 -132 -86v-344h-122v731z" />
    <glyph glyph-name="uni04C0" unicode="&#x4c0;" horiz-adv-x="296" 
d="M85 692h126v-692h-126v692z" />
    <glyph glyph-name="uni04CB" unicode="&#x4cb;" horiz-adv-x="684" 
d="M410 92h60v142q-39 -17 -78.5 -23.5t-83.5 -6.5q-124 0 -179 54.5t-55 159.5v274h126v-262q0 -67 29.5 -96.5t96.5 -29.5q38 0 74.5 6.5t69.5 22.5v359h126v-692h-74v-173h-112v265z" />
    <glyph glyph-name="uni04CC" unicode="&#x4cc;" horiz-adv-x="600" 
d="M338 78h56v90q-34 -15 -67 -20.5t-67 -5.5q-107 0 -149.5 45t-42.5 134v189h121v-181q0 -50 20.5 -73t71.5 -23q27 0 56.5 5.5t56.5 19.5v252h121v-510h-73v-148h-104v226z" />
    <glyph glyph-name="uni04CF" unicode="&#x4cf;" horiz-adv-x="296" 
d="M85 692h126v-692h-126v692z" />
    <glyph glyph-name="uni04D8" unicode="&#x4d8;" horiz-adv-x="663" 
d="M52 380h430q-5 68 -24.5 117.5t-61.5 77t-114 27.5q-45 0 -83.5 -10.5t-82.5 -33.5l-42 97q58 25 106 35.5t108 10.5q121 0 192 -44t102.5 -125.5t31.5 -192.5q0 -166 -76 -258t-212 -92q-148 0 -211 100t-63 291zM218.5 138.5q32.5 -50.5 105.5 -50.5q141 0 157 192
h-298q3 -91 35.5 -141.5z" />
    <glyph glyph-name="uni04D9" unicode="&#x4d9;" horiz-adv-x="570" 
d="M44 293h358q-7 68 -41 103.5t-105 35.5q-77 0 -154 -49l-42 88q47 26 94.5 38t102.5 12q131 0 201 -68.5t70 -196.5q0 -123 -65.5 -195t-181.5 -72q-92 0 -143.5 35.5t-72.5 103.5t-21 165zM199.5 111q29.5 -34 81.5 -34q54 0 84 34.5t37 97.5h-234q2 -64 31.5 -98z" />
    <glyph glyph-name="uni04E2" unicode="&#x4e2;" horiz-adv-x="712" 
d="M85 692h121v-422q0 -27 -1 -46.5t-2 -48.5q17 34 29 58.5t26 48.5t34 58l212 352h123v-692h-120v394v47t0.5 34.5t2.5 40.5q-17 -33 -29.5 -57.5t-26.5 -48.5t-34 -58l-212 -352h-123v692zM185 858h334v-76h-334v76z" />
    <glyph glyph-name="uni04E3" unicode="&#x4e3;" horiz-adv-x="612" 
d="M81 510h120v-350q11 23 27 53.5t33 57.5l146 239h124v-510h-120v349q-11 -23 -27 -53t-32 -57l-146 -239h-125v510zM134 695h334v-76h-334v76z" />
    <glyph glyph-name="uni04E8" unicode="&#x4e8;" horiz-adv-x="743" 
d="M49 350q0 102 38.5 181.5t110.5 125.5t173 46q102 0 174.5 -46t110.5 -125.5t38 -181.5q0 -104 -37 -185.5t-109 -128.5t-177 -47q-104 0 -176 47t-109 128.5t-37 185.5zM504 545q-51 59 -133 59q-81 0 -131.5 -59t-58.5 -161h382q-8 102 -59 161zM562 308h-380
q8 -103 58 -161.5t131 -58.5t132 58.5t59 161.5z" />
    <glyph glyph-name="uni04E9" unicode="&#x4e9;" horiz-adv-x="591" 
d="M44 258q0 81 30.5 140t87 91t134.5 32t134.5 -32t86.5 -91t30 -140q0 -123 -65.5 -196t-185.5 -73q-121 0 -186.5 73t-65.5 196zM380.5 394.5q-32.5 36.5 -84.5 36.5t-84.5 -36.5t-39.5 -101.5h248q-7 65 -39.5 101.5zM420 217h-248q8 -66 40 -102t84 -36t84 36t40 102z
" />
    <glyph glyph-name="uni04EE" unicode="&#x4ee;" horiz-adv-x="614" 
d="M77 106q25 -8 47 -13t49 -5q36 0 57 17t38 56l-254 531h138l106 -247q20 -47 37.5 -86.5t34.5 -84.5q9 26 17.5 49.5t19 50.5t25.5 64l103 254h123l-218 -517q-29 -68 -57.5 -109t-66 -59t-93.5 -18q-34 0 -63 5t-61 17zM157 858h334v-76h-334v76z" />
    <glyph glyph-name="uni04EF" unicode="&#x4ef;" horiz-adv-x="542" 
d="M27 -115q35 -15 64 -15q40 0 67 30t55 109l-206 501h129l101 -256l15 -40t12 -32.5t15 -44.5q10 30 16 46.5t11.5 32t16.5 44.5l94 250h118l-206 -519q-30 -76 -58 -124t-64.5 -70.5t-94.5 -22.5q-28 0 -53.5 4.5t-52.5 13.5zM104 695h334v-76h-334v76z" />
    <glyph glyph-name="uni1D48" unicode="&#x1d48;" horiz-adv-x="360" 
d="M29 548q0 68 32.5 107.5t87.5 39.5q25 0 43 -8.5t35 -28.5v148h80v-299q0 -27 1 -50t3 -52h-77l-2 34q-18 -22 -37 -31t-46 -9q-56 0 -88 40t-32 109zM111 548q0 -40 15.5 -63.5t43.5 -23.5q30 0 57 30v101q-25 41 -59 41q-26 0 -41.5 -23.5t-15.5 -61.5z" />
    <glyph glyph-name="uni1D48" unicode="&#xf6eb;" horiz-adv-x="360" 
d="M29 548q0 68 32.5 107.5t87.5 39.5q25 0 43 -8.5t35 -28.5v148h80v-299q0 -27 1 -50t3 -52h-77l-2 34q-18 -22 -37 -31t-46 -9q-56 0 -88 40t-32 109zM111 548q0 -40 15.5 -63.5t43.5 -23.5q30 0 57 30v101q-25 41 -59 41q-26 0 -41.5 -23.5t-15.5 -61.5z" />
    <glyph glyph-name="uni1E02" unicode="&#x1e02;" horiz-adv-x="600" 
d="M85 692h193q50 0 82.5 -3t56 -10t43.5 -20q36 -21 56 -60.5t20 -89.5q0 -63 -28.5 -101t-89.5 -55q133 -29 133 -162q0 -50 -20 -91.5t-58 -64.5q-31 -19 -68 -27t-105 -8h-215v692zM422 199q0 63 -41.5 85.5t-112.5 22.5h-60v-214h59q51 0 85.5 8t52 30.5t17.5 67.5z
M392 561.5q-18 22.5 -51.5 30t-79.5 7.5h-53v-205h58q69 0 106.5 19t37.5 81q0 45 -18 67.5zM246 833q0 31 20.5 51t51.5 20q32 0 52 -20t20 -52q0 -31 -20 -52t-52 -21t-52 21t-20 53z" />
    <glyph glyph-name="uni1E03" unicode="&#x1e03;" horiz-adv-x="600" 
d="M80 179v552h121v-285q59 75 149 75q63 0 109 -32.5t71.5 -92.5t25.5 -141q0 -77 -24 -137t-69.5 -94.5t-112.5 -34.5q-51 0 -86.5 19t-68.5 65l-3 -73h-117q2 34 3 56.5t1.5 49.5t0.5 73zM201 345v-177q51 -88 119 -88q50 0 80 48.5t30 128.5t-30.5 126.5t-82.5 46.5
q-67 0 -116 -85zM268 673q0 32 21 52.5t53 20.5t53 -21t21 -53t-21 -53t-53 -21q-33 0 -53.5 21t-20.5 54z" />
    <glyph glyph-name="uni1E0A" unicode="&#x1e0a;" horiz-adv-x="690" 
d="M85 692h177q69 0 118.5 -6.5t86 -21.5t67.5 -41q106 -88 106 -275q0 -103 -32.5 -178.5t-95.5 -116.5q-30 -19 -65 -31t-82 -17t-114 -5h-166v692zM510 347q0 69 -21.5 124t-59.5 83q-19 15 -40.5 23.5t-53.5 11.5t-83 3h-41v-492h46q112 0 168 38q41 29 63 83.5
t22 125.5zM291 833q0 31 20.5 51t51.5 20q32 0 52 -20t20 -52q0 -31 -20 -52t-52 -21t-52 21t-20 53z" />
    <glyph glyph-name="uni1E0B" unicode="&#x1e0b;" horiz-adv-x="600" 
d="M44 255q0 81 25.5 141t72 92.5t108.5 32.5q92 0 149 -75v285h121v-552q0 -46 0.5 -73.5t1.5 -50t3 -55.5h-117l-3 73q-34 -46 -69.5 -65t-85.5 -19q-66 0 -112 35t-70 95.5t-24 135.5zM170 254q0 -79 31 -126.5t83 -47.5q32 0 59.5 20.5t55.5 64.5v177q-46 88 -119 88
q-50 0 -80 -48t-30 -128zM185 673q0 32 21 52.5t53 20.5t53 -21t21 -53t-21 -53t-53 -21q-33 0 -53.5 21t-20.5 54z" />
    <glyph glyph-name="uni1E1E" unicode="&#x1e1e;" horiz-adv-x="545" 
d="M85 692h411v-100h-285v-191h271v-100h-271v-301h-126v692zM219 833q0 31 20.5 51t51.5 20q32 0 52 -20t20 -52q0 -31 -20 -52t-52 -21t-52 21t-20 53z" />
    <glyph glyph-name="uni1E1F" unicode="&#x1e1f;" horiz-adv-x="373" 
d="M109 420h-82v90h82v33q0 101 37.5 150.5t125.5 49.5q42 0 95 -14l-10 -95q-34 14 -59 14q-37 0 -52.5 -27t-15.5 -89v-22h116v-90h-116v-420h-121v420zM179 857q0 32 21 52.5t53 20.5t53 -21t21 -53t-21 -53t-53 -21q-33 0 -53.5 21t-20.5 54z" />
    <glyph glyph-name="uni1E22" unicode="&#x1e22;" horiz-adv-x="707" 
d="M85 692h126v-289h285v289h125v-692h-125v304h-285v-304h-126v692zM282 833q0 31 20.5 51t51.5 20q32 0 52 -20t20 -52q0 -31 -20 -52t-52 -21t-52 21t-20 53z" />
    <glyph glyph-name="uni1E23" unicode="&#x1e23;" horiz-adv-x="616" 
d="M82 731h122v-289q40 42 80.5 60.5t91.5 18.5q65 0 100 -25t48.5 -73t13.5 -116v-307h-121v301q0 40 -5.5 68.5t-22.5 44.5t-53 16q-69 0 -132 -86v-344h-122v731zM69 857q0 32 21 52.5t53 20.5t53 -21t21 -53t-21 -53t-53 -21q-33 0 -53.5 21t-20.5 54z" />
    <glyph glyph-name="uni1E24" unicode="&#x1e24;" horiz-adv-x="707" 
d="M85 692h126v-289h285v289h125v-692h-125v304h-285v-304h-126v692zM282 -146q0 31 20.5 51t51.5 20q32 0 52 -20.5t20 -52.5q0 -31 -20 -51.5t-52 -20.5t-52 20.5t-20 53.5z" />
    <glyph glyph-name="uni1E25" unicode="&#x1e25;" horiz-adv-x="616" 
d="M82 731h122v-289q40 42 80.5 60.5t91.5 18.5q65 0 100 -25t48.5 -73t13.5 -116v-307h-121v301q0 40 -5.5 68.5t-22.5 44.5t-53 16q-69 0 -132 -86v-344h-122v731zM238 -146q0 31 20.5 51t51.5 20q32 0 52 -20.5t20 -52.5q0 -31 -20 -51.5t-52 -20.5t-52 20.5t-20 53.5z
" />
    <glyph glyph-name="uni1E36" unicode="&#x1e36;" horiz-adv-x="508" 
d="M85 692h126v-592h298v-100h-424v692zM225 -146q0 31 20.5 51t51.5 20q32 0 52 -20.5t20 -52.5q0 -31 -20 -51.5t-52 -20.5t-52 20.5t-20 53.5z" />
    <glyph glyph-name="uni1E37" unicode="&#x1e37;" horiz-adv-x="285" 
d="M82 731h121v-731h-121v731zM71 -146q0 31 20.5 51t51.5 20q32 0 52 -20.5t20 -52.5q0 -31 -20 -51.5t-52 -20.5t-52 20.5t-20 53.5z" />
    <glyph glyph-name="uni1E56" unicode="&#x1e56;" horiz-adv-x="555" 
d="M85 692h171q81 0 125.5 -9t77.5 -33q37 -26 57 -69t20 -98q0 -54 -21 -97.5t-59 -69.5q-33 -22 -76.5 -31.5t-112.5 -9.5h-56v-275h-126v692zM408 480q0 47 -19 71.5t-54 34t-82 9.5h-45v-223h41q51 0 86.5 8t54 31.5t18.5 68.5zM239 833q0 31 20.5 51t51.5 20
q32 0 52 -20t20 -52q0 -31 -20 -52t-52 -21t-52 21t-20 53z" />
    <glyph glyph-name="uni1E57" unicode="&#x1e57;" horiz-adv-x="600" 
d="M80 306v69.5t-1 48t-1.5 40.5t-2.5 46h116l4 -70q36 44 71.5 62.5t83.5 18.5q63 0 109 -32.5t71.5 -92.5t25.5 -141q0 -77 -24 -137t-69.5 -94.5t-112.5 -34.5q-49 0 -84 18t-65 58v-280h-121v521zM430 257q0 80 -30.5 126.5t-82.5 46.5q-65 0 -116 -84v-178
q53 -88 119 -88q50 0 80 48.5t30 128.5zM242 673q0 32 21 52.5t53 20.5t53 -21t21 -53t-21 -53t-53 -21q-33 0 -53.5 21t-20.5 54z" />
    <glyph glyph-name="uni1E60" unicode="&#x1e60;" horiz-adv-x="555" 
d="M375 187q0 28 -12 45.5t-40.5 33t-80.5 36.5q-63 27 -106 51.5t-64.5 58t-21.5 87.5q0 96 63 150t168 54q47 0 93.5 -8t105.5 -27l-26 -104q-57 23 -93 31.5t-74 8.5q-49 0 -78 -24t-29 -63q0 -22 10 -38.5t36.5 -32t77.5 -36.5q69 -28 114 -54t67 -62t22 -97
q0 -99 -64.5 -153.5t-180.5 -54.5q-56 0 -105 8.5t-105 27.5l17 107q59 -23 103 -33.5t86 -10.5q54 0 85.5 26.5t31.5 72.5zM224 833q0 31 20.5 51t51.5 20q32 0 52 -20t20 -52q0 -31 -20 -52t-52 -21t-52 21t-20 53z" />
    <glyph glyph-name="uni1E61" unicode="&#x1e61;" horiz-adv-x="459" 
d="M295 143q0 30 -23 43t-79 33q-47 17 -79.5 34.5t-49.5 44t-17 69.5q0 71 51 112.5t139 41.5q43 0 81.5 -8.5t87.5 -28.5l-32 -91q-69 40 -131 40q-36 0 -56.5 -15.5t-20.5 -42.5q0 -22 16 -34.5t64 -31.5q58 -20 95 -40t55.5 -47t18.5 -69q0 -78 -56 -121t-145 -43
q-91 0 -170 40l32 91q38 -22 70 -32t67 -10q39 0 60.5 17t21.5 48zM156 673q0 32 21 52.5t53 20.5t53 -21t21 -53t-21 -53t-53 -21q-33 0 -53.5 21t-20.5 54z" />
    <glyph glyph-name="uni1E6A" unicode="&#x1e6a;" horiz-adv-x="548" 
d="M211 592h-200v100h527v-100h-201v-592h-126v592zM204 833q0 31 20.5 51t51.5 20q32 0 52 -20t20 -52q0 -31 -20 -52t-52 -21t-52 21t-20 53z" />
    <glyph glyph-name="uni1E6B" unicode="&#x1e6b;" horiz-adv-x="376" 
d="M109 179v241h-82v90h82v110l121 24v-134h116v-90h-116v-235q0 -55 15.5 -77.5t52.5 -22.5q23 0 56 12l10 -91q-54 -17 -107 -17q-58 0 -90.5 20.5t-45 63t-12.5 106.5zM95 758q0 32 21 52.5t53 20.5t53 -21t21 -53t-21 -53t-53 -21q-33 0 -53.5 21t-20.5 54z" />
    <glyph glyph-name="Wgrave" unicode="&#x1e80;" horiz-adv-x="931" 
d="M684 262q5 23 15 65l84 365h119l-168 -692h-131l-94 365q-12 42 -21 79.5t-22 91.5q-8 -34 -14 -58t-12.5 -49.5t-16.5 -60.5l-99 -368h-132l-163 692h126l82 -372q8 -37 13 -60t9 -44.5t10 -54.5q10 43 17.5 75t19.5 78l98 378h130l94 -364q9 -36 15 -59t11 -45t12 -55
q6 30 9.5 50t8.5 43zM557 755h-113l-155 146h147z" />
    <glyph glyph-name="wgrave" unicode="&#x1e81;" horiz-adv-x="833" 
d="M244 128q11 45 18.5 74.5t19.5 69.5l70 238h129l72 -236q12 -39 21.5 -69.5t20.5 -76.5q8 35 13 55t10.5 39t13.5 49l67 239h110l-151 -510h-127l-74 241q-11 33 -17.5 55t-12.5 44l-15 55q-10 -42 -19.5 -77.5t-22.5 -78.5l-71 -239h-128l-148 510h120l66 -241
q7 -23 12 -42.5t10.5 -42t12.5 -56.5zM513 585h-113l-155 146h147z" />
    <glyph glyph-name="Wacute" unicode="&#x1e82;" horiz-adv-x="931" 
d="M684 262q5 23 15 65l84 365h119l-168 -692h-131l-94 365q-12 42 -21 79.5t-22 91.5q-8 -34 -14 -58t-12.5 -49.5t-16.5 -60.5l-99 -368h-132l-163 692h126l82 -372q8 -37 13 -60t9 -44.5t10 -54.5q10 43 17.5 75t19.5 78l98 378h130l94 -364q9 -36 15 -59t11 -45t12 -55
q6 30 9.5 50t8.5 43zM506 901h147l-155 -146h-113z" />
    <glyph glyph-name="wacute" unicode="&#x1e83;" horiz-adv-x="833" 
d="M244 128q11 45 18.5 74.5t19.5 69.5l70 238h129l72 -236q12 -39 21.5 -69.5t20.5 -76.5q8 35 13 55t10.5 39t13.5 49l67 239h110l-151 -510h-127l-74 241q-11 33 -17.5 55t-12.5 44l-15 55q-10 -42 -19.5 -77.5t-22.5 -78.5l-71 -239h-128l-148 510h120l66 -241
q7 -23 12 -42.5t10.5 -42t12.5 -56.5zM456 731h147l-155 -146h-113z" />
    <glyph glyph-name="Wdieresis" unicode="&#x1e84;" horiz-adv-x="931" 
d="M684 262q5 23 15 65l84 365h119l-168 -692h-131l-94 365q-12 42 -21 79.5t-22 91.5q-8 -34 -14 -58t-12.5 -49.5t-16.5 -60.5l-99 -368h-132l-163 692h126l82 -372q8 -37 13 -60t9 -44.5t10 -54.5q10 43 17.5 75t19.5 78l98 378h130l94 -364q9 -36 15 -59t11 -45t12 -55
q6 30 9.5 50t8.5 43zM289 833q0 31 20.5 51t51.5 20q32 0 52.5 -20t20.5 -52q0 -31 -20.5 -52t-52.5 -21t-52 21t-20 53zM519 884q21 20 52 20q32 0 52 -20t20 -52q0 -31 -20 -52t-52 -21t-52.5 21t-20.5 53q0 31 21 51z" />
    <glyph glyph-name="wdieresis" unicode="&#x1e85;" horiz-adv-x="833" 
d="M244 128q11 45 18.5 74.5t19.5 69.5l70 238h129l72 -236q12 -39 21.5 -69.5t20.5 -76.5q8 35 13 55t10.5 39t13.5 49l67 239h110l-151 -510h-127l-74 241q-11 33 -17.5 55t-12.5 44l-15 55q-10 -42 -19.5 -77.5t-22.5 -78.5l-71 -239h-128l-148 510h120l66 -241
q7 -23 12 -42.5t10.5 -42t12.5 -56.5zM452 675q0 30 19.5 49.5t50.5 19.5t50.5 -19.5t19.5 -50.5t-19.5 -50.5t-50.5 -19.5t-50.5 20t-19.5 51zM382 674q0 -31 -19 -50.5t-51 -19.5q-31 0 -50.5 20t-19.5 51q0 30 20 49.5t50 19.5q32 0 51 -19.5t19 -50.5z" />
    <glyph glyph-name="uni1E9E" unicode="&#x1e9e;" horiz-adv-x="623" 
d="M79 495q0 98 60.5 153t167.5 55q94 0 156.5 -40.5t87.5 -117.5l-133 -144q77 -19 121 -70.5t44 -128.5q0 -97 -57.5 -154.5t-152.5 -57.5q-28 0 -51.5 3t-61.5 13l14 98q26 -10 41.5 -13t34.5 -3q49 0 77 30t28 83q0 61 -39.5 89.5t-120.5 28.5h-13v64l147 166
q-16 26 -46 41t-70 15q-109 0 -109 -137l1 -468h-126v495z" />
    <glyph glyph-name="uni1EA0" unicode="&#x1ea0;" horiz-adv-x="676" 
d="M135 0h-126l257 692h138l263 -692h-133l-70 196h-260zM311.5 498.5q-5.5 -15.5 -15.5 -43.5l-58 -163h192l-58 163q-8 23 -13.5 40t-11 34.5t-13.5 43.5q-8 -27 -12.5 -43t-10 -31.5zM266 -146q0 31 20.5 51t51.5 20q32 0 52 -20.5t20 -52.5q0 -31 -20 -51.5t-52 -20.5
t-52 20.5t-20 53.5z" />
    </font>
</defs>
</svg>
