<?xml version="1.0" standalone="no"?>
<!DOCTYPE svg PUBLIC "-//W3C//DTD SVG 1.1//EN" "http://www.w3.org/Graphics/SVG/1.1/DTD/svg11.dtd" >
<svg xmlns="http://www.w3.org/2000/svg" xmlns:xlink="http://www.w3.org/1999/xlink" version="1.1">
<metadata>
Created by FontForge 20201107 at Fri Mar 29 18:03:12 2024
 By 
Based on a design by Hans Jurg Hunziker 2001/2007. 2023 remastered and produced by Dalton Maag Ltd. For the exclusive use by Siemens AG, its affiliates and licensees.
</metadata>
<defs>
<font id="SiemensSansPro-Bold" horiz-adv-x="0" >
  <font-face 
    font-family="SiemensSans Pro"
    font-weight="700"
    font-stretch="normal"
    units-per-em="1000"
    panose-1="2 11 8 3 3 2 3 2 2 4"
    ascent="800"
    descent="-200"
    x-height="512"
    cap-height="692"
    bbox="-629 -280 1282 1148"
    underline-thickness="109"
    underline-position="-213"
    unicode-range="U+000D-FEFF"
  />
<missing-glyph horiz-adv-x="576" 
d="M60 692h456v-692h-456v692zM451 638h-326v-584h326v584z" />
    <glyph glyph-name="f_i" unicode="fi" horiz-adv-x="652" 
d="M105 402h-81v110h81v23q0 109 43 159t136 50q51 0 111 -17l-12 -114q-21 8 -33.5 10.5t-26.5 2.5q-35 0 -51 -25t-16 -81v-8h244v-110h-244v-402h-151v402zM412 667q0 38 25 62.5t63 24.5t62.5 -25t24.5 -63t-24.5 -63t-62.5 -25q-39 0 -63.5 25t-24.5 64zM424 512h151
v-512h-151v512z" />
    <glyph glyph-name="f_l" unicode="fl" horiz-adv-x="664" 
d="M105 402h-81v110h81v23q0 109 46 161t156 52q41 0 71.5 -5.5t55.5 -11.5h151v-731h-151v608q-43 26 -86 26q-48 0 -70 -27.5t-22 -86.5v-8h114v-110h-114v-402h-151v402z" />
    <glyph glyph-name="f_f_i" unicode="ffi" horiz-adv-x="971" 
d="M424 402h-168v-402h-151v402h-81v110h81v23q0 109 43 159t136 50q51 0 111 -17l-12 -114q-21 8 -33.5 10.5t-26.5 2.5q-35 0 -51 -25t-16 -81v-8h168v23q0 109 43 159t136 50q51 0 111 -17l-12 -114q-21 8 -33.5 10.5t-26.5 2.5q-35 0 -51 -25t-16 -81v-8h264v-110h-264
v-402h-151v402zM731 667q0 38 25 62.5t63 24.5t62.5 -25t24.5 -63t-24.5 -63t-62.5 -25q-39 0 -63.5 25t-24.5 64zM743 512h151v-512h-151v512z" />
    <glyph glyph-name="f_f_l" unicode="ffl" horiz-adv-x="980" 
d="M105 402h-81v110h81v23q0 109 43 159t136 50q51 0 111 -17l-12 -114q-21 8 -33.5 10.5t-26.5 2.5q-35 0 -51 -25t-16 -81v-8h165v23q0 107 46 158t156 51q41 0 71.5 -4t55.5 -9h151v-731h-151v608q-44 22 -86 22q-48 0 -70 -26.5t-22 -83.5v-8h114v-110h-114v-402h-151
v402h-165v-402h-151v402z" />
    <glyph glyph-name="f_f" unicode="ff" horiz-adv-x="717" 
d="M105 402h-81v110h81v23q0 109 43 159t136 50q51 0 111 -17l-12 -114q-21 8 -33.5 10.5t-26.5 2.5q-35 0 -51 -25t-16 -81v-8h169v23q0 109 43 159t136 50q51 0 111 -17l-12 -114q-21 8 -33.5 10.5t-26.5 2.5q-35 0 -51 -25t-16 -81v-8h114v-110h-114v-402h-151v402h-169
v-402h-151v402z" />
    <glyph glyph-name=".notdef" horiz-adv-x="576" 
d="M60 692h456v-692h-456v692zM451 638h-326v-584h326v584z" />
    <glyph glyph-name="uni0000" 
 />
    <glyph glyph-name="uni0000" 
 />
    <glyph glyph-name="uni000D" unicode="&#xd;" horiz-adv-x="250" 
 />
    <glyph glyph-name="space" unicode=" " horiz-adv-x="250" 
 />
    <glyph glyph-name="exclam" unicode="!" horiz-adv-x="363" 
d="M106 692h151l-9 -463h-133zM89 82q0 39 26.5 65t66.5 26t66 -26t26 -67q0 -40 -26 -66t-66 -26q-41 0 -67 26.5t-26 67.5z" />
    <glyph glyph-name="quotedbl" unicode="&#x22;" horiz-adv-x="451" 
d="M46 731h151l-5 -283h-141zM254 731h151l-5 -283h-141z" />
    <glyph glyph-name="numbersign" unicode="#" horiz-adv-x="632" 
d="M27 292h105l15 102h-86v110h103l29 188h122l-29 -188h104l29 188h122l-29 -188h93v-110h-110l-15 -102h91v-110h-108l-28 -182h-122l28 182h-104l-28 -182h-122l28 182h-88v110zM373 394h-104l-15 -102h104z" />
    <glyph glyph-name="dollar" unicode="$" horiz-adv-x="632" 
d="M272 -12q-75 1 -127 10.5t-107 33.5l24 130q50 -28 99.5 -39.5t110.5 -13.5v180q-75 22 -126 46t-77.5 61.5t-26.5 101.5q0 102 65 151.5t173 54.5v85h68v-86q37 -1 67.5 -5t61.5 -11.5t70 -19.5l-29 -125q-39 16 -82 26.5t-88 12.5v-167q80 -20 133.5 -42t80 -61
t26.5 -109q0 -98 -60.5 -149.5t-187.5 -62.5v-89h-68v87zM431 191q0 33 -18.5 49.5t-72.5 30.5v-160q50 4 70.5 22.5t20.5 57.5zM280 580q-40 -6 -60.5 -23t-20.5 -49q0 -31 17.5 -47t63.5 -29v148z" />
    <glyph glyph-name="percent" unicode="%" horiz-adv-x="888" 
d="M517 192q0 94 44.5 144t126.5 50q83 0 126.5 -50.5t43.5 -145.5t-44 -145.5t-127 -50.5t-126.5 50.5t-43.5 147.5zM627 191q0 -114 61 -114q29 0 44.5 29t15.5 84t-15.5 84t-44.5 29t-45 -29t-16 -83zM30 504q0 94 44.5 144t126.5 50q83 0 126.5 -50.5t43.5 -145.5
t-44 -145.5t-127 -50.5t-126.5 50.5t-43.5 147.5zM140 503q0 -114 61 -114q29 0 44.5 29t15.5 84t-15.5 84t-44.5 29t-45 -29t-16 -83zM541 708h96l-275 -724h-96z" />
    <glyph glyph-name="ampersand" unicode="&#x26;" horiz-adv-x="736" 
d="M53 202q0 67 32.5 110.5t104.5 72.5q-43 46 -58.5 77t-15.5 71q0 80 59 125.5t161 45.5q108 0 166 -45.5t58 -128.5q0 -126 -152 -177l112 -116q41 61 45 153h136q-1 -68 -23.5 -134.5t-64.5 -114.5l136 -141h-191l-50 52q-35 -26 -64.5 -40t-61 -19t-73.5 -5
q-78 0 -135.5 26t-89 74.5t-31.5 113.5zM209 202q0 -44 30.5 -71.5t78.5 -27.5q31 0 54.5 11t46.5 31l-146 152q-64 -34 -64 -95zM269 522q0 -49 65 -94l9 4q39 18 55.5 38t16.5 48q0 32 -20 51.5t-54 19.5q-32 0 -52 -18.5t-20 -48.5z" />
    <glyph glyph-name="quotesingle" unicode="'" horiz-adv-x="243" 
d="M46 731h151l-5 -283h-141z" />
    <glyph glyph-name="parenleft" unicode="(" horiz-adv-x="448" 
d="M79 300q0 143 63.5 261.5t186.5 203.5l85 -91q-99 -81 -143 -169t-44 -205q0 -115 44 -201.5t143 -167.5l-85 -91q-123 86 -186.5 203t-63.5 257z" />
    <glyph glyph-name="parenright" unicode=")" horiz-adv-x="448" 
d="M221 305q0 115 -44 201.5t-143 167.5l85 91q123 -85 186.5 -202.5t63.5 -257.5q0 -142 -63.5 -260.5t-186.5 -204.5l-85 91q99 81 143 169t44 205z" />
    <glyph glyph-name="asterisk" unicode="*" horiz-adv-x="632" 
d="M355 569l133 61l34 -112l-142 -23l98 -106l-98 -68l-64 130l-64 -130l-97 68l97 106l-141 23l34 112l133 -62l-21 144h118z" />
    <glyph glyph-name="plus" unicode="+" horiz-adv-x="632" 
d="M252 198h-192v116h192v198h128v-198h192v-116h-192v-198h-128v198z" />
    <glyph glyph-name="comma" unicode="," horiz-adv-x="316" 
d="M107 168h166l-112 -290h-141z" />
    <glyph glyph-name="hyphen" unicode="-" horiz-adv-x="397" 
d="M46 341h305v-116h-305v116z" />
    <glyph glyph-name="period" unicode="." horiz-adv-x="316" 
d="M65 81q0 40 26.5 66t66.5 26q41 0 67 -26t26 -67q0 -40 -26.5 -66t-66.5 -26t-66.5 26.5t-26.5 66.5z" />
    <glyph glyph-name="slash" unicode="/" horiz-adv-x="486" 
d="M341 701h145l-341 -728h-145z" />
    <glyph glyph-name="zero" unicode="0" horiz-adv-x="632" 
d="M46 346q0 181 67 269.5t203 88.5q137 0 203.5 -88.5t66.5 -269.5t-66.5 -269.5t-203.5 -88.5q-136 0 -203 88.5t-67 269.5zM202 346q0 -121 28 -178.5t86 -57.5q59 0 86.5 57.5t27.5 178.5q0 122 -27.5 179t-86.5 57q-58 0 -86 -57t-28 -179z" />
    <glyph glyph-name="one" unicode="1" horiz-adv-x="632" 
d="M276 530l-134 -84l-70 116l221 130h134v-692h-151v530z" />
    <glyph glyph-name="two" unicode="2" horiz-adv-x="632" 
d="M52 117q70 59 125.5 108t89.5 82q51 49 79 81.5t39.5 57t11.5 49.5q0 39 -32 63t-83 24q-73 0 -185 -47l-39 121q122 48 242 48q122 0 187.5 -52.5t65.5 -149.5q0 -45 -15.5 -86t-55 -89t-111.5 -115q-22 -20 -47 -42.5t-54 -47.5h289v-122h-507v117z" />
    <glyph glyph-name="three" unicode="3" horiz-adv-x="632" 
d="M395 205q0 40 -23.5 60.5t-61.5 28t-82 7.5h-20t-21.5 -0.5t-36.5 -1.5v114q14 -1 23 -1h22q101 0 147 21t46 67q0 40 -31 61t-89 21q-40 0 -80 -8.5t-92 -28.5l-33 120q57 20 111.5 29.5t116.5 9.5q123 0 188 -49t65 -142q0 -135 -143 -157q150 -22 150 -158
q0 -71 -35.5 -118t-98.5 -70t-145 -23q-67 0 -122 9.5t-109 30.5l34 121q84 -39 181 -39q62 0 100.5 23t38.5 73z" />
    <glyph glyph-name="four" unicode="4" horiz-adv-x="632" 
d="M350 157h-332v122l300 413h183v-423h93v-112h-93v-157h-151v157zM354 546l-192 -277h192v277z" />
    <glyph glyph-name="five" unicode="5" horiz-adv-x="632" 
d="M405 228q0 109 -166 109q-25 0 -44.5 -1.5t-44.5 -5t-65 -11.5l13 373h439v-122h-292l-4 -120q22 2 32 2.5t27 0.5q125 0 193 -56t68 -170q0 -121 -74 -180t-205 -59q-71 0 -126.5 9.5t-109.5 30.5l39 122q46 -20 88 -30t85 -10q68 0 107.5 30.5t39.5 87.5z" />
    <glyph glyph-name="six" unicode="6" horiz-adv-x="632" 
d="M55 283q0 127 38 221.5t116.5 147t199.5 52.5q32 0 60.5 -2.5t66.5 -9.5l-15 -128q-33 10 -57.5 14t-52.5 4q-83 0 -132.5 -48t-56.5 -135q34 32 69.5 46.5t82.5 14.5q99 0 154.5 -58.5t55.5 -164.5q0 -118 -69 -183.5t-194 -65.5q-131 0 -198.5 74.5t-67.5 220.5z
M211 226q0 -56 29.5 -88t81.5 -32q50 0 78.5 33t28.5 90q0 53 -27 82.5t-76 29.5q-52 0 -83.5 -31.5t-31.5 -83.5z" />
    <glyph glyph-name="seven" unicode="7" horiz-adv-x="632" 
d="M59 692h505v-115l-304 -577h-168l304 570h-337v122z" />
    <glyph glyph-name="eight" unicode="8" horiz-adv-x="632" 
d="M46 196q0 62 29.5 101t96.5 66q-59 29 -85 64.5t-26 86.5q0 88 68.5 139t186.5 51q117 0 185.5 -51t68.5 -139q0 -51 -25.5 -86t-85.5 -65q67 -27 96.5 -66t29.5 -101q0 -98 -70.5 -153t-198.5 -55t-199 55t-71 153zM202 194q0 -41 31 -65.5t83 -24.5q51 0 82 24.5
t31 65.5q0 81 -120 111q-107 -31 -107 -111zM214 514q0 -71 102 -98q101 29 101 96q0 36 -27 56t-74 20t-74.5 -20t-27.5 -54z" />
    <glyph glyph-name="nine" unicode="9" horiz-adv-x="632" 
d="M48 455q0 118 69.5 183.5t193.5 65.5q131 0 198.5 -74.5t67.5 -220.5q0 -106 -29 -193.5t-82 -140.5q-45 -45 -104 -66t-139 -21q-31 0 -60 2.5t-67 9.5l15 128q33 -10 57.5 -14t52.5 -4q83 0 132.5 48t56.5 135q-34 -32 -69.5 -46.5t-82.5 -14.5q-99 0 -154.5 58.5
t-55.5 164.5zM203 463q0 -53 27 -82.5t76 -29.5q52 0 83.5 31.5t31.5 83.5q0 56 -29.5 88t-81.5 32q-50 0 -78.5 -33t-28.5 -90z" />
    <glyph glyph-name="colon" unicode=":" horiz-adv-x="316" 
d="M65 81q0 40 26.5 66t66.5 26q41 0 67 -26t26 -67q0 -40 -26.5 -66t-66.5 -26t-66.5 26.5t-26.5 66.5zM65 432q0 40 26.5 66t66.5 26q41 0 67 -26t26 -67q0 -40 -26.5 -66t-66.5 -26t-66.5 26.5t-26.5 66.5z" />
    <glyph glyph-name="semicolon" unicode=";" horiz-adv-x="316" 
d="M74 432q0 40 26.5 66t66.5 26q41 0 67 -26t26 -67q0 -40 -26.5 -66t-66.5 -26t-66.5 26.5t-26.5 66.5zM91 168h166l-112 -290h-141z" />
    <glyph glyph-name="less" unicode="&#x3c;" horiz-adv-x="632" 
d="M57 306l512 218v-134l-316 -134l316 -134v-134l-512 218v100z" />
    <glyph glyph-name="equal" unicode="=" horiz-adv-x="632" 
d="M60 416h512v-116h-512v116zM60 212h512v-116h-512v116z" />
    <glyph glyph-name="greater" unicode="&#x3e;" horiz-adv-x="632" 
d="M63 122l316 134l-316 134v134l512 -218v-100l-512 -218v134z" />
    <glyph glyph-name="question" unicode="?" horiz-adv-x="487" 
d="M148 273q0 43 5 65.5t22.5 40t54.5 43.5q36 25 54.5 41t25 29t6.5 29q0 32 -22.5 50t-60.5 18q-60 0 -151 -50l-43 109q58 29 109 42.5t108 13.5q104 0 162.5 -46.5t58.5 -129.5q0 -51 -25 -87.5t-89 -78.5q-33 -22 -48 -36t-19 -30.5t-4 -45.5v-20h-144v43zM128 82
q0 39 26.5 65t66.5 26t66 -26t26 -67q0 -40 -26 -66t-66 -26q-41 0 -67 26.5t-26 67.5z" />
    <glyph glyph-name="at" unicode="@" horiz-adv-x="830" 
d="M25 346q0 108 50.5 188.5t142 125t213.5 44.5q113 0 197.5 -38.5t131 -108t46.5 -163.5q0 -69 -26.5 -123t-73 -85t-106.5 -31q-82 0 -96 68q-43 -68 -132 -68q-74 0 -115.5 40.5t-41.5 112.5q0 66 31.5 116.5t86.5 79t127 28.5q41 0 84.5 -7t71.5 -18l-31 -190
q-1 -9 -2.5 -19t-1.5 -21q0 -34 28 -34q26 0 47 21.5t33.5 57t12.5 78.5q0 99 -72 156.5t-197 57.5q-90 0 -158.5 -34t-107 -95t-38.5 -142q0 -124 83 -193.5t229 -69.5q91 0 175 24l9 -96q-80 -20 -183 -20q-131 0 -224.5 42.5t-143 123t-49.5 192.5zM488 445q-16 4 -29 4
q-33 0 -61.5 -20.5t-45.5 -54t-17 -72.5q0 -28 15 -43.5t41 -15.5q63 0 77 84z" />
    <glyph glyph-name="A" unicode="A" horiz-adv-x="712" 
d="M482 165h-262l-59 -165h-155l264 692h163l273 -692h-165zM350 539q-6 -21 -9.5 -34t-9 -28.5t-16.5 -44.5l-53 -150h178l-54 150q-7 21 -12 35t-10.5 29.5t-13.5 42.5z" />
    <glyph glyph-name="B" unicode="B" horiz-adv-x="633" 
d="M82 692h249q49 0 81.5 -3.5t55.5 -12t42 -23.5q31 -23 48.5 -62.5t17.5 -83.5q0 -117 -105 -153q116 -37 116 -158q0 -48 -18.5 -89t-52.5 -66q-29 -22 -69 -31.5t-99 -9.5h-266v692zM429 203q0 50 -31.5 73t-87.5 23h-76v-187h74q59 0 90 18t31 73zM388 562.5
q-34 17.5 -90 17.5h-64v-178h72q56 0 86 17t30 69q0 57 -34 74.5z" />
    <glyph glyph-name="C" unicode="C" horiz-adv-x="631" 
d="M46 340q0 114 41 195.5t118 125t184 43.5q59 0 108.5 -11t110.5 -38l-52 -118q-81 45 -158 45q-90 0 -140.5 -62.5t-50.5 -172.5q0 -112 53 -174.5t147 -62.5q43 0 78.5 11.5t86.5 41.5l45 -124q-41 -20 -74 -31t-67 -15.5t-79 -4.5q-172 0 -261.5 93t-89.5 259z" />
    <glyph glyph-name="D" unicode="D" horiz-adv-x="712" 
d="M82 692h192q76 0 130 -8t94 -26t72 -48q96 -88 96 -264q0 -211 -132 -294q-31 -19 -67.5 -30.5t-85.5 -16.5t-118 -5h-181v692zM505 348q0 56 -17 104t-47 74q-19 17 -40.5 26.5t-52.5 13.5t-80 4h-30v-448h30q107 0 158 35q38 25 58.5 75t20.5 116z" />
    <glyph glyph-name="E" unicode="E" horiz-adv-x="586" 
d="M82 692h438v-122h-282v-158h268v-122h-268v-168h297v-122h-453v692z" />
    <glyph glyph-name="F" unicode="F" horiz-adv-x="568" 
d="M82 692h440v-122h-284v-158h270v-122h-270v-290h-156v692z" />
    <glyph glyph-name="G" unicode="G" horiz-adv-x="734" 
d="M46 338q0 172 94.5 269t269.5 97q68 0 126 -11.5t116 -35.5l-53 -122q-52 26 -92 36.5t-87 10.5q-103 0 -158 -61.5t-55 -176.5q0 -107 55 -170.5t149 -63.5q48 0 90 16v139h-119v122h270v-353q-54 -18 -93 -28t-74.5 -14t-79.5 -4q-174 0 -266.5 92t-92.5 258z" />
    <glyph glyph-name="H" unicode="H" horiz-adv-x="729" 
d="M82 692h156v-278h253v278h156v-692h-156v292h-253v-292h-156v692z" />
    <glyph glyph-name="I" unicode="I" horiz-adv-x="320" 
d="M82 692h156v-692h-156v692z" />
    <glyph glyph-name="J" unicode="J" horiz-adv-x="431" 
d="M199 250v442h156v-408q0 -73 -3 -115t-12 -67t-27 -47q-52 -67 -173 -67q-74 0 -130 21l13 128q28 -13 48 -18t40 -5q57 0 72.5 34t15.5 102z" />
    <glyph glyph-name="K" unicode="K" horiz-adv-x="682" 
d="M238 0h-156v692h156v-322l256 322h176l-261 -320l271 -372h-186l-256 362v-362z" />
    <glyph glyph-name="L" unicode="L" horiz-adv-x="531" 
d="M82 692h156v-570h297v-122h-453v692z" />
    <glyph glyph-name="M" unicode="M" horiz-adv-x="945" 
d="M82 692h231l120 -374q11 -34 19.5 -64t20.5 -76q12 45 20.5 75.5t19.5 64.5l121 374h229v-692h-150v557q-7 -29 -11.5 -45t-10 -33.5t-16.5 -50.5l-139 -428h-133l-135 417q-9 29 -20.5 66t-21.5 75v-558h-144v692z" />
    <glyph glyph-name="N" unicode="N" horiz-adv-x="752" 
d="M82 692h172l184 -311q19 -32 32.5 -57t26 -50t26.5 -56q-1 19 -2 35t-1 38v59v342h150v-692h-169l-173 290q-24 39 -39 66.5t-28.5 54.5t-31.5 65q1 -29 2 -49.5t1 -46v-70.5v-310h-150v692z" />
    <glyph glyph-name="O" unicode="O" horiz-adv-x="759" 
d="M46 350q0 105 39.5 185t114 124.5t179.5 44.5q106 0 180.5 -44.5t114 -124.5t39.5 -185q0 -107 -38 -188.5t-112.5 -127.5t-183.5 -46q-108 0 -182.5 46t-112.5 127.5t-38 188.5zM207 349q0 -111 46.5 -175t125.5 -64q80 0 126.5 64t46.5 175q0 107 -46.5 170t-126.5 63
q-79 0 -125.5 -63t-46.5 -170z" />
    <glyph glyph-name="P" unicode="P" horiz-adv-x="586" 
d="M82 692h195q61 0 100.5 -4t67 -13.5t50.5 -27.5q75 -56 75 -168q0 -109 -73 -168q-32 -25 -77 -36t-117 -11h-65v-264h-156v692zM414 474q0 61 -37 81t-98 20h-45v-194h45q65 0 100 17.5t35 75.5z" />
    <glyph glyph-name="Q" unicode="Q" horiz-adv-x="759" 
d="M46 350q0 105 39.5 185t114 124.5t179.5 44.5q106 0 180.5 -44.5t114 -124.5t39.5 -185q0 -115 -43.5 -200.5t-128.5 -127.5q18 -18 56 -44t84 -51l-78 -111q-49 24 -89.5 49t-78 55t-78.5 69q-101 4 -170.5 51t-105 127t-35.5 183zM207 349q0 -111 46.5 -175t125.5 -64
q80 0 126.5 64t46.5 175q0 107 -46.5 170t-126.5 63q-79 0 -125.5 -63t-46.5 -170z" />
    <glyph glyph-name="R" unicode="R" horiz-adv-x="636" 
d="M82 692h250q65 0 105.5 -9t68.5 -30q32 -24 50 -62t18 -85q0 -66 -33.5 -111.5t-94.5 -63.5q21 -9 35 -24.5t28 -42.5t34 -70l87 -194h-166l-56 132q-24 60 -43 91t-39.5 43t-51.5 13h-36v-279h-156v692zM418 488q0 37 -16.5 55.5t-45.5 25t-68 6.5h-54v-179h54
q130 0 130 92z" />
    <glyph glyph-name="S" unicode="S" horiz-adv-x="578" 
d="M371 192q0 20 -8.5 33.5t-35.5 28t-83 36.5q-65 27 -109 50.5t-66 57.5t-22 90q0 103 66.5 159.5t175.5 56.5q53 0 105 -9t116 -29l-32 -126q-46 17 -76.5 26t-53.5 12.5t-49 3.5q-43 0 -67 -19.5t-24 -53.5q0 -18 8 -30.5t33 -26t76 -34.5q56 -23 95.5 -42t64.5 -40.5
t37 -52.5t12 -78q0 -106 -65.5 -161.5t-190.5 -55.5q-66 0 -119.5 9t-112.5 30l22 133q66 -28 111.5 -39t90.5 -11q47 0 74 22t27 60z" />
    <glyph glyph-name="T" unicode="T" horiz-adv-x="570" 
d="M207 570h-200v122h556v-122h-200v-570h-156v570z" />
    <glyph glyph-name="U" unicode="U" horiz-adv-x="721" 
d="M76 309v383h156v-402q0 -104 22 -134q15 -21 43.5 -33.5t63.5 -12.5q40 0 71.5 15t44.5 40q17 32 17 125v402h151v-383q0 -72 -3 -114.5t-12 -69t-27 -49.5q-67 -88 -242 -88q-187 0 -250 99q-14 22 -21.5 47.5t-10.5 66.5t-3 108z" />
    <glyph glyph-name="V" unicode="V" horiz-adv-x="672" 
d="M339 188q15 46 24 74t18 52.5t22 60.5l119 317h154l-262 -692h-156l-262 692h162l115 -311q17 -47 33.5 -92.5t32.5 -100.5z" />
    <glyph glyph-name="W" unicode="W" horiz-adv-x="979" 
d="M706.5 270.5q3.5 17.5 7 33.5t8.5 37t13 53l71 298h147l-175 -692h-151l-86 301q-9 31 -16 55.5t-14.5 54.5t-19.5 75q-10 -37 -17.5 -65t-15.5 -55t-19 -61l-93 -305h-152l-168 692h153l71 -308q9 -39 14 -62.5t9.5 -45.5t11.5 -57q8 31 14 54.5t12.5 46.5t15.5 54
l93 318h150l84 -298q11 -38 17.5 -61t12 -45.5t14.5 -60.5q5 26 8.5 43.5z" />
    <glyph glyph-name="X" unicode="X" horiz-adv-x="734" 
d="M200 0h-184l256 355l-243 337h181l161 -226l163 226h178l-251 -341l254 -351h-188l-164 231z" />
    <glyph glyph-name="Y" unicode="Y" horiz-adv-x="661" 
d="M254 284l-264 408h181l114 -183q15 -25 25 -42.5t26 -47.5q16 32 26.5 50t25.5 41l113 182h170l-261 -408v-284h-156v284z" />
    <glyph glyph-name="Z" unicode="Z" horiz-adv-x="596" 
d="M26 110l338 460h-326v122h520v-110l-338 -460h350v-122h-544v110z" />
    <glyph glyph-name="bracketleft" unicode="[" horiz-adv-x="448" 
d="M118 747h248v-117h-106v-653h106v-118h-248v888z" />
    <glyph glyph-name="backslash" unicode="\" horiz-adv-x="486" 
d="M0 701h145l341 -728h-145z" />
    <glyph glyph-name="bracketright" unicode="]" horiz-adv-x="448" 
d="M82 -24h106v653h-106v118h248v-888h-248v117z" />
    <glyph glyph-name="asciicircum" unicode="^" horiz-adv-x="632" 
d="M191 352h-167l236 340h112l236 -340h-167l-126 184z" />
    <glyph glyph-name="underscore" unicode="_" horiz-adv-x="500" 
d="M-50 -105h600v-110h-600v110z" />
    <glyph glyph-name="grave" unicode="`" horiz-adv-x="500" 
d="M359 585h-139l-161 146h180z" />
    <glyph glyph-name="a" unicode="a" horiz-adv-x="589" 
d="M32 146q0 94 72 139q26 16 65 23.5t97 7.5q21 0 42 -1t49 -3v6q0 47 -29.5 73.5t-82.5 26.5q-33 0 -66 -9.5t-77 -31.5l-29 106q46 21 94.5 31t100.5 10q129 0 191 -65q20 -20 30.5 -42.5t14.5 -55.5t4 -86v-142q0 -49 2 -82.5t4 -50.5h-145l-5 57q-38 -39 -74.5 -54
t-88.5 -15q-79 0 -124 42t-45 116zM188 150q0 -31 18.5 -49.5t48.5 -18.5q57 0 102 66v80l-28.5 1.5t-20.5 0.5q-120 0 -120 -80z" />
    <glyph glyph-name="b" unicode="b" horiz-adv-x="626" 
d="M75 176v555h151v-279q60 72 149 72q98 0 154 -72t56 -199q0 -74 -22.5 -134.5t-68.5 -95.5t-116 -35q-52 0 -90 19.5t-67 62.5l-5 -70h-146q2 22 3 42.5t1.5 51t0.5 82.5zM402 370.5q-27 41.5 -72 41.5q-55 0 -104 -77v-153q22 -39 50.5 -60.5t59.5 -21.5q41 0 67 44
t26 115q0 70 -27 111.5z" />
    <glyph glyph-name="c" unicode="c" horiz-adv-x="499" 
d="M41 257q0 122 64.5 194.5t187.5 72.5q47 0 90 -8.5t87 -28.5l-40 -108q-31 19 -58 27t-56 8q-58 0 -88.5 -41.5t-30.5 -119.5q0 -74 33.5 -113.5t97.5 -39.5q30 0 55.5 8.5t53.5 27.5l46 -107q-74 -41 -176 -41q-125 0 -195.5 71t-70.5 198z" />
    <glyph glyph-name="d" unicode="d" horiz-adv-x="626" 
d="M41 253q0 126 56.5 198.5t153.5 72.5q45 0 82 -17t67 -55v279h151v-555q0 -52 0.5 -82.5t1.5 -51t3 -42.5h-146l-5 71q-29 -44 -66.5 -63.5t-90.5 -19.5q-70 0 -116 36t-68.5 96.5t-22.5 132.5zM197 253q0 -70 27 -111.5t72 -41.5q55 0 104 77v153q-22 39 -50.5 60.5
t-59.5 21.5q-41 0 -67 -44t-26 -115z" />
    <glyph glyph-name="e" unicode="e" horiz-adv-x="600" 
d="M41 254q0 124 69.5 197t194.5 73q101 0 156.5 -35.5t77.5 -106t22 -176.5h-362q8 -55 39 -82.5t95 -27.5q80 0 163 50l51 -107q-50 -26 -102 -38.5t-114 -12.5q-142 0 -216 67.5t-74 198.5zM380.5 388.5q-26.5 29.5 -73.5 29.5q-50 0 -76.5 -30t-33.5 -83h212
q-2 54 -28.5 83.5z" />
    <glyph glyph-name="f" unicode="f" horiz-adv-x="397" 
d="M105 402h-81v110h81v23q0 109 43 159t136 50q51 0 111 -17l-12 -114q-21 8 -33.5 10.5t-26.5 2.5q-35 0 -51 -25t-16 -81v-8h114v-110h-114v-402h-151v402z" />
    <glyph glyph-name="g" unicode="g" horiz-adv-x="633" 
d="M401 52v32q-31 -37 -66 -53.5t-82 -16.5q-98 0 -155 68t-57 186q0 78 26 135.5t73.5 89t111.5 31.5q102 0 158 -77l4 65h144q-2 -46 -3 -79.5t-1.5 -61.5t-1.5 -60v-249q0 -61 -4 -99t-14 -62.5t-29 -47.5q-65 -80 -236 -80q-111 0 -203 38l40 109q38 -19 73.5 -28
t74.5 -9q60 0 91.5 18t43.5 55.5t12 95.5zM401 322q-14 41 -44 65.5t-66 24.5q-43 0 -68.5 -39t-25.5 -107q0 -65 25.5 -102.5t70.5 -37.5q32 0 60.5 22.5t47.5 62.5v111z" />
    <glyph glyph-name="h" unicode="h" horiz-adv-x="640" 
d="M79 731h152v-279q37 38 76.5 55t89.5 17q65 0 101.5 -24t51.5 -70.5t15 -112.5v-317h-151v305q0 49 -13 78t-57 29q-60 0 -113 -80v-332h-152v731z" />
    <glyph glyph-name="i" unicode="i" horiz-adv-x="305" 
d="M65 667q0 38 25 62.5t63 24.5t62.5 -25t24.5 -63t-24.5 -63t-62.5 -25q-39 0 -63.5 25t-24.5 64zM77 512h151v-512h-151v512z" />
    <glyph glyph-name="j" unicode="j" horiz-adv-x="322" 
d="M93 14v498h151v-509q0 -68 -7.5 -106t-27.5 -65q-44 -59 -143 -59q-49 0 -106 15l12 112q36 -11 56 -11q36 0 50.5 27.5t14.5 97.5zM81 667q0 38 25 62.5t63 24.5t62.5 -25t24.5 -63t-24.5 -63t-62.5 -25q-39 0 -63.5 25t-24.5 64z" />
    <glyph glyph-name="k" unicode="k" horiz-adv-x="583" 
d="M230 0h-151v731h151v-433l159 214h169l-176 -222l200 -290h-179l-173 260v-260z" />
    <glyph glyph-name="l" unicode="l" horiz-adv-x="309" 
d="M79 731h151v-731h-151v731z" />
    <glyph glyph-name="m" unicode="m" horiz-adv-x="932" 
d="M80 322v47t-1 37.5t-1.5 42.5t-2.5 63h139l5 -72q38 45 77 64.5t90 19.5q106 0 143 -87q43 49 79.5 68t88.5 19q63 0 97.5 -25t48.5 -71t14 -111v-317h-151v305q0 47 -10.5 77t-51.5 30q-53 0 -100 -80v-332h-151v320q0 92 -59 92q-55 0 -103 -80v-332h-151v322z" />
    <glyph glyph-name="n" unicode="n" horiz-adv-x="640" 
d="M80 322q0 31 -0.5 56.5t-1.5 56.5t-3 77h139l5 -71q46 47 84.5 65t93.5 18q65 0 101.5 -24.5t51.5 -70.5t15 -112v-317h-151v305q0 49 -13 78t-57 29q-60 0 -113 -80v-332h-151v322z" />
    <glyph glyph-name="o" unicode="o" horiz-adv-x="609" 
d="M41 259q0 125 68.5 195t194.5 70t195 -70t69 -195t-66.5 -198t-197.5 -73q-130 0 -196.5 73t-66.5 198zM197 258q0 -78 27.5 -119t79.5 -41t80 41t28 119q0 75 -28.5 115.5t-79.5 40.5t-79 -40.5t-28 -115.5z" />
    <glyph glyph-name="p" unicode="p" horiz-adv-x="626" 
d="M75 308q0 62 -0.5 98t-1.5 59.5t-3 46.5h146l5 -65q37 42 71.5 59.5t82.5 17.5q98 0 154 -72.5t56 -198.5q0 -74 -22.5 -134.5t-68.5 -95.5t-116 -35q-99 0 -152 74v-277h-151v523zM429 259q0 70 -27 111.5t-72 41.5q-55 0 -104 -77v-153q22 -39 50.5 -60.5t59.5 -21.5
q41 0 67 44t26 115z" />
    <glyph glyph-name="q" unicode="q" horiz-adv-x="626" 
d="M400 62q-54 -74 -152 -74q-70 0 -116 36t-68.5 96.5t-22.5 132.5q0 126 56.5 198.5t153.5 72.5q48 0 82.5 -17.5t71.5 -59.5l5 65h146q-2 -23 -3 -46.5t-1.5 -59.5t-0.5 -98v-523h-151v277zM400 335q-49 77 -104 77q-45 0 -72 -41t-27 -112t26 -115t67 -44q64 0 110 82
v153z" />
    <glyph glyph-name="r" unicode="r" horiz-adv-x="418" 
d="M80 340q0 12 -0.5 35t-1.5 49.5t-1.5 50.5t-1.5 37h143l5 -98q38 105 129 105q15 0 25.5 -1.5t25.5 -6.5l-7 -130q-16 4 -27 5t-23 1q-44 0 -74 -28.5t-42 -81.5v-277h-150v340z" />
    <glyph glyph-name="s" unicode="s" horiz-adv-x="484" 
d="M297 147q0 28 -26.5 39t-76.5 27q-49 17 -82 34t-50 43.5t-17 70.5q0 77 54.5 120t151.5 43q46 0 87.5 -8t96.5 -28l-37 -112q-37 20 -74 30.5t-68 10.5t-48.5 -12.5t-17.5 -33.5q0 -16 13 -25.5t51 -23.5q60 -19 102 -38.5t64.5 -48t22.5 -74.5q0 -56 -28 -95
t-76.5 -58.5t-111.5 -19.5q-107 0 -186 44l38 112q38 -25 72 -36.5t74 -11.5q72 0 72 51z" />
    <glyph glyph-name="t" unicode="t" horiz-adv-x="397" 
d="M106 196v206h-82v110h82v110l151 28v-138h113v-110h-113v-206q0 -49 15.5 -69t51.5 -20q12 0 23.5 2.5t30.5 7.5l13 -111q-63 -18 -124 -18q-66 0 -100.5 23.5t-47.5 70t-13 114.5z" />
    <glyph glyph-name="u" unicode="u" horiz-adv-x="635" 
d="M75 195v317h151v-305q0 -49 12.5 -78t55.5 -29q58 0 110 80v332h151v-322q0 -35 0.5 -60t1.5 -53.5t3 -76.5h-139l-5 71q-45 -46 -83.5 -64.5t-91.5 -18.5q-64 0 -100.5 24.5t-51 71t-14.5 111.5z" />
    <glyph glyph-name="v" unicode="v" horiz-adv-x="579" 
d="M296 153q6 19 17.5 54.5t25.5 72.5l87 232h145l-200 -512h-161l-202 512h156l89 -236q13 -35 25 -69.5t18 -53.5z" />
    <glyph glyph-name="w" unicode="w" horiz-adv-x="863" 
d="M259 167q12 49 20.5 83.5t20.5 74.5l57 187h149l60 -189q8 -27 14.5 -47.5t13.5 -44.5t16 -63q9 39 14.5 63t11 44t13.5 46l56 191h138l-157 -512h-148l-59 185q-12 38 -19.5 61.5t-14 48.5t-17.5 66q-7 -31 -14 -57t-14.5 -53.5t-19.5 -64.5l-57 -186h-150l-153 512h148
l54 -191q7 -26 13 -47.5t11.5 -46.5t12.5 -60z" />
    <glyph glyph-name="x" unicode="x" horiz-adv-x="599" 
d="M303 358l116 154h169l-200 -248l203 -264h-172l-116 164l-124 -164h-168l207 260l-194 252h173z" />
    <glyph glyph-name="y" unicode="y" horiz-adv-x="577" 
d="M30 -90q40 -17 69 -17q24 0 42.5 11t35.5 38t37 77l-210 493h160l91 -224q10 -24 16 -40t12.5 -33t15.5 -44q8 24 13 38.5t9 25.5t9 24.5t13 35.5l82 217h149l-206 -499q-25 -61 -46.5 -106t-47 -75t-59.5 -44.5t-85 -14.5q-34 0 -65 6t-61 17z" />
    <glyph glyph-name="z" unicode="z" horiz-adv-x="480" 
d="M26 95l230 307h-217v110h405v-99l-227 -303h235v-110h-426v95z" />
    <glyph glyph-name="braceleft" unicode="{" horiz-adv-x="448" 
d="M145 43v119q0 39 -5.5 58.5t-24 27t-56.5 8.5v94q38 2 56.5 9t24 26.5t5.5 58.5v119q0 74 14.5 114t53 55t109.5 15h75v-105h-53q-32 0 -43.5 -16t-11.5 -63v-140q0 -43 -8 -66.5t-31.5 -35t-69.5 -18.5q46 -7 69.5 -18.5t31.5 -35t8 -66.5v-140q0 -46 11.5 -62.5
t43.5 -16.5h53v-105h-75q-71 0 -109.5 15t-53 55t-14.5 114z" />
    <glyph glyph-name="bar" unicode="|" horiz-adv-x="316" 
d="M86 692h144v-907h-144v907z" />
    <glyph glyph-name="braceright" unicode="}" horiz-adv-x="448" 
d="M51 -36h53q32 0 43.5 16.5t11.5 62.5v140q0 43 8 66.5t31.5 35t69.5 18.5q-46 7 -69.5 18.5t-31.5 35t-8 66.5v140q0 47 -11.5 63t-43.5 16h-53v105h75q71 0 109.5 -15t53 -55t14.5 -114v-119q0 -39 5.5 -58.5t24 -26.5t56.5 -9v-94q-38 -1 -56.5 -8.5t-24 -27
t-5.5 -58.5v-119q0 -74 -14.5 -114t-53 -55t-109.5 -15h-75v105z" />
    <glyph glyph-name="asciitilde" unicode="~" horiz-adv-x="632" 
d="M526.5 198q-37.5 -41 -90.5 -41q-21 0 -41.5 4.5t-49.5 17.5t-77 36q-25 14 -38 18t-27 4q-22 0 -39 -15.5t-42 -57.5l-83 46q42 76 80.5 110.5t81.5 34.5q19 0 34 -3t39 -13.5t70 -33.5q38 -18 55.5 -24t32.5 -6q23 0 41 15.5t40 55.5l79 -43q-28 -64 -65.5 -105z" />
    <glyph glyph-name="uni00A0" unicode="&#xa0;" horiz-adv-x="250" 
 />
    <glyph glyph-name="exclamdown" unicode="&#xa1;" horiz-adv-x="363" 
d="M115 283h133l9 -463h-151zM89 431q0 41 26 67t66 26q41 0 67 -26.5t26 -67.5q0 -39 -26.5 -65t-66.5 -26t-66 26t-26 66z" />
    <glyph glyph-name="cent" unicode="&#xa2;" horiz-adv-x="632" 
d="M314 163q-248 17 -248 260q0 131 64 196t184 72v93h70v-93q43 -1 74.5 -7t66.5 -19l-29 -114q-28 12 -53 19.5t-59 9.5v-303q30 2 60 9.5t59 23.5l22 -115q-61 -27 -141 -32v-88h-70v88zM314 577q-48 -11 -70 -48t-22 -103q0 -128 92 -146v297z" />
    <glyph glyph-name="sterling" unicode="&#xa3;" horiz-adv-x="632" 
d="M44 119h86q9 18 12.5 50.5t3.5 90.5v46h-92v107h92v32q0 54 4 88t14.5 57t28.5 43q63 68 195 68q35 0 64.5 -4t62.5 -13t75 -25l-39 -120q-50 22 -83 30.5t-64 8.5q-56 0 -80.5 -32.5t-24.5 -108.5v-24h159v-107h-159v-46q0 -99 -13 -141h294v-119h-536v119z" />
    <glyph glyph-name="currency" unicode="&#xa4;" horiz-adv-x="632" 
d="M40 352q0 84 38 149l-68 69l76 76l65 -65q33 22 74.5 34.5t90.5 12.5t90.5 -12.5t74.5 -34.5l65 65l76 -76l-68 -69q38 -67 38 -155q0 -84 -38 -149l68 -69l-76 -76l-65 65q-33 -22 -74.5 -34.5t-90.5 -12.5t-90.5 12.5t-74.5 34.5l-65 -65l-76 76l68 69q-38 67 -38 155z
M161 351q0 -72 41 -119.5t114 -47.5q49 0 83.5 22t53 59t18.5 82q0 72 -40.5 119.5t-114.5 47.5q-49 0 -83.5 -22t-53 -58.5t-18.5 -82.5z" />
    <glyph glyph-name="yen" unicode="&#xa5;" horiz-adv-x="632" 
d="M240 166h-185v84h185v40h-187v84h139l-192 318h177l142 -256l141 256h172l-192 -318h137v-84h-185v-40h183v-84h-183v-166h-152v166z" />
    <glyph glyph-name="brokenbar" unicode="&#xa6;" horiz-adv-x="316" 
d="M86 153h144v-368h-144v368zM86 692h144v-362h-144v362z" />
    <glyph glyph-name="section" unicode="&#xa7;" horiz-adv-x="632" 
d="M368 25q0 29 -30.5 43t-90.5 36q-49 19 -83.5 38.5t-53 48t-18.5 71.5q0 44 19.5 76.5t63.5 63.5q-38 30 -53.5 58t-15.5 70q0 82 56 128t156 46q106 0 202 -45l-38 -118q-88 41 -152 41q-63 0 -63 -46q0 -30 31.5 -44t88.5 -36q50 -19 84.5 -38.5t53 -47t18.5 -71.5
q0 -45 -19.5 -77.5t-64.5 -63.5q40 -30 55 -58t15 -70q0 -89 -61.5 -131.5t-161.5 -42.5q-58 0 -114.5 11.5t-107.5 33.5l38 118q97 -41 171 -41q75 0 75 47zM390.5 300q-15.5 13 -46 26.5t-77.5 33.5q-38 -35 -38 -67q0 -30 35.5 -49t103.5 -44q38 34 38 67q0 20 -15.5 33z
" />
    <glyph glyph-name="dieresis" unicode="&#xa8;" horiz-adv-x="500" 
d="M57 669q0 35 23.5 58t58.5 23q36 0 59 -23t23 -59t-23 -59t-59 -23t-59 23t-23 60zM302.5 727q23.5 23 58.5 23q36 0 59 -23t23 -59t-23 -59t-59 -23t-59 23t-23 60q0 35 23.5 58z" />
    <glyph glyph-name="copyright" unicode="&#xa9;" horiz-adv-x="800" 
d="M44 351q0 75 27 139t75 111.5t113 74t141 26.5q77 0 142 -26.5t113 -74.5t74.5 -113t26.5 -142t-26.5 -142t-74 -113t-112.5 -74.5t-142 -26.5q-104 0 -185 46t-126.5 127.5t-45.5 187.5zM96 350q0 -92 39 -163.5t108 -112t158 -40.5q88 0 156 40.5t107.5 111t39.5 160.5
q0 91 -39.5 161t-108 110.5t-156.5 40.5q-87 0 -155.5 -40t-108.5 -109.5t-40 -158.5zM222 342q0 89 52 139.5t143 50.5q68 0 127 -22l-21 -77q-39 16 -83 16q-49 0 -76.5 -28t-27.5 -78t29 -78t81 -28q21 0 41 5t46 17l20 -80q-59 -27 -130 -27q-94 0 -147.5 50.5
t-53.5 139.5z" />
    <glyph glyph-name="ordfeminine" unicode="&#xaa;" horiz-adv-x="353" 
d="M30 487q0 40 21 61.5t56.5 29.5t76.5 8h15t18 -1v5q0 43 -61 43q-20 0 -44 -4t-49 -12l-6 63q40 11 65 14.5t56 3.5q84 0 114 -37q9 -10 13 -20.5t5 -27.5t1 -49v-73v-24t1 -23.5t3 -38.5h-84l-4 30q-25 -20 -46 -28t-51 -8q-47 0 -73.5 23.5t-26.5 64.5zM127 492
q0 -28 35 -28q33 0 55 22v49q-8 1 -12.5 1h-8.5q-69 0 -69 -44z" />
    <glyph glyph-name="guillemotleft" unicode="&#xab;" horiz-adv-x="619" 
d="M193 259l132 -166l-98 -76l-198 242l198 241l98 -75zM446 259l132 -166l-98 -76l-198 242l198 241l98 -75z" />
    <glyph glyph-name="logicalnot" unicode="&#xac;" horiz-adv-x="632" 
d="M419 266h-369v116h497v-325h-128v209z" />
    <glyph glyph-name="uni00AD" unicode="&#xad;" horiz-adv-x="397" 
d="M46 341h305v-116h-305v116z" />
    <glyph glyph-name="registered" unicode="&#xae;" horiz-adv-x="600" 
d="M41 499q0 73 34 130.5t92.5 91t132.5 33.5q75 0 133.5 -33.5t92 -92t33.5 -133.5q0 -74 -33.5 -133t-91.5 -92.5t-133 -33.5q-76 0 -134.5 33.5t-92 93t-33.5 136.5zM89 498q0 -65 27 -115t74.5 -78.5t110.5 -28.5q61 0 108 28.5t74.5 78t27.5 112.5q0 64 -27.5 113
t-75 77.5t-108.5 28.5q-60 0 -108 -28t-75.5 -77t-27.5 -111zM272 359h-71v269h80q42 0 64 -2.5t36 -9.5q17 -8 27 -25.5t10 -39.5q0 -29 -14.5 -46.5t-47.5 -26.5q20 -6 28 -15t18 -34l27 -70h-74l-15 43q-10 31 -22 41t-35 10h-11v-94zM331.5 569.5q-11.5 7.5 -40.5 7.5
h-19v-77h11q35 0 47.5 8.5t12.5 33.5q0 20 -11.5 27.5z" />
    <glyph glyph-name="macron" unicode="&#xaf;" horiz-adv-x="500" 
d="M68 702h364v-88h-364v88z" />
    <glyph glyph-name="degree" unicode="&#xb0;" horiz-adv-x="426" 
d="M46 541q0 71 46 116t119 45q77 0 123 -44.5t46 -118.5q0 -73 -46.5 -118t-120.5 -45q-76 0 -121.5 45t-45.5 120zM121 540q0 -45 24.5 -70.5t67.5 -25.5t67.5 25.5t24.5 69.5t-24.5 69.5t-67.5 25.5q-42 0 -67 -25t-25 -69z" />
    <glyph glyph-name="plusminus" unicode="&#xb1;" horiz-adv-x="632" 
d="M60 399h192v125h128v-125h192v-114h-192v-125h-128v125h-192v114zM60 114h512v-114h-512v114z" />
    <glyph glyph-name="uni00B2" unicode="&#xb2;" horiz-adv-x="376" 
d="M35 487q88 54 142 108q42 42 42 71q0 20 -15.5 31t-43.5 11q-21 0 -44.5 -6.5t-67.5 -23.5l-18 83q35 14 72 22t73 8q74 0 113.5 -29.5t39.5 -85.5q0 -54 -49 -106q-35 -37 -99 -83h151v-82h-296v82z" />
    <glyph glyph-name="uni00B3" unicode="&#xb3;" horiz-adv-x="381" 
d="M228 521q0 23 -19 33t-62 10h-18t-20 -1v69q11 -1 18 -1h20q79 0 79 41q0 38 -69 38q-42 0 -96 -17l-14 80q38 10 69 14t65 4q156 0 156 -105q0 -34 -17 -54t-56 -31q44 -11 61.5 -31t17.5 -57q0 -114 -166 -114q-78 0 -147 22l17 83q38 -14 61 -19t57 -5q63 0 63 41z
" />
    <glyph glyph-name="acute" unicode="&#xb4;" horiz-adv-x="500" 
d="M273 731h180l-161 -146h-139z" />
    <glyph glyph-name="mu" unicode="&#xb5;" horiz-adv-x="632" 
d="M45 512h151v-305q0 -107 70 -107q63 0 108 79v333h151v-351q0 -54 41 -54q18 0 33 7l12 -109q-23 -7 -50.5 -12t-53.5 -5q-50 0 -80 18.5t-43 58.5q-32 -41 -61 -59t-61 -18q-45 0 -68 30q2 -37 2 -83v-150h-151v727z" />
    <glyph glyph-name="paragraph" unicode="&#xb6;" horiz-adv-x="726" 
d="M230 281q-100 8 -151.5 60t-51.5 143q0 62 25.5 108t72.5 71q21 11 44.5 17.5t56 9t80.5 2.5h314v-810h-141v688h-108v-688h-141v399z" />
    <glyph glyph-name="periodcentered" unicode="&#xb7;" horiz-adv-x="316" 
d="M65 290q0 39 26.5 65t66.5 26t66 -26t26 -67q0 -40 -26 -66t-66 -26q-41 0 -67 26.5t-26 67.5z" />
    <glyph glyph-name="cedilla" unicode="&#xb8;" horiz-adv-x="500" 
d="M287 -118q0 26 -39 26q-13 0 -24 -2t-26 -7l22 108h68l-8 -41q5 1 8 1h5q51 0 81.5 -22t30.5 -60q0 -59 -41.5 -82.5t-106.5 -23.5q-34 0 -79 6l5 67q20 -4 38 -4q31 0 48.5 7.5t17.5 26.5z" />
    <glyph glyph-name="uni00B9" unicode="&#xb9;" horiz-adv-x="321" 
d="M131 686l-83 -48l-38 73l135 74h91v-380h-105v281z" />
    <glyph glyph-name="ordmasculine" unicode="&#xba;" horiz-adv-x="360" 
d="M28 550q0 69 40.5 108.5t111.5 39.5q72 0 112 -39t40 -110t-40 -110.5t-112 -39.5t-112 39.5t-40 111.5zM125 547q0 -75 55 -75t55 78q0 75 -55 75t-55 -78z" />
    <glyph glyph-name="guillemotright" unicode="&#xbb;" horiz-adv-x="619" 
d="M173 258l-132 166l98 76l198 -242l-198 -241l-98 74zM426 258l-132 166l98 76l198 -242l-198 -241l-98 74z" />
    <glyph glyph-name="onequarter" unicode="&#xbc;" horiz-adv-x="854" 
d="M487 708h96l-275 -724h-96zM671 78h-199v76l158 226h141v-229h53v-73h-53v-78h-100v78zM676 321l-117 -170h117v170zM131 593l-83 -48l-38 73l135 74h91v-380h-105v281z" />
    <glyph glyph-name="onehalf" unicode="&#xbd;" horiz-adv-x="856" 
d="M487 708h96l-275 -724h-96zM515 82q88 54 142 108q42 42 42 71q0 20 -15.5 31t-43.5 11q-21 0 -44.5 -6.5t-67.5 -23.5l-18 83q35 14 72 22t73 8q74 0 113.5 -29.5t39.5 -85.5q0 -54 -49 -106q-35 -37 -99 -83h151v-82h-296v82zM131 593l-83 -48l-38 73l135 74h91v-380
h-105v281z" />
    <glyph glyph-name="threequarters" unicode="&#xbe;" horiz-adv-x="910" 
d="M228 428q0 23 -19 33t-62 10h-18t-20 -1v69q11 -1 18 -1h20q79 0 79 41q0 38 -69 38q-42 0 -96 -17l-14 80q38 10 69 14t65 4q156 0 156 -105q0 -34 -17 -54t-56 -31q44 -11 61.5 -31t17.5 -57q0 -114 -166 -114q-78 0 -147 22l17 83q38 -14 61 -19t57 -5q63 0 63 41z
M543 708h96l-275 -724h-96zM727 78h-199v76l158 226h141v-229h53v-73h-53v-78h-100v78zM732 321l-117 -170h117v170z" />
    <glyph glyph-name="questiondown" unicode="&#xbf;" horiz-adv-x="487" 
d="M9 -16q0 51 25 87.5t89 78.5q33 23 48 37t19 30t4 45v20h144v-43q0 -42 -5 -65.5t-22 -40.5t-55 -43q-36 -25 -54.5 -41t-25 -28.5t-6.5 -29.5q0 -31 22.5 -49.5t60.5 -18.5q60 0 151 50l43 -109q-58 -29 -109 -42.5t-108 -13.5q-104 0 -162.5 47t-58.5 129zM199 498
q26 26 66 26q41 0 67 -26.5t26 -67.5q0 -39 -26.5 -65t-66.5 -26t-66 26t-26 66q0 41 26 67z" />
    <glyph glyph-name="Agrave" unicode="&#xc0;" horiz-adv-x="712" 
d="M482 165h-262l-59 -165h-155l264 692h163l273 -692h-165zM350 539q-6 -21 -9.5 -34t-9 -28.5t-16.5 -44.5l-53 -150h178l-54 150q-7 21 -12 35t-10.5 29.5t-13.5 42.5zM464 755h-139l-161 146h180z" />
    <glyph glyph-name="Aacute" unicode="&#xc1;" horiz-adv-x="712" 
d="M482 165h-262l-59 -165h-155l264 692h163l273 -692h-165zM350 539q-6 -21 -9.5 -34t-9 -28.5t-16.5 -44.5l-53 -150h178l-54 150q-7 21 -12 35t-10.5 29.5t-13.5 42.5zM379 901h180l-161 -146h-139z" />
    <glyph glyph-name="Acircumflex" unicode="&#xc2;" horiz-adv-x="712" 
d="M482 165h-262l-59 -165h-155l264 692h163l273 -692h-165zM350 539q-6 -21 -9.5 -34t-9 -28.5t-16.5 -44.5l-53 -150h178l-54 150q-7 21 -12 35t-10.5 29.5t-13.5 42.5zM356 841l-68 -86h-140l119 146h178l119 -146h-140z" />
    <glyph glyph-name="Atilde" unicode="&#xc3;" horiz-adv-x="712" 
d="M482 165h-262l-59 -165h-155l264 692h163l273 -692h-165zM350 539q-6 -21 -9.5 -34t-9 -28.5t-16.5 -44.5l-53 -150h178l-54 150q-7 21 -12 35t-10.5 29.5t-13.5 42.5zM188.5 864.5q28.5 37.5 73.5 37.5q17 0 41 -5t59 -17q38 -13 50 -16t25 -3q18 0 26 9t11 31h82
q-4 -63 -32.5 -100.5t-73.5 -37.5q-31 0 -100 22q-37 12 -49.5 15.5t-25.5 3.5q-18 0 -26 -8.5t-11 -31.5h-82q4 63 32.5 100.5z" />
    <glyph glyph-name="Adieresis" unicode="&#xc4;" horiz-adv-x="712" 
d="M482 165h-262l-59 -165h-155l264 692h163l273 -692h-165zM350 539q-6 -21 -9.5 -34t-9 -28.5t-16.5 -44.5l-53 -150h178l-54 150q-7 21 -12 35t-10.5 29.5t-13.5 42.5zM159 835q0 37 24.5 61t61.5 24q38 0 62 -24t24 -62q0 -37 -24 -61.5t-62 -24.5t-62 24.5t-24 62.5z
M405.5 896q24.5 24 61.5 24q38 0 62 -24t24 -62q0 -37 -24 -61.5t-62 -24.5t-62 24.5t-24 62.5q0 37 24.5 61z" />
    <glyph glyph-name="Aring" unicode="&#xc5;" horiz-adv-x="712" 
d="M482 165h-262l-59 -165h-155l264 692h163l273 -692h-165zM350 539q-6 -21 -9.5 -34t-9 -28.5t-16.5 -44.5l-53 -150h178l-54 150q-7 21 -12 35t-10.5 29.5t-13.5 42.5zM241 830q0 47 33 79t82 32q50 0 82.5 -32t32.5 -81t-32.5 -81t-82.5 -32t-82.5 32t-32.5 83zM312 828
q0 -48 44 -48t44 48t-44 48q-20 0 -32 -12.5t-12 -35.5z" />
    <glyph glyph-name="AE" unicode="&#xc6;" horiz-adv-x="947" 
d="M881 570h-282v-158h268v-122h-268v-168h297v-122h-453v164h-227l-85 -164h-175l392 692h533v-122zM443 584h-8l-158 -303h166v303z" />
    <glyph glyph-name="Ccedilla" unicode="&#xc7;" horiz-adv-x="631" 
d="M46 340q0 114 41 195.5t118 125t184 43.5q59 0 108.5 -11t110.5 -38l-52 -118q-81 45 -158 45q-90 0 -140.5 -62.5t-50.5 -172.5q0 -112 53 -174.5t147 -62.5q43 0 78.5 11.5t86.5 41.5l45 -124q-41 -20 -74 -31t-67 -15.5t-79 -4.5q-172 0 -261.5 93t-89.5 259z
M409 -118q0 26 -39 26q-13 0 -24 -2t-26 -7l21 108h68l-7 -41q5 1 8 1h5q51 0 81.5 -22t30.5 -60q0 -59 -41.5 -82.5t-106.5 -23.5q-34 0 -79 6l5 67q20 -4 38 -4q31 0 48.5 7.5t17.5 26.5z" />
    <glyph glyph-name="Egrave" unicode="&#xc8;" horiz-adv-x="586" 
d="M82 692h438v-122h-282v-158h268v-122h-268v-168h297v-122h-453v692zM409 755h-139l-161 146h180z" />
    <glyph glyph-name="Eacute" unicode="&#xc9;" horiz-adv-x="586" 
d="M82 692h438v-122h-282v-158h268v-122h-268v-168h297v-122h-453v692zM324 901h180l-161 -146h-139z" />
    <glyph glyph-name="Ecircumflex" unicode="&#xca;" horiz-adv-x="586" 
d="M82 692h438v-122h-282v-158h268v-122h-268v-168h297v-122h-453v692zM301 841l-68 -86h-140l119 146h178l119 -146h-140z" />
    <glyph glyph-name="Edieresis" unicode="&#xcb;" horiz-adv-x="586" 
d="M82 692h438v-122h-282v-158h268v-122h-268v-168h297v-122h-453v692zM104 835q0 37 24.5 61t61.5 24q38 0 62 -24t24 -62q0 -37 -24 -61.5t-62 -24.5t-62 24.5t-24 62.5zM350.5 896q24.5 24 61.5 24q38 0 62 -24t24 -62q0 -37 -24 -61.5t-62 -24.5t-62 24.5t-24 62.5
q0 37 24.5 61z" />
    <glyph glyph-name="Igrave" unicode="&#xcc;" horiz-adv-x="320" 
d="M82 692h156v-692h-156v692zM268 755h-139l-161 146h180z" />
    <glyph glyph-name="Iacute" unicode="&#xcd;" horiz-adv-x="320" 
d="M82 692h156v-692h-156v692zM183 901h180l-161 -146h-139z" />
    <glyph glyph-name="Icircumflex" unicode="&#xce;" horiz-adv-x="320" 
d="M82 692h156v-692h-156v692zM160 841l-68 -86h-140l119 146h178l119 -146h-140z" />
    <glyph glyph-name="Idieresis" unicode="&#xcf;" horiz-adv-x="320" 
d="M82 692h156v-692h-156v692zM-37 835q0 37 24.5 61t61.5 24q38 0 62 -24t24 -62q0 -37 -24 -61.5t-62 -24.5t-62 24.5t-24 62.5zM209.5 896q24.5 24 61.5 24q38 0 62 -24t24 -62q0 -37 -24 -61.5t-62 -24.5t-62 24.5t-24 62.5q0 37 24.5 61z" />
    <glyph glyph-name="Eth" unicode="&#xd0;" horiz-adv-x="712" 
d="M82 309h-85v88h85v295h192q76 0 130 -8t94 -26t72 -48q96 -88 96 -264q0 -211 -132 -294q-31 -19 -67.5 -30.5t-85.5 -16.5t-118 -5h-181v309zM505 348q0 56 -17 104t-47 74q-19 17 -40.5 26.5t-52.5 13.5t-80 4h-30v-173h130v-88h-130v-187h30q107 0 158 35
q38 25 58.5 75t20.5 116z" />
    <glyph glyph-name="Ntilde" unicode="&#xd1;" horiz-adv-x="752" 
d="M82 692h172l184 -311q19 -32 32.5 -57t26 -50t26.5 -56q-1 19 -2 35t-1 38v59v342h150v-692h-169l-173 290q-24 39 -39 66.5t-28.5 54.5t-31.5 65q1 -29 2 -49.5t1 -46v-70.5v-310h-150v692zM208.5 864.5q28.5 37.5 73.5 37.5q17 0 41 -5t59 -17q38 -13 50 -16t25 -3
q18 0 26 9t11 31h82q-4 -63 -32.5 -100.5t-73.5 -37.5q-31 0 -100 22q-37 12 -49.5 15.5t-25.5 3.5q-18 0 -26 -8.5t-11 -31.5h-82q4 63 32.5 100.5z" />
    <glyph glyph-name="Ograve" unicode="&#xd2;" horiz-adv-x="759" 
d="M46 350q0 105 39.5 185t114 124.5t179.5 44.5q106 0 180.5 -44.5t114 -124.5t39.5 -185q0 -107 -38 -188.5t-112.5 -127.5t-183.5 -46q-108 0 -182.5 46t-112.5 127.5t-38 188.5zM207 349q0 -111 46.5 -175t125.5 -64q80 0 126.5 64t46.5 175q0 107 -46.5 170t-126.5 63
q-79 0 -125.5 -63t-46.5 -170zM488 755h-139l-161 146h180z" />
    <glyph glyph-name="Oacute" unicode="&#xd3;" horiz-adv-x="759" 
d="M46 350q0 105 39.5 185t114 124.5t179.5 44.5q106 0 180.5 -44.5t114 -124.5t39.5 -185q0 -107 -38 -188.5t-112.5 -127.5t-183.5 -46q-108 0 -182.5 46t-112.5 127.5t-38 188.5zM207 349q0 -111 46.5 -175t125.5 -64q80 0 126.5 64t46.5 175q0 107 -46.5 170t-126.5 63
q-79 0 -125.5 -63t-46.5 -170zM403 901h180l-161 -146h-139z" />
    <glyph glyph-name="Ocircumflex" unicode="&#xd4;" horiz-adv-x="759" 
d="M46 350q0 105 39.5 185t114 124.5t179.5 44.5q106 0 180.5 -44.5t114 -124.5t39.5 -185q0 -107 -38 -188.5t-112.5 -127.5t-183.5 -46q-108 0 -182.5 46t-112.5 127.5t-38 188.5zM207 349q0 -111 46.5 -175t125.5 -64q80 0 126.5 64t46.5 175q0 107 -46.5 170t-126.5 63
q-79 0 -125.5 -63t-46.5 -170zM380 841l-68 -86h-140l119 146h178l119 -146h-140z" />
    <glyph glyph-name="Otilde" unicode="&#xd5;" horiz-adv-x="759" 
d="M46 350q0 105 39.5 185t114 124.5t179.5 44.5q106 0 180.5 -44.5t114 -124.5t39.5 -185q0 -107 -38 -188.5t-112.5 -127.5t-183.5 -46q-108 0 -182.5 46t-112.5 127.5t-38 188.5zM207 349q0 -111 46.5 -175t125.5 -64q80 0 126.5 64t46.5 175q0 107 -46.5 170t-126.5 63
q-79 0 -125.5 -63t-46.5 -170zM212.5 864.5q28.5 37.5 73.5 37.5q17 0 41 -5t59 -17q38 -13 50 -16t25 -3q18 0 26 9t11 31h82q-4 -63 -32.5 -100.5t-73.5 -37.5q-31 0 -100 22q-37 12 -49.5 15.5t-25.5 3.5q-18 0 -26 -8.5t-11 -31.5h-82q4 63 32.5 100.5z" />
    <glyph glyph-name="Odieresis" unicode="&#xd6;" horiz-adv-x="759" 
d="M46 350q0 105 39.5 185t114 124.5t179.5 44.5q106 0 180.5 -44.5t114 -124.5t39.5 -185q0 -107 -38 -188.5t-112.5 -127.5t-183.5 -46q-108 0 -182.5 46t-112.5 127.5t-38 188.5zM207 349q0 -111 46.5 -175t125.5 -64q80 0 126.5 64t46.5 175q0 107 -46.5 170t-126.5 63
q-79 0 -125.5 -63t-46.5 -170zM183 835q0 37 24.5 61t61.5 24q38 0 62 -24t24 -62q0 -37 -24 -61.5t-62 -24.5t-62 24.5t-24 62.5zM429.5 896q24.5 24 61.5 24q38 0 62 -24t24 -62q0 -37 -24 -61.5t-62 -24.5t-62 24.5t-24 62.5q0 37 24.5 61z" />
    <glyph glyph-name="multiply" unicode="&#xd7;" horiz-adv-x="632" 
d="M320 342l147 147l82 -82l-147 -147l151 -151l-90 -91l-152 152l-147 -147l-82 82l147 147l-151 151l91 91z" />
    <glyph glyph-name="Oslash" unicode="&#xd8;" horiz-adv-x="759" 
d="M46 350q0 105 39.5 185t114 124.5t179.5 44.5q63 0 115 -16.5t93 -46.5l67 75l61 -55l-70 -79q68 -92 68 -232q0 -107 -38 -188.5t-112.5 -127.5t-183.5 -46q-64 0 -115.5 16.5t-91.5 46.5l-67 -75l-61 55l70 79q-68 94 -68 240zM207 349q0 -65 17 -116l268 301
q-45 48 -113 48q-79 0 -125.5 -63t-46.5 -170zM267 158q44 -48 112 -48q80 0 126.5 64t46.5 175q0 62 -16 110z" />
    <glyph glyph-name="Ugrave" unicode="&#xd9;" horiz-adv-x="721" 
d="M76 309v383h156v-402q0 -104 22 -134q15 -21 43.5 -33.5t63.5 -12.5q40 0 71.5 15t44.5 40q17 32 17 125v402h151v-383q0 -72 -3 -114.5t-12 -69t-27 -49.5q-67 -88 -242 -88q-187 0 -250 99q-14 22 -21.5 47.5t-10.5 66.5t-3 108zM469 755h-139l-161 146h180z" />
    <glyph glyph-name="Uacute" unicode="&#xda;" horiz-adv-x="721" 
d="M76 309v383h156v-402q0 -104 22 -134q15 -21 43.5 -33.5t63.5 -12.5q40 0 71.5 15t44.5 40q17 32 17 125v402h151v-383q0 -72 -3 -114.5t-12 -69t-27 -49.5q-67 -88 -242 -88q-187 0 -250 99q-14 22 -21.5 47.5t-10.5 66.5t-3 108zM384 901h180l-161 -146h-139z" />
    <glyph glyph-name="Ucircumflex" unicode="&#xdb;" horiz-adv-x="721" 
d="M76 309v383h156v-402q0 -104 22 -134q15 -21 43.5 -33.5t63.5 -12.5q40 0 71.5 15t44.5 40q17 32 17 125v402h151v-383q0 -72 -3 -114.5t-12 -69t-27 -49.5q-67 -88 -242 -88q-187 0 -250 99q-14 22 -21.5 47.5t-10.5 66.5t-3 108zM361 841l-68 -86h-140l119 146h178
l119 -146h-140z" />
    <glyph glyph-name="Udieresis" unicode="&#xdc;" horiz-adv-x="721" 
d="M76 309v383h156v-402q0 -104 22 -134q15 -21 43.5 -33.5t63.5 -12.5q40 0 71.5 15t44.5 40q17 32 17 125v402h151v-383q0 -72 -3 -114.5t-12 -69t-27 -49.5q-67 -88 -242 -88q-187 0 -250 99q-14 22 -21.5 47.5t-10.5 66.5t-3 108zM164 835q0 37 24.5 61t61.5 24
q38 0 62 -24t24 -62q0 -37 -24 -61.5t-62 -24.5t-62 24.5t-24 62.5zM410.5 896q24.5 24 61.5 24q38 0 62 -24t24 -62q0 -37 -24 -61.5t-62 -24.5t-62 24.5t-24 62.5q0 37 24.5 61z" />
    <glyph glyph-name="Yacute" unicode="&#xdd;" horiz-adv-x="661" 
d="M254 284l-264 408h181l114 -183q15 -25 25 -42.5t26 -47.5q16 32 26.5 50t25.5 41l113 182h170l-261 -408v-284h-156v284zM354 901h180l-161 -146h-139z" />
    <glyph glyph-name="Thorn" unicode="&#xde;" horiz-adv-x="586" 
d="M82 692h156v-134h39q61 0 100.5 -4t67 -13.5t50.5 -27.5q75 -56 75 -168q0 -109 -73 -168q-32 -25 -77 -36t-117 -11h-65v-130h-156v692zM414 340q0 61 -37 81t-98 20h-41v-194h41q65 0 100 17.5t35 75.5z" />
    <glyph glyph-name="germandbls" unicode="&#xdf;" horiz-adv-x="630" 
d="M433 213q0 54 -31 86.5t-83 32.5h-7.5t-10.5 -1v110q50 0 72 23.5t22 75.5q0 94 -81 94q-39 0 -57.5 -19t-24 -54t-5.5 -84v-477h-151v468q0 77 8 120.5t27 71.5q56 84 199 84q112 0 176.5 -50.5t64.5 -150.5q0 -51 -19.5 -86t-63.5 -60q63 -28 92 -73.5t29 -116.5
q0 -102 -60.5 -160.5t-165.5 -58.5q-19 0 -39 2t-49 6l14 114q21 -4 37 -4q50 0 78.5 28.5t28.5 78.5z" />
    <glyph glyph-name="agrave" unicode="&#xe0;" horiz-adv-x="589" 
d="M32 146q0 94 72 139q26 16 65 23.5t97 7.5q21 0 42 -1t49 -3v6q0 47 -29.5 73.5t-82.5 26.5q-33 0 -66 -9.5t-77 -31.5l-29 106q46 21 94.5 31t100.5 10q129 0 191 -65q20 -20 30.5 -42.5t14.5 -55.5t4 -86v-142q0 -49 2 -82.5t4 -50.5h-145l-5 57q-38 -39 -74.5 -54
t-88.5 -15q-79 0 -124 42t-45 116zM188 150q0 -31 18.5 -49.5t48.5 -18.5q57 0 102 66v80l-28.5 1.5t-20.5 0.5q-120 0 -120 -80zM381 585h-139l-161 146h180z" />
    <glyph glyph-name="aacute" unicode="&#xe1;" horiz-adv-x="589" 
d="M32 146q0 94 72 139q26 16 65 23.5t97 7.5q21 0 42 -1t49 -3v6q0 47 -29.5 73.5t-82.5 26.5q-33 0 -66 -9.5t-77 -31.5l-29 106q46 21 94.5 31t100.5 10q129 0 191 -65q20 -20 30.5 -42.5t14.5 -55.5t4 -86v-142q0 -49 2 -82.5t4 -50.5h-145l-5 57q-38 -39 -74.5 -54
t-88.5 -15q-79 0 -124 42t-45 116zM188 150q0 -31 18.5 -49.5t48.5 -18.5q57 0 102 66v80l-28.5 1.5t-20.5 0.5q-120 0 -120 -80zM295 731h180l-161 -146h-139z" />
    <glyph glyph-name="acircumflex" unicode="&#xe2;" horiz-adv-x="589" 
d="M32 146q0 94 72 139q26 16 65 23.5t97 7.5q21 0 42 -1t49 -3v6q0 47 -29.5 73.5t-82.5 26.5q-33 0 -66 -9.5t-77 -31.5l-29 106q46 21 94.5 31t100.5 10q129 0 191 -65q20 -20 30.5 -42.5t14.5 -55.5t4 -86v-142q0 -49 2 -82.5t4 -50.5h-145l-5 57q-38 -39 -74.5 -54
t-88.5 -15q-79 0 -124 42t-45 116zM188 150q0 -31 18.5 -49.5t48.5 -18.5q57 0 102 66v80l-28.5 1.5t-20.5 0.5q-120 0 -120 -80zM273 671l-68 -86h-140l119 146h178l119 -146h-140z" />
    <glyph glyph-name="atilde" unicode="&#xe3;" horiz-adv-x="589" 
d="M32 146q0 94 72 139q26 16 65 23.5t97 7.5q21 0 42 -1t49 -3v6q0 47 -29.5 73.5t-82.5 26.5q-33 0 -66 -9.5t-77 -31.5l-29 106q46 21 94.5 31t100.5 10q129 0 191 -65q20 -20 30.5 -42.5t14.5 -55.5t4 -86v-142q0 -49 2 -82.5t4 -50.5h-145l-5 57q-38 -39 -74.5 -54
t-88.5 -15q-79 0 -124 42t-45 116zM188 150q0 -31 18.5 -49.5t48.5 -18.5q57 0 102 66v80l-28.5 1.5t-20.5 0.5q-120 0 -120 -80zM105.5 687.5q28.5 37.5 73.5 37.5q17 0 41 -5t59 -17q38 -13 50 -16t25 -3q18 0 26 9t11 31h82q-4 -63 -32.5 -100.5t-73.5 -37.5
q-31 0 -100 22q-37 12 -49.5 15.5t-25.5 3.5q-18 0 -26 -8.5t-11 -31.5h-82q4 63 32.5 100.5z" />
    <glyph glyph-name="adieresis" unicode="&#xe4;" horiz-adv-x="589" 
d="M32 146q0 94 72 139q26 16 65 23.5t97 7.5q21 0 42 -1t49 -3v6q0 47 -29.5 73.5t-82.5 26.5q-33 0 -66 -9.5t-77 -31.5l-29 106q46 21 94.5 31t100.5 10q129 0 191 -65q20 -20 30.5 -42.5t14.5 -55.5t4 -86v-142q0 -49 2 -82.5t4 -50.5h-145l-5 57q-38 -39 -74.5 -54
t-88.5 -15q-79 0 -124 42t-45 116zM188 150q0 -31 18.5 -49.5t48.5 -18.5q57 0 102 66v80l-28.5 1.5t-20.5 0.5q-120 0 -120 -80zM80 669q0 35 23.5 58t58.5 23q36 0 59 -23t23 -59t-23 -59t-59 -23t-59 23t-23 60zM325.5 727q23.5 23 58.5 23q36 0 59 -23t23 -59t-23 -59
t-59 -23t-59 23t-23 60q0 35 23.5 58z" />
    <glyph glyph-name="aring" unicode="&#xe5;" horiz-adv-x="589" 
d="M32 146q0 94 72 139q26 16 65 23.5t97 7.5q21 0 42 -1t49 -3v6q0 47 -29.5 73.5t-82.5 26.5q-33 0 -66 -9.5t-77 -31.5l-29 106q46 21 94.5 31t100.5 10q129 0 191 -65q20 -20 30.5 -42.5t14.5 -55.5t4 -86v-142q0 -49 2 -82.5t4 -50.5h-145l-5 57q-38 -39 -74.5 -54
t-88.5 -15q-79 0 -124 42t-45 116zM188 150q0 -31 18.5 -49.5t48.5 -18.5q57 0 102 66v80l-28.5 1.5t-20.5 0.5q-120 0 -120 -80zM158 680q0 47 33 79t82 32q50 0 82.5 -32t32.5 -81t-32.5 -81t-82.5 -32t-82.5 32t-32.5 83zM229 678q0 -48 44 -48t44 48t-44 48
q-20 0 -32 -12.5t-12 -35.5z" />
    <glyph glyph-name="ae" unicode="&#xe6;" horiz-adv-x="911" 
d="M32 146q0 66 30 103t83 52t121 15q22 0 40.5 -1t50.5 -3v6q0 46 -30.5 73t-82.5 27q-34 0 -67.5 -9.5t-74.5 -31.5l-29 106q91 41 195 41q120 0 184 -57q35 30 73.5 43.5t90.5 13.5q101 0 156.5 -35.5t77.5 -106t22 -176.5h-362q8 -55 39 -82.5t95 -27.5q80 0 163 50
l51 -107q-50 -26 -102.5 -38.5t-119.5 -12.5q-61 0 -102 8.5t-69 28t-50 51.5q-35 -49 -80 -68.5t-119 -19.5q-88 0 -136 40t-48 118zM188 150q0 -30 18.5 -49t47.5 -19q58 0 103 66v80q-19 2 -28.5 2h-20.5q-120 0 -120 -80zM691.5 388.5q-26.5 29.5 -73.5 29.5
q-50 0 -76.5 -30t-33.5 -83h212q-2 54 -28.5 83.5z" />
    <glyph glyph-name="ccedilla" unicode="&#xe7;" horiz-adv-x="499" 
d="M41 257q0 122 64.5 194.5t187.5 72.5q47 0 90 -8.5t87 -28.5l-40 -108q-31 19 -58 27t-56 8q-58 0 -88.5 -41.5t-30.5 -119.5q0 -74 33.5 -113.5t97.5 -39.5q30 0 55.5 8.5t53.5 27.5l46 -107q-74 -41 -176 -41q-125 0 -195.5 71t-70.5 198zM299 -118q0 26 -39 26
q-13 0 -24 -2t-26 -7l22 108h68l-8 -41q5 1 8 1h5q51 0 81.5 -22t30.5 -60q0 -59 -41.5 -82.5t-106.5 -23.5q-34 0 -79 6l5 67q20 -4 38 -4q31 0 48.5 7.5t17.5 26.5z" />
    <glyph glyph-name="egrave" unicode="&#xe8;" horiz-adv-x="600" 
d="M41 254q0 124 69.5 197t194.5 73q101 0 156.5 -35.5t77.5 -106t22 -176.5h-362q8 -55 39 -82.5t95 -27.5q80 0 163 50l51 -107q-50 -26 -102 -38.5t-114 -12.5q-142 0 -216 67.5t-74 198.5zM380.5 388.5q-26.5 29.5 -73.5 29.5q-50 0 -76.5 -30t-33.5 -83h212
q-2 54 -28.5 83.5zM409 585h-139l-161 146h180z" />
    <glyph glyph-name="eacute" unicode="&#xe9;" horiz-adv-x="600" 
d="M41 254q0 124 69.5 197t194.5 73q101 0 156.5 -35.5t77.5 -106t22 -176.5h-362q8 -55 39 -82.5t95 -27.5q80 0 163 50l51 -107q-50 -26 -102 -38.5t-114 -12.5q-142 0 -216 67.5t-74 198.5zM380.5 388.5q-26.5 29.5 -73.5 29.5q-50 0 -76.5 -30t-33.5 -83h212
q-2 54 -28.5 83.5zM323 731h180l-161 -146h-139z" />
    <glyph glyph-name="ecircumflex" unicode="&#xea;" horiz-adv-x="600" 
d="M41 254q0 124 69.5 197t194.5 73q101 0 156.5 -35.5t77.5 -106t22 -176.5h-362q8 -55 39 -82.5t95 -27.5q80 0 163 50l51 -107q-50 -26 -102 -38.5t-114 -12.5q-142 0 -216 67.5t-74 198.5zM380.5 388.5q-26.5 29.5 -73.5 29.5q-50 0 -76.5 -30t-33.5 -83h212
q-2 54 -28.5 83.5zM301 671l-68 -86h-140l119 146h178l119 -146h-140z" />
    <glyph glyph-name="edieresis" unicode="&#xeb;" horiz-adv-x="600" 
d="M41 254q0 124 69.5 197t194.5 73q101 0 156.5 -35.5t77.5 -106t22 -176.5h-362q8 -55 39 -82.5t95 -27.5q80 0 163 50l51 -107q-50 -26 -102 -38.5t-114 -12.5q-142 0 -216 67.5t-74 198.5zM380.5 388.5q-26.5 29.5 -73.5 29.5q-50 0 -76.5 -30t-33.5 -83h212
q-2 54 -28.5 83.5zM108 669q0 35 23.5 58t58.5 23q36 0 59 -23t23 -59t-23 -59t-59 -23t-59 23t-23 60zM353.5 727q23.5 23 58.5 23q36 0 59 -23t23 -59t-23 -59t-59 -23t-59 23t-23 60q0 35 23.5 58z" />
    <glyph glyph-name="igrave" unicode="&#xec;" horiz-adv-x="305" 
d="M77 512h151v-512h-151v512zM261 585h-139l-161 146h180z" />
    <glyph glyph-name="iacute" unicode="&#xed;" horiz-adv-x="305" 
d="M77 512h151v-512h-151v512zM175 731h180l-161 -146h-139z" />
    <glyph glyph-name="icircumflex" unicode="&#xee;" horiz-adv-x="305" 
d="M77 512h151v-512h-151v512zM153 671l-68 -86h-140l119 146h178l119 -146h-140z" />
    <glyph glyph-name="idieresis" unicode="&#xef;" horiz-adv-x="305" 
d="M77 512h151v-512h-151v512zM-40 669q0 35 23.5 58t58.5 23q36 0 59 -23t23 -59t-23 -59t-59 -23t-59 23t-23 60zM205.5 727q23.5 23 58.5 23q36 0 59 -23t23 -59t-23 -59t-59 -23t-59 23t-23 60q0 35 23.5 58z" />
    <glyph glyph-name="eth" unicode="&#xf0;" horiz-adv-x="591" 
d="M41 234q0 107 57.5 170t154.5 63q26 0 44.5 -3.5t43.5 -12.5q-35 63 -82 102l-147 -67l-24 59l107 48q-26 13 -55.5 21.5t-62.5 14.5l27 113q67 -6 126 -27.5t109 -55.5l128 58l27 -58l-99 -45q73 -68 114 -163t41 -203q0 -127 -66.5 -193.5t-192.5 -66.5
q-117 0 -183.5 65.5t-66.5 180.5zM197 231q0 -62 25.5 -97.5t70.5 -35.5t73 36.5t28 94.5q0 60 -27.5 94t-75.5 34q-45 0 -69.5 -32.5t-24.5 -93.5z" />
    <glyph glyph-name="ntilde" unicode="&#xf1;" horiz-adv-x="640" 
d="M80 322q0 31 -0.5 56.5t-1.5 56.5t-3 77h139l5 -71q46 47 84.5 65t93.5 18q65 0 101.5 -24.5t51.5 -70.5t15 -112v-317h-151v305q0 49 -13 78t-57 29q-60 0 -113 -80v-332h-151v322zM152.5 687.5q28.5 37.5 73.5 37.5q17 0 41 -5t59 -17q38 -13 50 -16t25 -3q18 0 26 9
t11 31h82q-4 -63 -32.5 -100.5t-73.5 -37.5q-31 0 -100 22q-37 12 -49.5 15.5t-25.5 3.5q-18 0 -26 -8.5t-11 -31.5h-82q4 63 32.5 100.5z" />
    <glyph glyph-name="ograve" unicode="&#xf2;" horiz-adv-x="609" 
d="M41 259q0 125 68.5 195t194.5 70t195 -70t69 -195t-66.5 -198t-197.5 -73q-130 0 -196.5 73t-66.5 198zM197 258q0 -78 27.5 -119t79.5 -41t80 41t28 119q0 75 -28.5 115.5t-79.5 40.5t-79 -40.5t-28 -115.5zM413 585h-139l-161 146h180z" />
    <glyph glyph-name="oacute" unicode="&#xf3;" horiz-adv-x="609" 
d="M41 259q0 125 68.5 195t194.5 70t195 -70t69 -195t-66.5 -198t-197.5 -73q-130 0 -196.5 73t-66.5 198zM197 258q0 -78 27.5 -119t79.5 -41t80 41t28 119q0 75 -28.5 115.5t-79.5 40.5t-79 -40.5t-28 -115.5zM327 731h180l-161 -146h-139z" />
    <glyph glyph-name="ocircumflex" unicode="&#xf4;" horiz-adv-x="609" 
d="M41 259q0 125 68.5 195t194.5 70t195 -70t69 -195t-66.5 -198t-197.5 -73q-130 0 -196.5 73t-66.5 198zM197 258q0 -78 27.5 -119t79.5 -41t80 41t28 119q0 75 -28.5 115.5t-79.5 40.5t-79 -40.5t-28 -115.5zM305 671l-68 -86h-140l119 146h178l119 -146h-140z" />
    <glyph glyph-name="otilde" unicode="&#xf5;" horiz-adv-x="609" 
d="M41 259q0 125 68.5 195t194.5 70t195 -70t69 -195t-66.5 -198t-197.5 -73q-130 0 -196.5 73t-66.5 198zM197 258q0 -78 27.5 -119t79.5 -41t80 41t28 119q0 75 -28.5 115.5t-79.5 40.5t-79 -40.5t-28 -115.5zM137.5 687.5q28.5 37.5 73.5 37.5q17 0 41 -5t59 -17
q38 -13 50 -16t25 -3q18 0 26 9t11 31h82q-4 -63 -32.5 -100.5t-73.5 -37.5q-31 0 -100 22q-37 12 -49.5 15.5t-25.5 3.5q-18 0 -26 -8.5t-11 -31.5h-82q4 63 32.5 100.5z" />
    <glyph glyph-name="odieresis" unicode="&#xf6;" horiz-adv-x="609" 
d="M41 259q0 125 68.5 195t194.5 70t195 -70t69 -195t-66.5 -198t-197.5 -73q-130 0 -196.5 73t-66.5 198zM197 258q0 -78 27.5 -119t79.5 -41t80 41t28 119q0 75 -28.5 115.5t-79.5 40.5t-79 -40.5t-28 -115.5zM112 669q0 35 23.5 58t58.5 23q36 0 59 -23t23 -59t-23 -59
t-59 -23t-59 23t-23 60zM357.5 727q23.5 23 58.5 23q36 0 59 -23t23 -59t-23 -59t-59 -23t-59 23t-23 60q0 35 23.5 58z" />
    <glyph glyph-name="divide" unicode="&#xf7;" horiz-adv-x="632" 
d="M60 314h512v-116h-512v116zM233 442q0 35 24 58.5t59 23.5q36 0 59.5 -23.5t23.5 -59.5t-23.5 -59.5t-59.5 -23.5q-37 0 -60 23.5t-23 60.5zM233 72q0 35 23.5 58t59.5 23q35 0 58.5 -23.5t23.5 -59.5q0 -35 -23.5 -58.5t-58.5 -23.5q-37 0 -60 23.5t-23 60.5z" />
    <glyph glyph-name="oslash" unicode="&#xf8;" horiz-adv-x="609" 
d="M41 259q0 125 68.5 195t194.5 70q100 0 166 -46l61 61l55 -56l-61 -61q43 -65 43 -163q0 -125 -66.5 -198t-197.5 -73q-103 0 -169 48l-63 -63l-55 56l65 65q-41 65 -41 165zM408 307l-177 -176q27 -33 73 -33q52 0 80 41t28 119q0 26 -4 49zM375 384q-27 30 -71 30
q-51 0 -79 -40.5t-28 -115.5q0 -26 3 -47z" />
    <glyph glyph-name="ugrave" unicode="&#xf9;" horiz-adv-x="635" 
d="M75 195v317h151v-305q0 -49 12.5 -78t55.5 -29q58 0 110 80v332h151v-322q0 -35 0.5 -60t1.5 -53.5t3 -76.5h-139l-5 71q-45 -46 -83.5 -64.5t-91.5 -18.5q-64 0 -100.5 24.5t-51 71t-14.5 111.5zM426 585h-139l-161 146h180z" />
    <glyph glyph-name="uacute" unicode="&#xfa;" horiz-adv-x="635" 
d="M75 195v317h151v-305q0 -49 12.5 -78t55.5 -29q58 0 110 80v332h151v-322q0 -35 0.5 -60t1.5 -53.5t3 -76.5h-139l-5 71q-45 -46 -83.5 -64.5t-91.5 -18.5q-64 0 -100.5 24.5t-51 71t-14.5 111.5zM340 731h180l-161 -146h-139z" />
    <glyph glyph-name="ucircumflex" unicode="&#xfb;" horiz-adv-x="635" 
d="M75 195v317h151v-305q0 -49 12.5 -78t55.5 -29q58 0 110 80v332h151v-322q0 -35 0.5 -60t1.5 -53.5t3 -76.5h-139l-5 71q-45 -46 -83.5 -64.5t-91.5 -18.5q-64 0 -100.5 24.5t-51 71t-14.5 111.5zM318 671l-68 -86h-140l119 146h178l119 -146h-140z" />
    <glyph glyph-name="udieresis" unicode="&#xfc;" horiz-adv-x="635" 
d="M75 195v317h151v-305q0 -49 12.5 -78t55.5 -29q58 0 110 80v332h151v-322q0 -35 0.5 -60t1.5 -53.5t3 -76.5h-139l-5 71q-45 -46 -83.5 -64.5t-91.5 -18.5q-64 0 -100.5 24.5t-51 71t-14.5 111.5zM125 669q0 35 23.5 58t58.5 23q36 0 59 -23t23 -59t-23 -59t-59 -23
t-59 23t-23 60zM370.5 727q23.5 23 58.5 23q36 0 59 -23t23 -59t-23 -59t-59 -23t-59 23t-23 60q0 35 23.5 58z" />
    <glyph glyph-name="yacute" unicode="&#xfd;" horiz-adv-x="577" 
d="M30 -90q40 -17 69 -17q24 0 42.5 11t35.5 38t37 77l-210 493h160l91 -224q10 -24 16 -40t12.5 -33t15.5 -44q8 24 13 38.5t9 25.5t9 24.5t13 35.5l82 217h149l-206 -499q-25 -61 -46.5 -106t-47 -75t-59.5 -44.5t-85 -14.5q-34 0 -65 6t-61 17zM311 731h180l-161 -146
h-139z" />
    <glyph glyph-name="thorn" unicode="&#xfe;" horiz-adv-x="626" 
d="M75 731h151v-278q35 38 69 54.5t80 16.5q98 0 154 -72.5t56 -198.5q0 -74 -22.5 -134.5t-68.5 -95.5t-116 -35q-99 0 -152 74v-277h-151v946zM429 259q0 70 -27 111.5t-72 41.5q-55 0 -104 -77v-153q22 -39 50.5 -60.5t59.5 -21.5q41 0 67 44t26 115z" />
    <glyph glyph-name="ydieresis" unicode="&#xff;" horiz-adv-x="577" 
d="M30 -90q40 -17 69 -17q24 0 42.5 11t35.5 38t37 77l-210 493h160l91 -224q10 -24 16 -40t12.5 -33t15.5 -44q8 24 13 38.5t9 25.5t9 24.5t13 35.5l82 217h149l-206 -499q-25 -61 -46.5 -106t-47 -75t-59.5 -44.5t-85 -14.5q-34 0 -65 6t-61 17zM96 669q0 35 23.5 58
t58.5 23q36 0 59 -23t23 -59t-23 -59t-59 -23t-59 23t-23 60zM341.5 727q23.5 23 58.5 23q36 0 59 -23t23 -59t-23 -59t-59 -23t-59 23t-23 60q0 35 23.5 58z" />
    <glyph glyph-name="Amacron" unicode="&#x100;" horiz-adv-x="712" 
d="M482 165h-262l-59 -165h-155l264 692h163l273 -692h-165zM350 539q-6 -21 -9.5 -34t-9 -28.5t-16.5 -44.5l-53 -150h178l-54 150q-7 21 -12 35t-10.5 29.5t-13.5 42.5zM174 870h364v-88h-364v88z" />
    <glyph glyph-name="amacron" unicode="&#x101;" horiz-adv-x="589" 
d="M32 146q0 94 72 139q26 16 65 23.5t97 7.5q21 0 42 -1t49 -3v6q0 47 -29.5 73.5t-82.5 26.5q-33 0 -66 -9.5t-77 -31.5l-29 106q46 21 94.5 31t100.5 10q129 0 191 -65q20 -20 30.5 -42.5t14.5 -55.5t4 -86v-142q0 -49 2 -82.5t4 -50.5h-145l-5 57q-38 -39 -74.5 -54
t-88.5 -15q-79 0 -124 42t-45 116zM188 150q0 -31 18.5 -49.5t48.5 -18.5q57 0 102 66v80l-28.5 1.5t-20.5 0.5q-120 0 -120 -80zM91 702h364v-88h-364v88z" />
    <glyph glyph-name="Abreve" unicode="&#x102;" horiz-adv-x="712" 
d="M482 165h-262l-59 -165h-155l264 692h163l273 -692h-165zM350 539q-6 -21 -9.5 -34t-9 -28.5t-16.5 -44.5l-53 -150h178l-54 150q-7 21 -12 35t-10.5 29.5t-13.5 42.5zM177 913h82q3 -38 23.5 -52t73.5 -14t73.5 14t23.5 52h82q0 -87 -43.5 -124t-135.5 -37
q-91 0 -135 37t-44 124z" />
    <glyph glyph-name="abreve" unicode="&#x103;" horiz-adv-x="589" 
d="M32 146q0 94 72 139q26 16 65 23.5t97 7.5q21 0 42 -1t49 -3v6q0 47 -29.5 73.5t-82.5 26.5q-33 0 -66 -9.5t-77 -31.5l-29 106q46 21 94.5 31t100.5 10q129 0 191 -65q20 -20 30.5 -42.5t14.5 -55.5t4 -86v-142q0 -49 2 -82.5t4 -50.5h-145l-5 57q-38 -39 -74.5 -54
t-88.5 -15q-79 0 -124 42t-45 116zM188 150q0 -31 18.5 -49.5t48.5 -18.5q57 0 102 66v80l-28.5 1.5t-20.5 0.5q-120 0 -120 -80zM94 731h82q3 -38 23.5 -52t73.5 -14t73.5 14t23.5 52h82q0 -87 -43.5 -124t-135.5 -37q-91 0 -135 37t-44 124z" />
    <glyph glyph-name="Aogonek" unicode="&#x104;" horiz-adv-x="712" 
d="M482 165h-262l-59 -165h-155l264 692h163l273 -692h-165zM350 539q-6 -21 -9.5 -34t-9 -28.5t-16.5 -44.5l-53 -150h178l-54 150q-7 21 -12 35t-10.5 29.5t-13.5 42.5zM459 -120q0 34 22.5 67t59.5 53h146q-46 0 -78 -28t-32 -68q0 -26 18 -41t49 -15q11 0 19 1t18 5
l5 -67q-21 -4 -38.5 -6t-31.5 -2q-157 0 -157 101z" />
    <glyph glyph-name="aogonek" unicode="&#x105;" horiz-adv-x="589" 
d="M32 146q0 94 72 139q26 16 65 23.5t97 7.5q21 0 42 -1t49 -3v6q0 47 -29.5 73.5t-82.5 26.5q-33 0 -66 -9.5t-77 -31.5l-29 106q46 21 94.5 31t100.5 10q129 0 191 -65q20 -20 30.5 -42.5t14.5 -55.5t4 -86v-142q0 -49 2 -82.5t4 -50.5h-145l-5 57q-38 -39 -74.5 -54
t-88.5 -15q-79 0 -124 42t-45 116zM188 150q0 -31 18.5 -49.5t48.5 -18.5q57 0 102 66v80l-28.5 1.5t-20.5 0.5q-120 0 -120 -80zM284 -120q0 41 35 82.5t93 66.5l100 -29q-50 0 -80 -28t-30 -68q0 -26 18 -41t49 -15q11 0 19 1t18 5l5 -67q-21 -4 -38.5 -6t-31.5 -2
q-157 0 -157 101z" />
    <glyph glyph-name="Cacute" unicode="&#x106;" horiz-adv-x="631" 
d="M46 340q0 114 41 195.5t118 125t184 43.5q59 0 108.5 -11t110.5 -38l-52 -118q-81 45 -158 45q-90 0 -140.5 -62.5t-50.5 -172.5q0 -112 53 -174.5t147 -62.5q43 0 78.5 11.5t86.5 41.5l45 -124q-41 -20 -74 -31t-67 -15.5t-79 -4.5q-172 0 -261.5 93t-89.5 259zM405 901
h180l-161 -146h-139z" />
    <glyph glyph-name="cacute" unicode="&#x107;" horiz-adv-x="499" 
d="M41 257q0 122 64.5 194.5t187.5 72.5q47 0 90 -8.5t87 -28.5l-40 -108q-31 19 -58 27t-56 8q-58 0 -88.5 -41.5t-30.5 -119.5q0 -74 33.5 -113.5t97.5 -39.5q30 0 55.5 8.5t53.5 27.5l46 -107q-74 -41 -176 -41q-125 0 -195.5 71t-70.5 198zM284 731h180l-161 -146h-139z
" />
    <glyph glyph-name="Ccircumflex" unicode="&#x108;" horiz-adv-x="631" 
d="M46 340q0 114 41 195.5t118 125t184 43.5q59 0 108.5 -11t110.5 -38l-52 -118q-81 45 -158 45q-90 0 -140.5 -62.5t-50.5 -172.5q0 -112 53 -174.5t147 -62.5q43 0 78.5 11.5t86.5 41.5l45 -124q-41 -20 -74 -31t-67 -15.5t-79 -4.5q-172 0 -261.5 93t-89.5 259zM382 841
l-68 -86h-140l119 146h178l119 -146h-140z" />
    <glyph glyph-name="ccircumflex" unicode="&#x109;" horiz-adv-x="499" 
d="M41 257q0 122 64.5 194.5t187.5 72.5q47 0 90 -8.5t87 -28.5l-40 -108q-31 19 -58 27t-56 8q-58 0 -88.5 -41.5t-30.5 -119.5q0 -74 33.5 -113.5t97.5 -39.5q30 0 55.5 8.5t53.5 27.5l46 -107q-74 -41 -176 -41q-125 0 -195.5 71t-70.5 198zM262 671l-68 -86h-140
l119 146h178l119 -146h-140z" />
    <glyph glyph-name="Cdotaccent" unicode="&#x10a;" horiz-adv-x="631" 
d="M46 340q0 114 41 195.5t118 125t184 43.5q59 0 108.5 -11t110.5 -38l-52 -118q-81 45 -158 45q-90 0 -140.5 -62.5t-50.5 -172.5q0 -112 53 -174.5t147 -62.5q43 0 78.5 11.5t86.5 41.5l45 -124q-41 -20 -74 -31t-67 -15.5t-79 -4.5q-172 0 -261.5 93t-89.5 259zM296 835
q0 37 24.5 61t61.5 24q38 0 62 -24t24 -62q0 -37 -24 -61.5t-62 -24.5t-62 24.5t-24 62.5z" />
    <glyph glyph-name="cdotaccent" unicode="&#x10b;" horiz-adv-x="499" 
d="M41 257q0 122 64.5 194.5t187.5 72.5q47 0 90 -8.5t87 -28.5l-40 -108q-31 19 -58 27t-56 8q-58 0 -88.5 -41.5t-30.5 -119.5q0 -74 33.5 -113.5t97.5 -39.5q30 0 55.5 8.5t53.5 27.5l46 -107q-74 -41 -176 -41q-125 0 -195.5 71t-70.5 198zM174 667q0 38 25 62.5
t63 24.5t62.5 -25t24.5 -63t-24.5 -63t-62.5 -25q-39 0 -63.5 25t-24.5 64z" />
    <glyph glyph-name="Ccaron" unicode="&#x10c;" horiz-adv-x="631" 
d="M46 340q0 114 41 195.5t118 125t184 43.5q59 0 108.5 -11t110.5 -38l-52 -118q-81 45 -158 45q-90 0 -140.5 -62.5t-50.5 -172.5q0 -112 53 -174.5t147 -62.5q43 0 78.5 11.5t86.5 41.5l45 -124q-41 -20 -74 -31t-67 -15.5t-79 -4.5q-172 0 -261.5 93t-89.5 259zM382 815
l68 86h140l-119 -146h-178l-119 146h140z" />
    <glyph glyph-name="ccaron" unicode="&#x10d;" horiz-adv-x="499" 
d="M41 257q0 122 64.5 194.5t187.5 72.5q47 0 90 -8.5t87 -28.5l-40 -108q-31 19 -58 27t-56 8q-58 0 -88.5 -41.5t-30.5 -119.5q0 -74 33.5 -113.5t97.5 -39.5q30 0 55.5 8.5t53.5 27.5l46 -107q-74 -41 -176 -41q-125 0 -195.5 71t-70.5 198zM262 645l68 86h140l-119 -146
h-178l-119 146h140z" />
    <glyph glyph-name="Dcaron" unicode="&#x10e;" horiz-adv-x="712" 
d="M82 692h192q76 0 130 -8t94 -26t72 -48q96 -88 96 -264q0 -211 -132 -294q-31 -19 -67.5 -30.5t-85.5 -16.5t-118 -5h-181v692zM505 348q0 56 -17 104t-47 74q-19 17 -40.5 26.5t-52.5 13.5t-80 4h-30v-448h30q107 0 158 35q38 25 58.5 75t20.5 116zM374 815l68 86h140
l-119 -146h-178l-119 146h140z" />
    <glyph glyph-name="dcaron" unicode="&#x10f;" horiz-adv-x="626" 
d="M41 253q0 126 56.5 198.5t153.5 72.5q45 0 82 -17t67 -55v279h151v-555q0 -52 0.5 -82.5t1.5 -51t3 -42.5h-146l-5 71q-29 -44 -66.5 -63.5t-90.5 -19.5q-70 0 -116 36t-68.5 96.5t-22.5 132.5zM197 253q0 -70 27 -111.5t72 -41.5q55 0 104 77v153q-22 39 -50.5 60.5
t-59.5 21.5q-41 0 -67 -44t-26 -115zM679 731h146l-112 -283h-121z" />
    <glyph glyph-name="Dcroat" unicode="&#x110;" horiz-adv-x="712" 
d="M82 309h-85v88h85v295h192q76 0 130 -8t94 -26t72 -48q96 -88 96 -264q0 -211 -132 -294q-31 -19 -67.5 -30.5t-85.5 -16.5t-118 -5h-181v309zM505 348q0 56 -17 104t-47 74q-19 17 -40.5 26.5t-52.5 13.5t-80 4h-30v-173h130v-88h-130v-187h30q107 0 158 35
q38 25 58.5 75t20.5 116z" />
    <glyph glyph-name="dcroat" unicode="&#x111;" horiz-adv-x="626" 
d="M41 253q0 126 56.5 198.5t153.5 72.5q46 0 82 -17t67 -55v132h-129v88h129v59h151v-59h85v-88h-85v-408q0 -52 0.5 -82.5t1.5 -51t3 -42.5h-146l-5 70q-55 -82 -157 -82q-70 0 -116 36t-68.5 96.5t-22.5 132.5zM197 259q0 -71 26 -115t67 -44q64 0 110 82v153
q-49 77 -104 77q-45 0 -72 -41t-27 -112z" />
    <glyph glyph-name="Emacron" unicode="&#x112;" horiz-adv-x="586" 
d="M82 692h438v-122h-282v-158h268v-122h-268v-168h297v-122h-453v692zM119 870h364v-88h-364v88z" />
    <glyph glyph-name="emacron" unicode="&#x113;" horiz-adv-x="600" 
d="M41 254q0 124 69.5 197t194.5 73q101 0 156.5 -35.5t77.5 -106t22 -176.5h-362q8 -55 39 -82.5t95 -27.5q80 0 163 50l51 -107q-50 -26 -102 -38.5t-114 -12.5q-142 0 -216 67.5t-74 198.5zM380.5 388.5q-26.5 29.5 -73.5 29.5q-50 0 -76.5 -30t-33.5 -83h212
q-2 54 -28.5 83.5zM119 702h364v-88h-364v88z" />
    <glyph glyph-name="Ebreve" unicode="&#x114;" horiz-adv-x="586" 
d="M82 692h438v-122h-282v-158h268v-122h-268v-168h297v-122h-453v692zM122 913h82q3 -38 23.5 -52t73.5 -14t73.5 14t23.5 52h82q0 -87 -43.5 -124t-135.5 -37q-91 0 -135 37t-44 124z" />
    <glyph glyph-name="ebreve" unicode="&#x115;" horiz-adv-x="600" 
d="M41 254q0 124 69.5 197t194.5 73q101 0 156.5 -35.5t77.5 -106t22 -176.5h-362q8 -55 39 -82.5t95 -27.5q80 0 163 50l51 -107q-50 -26 -102 -38.5t-114 -12.5q-142 0 -216 67.5t-74 198.5zM380.5 388.5q-26.5 29.5 -73.5 29.5q-50 0 -76.5 -30t-33.5 -83h212
q-2 54 -28.5 83.5zM122 731h82q3 -38 23.5 -52t73.5 -14t73.5 14t23.5 52h82q0 -87 -43.5 -124t-135.5 -37q-91 0 -135 37t-44 124z" />
    <glyph glyph-name="Edotaccent" unicode="&#x116;" horiz-adv-x="586" 
d="M82 692h438v-122h-282v-158h268v-122h-268v-168h297v-122h-453v692zM215 835q0 37 24.5 61t61.5 24q38 0 62 -24t24 -62q0 -37 -24 -61.5t-62 -24.5t-62 24.5t-24 62.5z" />
    <glyph glyph-name="edotaccent" unicode="&#x117;" horiz-adv-x="600" 
d="M41 254q0 124 69.5 197t194.5 73q101 0 156.5 -35.5t77.5 -106t22 -176.5h-362q8 -55 39 -82.5t95 -27.5q80 0 163 50l51 -107q-50 -26 -102 -38.5t-114 -12.5q-142 0 -216 67.5t-74 198.5zM380.5 388.5q-26.5 29.5 -73.5 29.5q-50 0 -76.5 -30t-33.5 -83h212
q-2 54 -28.5 83.5zM213 667q0 38 25 62.5t63 24.5t62.5 -25t24.5 -63t-24.5 -63t-62.5 -25q-39 0 -63.5 25t-24.5 64z" />
    <glyph glyph-name="Eogonek" unicode="&#x118;" horiz-adv-x="586" 
d="M82 692h438v-122h-282v-158h268v-122h-268v-168h297v-122h-453v692zM307 -120q0 34 22.5 67t59.5 53h146q-46 0 -78 -28t-32 -68q0 -26 18 -41t49 -15q11 0 19 1t18 5l5 -67q-21 -4 -38.5 -6t-31.5 -2q-157 0 -157 101z" />
    <glyph glyph-name="eogonek" unicode="&#x119;" horiz-adv-x="600" 
d="M41 254q0 124 69.5 197t194.5 73q101 0 156.5 -35.5t77.5 -106t22 -176.5h-362q8 -55 39 -82.5t95 -27.5q80 0 163 50l51 -107q-50 -26 -102 -38.5t-114 -12.5q-142 0 -216 67.5t-74 198.5zM380.5 388.5q-26.5 29.5 -73.5 29.5q-50 0 -76.5 -30t-33.5 -83h212
q-2 54 -28.5 83.5zM258 -124q0 92 135 132l154 31q-27 -13 -42.5 -21t-28.5 -15q-52 -27 -76 -53t-24 -53q0 -23 18 -36t49 -13q16 0 37 4l5 -67q-24 -3 -43 -4.5t-39 -1.5q-67 0 -106 26t-39 71z" />
    <glyph glyph-name="Ecaron" unicode="&#x11a;" horiz-adv-x="586" 
d="M82 692h438v-122h-282v-158h268v-122h-268v-168h297v-122h-453v692zM301 815l68 86h140l-119 -146h-178l-119 146h140z" />
    <glyph glyph-name="ecaron" unicode="&#x11b;" horiz-adv-x="600" 
d="M41 254q0 124 69.5 197t194.5 73q101 0 156.5 -35.5t77.5 -106t22 -176.5h-362q8 -55 39 -82.5t95 -27.5q80 0 163 50l51 -107q-50 -26 -102 -38.5t-114 -12.5q-142 0 -216 67.5t-74 198.5zM380.5 388.5q-26.5 29.5 -73.5 29.5q-50 0 -76.5 -30t-33.5 -83h212
q-2 54 -28.5 83.5zM301 645l68 86h140l-119 -146h-178l-119 146h140z" />
    <glyph glyph-name="Gcircumflex" unicode="&#x11c;" horiz-adv-x="734" 
d="M46 338q0 172 94.5 269t269.5 97q68 0 126 -11.5t116 -35.5l-53 -122q-52 26 -92 36.5t-87 10.5q-103 0 -158 -61.5t-55 -176.5q0 -107 55 -170.5t149 -63.5q48 0 90 16v139h-119v122h270v-353q-54 -18 -93 -28t-74.5 -14t-79.5 -4q-174 0 -266.5 92t-92.5 258zM391 841
l-68 -86h-140l119 146h178l119 -146h-140z" />
    <glyph glyph-name="gcircumflex" unicode="&#x11d;" horiz-adv-x="633" 
d="M401 52v32q-31 -37 -66 -53.5t-82 -16.5q-98 0 -155 68t-57 186q0 78 26 135.5t73.5 89t111.5 31.5q102 0 158 -77l4 65h144q-2 -46 -3 -79.5t-1.5 -61.5t-1.5 -60v-249q0 -61 -4 -99t-14 -62.5t-29 -47.5q-65 -80 -236 -80q-111 0 -203 38l40 109q38 -19 73.5 -28
t74.5 -9q60 0 91.5 18t43.5 55.5t12 95.5zM401 322q-14 41 -44 65.5t-66 24.5q-43 0 -68.5 -39t-25.5 -107q0 -65 25.5 -102.5t70.5 -37.5q32 0 60.5 22.5t47.5 62.5v111zM298 671l-68 -86h-140l119 146h178l119 -146h-140z" />
    <glyph glyph-name="Gbreve" unicode="&#x11e;" horiz-adv-x="734" 
d="M46 338q0 172 94.5 269t269.5 97q68 0 126 -11.5t116 -35.5l-53 -122q-52 26 -92 36.5t-87 10.5q-103 0 -158 -61.5t-55 -176.5q0 -107 55 -170.5t149 -63.5q48 0 90 16v139h-119v122h270v-353q-54 -18 -93 -28t-74.5 -14t-79.5 -4q-174 0 -266.5 92t-92.5 258zM212 913
h82q3 -38 23.5 -52t73.5 -14t73.5 14t23.5 52h82q0 -87 -43.5 -124t-135.5 -37q-91 0 -135 37t-44 124z" />
    <glyph glyph-name="gbreve" unicode="&#x11f;" horiz-adv-x="633" 
d="M401 52v32q-31 -37 -66 -53.5t-82 -16.5q-98 0 -155 68t-57 186q0 78 26 135.5t73.5 89t111.5 31.5q102 0 158 -77l4 65h144q-2 -46 -3 -79.5t-1.5 -61.5t-1.5 -60v-249q0 -61 -4 -99t-14 -62.5t-29 -47.5q-65 -80 -236 -80q-111 0 -203 38l40 109q38 -19 73.5 -28
t74.5 -9q60 0 91.5 18t43.5 55.5t12 95.5zM401 322q-14 41 -44 65.5t-66 24.5q-43 0 -68.5 -39t-25.5 -107q0 -65 25.5 -102.5t70.5 -37.5q32 0 60.5 22.5t47.5 62.5v111zM119 731h82q3 -38 23.5 -52t73.5 -14t73.5 14t23.5 52h82q0 -87 -43.5 -124t-135.5 -37
q-91 0 -135 37t-44 124z" />
    <glyph glyph-name="Gdotaccent" unicode="&#x120;" horiz-adv-x="734" 
d="M46 338q0 172 94.5 269t269.5 97q68 0 126 -11.5t116 -35.5l-53 -122q-52 26 -92 36.5t-87 10.5q-103 0 -158 -61.5t-55 -176.5q0 -107 55 -170.5t149 -63.5q48 0 90 16v139h-119v122h270v-353q-54 -18 -93 -28t-74.5 -14t-79.5 -4q-174 0 -266.5 92t-92.5 258zM305 835
q0 37 24.5 61t61.5 24q38 0 62 -24t24 -62q0 -37 -24 -61.5t-62 -24.5t-62 24.5t-24 62.5z" />
    <glyph glyph-name="gdotaccent" unicode="&#x121;" horiz-adv-x="633" 
d="M401 52v32q-31 -37 -66 -53.5t-82 -16.5q-98 0 -155 68t-57 186q0 78 26 135.5t73.5 89t111.5 31.5q102 0 158 -77l4 65h144q-2 -46 -3 -79.5t-1.5 -61.5t-1.5 -60v-249q0 -61 -4 -99t-14 -62.5t-29 -47.5q-65 -80 -236 -80q-111 0 -203 38l40 109q38 -19 73.5 -28
t74.5 -9q60 0 91.5 18t43.5 55.5t12 95.5zM401 322q-14 41 -44 65.5t-66 24.5q-43 0 -68.5 -39t-25.5 -107q0 -65 25.5 -102.5t70.5 -37.5q32 0 60.5 22.5t47.5 62.5v111zM210 667q0 38 25 62.5t63 24.5t62.5 -25t24.5 -63t-24.5 -63t-62.5 -25q-39 0 -63.5 25t-24.5 64z
" />
    <glyph glyph-name="uni0122" unicode="&#x122;" horiz-adv-x="734" 
d="M46 338q0 172 94.5 269t269.5 97q68 0 126 -11.5t116 -35.5l-53 -122q-52 26 -92 36.5t-87 10.5q-103 0 -158 -61.5t-55 -176.5q0 -107 55 -170.5t149 -63.5q48 0 90 16v139h-119v122h270v-353q-54 -18 -93 -28t-74.5 -14t-79.5 -4q-174 0 -266.5 92t-92.5 258zM341 -53
h166l-145 -153h-138z" />
    <glyph glyph-name="uni0123" unicode="&#x123;" horiz-adv-x="633" 
d="M401 52v32q-31 -37 -66 -53.5t-82 -16.5q-98 0 -155 68t-57 186q0 78 26 135.5t73.5 89t111.5 31.5q102 0 158 -77l4 65h144q-2 -46 -3 -79.5t-1.5 -61.5t-1.5 -60v-249q0 -61 -4 -99t-14 -62.5t-29 -47.5q-65 -80 -236 -80q-111 0 -203 38l40 109q38 -19 73.5 -28
t74.5 -9q60 0 91.5 18t43.5 55.5t12 95.5zM401 322q-14 41 -44 65.5t-66 24.5q-43 0 -68.5 -39t-25.5 -107q0 -65 25.5 -102.5t70.5 -37.5q32 0 60.5 22.5t47.5 62.5v111zM372 583h-165l145 153h138z" />
    <glyph glyph-name="Hcircumflex" unicode="&#x124;" horiz-adv-x="729" 
d="M82 692h156v-278h253v278h156v-692h-156v292h-253v-292h-156v692zM365 841l-68 -86h-140l119 146h178l119 -146h-140z" />
    <glyph glyph-name="hcircumflex" unicode="&#x125;" horiz-adv-x="640" 
d="M79 731h152v-279q37 38 76.5 55t89.5 17q65 0 101.5 -24t51.5 -70.5t15 -112.5v-317h-151v305q0 49 -13 78t-57 29q-60 0 -113 -80v-332h-152v731zM155 865l-68 -86h-140l119 146h178l119 -146h-140z" />
    <glyph glyph-name="Hbar" unicode="&#x126;" horiz-adv-x="729" 
d="M491 292h-253v-292h-156v502h-60v80h60v110h156v-110h253v110h156v-110h60v-80h-60v-502h-156v292zM491 502h-253v-88h253v88z" />
    <glyph glyph-name="hbar" unicode="&#x127;" horiz-adv-x="640" 
d="M79 584h-72v88h72v59h152v-59h141v-88h-141v-132q37 38 76.5 55t89.5 17q65 0 101.5 -24t51.5 -70.5t15 -112.5v-317h-151v305q0 49 -13 78t-57 29q-60 0 -113 -80v-332h-152v584z" />
    <glyph glyph-name="Itilde" unicode="&#x128;" horiz-adv-x="320" 
d="M82 692h156v-692h-156v692zM-7.5 864.5q28.5 37.5 73.5 37.5q17 0 41 -5t59 -17q38 -13 50 -16t25 -3q18 0 26 9t11 31h82q-4 -63 -32.5 -100.5t-73.5 -37.5q-31 0 -100 22q-37 12 -49.5 15.5t-25.5 3.5q-18 0 -26 -8.5t-11 -31.5h-82q4 63 32.5 100.5z" />
    <glyph glyph-name="itilde" unicode="&#x129;" horiz-adv-x="305" 
d="M77 512h151v-512h-151v512zM-14.5 687.5q28.5 37.5 73.5 37.5q17 0 41 -5t59 -17q38 -13 50 -16t25 -3q18 0 26 9t11 31h82q-4 -63 -32.5 -100.5t-73.5 -37.5q-31 0 -100 22q-37 12 -49.5 15.5t-25.5 3.5q-18 0 -26 -8.5t-11 -31.5h-82q4 63 32.5 100.5z" />
    <glyph glyph-name="Imacron" unicode="&#x12a;" horiz-adv-x="320" 
d="M82 692h156v-692h-156v692zM-22 870h364v-88h-364v88z" />
    <glyph glyph-name="imacron" unicode="&#x12b;" horiz-adv-x="305" 
d="M77 512h151v-512h-151v512zM-29 702h364v-88h-364v88z" />
    <glyph glyph-name="Ibreve" unicode="&#x12c;" horiz-adv-x="320" 
d="M82 692h156v-692h-156v692zM-19 913h82q3 -38 23.5 -52t73.5 -14t73.5 14t23.5 52h82q0 -87 -43.5 -124t-135.5 -37q-91 0 -135 37t-44 124z" />
    <glyph glyph-name="ibreve" unicode="&#x12d;" horiz-adv-x="305" 
d="M77 512h151v-512h-151v512zM-26 731h82q3 -38 23.5 -52t73.5 -14t73.5 14t23.5 52h82q0 -87 -43.5 -124t-135.5 -37q-91 0 -135 37t-44 124z" />
    <glyph glyph-name="Iogonek" unicode="&#x12e;" horiz-adv-x="320" 
d="M82 692h156v-692h-156v692zM0 -120q0 34 22.5 67t59.5 53h146q-46 0 -78 -28t-32 -68q0 -26 18 -41t49 -15q11 0 19 1t18 5l5 -67q-21 -4 -38.5 -6t-31.5 -2q-157 0 -157 101z" />
    <glyph glyph-name="iogonek" unicode="&#x12f;" horiz-adv-x="305" 
d="M65 667q0 38 25 62.5t63 24.5t62.5 -25t24.5 -63t-24.5 -63t-62.5 -25q-39 0 -63.5 25t-24.5 64zM77 512h151v-512h-151v512zM0 -120q0 41 35 82.5t93 66.5l100 -29q-50 0 -80 -28t-30 -68q0 -26 18 -41t49 -15q11 0 19 1t18 5l5 -67q-21 -4 -38.5 -6t-31.5 -2
q-157 0 -157 101z" />
    <glyph glyph-name="Idotaccent" unicode="&#x130;" horiz-adv-x="320" 
d="M82 692h156v-692h-156v692zM74 835q0 37 24.5 61t61.5 24q38 0 62 -24t24 -62q0 -37 -24 -61.5t-62 -24.5t-62 24.5t-24 62.5z" />
    <glyph glyph-name="dotlessi" unicode="&#x131;" horiz-adv-x="305" 
d="M77 512h151v-512h-151v512z" />
    <glyph glyph-name="IJ" unicode="&#x132;" horiz-adv-x="751" 
d="M82 692h156v-692h-156v692zM519 250v442h156v-408q0 -73 -3 -115t-12 -67t-27 -47q-52 -67 -173 -67q-74 0 -130 21l13 128q28 -13 48 -18t40 -5q57 0 72.5 34t15.5 102z" />
    <glyph glyph-name="ij" unicode="&#x133;" horiz-adv-x="581" 
d="M65 667q0 38 25 62.5t63 24.5t62.5 -25t24.5 -63t-24.5 -63t-62.5 -25q-39 0 -63.5 25t-24.5 64zM77 512h151v-512h-151v512zM352 14v498h151v-509q0 -68 -7.5 -106t-27.5 -65q-44 -59 -143 -59q-49 0 -106 15l12 112q36 -11 56 -11q36 0 50.5 27.5t14.5 97.5zM340 667
q0 38 25 62.5t63 24.5t62.5 -25t24.5 -63t-24.5 -63t-62.5 -25q-39 0 -63.5 25t-24.5 64z" />
    <glyph glyph-name="Jcircumflex" unicode="&#x134;" horiz-adv-x="431" 
d="M199 250v442h156v-408q0 -73 -3 -115t-12 -67t-27 -47q-52 -67 -173 -67q-74 0 -130 21l13 128q28 -13 48 -18t40 -5q57 0 72.5 34t15.5 102zM277 841l-68 -86h-140l119 146h178l119 -146h-140z" />
    <glyph glyph-name="jcircumflex" unicode="&#x135;" horiz-adv-x="322" 
d="M93 14v498h151v-509q0 -68 -7.5 -106t-27.5 -65q-44 -59 -143 -59q-49 0 -106 15l12 112q36 -11 56 -11q36 0 50.5 27.5t14.5 97.5zM169 671l-68 -86h-140l119 146h178l119 -146h-140z" />
    <glyph glyph-name="uni0136" unicode="&#x136;" horiz-adv-x="682" 
d="M238 0h-156v692h156v-322l256 322h176l-261 -320l271 -372h-186l-256 362v-362zM316 -53h166l-145 -153h-138z" />
    <glyph glyph-name="uni0137" unicode="&#x137;" horiz-adv-x="583" 
d="M230 0h-151v731h151v-433l159 214h169l-176 -222l200 -290h-179l-173 260v-260zM255 -53h166l-145 -153h-138z" />
    <glyph glyph-name="kgreenlandic" unicode="&#x138;" horiz-adv-x="583" 
d="M230 0h-151v512h151v-214l159 214h169l-176 -222l200 -290h-179l-173 260v-260z" />
    <glyph glyph-name="Lacute" unicode="&#x139;" horiz-adv-x="531" 
d="M82 692h156v-570h297v-122h-453v692zM183 901h180l-161 -146h-139z" />
    <glyph glyph-name="lacute" unicode="&#x13a;" horiz-adv-x="309" 
d="M79 731h151v-731h-151v731zM177 925h180l-161 -146h-139z" />
    <glyph glyph-name="uni013B" unicode="&#x13b;" horiz-adv-x="531" 
d="M82 692h156v-570h297v-122h-453v692zM244 -53h166l-145 -153h-138z" />
    <glyph glyph-name="uni013C" unicode="&#x13c;" horiz-adv-x="309" 
d="M79 731h151v-731h-151v731zM99 -53h166l-145 -153h-138z" />
    <glyph glyph-name="Lcaron" unicode="&#x13d;" horiz-adv-x="531" 
d="M82 692h156v-570h297v-122h-453v692zM398 731h146l-112 -283h-121z" />
    <glyph glyph-name="lcaron" unicode="&#x13e;" horiz-adv-x="309" 
d="M79 731h151v-731h-151v731zM358 731h146l-112 -283h-121z" />
    <glyph glyph-name="Ldot" unicode="&#x13f;" horiz-adv-x="531" 
d="M82 692h156v-570h297v-122h-453v692zM336 379q0 39 26.5 65t66.5 26t66 -26t26 -67q0 -40 -26 -66t-66 -26q-41 0 -67 26.5t-26 67.5z" />
    <glyph glyph-name="ldot" unicode="&#x140;" horiz-adv-x="462" 
d="M79 731h151v-731h-151v731zM293 335q0 39 26.5 65t66.5 26t66 -26t26 -67q0 -40 -26 -66t-66 -26q-41 0 -67 26.5t-26 67.5z" />
    <glyph glyph-name="Lslash" unicode="&#x141;" horiz-adv-x="545" 
d="M96 259l-85 -56v104l85 56v329h156v-227l120 78v-104l-120 -78v-239h297v-122h-453v259z" />
    <glyph glyph-name="lslash" unicode="&#x142;" horiz-adv-x="334" 
d="M92 285l-83 -59v107l83 59v339h151v-233l82 58v-106l-82 -58v-392h-151v285z" />
    <glyph glyph-name="Nacute" unicode="&#x143;" horiz-adv-x="752" 
d="M82 692h172l184 -311q19 -32 32.5 -57t26 -50t26.5 -56q-1 19 -2 35t-1 38v59v342h150v-692h-169l-173 290q-24 39 -39 66.5t-28.5 54.5t-31.5 65q1 -29 2 -49.5t1 -46v-70.5v-310h-150v692zM399 901h180l-161 -146h-139z" />
    <glyph glyph-name="nacute" unicode="&#x144;" horiz-adv-x="640" 
d="M80 322q0 31 -0.5 56.5t-1.5 56.5t-3 77h139l5 -71q46 47 84.5 65t93.5 18q65 0 101.5 -24.5t51.5 -70.5t15 -112v-317h-151v305q0 49 -13 78t-57 29q-60 0 -113 -80v-332h-151v322zM342 731h180l-161 -146h-139z" />
    <glyph glyph-name="uni0145" unicode="&#x145;" horiz-adv-x="752" 
d="M82 692h172l184 -311q19 -32 32.5 -57t26 -50t26.5 -56q-1 19 -2 35t-1 38v59v342h150v-692h-169l-173 290q-24 39 -39 66.5t-28.5 54.5t-31.5 65q1 -29 2 -49.5t1 -46v-70.5v-310h-150v692zM311 -53h166l-145 -153h-138z" />
    <glyph glyph-name="uni0146" unicode="&#x146;" horiz-adv-x="640" 
d="M80 322q0 31 -0.5 56.5t-1.5 56.5t-3 77h139l5 -71q46 47 84.5 65t93.5 18q65 0 101.5 -24.5t51.5 -70.5t15 -112v-317h-151v305q0 49 -13 78t-57 29q-60 0 -113 -80v-332h-151v322zM267 -53h166l-145 -153h-138z" />
    <glyph glyph-name="Ncaron" unicode="&#x147;" horiz-adv-x="752" 
d="M82 692h172l184 -311q19 -32 32.5 -57t26 -50t26.5 -56q-1 19 -2 35t-1 38v59v342h150v-692h-169l-173 290q-24 39 -39 66.5t-28.5 54.5t-31.5 65q1 -29 2 -49.5t1 -46v-70.5v-310h-150v692zM376 815l68 86h140l-119 -146h-178l-119 146h140z" />
    <glyph glyph-name="ncaron" unicode="&#x148;" horiz-adv-x="640" 
d="M80 322q0 31 -0.5 56.5t-1.5 56.5t-3 77h139l5 -71q46 47 84.5 65t93.5 18q65 0 101.5 -24.5t51.5 -70.5t15 -112v-317h-151v305q0 49 -13 78t-57 29q-60 0 -113 -80v-332h-151v322zM320 645l68 86h140l-119 -146h-178l-119 146h140z" />
    <glyph glyph-name="napostrophe" unicode="&#x149;" horiz-adv-x="804" 
d="M65 661h144l-92 -213h-117zM244 322q0 31 -0.5 56.5t-1.5 56.5t-3 77h139l5 -71q46 47 84.5 65t93.5 18q65 0 101.5 -24.5t51.5 -70.5t15 -112v-317h-151v305q0 49 -13 78t-57 29q-60 0 -113 -80v-332h-151v322z" />
    <glyph glyph-name="Eng" unicode="&#x14a;" horiz-adv-x="752" 
d="M518 -6v6h-17l-173 290q-23 40 -38.5 67t-28.5 53.5t-32 64.5q2 -28 2.5 -48.5t0.5 -46v-70.5v-310h-150v692h172l184 -311q19 -32 32.5 -57t26 -49.5t26.5 -56.5q-1 19 -2 35t-1 38.5v58.5v342h150v-692q-1 -50 -4.5 -80.5t-11 -50t-20.5 -37.5q-42 -59 -143 -59
q-49 0 -106 15l12 112q37 -11 57 -11q34 0 49 26t15 79z" />
    <glyph glyph-name="eng" unicode="&#x14b;" horiz-adv-x="640" 
d="M414 14v291q0 49 -13 78t-57 29q-60 0 -113 -80v-332h-151v322q0 31 -0.5 56.5t-1.5 56.5t-3 77h139l5 -71q46 47 84.5 65t93.5 18q65 0 101.5 -24.5t51.5 -70.5t15 -112v-317q0 -68 -8.5 -104.5t-28.5 -63.5q-42 -59 -143 -59q-49 0 -106 15l12 112q36 -11 56 -11
q36 0 51.5 27.5t15.5 97.5z" />
    <glyph glyph-name="Omacron" unicode="&#x14c;" horiz-adv-x="759" 
d="M46 350q0 105 39.5 185t114 124.5t179.5 44.5q106 0 180.5 -44.5t114 -124.5t39.5 -185q0 -107 -38 -188.5t-112.5 -127.5t-183.5 -46q-108 0 -182.5 46t-112.5 127.5t-38 188.5zM207 349q0 -111 46.5 -175t125.5 -64q80 0 126.5 64t46.5 175q0 107 -46.5 170t-126.5 63
q-79 0 -125.5 -63t-46.5 -170zM198 870h364v-88h-364v88z" />
    <glyph glyph-name="omacron" unicode="&#x14d;" horiz-adv-x="609" 
d="M41 259q0 125 68.5 195t194.5 70t195 -70t69 -195t-66.5 -198t-197.5 -73q-130 0 -196.5 73t-66.5 198zM197 258q0 -78 27.5 -119t79.5 -41t80 41t28 119q0 75 -28.5 115.5t-79.5 40.5t-79 -40.5t-28 -115.5zM123 702h364v-88h-364v88z" />
    <glyph glyph-name="Obreve" unicode="&#x14e;" horiz-adv-x="759" 
d="M46 350q0 105 39.5 185t114 124.5t179.5 44.5q106 0 180.5 -44.5t114 -124.5t39.5 -185q0 -107 -38 -188.5t-112.5 -127.5t-183.5 -46q-108 0 -182.5 46t-112.5 127.5t-38 188.5zM207 349q0 -111 46.5 -175t125.5 -64q80 0 126.5 64t46.5 175q0 107 -46.5 170t-126.5 63
q-79 0 -125.5 -63t-46.5 -170zM201 913h82q3 -38 23.5 -52t73.5 -14t73.5 14t23.5 52h82q0 -87 -43.5 -124t-135.5 -37q-91 0 -135 37t-44 124z" />
    <glyph glyph-name="obreve" unicode="&#x14f;" horiz-adv-x="609" 
d="M41 259q0 125 68.5 195t194.5 70t195 -70t69 -195t-66.5 -198t-197.5 -73q-130 0 -196.5 73t-66.5 198zM197 258q0 -78 27.5 -119t79.5 -41t80 41t28 119q0 75 -28.5 115.5t-79.5 40.5t-79 -40.5t-28 -115.5zM126 731h82q3 -38 23.5 -52t73.5 -14t73.5 14t23.5 52h82
q0 -87 -43.5 -124t-135.5 -37q-91 0 -135 37t-44 124z" />
    <glyph glyph-name="Ohungarumlaut" unicode="&#x150;" horiz-adv-x="759" 
d="M46 350q0 105 39.5 185t114 124.5t179.5 44.5q106 0 180.5 -44.5t114 -124.5t39.5 -185q0 -107 -38 -188.5t-112.5 -127.5t-183.5 -46q-108 0 -182.5 46t-112.5 127.5t-38 188.5zM207 349q0 -111 46.5 -175t125.5 -64q80 0 126.5 64t46.5 175q0 107 -46.5 170t-126.5 63
q-79 0 -125.5 -63t-46.5 -170zM303 901h180l-161 -146h-139zM537 901h180l-163 -146h-136z" />
    <glyph glyph-name="ohungarumlaut" unicode="&#x151;" horiz-adv-x="609" 
d="M41 259q0 125 68.5 195t194.5 70t195 -70t69 -195t-66.5 -198t-197.5 -73q-130 0 -196.5 73t-66.5 198zM197 258q0 -78 27.5 -119t79.5 -41t80 41t28 119q0 75 -28.5 115.5t-79.5 40.5t-79 -40.5t-28 -115.5zM228 731h180l-161 -146h-139zM462 731h180l-163 -146h-136z
" />
    <glyph glyph-name="OE" unicode="&#x152;" horiz-adv-x="988" 
d="M46 346q0 103 37 182t103 117q44 26 95.5 36.5t129.5 10.5h511v-122h-282v-158h268v-122h-268v-168h297v-122h-481q-45 0 -74.5 1t-51 4t-43.5 7q-118 28 -179.5 113t-61.5 221zM207 353q0 -128 73 -187q29 -24 69 -34t107 -10h28v448h-28q-54 0 -88.5 -3.5t-56.5 -12.5
t-41 -25q-63 -54 -63 -176z" />
    <glyph glyph-name="oe" unicode="&#x153;" horiz-adv-x="959" 
d="M41 256q0 127 66.5 197.5t184.5 70.5q122 0 185 -77q36 41 80 59t107 18q101 0 156.5 -35.5t77.5 -106t22 -176.5h-364q9 -110 134 -110q82 0 165 50l51 -107q-50 -26 -102 -38.5t-117 -12.5q-77 0 -125 18t-87 61q-35 -43 -76.5 -61t-102.5 -18q-121 0 -188 70.5
t-67 197.5zM197 258q0 -78 26 -119t75 -41q50 0 76 41t26 117q0 77 -26 117.5t-76 40.5q-48 0 -74.5 -40.5t-26.5 -115.5zM556 305h212q-3 54 -29.5 83.5t-74.5 29.5q-47 0 -76 -30t-32 -83z" />
    <glyph glyph-name="Racute" unicode="&#x154;" horiz-adv-x="636" 
d="M82 692h250q65 0 105.5 -9t68.5 -30q32 -24 50 -62t18 -85q0 -66 -33.5 -111.5t-94.5 -63.5q21 -9 35 -24.5t28 -42.5t34 -70l87 -194h-166l-56 132q-24 60 -43 91t-39.5 43t-51.5 13h-36v-279h-156v692zM418 488q0 37 -16.5 55.5t-45.5 25t-68 6.5h-54v-179h54
q130 0 130 92zM339 901h180l-161 -146h-139z" />
    <glyph glyph-name="racute" unicode="&#x155;" horiz-adv-x="418" 
d="M80 340q0 12 -0.5 35t-1.5 49.5t-1.5 50.5t-1.5 37h143l5 -98q38 105 129 105q15 0 25.5 -1.5t25.5 -6.5l-7 -130q-16 4 -27 5t-23 1q-44 0 -74 -28.5t-42 -81.5v-277h-150v340zM261 731h180l-161 -146h-139z" />
    <glyph glyph-name="uni0156" unicode="&#x156;" horiz-adv-x="636" 
d="M82 692h250q65 0 105.5 -9t68.5 -30q32 -24 50 -62t18 -85q0 -66 -33.5 -111.5t-94.5 -63.5q21 -9 35 -24.5t28 -42.5t34 -70l87 -194h-166l-56 132q-24 60 -43 91t-39.5 43t-51.5 13h-36v-279h-156v692zM418 488q0 37 -16.5 55.5t-45.5 25t-68 6.5h-54v-179h54
q130 0 130 92zM275 -53h166l-145 -153h-138z" />
    <glyph glyph-name="uni0157" unicode="&#x157;" horiz-adv-x="418" 
d="M80 340q0 12 -0.5 35t-1.5 49.5t-1.5 50.5t-1.5 37h143l5 -98q38 105 129 105q15 0 25.5 -1.5t25.5 -6.5l-7 -130q-16 4 -27 5t-23 1q-44 0 -74 -28.5t-42 -81.5v-277h-150v340zM99 -53h166l-145 -153h-138z" />
    <glyph glyph-name="Rcaron" unicode="&#x158;" horiz-adv-x="636" 
d="M82 692h250q65 0 105.5 -9t68.5 -30q32 -24 50 -62t18 -85q0 -66 -33.5 -111.5t-94.5 -63.5q21 -9 35 -24.5t28 -42.5t34 -70l87 -194h-166l-56 132q-24 60 -43 91t-39.5 43t-51.5 13h-36v-279h-156v692zM418 488q0 37 -16.5 55.5t-45.5 25t-68 6.5h-54v-179h54
q130 0 130 92zM316 815l68 86h140l-119 -146h-178l-119 146h140z" />
    <glyph glyph-name="rcaron" unicode="&#x159;" horiz-adv-x="418" 
d="M80 340q0 12 -0.5 35t-1.5 49.5t-1.5 50.5t-1.5 37h143l5 -98q38 105 129 105q15 0 25.5 -1.5t25.5 -6.5l-7 -130q-16 4 -27 5t-23 1q-44 0 -74 -28.5t-42 -81.5v-277h-150v340zM239 645l68 86h140l-119 -146h-178l-119 146h140z" />
    <glyph glyph-name="Sacute" unicode="&#x15a;" horiz-adv-x="578" 
d="M371 192q0 20 -8.5 33.5t-35.5 28t-83 36.5q-65 27 -109 50.5t-66 57.5t-22 90q0 103 66.5 159.5t175.5 56.5q53 0 105 -9t116 -29l-32 -126q-46 17 -76.5 26t-53.5 12.5t-49 3.5q-43 0 -67 -19.5t-24 -53.5q0 -18 8 -30.5t33 -26t76 -34.5q56 -23 95.5 -42t64.5 -40.5
t37 -52.5t12 -78q0 -106 -65.5 -161.5t-190.5 -55.5q-66 0 -119.5 9t-112.5 30l22 133q66 -28 111.5 -39t90.5 -11q47 0 74 22t27 60zM343 901h180l-161 -146h-139z" />
    <glyph glyph-name="sacute" unicode="&#x15b;" horiz-adv-x="484" 
d="M297 147q0 28 -26.5 39t-76.5 27q-49 17 -82 34t-50 43.5t-17 70.5q0 77 54.5 120t151.5 43q46 0 87.5 -8t96.5 -28l-37 -112q-37 20 -74 30.5t-68 10.5t-48.5 -12.5t-17.5 -33.5q0 -16 13 -25.5t51 -23.5q60 -19 102 -38.5t64.5 -48t22.5 -74.5q0 -56 -28 -95
t-76.5 -58.5t-111.5 -19.5q-107 0 -186 44l38 112q38 -25 72 -36.5t74 -11.5q72 0 72 51zM264 731h180l-161 -146h-139z" />
    <glyph glyph-name="Scircumflex" unicode="&#x15c;" horiz-adv-x="578" 
d="M371 192q0 20 -8.5 33.5t-35.5 28t-83 36.5q-65 27 -109 50.5t-66 57.5t-22 90q0 103 66.5 159.5t175.5 56.5q53 0 105 -9t116 -29l-32 -126q-46 17 -76.5 26t-53.5 12.5t-49 3.5q-43 0 -67 -19.5t-24 -53.5q0 -18 8 -30.5t33 -26t76 -34.5q56 -23 95.5 -42t64.5 -40.5
t37 -52.5t12 -78q0 -106 -65.5 -161.5t-190.5 -55.5q-66 0 -119.5 9t-112.5 30l22 133q66 -28 111.5 -39t90.5 -11q47 0 74 22t27 60zM320 841l-68 -86h-140l119 146h178l119 -146h-140z" />
    <glyph glyph-name="scircumflex" unicode="&#x15d;" horiz-adv-x="484" 
d="M297 147q0 28 -26.5 39t-76.5 27q-49 17 -82 34t-50 43.5t-17 70.5q0 77 54.5 120t151.5 43q46 0 87.5 -8t96.5 -28l-37 -112q-37 20 -74 30.5t-68 10.5t-48.5 -12.5t-17.5 -33.5q0 -16 13 -25.5t51 -23.5q60 -19 102 -38.5t64.5 -48t22.5 -74.5q0 -56 -28 -95
t-76.5 -58.5t-111.5 -19.5q-107 0 -186 44l38 112q38 -25 72 -36.5t74 -11.5q72 0 72 51zM242 671l-68 -86h-140l119 146h178l119 -146h-140z" />
    <glyph glyph-name="Scedilla" unicode="&#x15e;" horiz-adv-x="578" 
d="M371 192q0 20 -8.5 33.5t-35.5 28t-83 36.5q-65 27 -109 50.5t-66 57.5t-22 90q0 103 66.5 159.5t175.5 56.5q53 0 105 -9t116 -29l-32 -126q-46 17 -76.5 26t-53.5 12.5t-49 3.5q-43 0 -67 -19.5t-24 -53.5q0 -18 8 -30.5t33 -26t76 -34.5q56 -23 95.5 -42t64.5 -40.5
t37 -52.5t12 -78q0 -106 -65.5 -161.5t-190.5 -55.5q-66 0 -119.5 9t-112.5 30l22 133q66 -28 111.5 -39t90.5 -11q47 0 74 22t27 60zM329 -118q0 26 -39 26q-13 0 -24 -2t-26 -7l21 108h68l-7 -41q5 1 8 1h5q51 0 81.5 -22t30.5 -60q0 -59 -41.5 -82.5t-106.5 -23.5
q-34 0 -79 6l5 67q20 -4 38 -4q31 0 48.5 7.5t17.5 26.5z" />
    <glyph glyph-name="scedilla" unicode="&#x15f;" horiz-adv-x="484" 
d="M297 147q0 28 -26.5 39t-76.5 27q-49 17 -82 34t-50 43.5t-17 70.5q0 77 54.5 120t151.5 43q46 0 87.5 -8t96.5 -28l-37 -112q-37 20 -74 30.5t-68 10.5t-48.5 -12.5t-17.5 -33.5q0 -16 13 -25.5t51 -23.5q60 -19 102 -38.5t64.5 -48t22.5 -74.5q0 -56 -28 -95
t-76.5 -58.5t-111.5 -19.5q-107 0 -186 44l38 112q38 -25 72 -36.5t74 -11.5q72 0 72 51zM272 -118q0 26 -39 26q-13 0 -24 -2t-26 -7l22 108h68l-8 -41q5 1 8 1h5q51 0 81.5 -22t30.5 -60q0 -59 -41.5 -82.5t-106.5 -23.5q-34 0 -79 6l5 67q20 -4 38 -4q31 0 48.5 7.5
t17.5 26.5z" />
    <glyph glyph-name="Scaron" unicode="&#x160;" horiz-adv-x="578" 
d="M371 192q0 20 -8.5 33.5t-35.5 28t-83 36.5q-65 27 -109 50.5t-66 57.5t-22 90q0 103 66.5 159.5t175.5 56.5q53 0 105 -9t116 -29l-32 -126q-46 17 -76.5 26t-53.5 12.5t-49 3.5q-43 0 -67 -19.5t-24 -53.5q0 -18 8 -30.5t33 -26t76 -34.5q56 -23 95.5 -42t64.5 -40.5
t37 -52.5t12 -78q0 -106 -65.5 -161.5t-190.5 -55.5q-66 0 -119.5 9t-112.5 30l22 133q66 -28 111.5 -39t90.5 -11q47 0 74 22t27 60zM320 815l68 86h140l-119 -146h-178l-119 146h140z" />
    <glyph glyph-name="scaron" unicode="&#x161;" horiz-adv-x="484" 
d="M297 147q0 28 -26.5 39t-76.5 27q-49 17 -82 34t-50 43.5t-17 70.5q0 77 54.5 120t151.5 43q46 0 87.5 -8t96.5 -28l-37 -112q-37 20 -74 30.5t-68 10.5t-48.5 -12.5t-17.5 -33.5q0 -16 13 -25.5t51 -23.5q60 -19 102 -38.5t64.5 -48t22.5 -74.5q0 -56 -28 -95
t-76.5 -58.5t-111.5 -19.5q-107 0 -186 44l38 112q38 -25 72 -36.5t74 -11.5q72 0 72 51zM242 645l68 86h140l-119 -146h-178l-119 146h140z" />
    <glyph glyph-name="uni0162" unicode="&#x162;" horiz-adv-x="570" 
d="M207 570h-200v122h556v-122h-200v-570h-156v570zM324 -118q0 26 -39 26q-13 0 -24 -2t-26 -7l21 108h68l-7 -41q5 1 8 1h5q51 0 81.5 -22t30.5 -60q0 -59 -41.5 -82.5t-106.5 -23.5q-34 0 -79 6l5 67q20 -4 38 -4q31 0 48.5 7.5t17.5 26.5z" />
    <glyph glyph-name="uni0163" unicode="&#x163;" horiz-adv-x="397" 
d="M106 196v206h-82v110h82v110l151 28v-138h113v-110h-113v-206q0 -49 15.5 -69t51.5 -20q12 0 23.5 2.5t30.5 7.5l13 -111q-63 -18 -124 -18q-66 0 -100.5 23.5t-47.5 70t-13 114.5zM260 -118q0 26 -39 26q-13 0 -24 -2t-26 -7l22 108h68l-8 -41q5 1 8 1h5q51 0 81.5 -22
t30.5 -60q0 -59 -41.5 -82.5t-106.5 -23.5q-34 0 -79 6l5 67q20 -4 38 -4q31 0 48.5 7.5t17.5 26.5z" />
    <glyph glyph-name="Tcaron" unicode="&#x164;" horiz-adv-x="570" 
d="M207 570h-200v122h556v-122h-200v-570h-156v570zM287 815l68 86h140l-119 -146h-178l-119 146h140z" />
    <glyph glyph-name="tcaron" unicode="&#x165;" horiz-adv-x="397" 
d="M106 196v206h-82v110h82v110l151 28v-138h113v-110h-113v-206q0 -49 15.5 -69t51.5 -20q12 0 23.5 2.5t30.5 7.5l13 -111q-63 -18 -124 -18q-66 0 -100.5 23.5t-47.5 70t-13 114.5zM384 781h144l-92 -213h-117z" />
    <glyph glyph-name="Tbar" unicode="&#x166;" horiz-adv-x="570" 
d="M101 417h106v153h-200v122h556v-122h-200v-153h107v-116h-107v-301h-156v301h-106v116z" />
    <glyph glyph-name="tbar" unicode="&#x167;" horiz-adv-x="397" 
d="M106 196v97h-86l2 87h84v47h-82v85h82v110l151 28v-138h113v-85h-113v-47h113v-87h-113v-97q0 -49 15.5 -69t51.5 -20q12 0 23.5 2.5t30.5 7.5l13 -111q-63 -18 -124 -18q-66 0 -100.5 23.5t-47.5 70t-13 114.5z" />
    <glyph glyph-name="Utilde" unicode="&#x168;" horiz-adv-x="721" 
d="M76 309v383h156v-402q0 -104 22 -134q15 -21 43.5 -33.5t63.5 -12.5q40 0 71.5 15t44.5 40q17 32 17 125v402h151v-383q0 -72 -3 -114.5t-12 -69t-27 -49.5q-67 -88 -242 -88q-187 0 -250 99q-14 22 -21.5 47.5t-10.5 66.5t-3 108zM193.5 864.5q28.5 37.5 73.5 37.5
q17 0 41 -5t59 -17q38 -13 50 -16t25 -3q18 0 26 9t11 31h82q-4 -63 -32.5 -100.5t-73.5 -37.5q-31 0 -100 22q-37 12 -49.5 15.5t-25.5 3.5q-18 0 -26 -8.5t-11 -31.5h-82q4 63 32.5 100.5z" />
    <glyph glyph-name="utilde" unicode="&#x169;" horiz-adv-x="635" 
d="M75 195v317h151v-305q0 -49 12.5 -78t55.5 -29q58 0 110 80v332h151v-322q0 -35 0.5 -60t1.5 -53.5t3 -76.5h-139l-5 71q-45 -46 -83.5 -64.5t-91.5 -18.5q-64 0 -100.5 24.5t-51 71t-14.5 111.5zM150.5 687.5q28.5 37.5 73.5 37.5q17 0 41 -5t59 -17q38 -13 50 -16
t25 -3q18 0 26 9t11 31h82q-4 -63 -32.5 -100.5t-73.5 -37.5q-31 0 -100 22q-37 12 -49.5 15.5t-25.5 3.5q-18 0 -26 -8.5t-11 -31.5h-82q4 63 32.5 100.5z" />
    <glyph glyph-name="Umacron" unicode="&#x16a;" horiz-adv-x="721" 
d="M76 309v383h156v-402q0 -104 22 -134q15 -21 43.5 -33.5t63.5 -12.5q40 0 71.5 15t44.5 40q17 32 17 125v402h151v-383q0 -72 -3 -114.5t-12 -69t-27 -49.5q-67 -88 -242 -88q-187 0 -250 99q-14 22 -21.5 47.5t-10.5 66.5t-3 108zM179 870h364v-88h-364v88z" />
    <glyph glyph-name="umacron" unicode="&#x16b;" horiz-adv-x="635" 
d="M75 195v317h151v-305q0 -49 12.5 -78t55.5 -29q58 0 110 80v332h151v-322q0 -35 0.5 -60t1.5 -53.5t3 -76.5h-139l-5 71q-45 -46 -83.5 -64.5t-91.5 -18.5q-64 0 -100.5 24.5t-51 71t-14.5 111.5zM136 702h364v-88h-364v88z" />
    <glyph glyph-name="Ubreve" unicode="&#x16c;" horiz-adv-x="721" 
d="M76 309v383h156v-402q0 -104 22 -134q15 -21 43.5 -33.5t63.5 -12.5q40 0 71.5 15t44.5 40q17 32 17 125v402h151v-383q0 -72 -3 -114.5t-12 -69t-27 -49.5q-67 -88 -242 -88q-187 0 -250 99q-14 22 -21.5 47.5t-10.5 66.5t-3 108zM182 913h82q3 -38 23.5 -52t73.5 -14
t73.5 14t23.5 52h82q0 -87 -43.5 -124t-135.5 -37q-91 0 -135 37t-44 124z" />
    <glyph glyph-name="ubreve" unicode="&#x16d;" horiz-adv-x="635" 
d="M75 195v317h151v-305q0 -49 12.5 -78t55.5 -29q58 0 110 80v332h151v-322q0 -35 0.5 -60t1.5 -53.5t3 -76.5h-139l-5 71q-45 -46 -83.5 -64.5t-91.5 -18.5q-64 0 -100.5 24.5t-51 71t-14.5 111.5zM139 731h82q3 -38 23.5 -52t73.5 -14t73.5 14t23.5 52h82
q0 -87 -43.5 -124t-135.5 -37q-91 0 -135 37t-44 124z" />
    <glyph glyph-name="Uring" unicode="&#x16e;" horiz-adv-x="721" 
d="M76 309v383h156v-402q0 -104 22 -134q15 -21 43.5 -33.5t63.5 -12.5q40 0 71.5 15t44.5 40q17 32 17 125v402h151v-383q0 -72 -3 -114.5t-12 -69t-27 -49.5q-67 -88 -242 -88q-187 0 -250 99q-14 22 -21.5 47.5t-10.5 66.5t-3 108zM246 830q0 47 33 79t82 32
q50 0 82.5 -32t32.5 -81t-32.5 -81t-82.5 -32t-82.5 32t-32.5 83zM317 828q0 -48 44 -48t44 48t-44 48q-20 0 -32 -12.5t-12 -35.5z" />
    <glyph glyph-name="uring" unicode="&#x16f;" horiz-adv-x="635" 
d="M75 195v317h151v-305q0 -49 12.5 -78t55.5 -29q58 0 110 80v332h151v-322q0 -35 0.5 -60t1.5 -53.5t3 -76.5h-139l-5 71q-45 -46 -83.5 -64.5t-91.5 -18.5q-64 0 -100.5 24.5t-51 71t-14.5 111.5zM203 680q0 47 33 79t82 32q50 0 82.5 -32t32.5 -81t-32.5 -81t-82.5 -32
t-82.5 32t-32.5 83zM274 678q0 -48 44 -48t44 48t-44 48q-20 0 -32 -12.5t-12 -35.5z" />
    <glyph glyph-name="Uhungarumlaut" unicode="&#x170;" horiz-adv-x="721" 
d="M76 309v383h156v-402q0 -104 22 -134q15 -21 43.5 -33.5t63.5 -12.5q40 0 71.5 15t44.5 40q17 32 17 125v402h151v-383q0 -72 -3 -114.5t-12 -69t-27 -49.5q-67 -88 -242 -88q-187 0 -250 99q-14 22 -21.5 47.5t-10.5 66.5t-3 108zM284 901h180l-161 -146h-139zM518 901
h180l-163 -146h-136z" />
    <glyph glyph-name="uhungarumlaut" unicode="&#x171;" horiz-adv-x="635" 
d="M75 195v317h151v-305q0 -49 12.5 -78t55.5 -29q58 0 110 80v332h151v-322q0 -35 0.5 -60t1.5 -53.5t3 -76.5h-139l-5 71q-45 -46 -83.5 -64.5t-91.5 -18.5q-64 0 -100.5 24.5t-51 71t-14.5 111.5zM241 731h180l-161 -146h-139zM475 731h180l-163 -146h-136z" />
    <glyph glyph-name="Uogonek" unicode="&#x172;" horiz-adv-x="721" 
d="M76 309v383h156v-402q0 -104 22 -134q15 -21 43.5 -33.5t63.5 -12.5q40 0 71.5 15t44.5 40q17 32 17 125v402h151v-383q0 -72 -3 -114.5t-12 -69t-27 -49.5q-67 -88 -242 -88q-187 0 -250 99q-14 22 -21.5 47.5t-10.5 66.5t-3 108zM246 -120q0 35 24 68t64 52h141
q-53 -9 -82 -34t-29 -62q0 -26 18 -41t49 -15q21 0 37 6l5 -67q-23 -4 -40 -6t-30 -2q-157 0 -157 101z" />
    <glyph glyph-name="uogonek" unicode="&#x173;" horiz-adv-x="635" 
d="M75 195v317h151v-305q0 -49 12.5 -78t55.5 -29q58 0 110 80v332h151v-322q0 -35 0.5 -60t1.5 -53.5t3 -76.5h-139l-5 71q-45 -46 -83.5 -64.5t-91.5 -18.5q-64 0 -100.5 24.5t-51 71t-14.5 111.5zM332 -120q0 41 35 82.5t93 66.5l100 -29q-50 0 -80 -28t-30 -68
q0 -26 18 -41t49 -15q11 0 19 1t18 5l5 -67q-21 -4 -38.5 -6t-31.5 -2q-157 0 -157 101z" />
    <glyph glyph-name="Wcircumflex" unicode="&#x174;" horiz-adv-x="979" 
d="M706.5 270.5q3.5 17.5 7 33.5t8.5 37t13 53l71 298h147l-175 -692h-151l-86 301q-9 31 -16 55.5t-14.5 54.5t-19.5 75q-10 -37 -17.5 -65t-15.5 -55t-19 -61l-93 -305h-152l-168 692h153l71 -308q9 -39 14 -62.5t9.5 -45.5t11.5 -57q8 31 14 54.5t12.5 46.5t15.5 54
l93 318h150l84 -298q11 -38 17.5 -61t12 -45.5t14.5 -60.5q5 26 8.5 43.5zM490 841l-68 -86h-140l119 146h178l119 -146h-140z" />
    <glyph glyph-name="wcircumflex" unicode="&#x175;" horiz-adv-x="863" 
d="M259 167q12 49 20.5 83.5t20.5 74.5l57 187h149l60 -189q8 -27 14.5 -47.5t13.5 -44.5t16 -63q9 39 14.5 63t11 44t13.5 46l56 191h138l-157 -512h-148l-59 185q-12 38 -19.5 61.5t-14 48.5t-17.5 66q-7 -31 -14 -57t-14.5 -53.5t-19.5 -64.5l-57 -186h-150l-153 512h148
l54 -191q7 -26 13 -47.5t11.5 -46.5t12.5 -60zM432 671l-68 -86h-140l119 146h178l119 -146h-140z" />
    <glyph glyph-name="Ycircumflex" unicode="&#x176;" horiz-adv-x="661" 
d="M254 284l-264 408h181l114 -183q15 -25 25 -42.5t26 -47.5q16 32 26.5 50t25.5 41l113 182h170l-261 -408v-284h-156v284zM331 841l-68 -86h-140l119 146h178l119 -146h-140z" />
    <glyph glyph-name="ycircumflex" unicode="&#x177;" horiz-adv-x="577" 
d="M30 -90q40 -17 69 -17q24 0 42.5 11t35.5 38t37 77l-210 493h160l91 -224q10 -24 16 -40t12.5 -33t15.5 -44q8 24 13 38.5t9 25.5t9 24.5t13 35.5l82 217h149l-206 -499q-25 -61 -46.5 -106t-47 -75t-59.5 -44.5t-85 -14.5q-34 0 -65 6t-61 17zM289 671l-68 -86h-140
l119 146h178l119 -146h-140z" />
    <glyph glyph-name="Ydieresis" unicode="&#x178;" horiz-adv-x="661" 
d="M254 284l-264 408h181l114 -183q15 -25 25 -42.5t26 -47.5q16 32 26.5 50t25.5 41l113 182h170l-261 -408v-284h-156v284zM134 835q0 37 24.5 61t61.5 24q38 0 62 -24t24 -62q0 -37 -24 -61.5t-62 -24.5t-62 24.5t-24 62.5zM380.5 896q24.5 24 61.5 24q38 0 62 -24
t24 -62q0 -37 -24 -61.5t-62 -24.5t-62 24.5t-24 62.5q0 37 24.5 61z" />
    <glyph glyph-name="Zacute" unicode="&#x179;" horiz-adv-x="596" 
d="M26 110l338 460h-326v122h520v-110l-338 -460h350v-122h-544v110zM321 901h180l-161 -146h-139z" />
    <glyph glyph-name="zacute" unicode="&#x17a;" horiz-adv-x="480" 
d="M26 95l230 307h-217v110h405v-99l-227 -303h235v-110h-426v95zM261 731h180l-161 -146h-139z" />
    <glyph glyph-name="Zdotaccent" unicode="&#x17b;" horiz-adv-x="596" 
d="M26 110l338 460h-326v122h520v-110l-338 -460h350v-122h-544v110zM212 835q0 37 24.5 61t61.5 24q38 0 62 -24t24 -62q0 -37 -24 -61.5t-62 -24.5t-62 24.5t-24 62.5z" />
    <glyph glyph-name="zdotaccent" unicode="&#x17c;" horiz-adv-x="480" 
d="M26 95l230 307h-217v110h405v-99l-227 -303h235v-110h-426v95zM151 667q0 38 25 62.5t63 24.5t62.5 -25t24.5 -63t-24.5 -63t-62.5 -25q-39 0 -63.5 25t-24.5 64z" />
    <glyph glyph-name="Zcaron" unicode="&#x17d;" horiz-adv-x="596" 
d="M26 110l338 460h-326v122h520v-110l-338 -460h350v-122h-544v110zM298 815l68 86h140l-119 -146h-178l-119 146h140z" />
    <glyph glyph-name="zcaron" unicode="&#x17e;" horiz-adv-x="480" 
d="M26 95l230 307h-217v110h405v-99l-227 -303h235v-110h-426v95zM239 645l68 86h140l-119 -146h-178l-119 146h140z" />
    <glyph glyph-name="longs" unicode="&#x17f;" horiz-adv-x="397" 
d="M105 402h-81v110h81v23q0 109 43 159t136 50q51 0 111 -17l-12 -114q-21 8 -33.5 10.5t-26.5 2.5q-35 0 -51 -25t-16 -81v-520h-151v402z" />
    <glyph glyph-name="uni018E" unicode="&#x18e;" horiz-adv-x="586" 
d="M51 122h297v168h-268v122h268v158h-282v122h438v-692h-453v122z" />
    <glyph glyph-name="uni018F" unicode="&#x18f;" horiz-adv-x="680" 
d="M51 393h420q-8 92 -49 140.5t-136 48.5q-81 0 -162 -45l-52 118q62 27 111.5 38t111.5 11q125 0 199.5 -43.5t107 -124.5t32.5 -193q0 -167 -79 -261t-220 -94q-148 0 -216 102t-68 303zM334 110q119 0 136 161h-259q7 -161 123 -161z" />
    <glyph glyph-name="florin" unicode="&#x192;" horiz-adv-x="632" 
d="M121 407h107l12 64q15 78 36.5 129t61.5 76.5t110 25.5q62 0 138 -27l-31 -109q-25 9 -42.5 13t-35.5 4q-24 0 -39.5 -11t-26 -41t-21.5 -87l-7 -37h127v-107h-147l-32 -165q-16 -87 -37.5 -143.5t-61.5 -84t-115 -27.5q-72 0 -138 26l29 113q46 -20 81 -20
q24 0 39.5 13.5t27.5 48.5t24 98l27 141h-86v107z" />
    <glyph glyph-name="Ohorn" unicode="&#x1a0;" horiz-adv-x="787" 
d="M46 350q0 105 39.5 185t114 124.5t179.5 44.5q67 0 121.5 -18.5t95.5 -52.5q8 -1 14 -1h13q34 0 43.5 10t9.5 45v72h107v-84q0 -64 -27 -95.5t-86 -37.5q43 -82 43 -192q0 -107 -38 -188.5t-112.5 -127.5t-183.5 -46q-108 0 -182.5 46t-112.5 127.5t-38 188.5zM207 349
q0 -111 46.5 -175t125.5 -64q80 0 126.5 64t46.5 175q0 107 -46.5 170t-126.5 63q-79 0 -125.5 -63t-46.5 -170z" />
    <glyph glyph-name="ohorn" unicode="&#x1a1;" horiz-adv-x="609" 
d="M41 259q0 125 68.5 195t194.5 70q122 0 192 -67q8 -1 13 -1h11q34 0 43.5 10t9.5 44v73h107v-85q0 -128 -120 -132h-8q16 -48 16 -107q0 -125 -66.5 -198t-197.5 -73q-130 0 -196.5 73t-66.5 198zM197 258q0 -78 27.5 -119t79.5 -41t80 41t28 119q0 75 -28.5 115.5
t-79.5 40.5t-79 -40.5t-28 -115.5z" />
    <glyph glyph-name="Uhorn" unicode="&#x1af;" horiz-adv-x="721" 
d="M76 309v383h156v-402q0 -104 22 -134q15 -21 43.5 -33.5t63.5 -12.5q40 0 71.5 15t44.5 40q17 32 17 125v402h151v-60q24 1 32 12t8 43v72h107v-84q0 -68 -31 -100.5t-96 -32.5h-10h-10v-233q0 -72 -3 -115t-12 -69t-27 -49q-67 -88 -242 -88q-187 0 -250 99
q-14 22 -21.5 47.5t-10.5 66.5t-3 108z" />
    <glyph glyph-name="uhorn" unicode="&#x1b0;" horiz-adv-x="704" 
d="M75 195v317h151v-305q0 -49 12.5 -78t55.5 -29q58 0 110 80v332h151v-56q32 0 41.5 10t9.5 44v73h107v-85q0 -64 -29 -98t-91 -34h-14t-24 1v-177q0 -35 0.5 -60t1.5 -53.5t3 -76.5h-139l-5 71q-45 -46 -83.5 -64.5t-91.5 -18.5q-64 0 -100.5 24.5t-51 71t-14.5 111.5z
" />
    <glyph glyph-name="uni01C4" unicode="&#x1c4;" horiz-adv-x="1308" 
d="M82 692h192q76 0 130 -8t94 -26t72 -48q96 -88 96 -264q0 -211 -132 -294q-31 -19 -67.5 -30.5t-85.5 -16.5t-118 -5h-181v692zM505 348q0 56 -17 104t-47 74q-19 17 -40.5 26.5t-52.5 13.5t-80 4h-30v-448h30q107 0 158 35q38 25 58.5 75t20.5 116zM738 110l338 460
h-326v122h520v-110l-338 -460h350v-122h-544v110zM1010 815l68 86h140l-119 -146h-178l-119 146h140z" />
    <glyph glyph-name="uni01C5" unicode="&#x1c5;" horiz-adv-x="1192" 
d="M82 692h192q76 0 130 -8t94 -26t72 -48q96 -88 96 -264q0 -211 -132 -294q-31 -19 -67.5 -30.5t-85.5 -16.5t-118 -5h-181v692zM505 348q0 56 -17 104t-47 74q-19 17 -40.5 26.5t-52.5 13.5t-80 4h-30v-448h30q107 0 158 35q38 25 58.5 75t20.5 116zM738 95l230 307h-217
v110h405v-99l-227 -303h235v-110h-426v95zM951 645l68 86h140l-119 -146h-178l-119 146h140z" />
    <glyph glyph-name="uni01C6" unicode="&#x1c6;" horiz-adv-x="1106" 
d="M41 253q0 126 56.5 198.5t153.5 72.5q45 0 82 -17t67 -55v279h151v-555q0 -52 0.5 -82.5t1.5 -51t3 -42.5h-146l-5 71q-29 -44 -66.5 -63.5t-90.5 -19.5q-70 0 -116 36t-68.5 96.5t-22.5 132.5zM197 253q0 -70 27 -111.5t72 -41.5q55 0 104 77v153q-22 39 -50.5 60.5
t-59.5 21.5q-41 0 -67 -44t-26 -115zM652 95l230 307h-217v110h405v-99l-227 -303h235v-110h-426v95zM865 645l68 86h140l-119 -146h-178l-119 146h140z" />
    <glyph glyph-name="uni01C7" unicode="&#x1c7;" horiz-adv-x="986" 
d="M82 692h156v-570h297v-122h-453v692zM754 250v442h156v-408q0 -73 -3 -115t-12 -67t-27 -47q-52 -67 -173 -67q-74 0 -130 21l13 128q28 -13 48 -18t40 -5q57 0 72.5 34t15.5 102z" />
    <glyph glyph-name="uni01C8" unicode="&#x1c8;" horiz-adv-x="853" 
d="M82 692h156v-570h297v-122h-453v692zM624 14v498h151v-509q0 -68 -7.5 -106t-27.5 -65q-44 -59 -143 -59q-49 0 -106 15l12 112q36 -11 56 -11q36 0 50.5 27.5t14.5 97.5zM612 667q0 38 25 62.5t63 24.5t62.5 -25t24.5 -63t-24.5 -63t-62.5 -25q-39 0 -63.5 25t-24.5 64z
" />
    <glyph glyph-name="uni01C9" unicode="&#x1c9;" horiz-adv-x="583" 
d="M79 731h151v-731h-151v731zM354 14v498h151v-509q0 -68 -7.5 -106t-27.5 -65q-44 -59 -143 -59q-49 0 -106 15l12 112q36 -11 56 -11q36 0 50.5 27.5t14.5 97.5zM342 667q0 38 25 62.5t63 24.5t62.5 -25t24.5 -63t-24.5 -63t-62.5 -25q-39 0 -63.5 25t-24.5 64z" />
    <glyph glyph-name="uni01CA" unicode="&#x1ca;" horiz-adv-x="1177" 
d="M82 692h172l184 -311q19 -32 32.5 -57t26 -50t26.5 -56q-1 19 -2 35t-1 38v59v342h150v-692h-169l-173 290q-24 39 -39 66.5t-28.5 54.5t-31.5 65q1 -29 2 -49.5t1 -46v-70.5v-310h-150v692zM945 250v442h156v-408q0 -73 -3 -115t-12 -67t-27 -47q-52 -67 -173 -67
q-74 0 -130 21l13 128q28 -13 48 -18t40 -5q57 0 72.5 34t15.5 102z" />
    <glyph glyph-name="uni01CB" unicode="&#x1cb;" horiz-adv-x="1057" 
d="M82 692h172l184 -311q19 -32 32.5 -57t26 -50t26.5 -56q-1 19 -2 35t-1 38v59v342h150v-692h-169l-173 290q-24 39 -39 66.5t-28.5 54.5t-31.5 65q1 -29 2 -49.5t1 -46v-70.5v-310h-150v692zM828 14v498h151v-509q0 -68 -7.5 -106t-27.5 -65q-44 -59 -143 -59
q-49 0 -106 15l12 112q36 -11 56 -11q36 0 50.5 27.5t14.5 97.5zM816 667q0 38 25 62.5t63 24.5t62.5 -25t24.5 -63t-24.5 -63t-62.5 -25q-39 0 -63.5 25t-24.5 64z" />
    <glyph glyph-name="uni01CC" unicode="&#x1cc;" horiz-adv-x="924" 
d="M80 322q0 31 -0.5 56.5t-1.5 56.5t-3 77h139l5 -71q46 47 84.5 65t93.5 18q65 0 101.5 -24.5t51.5 -70.5t15 -112v-317h-151v305q0 49 -13 78t-57 29q-60 0 -113 -80v-332h-151v322zM695 14v498h151v-509q0 -68 -7.5 -106t-27.5 -65q-44 -59 -143 -59q-49 0 -106 15
l12 112q36 -11 56 -11q36 0 50.5 27.5t14.5 97.5zM683 667q0 38 25 62.5t63 24.5t62.5 -25t24.5 -63t-24.5 -63t-62.5 -25q-39 0 -63.5 25t-24.5 64z" />
    <glyph glyph-name="uni01CD" unicode="&#x1cd;" horiz-adv-x="712" 
d="M482 165h-262l-59 -165h-155l264 692h163l273 -692h-165zM350 539q-6 -21 -9.5 -34t-9 -28.5t-16.5 -44.5l-53 -150h178l-54 150q-7 21 -12 35t-10.5 29.5t-13.5 42.5zM356 815l68 86h140l-119 -146h-178l-119 146h140z" />
    <glyph glyph-name="uni01CE" unicode="&#x1ce;" horiz-adv-x="589" 
d="M32 146q0 94 72 139q26 16 65 23.5t97 7.5q21 0 42 -1t49 -3v6q0 47 -29.5 73.5t-82.5 26.5q-33 0 -66 -9.5t-77 -31.5l-29 106q46 21 94.5 31t100.5 10q129 0 191 -65q20 -20 30.5 -42.5t14.5 -55.5t4 -86v-142q0 -49 2 -82.5t4 -50.5h-145l-5 57q-38 -39 -74.5 -54
t-88.5 -15q-79 0 -124 42t-45 116zM188 150q0 -31 18.5 -49.5t48.5 -18.5q57 0 102 66v80l-28.5 1.5t-20.5 0.5q-120 0 -120 -80zM273 645l68 86h140l-119 -146h-178l-119 146h140z" />
    <glyph glyph-name="uni01CF" unicode="&#x1cf;" horiz-adv-x="320" 
d="M82 692h156v-692h-156v692zM160 815l68 86h140l-119 -146h-178l-119 146h140z" />
    <glyph glyph-name="uni01D0" unicode="&#x1d0;" horiz-adv-x="305" 
d="M77 512h151v-512h-151v512zM153 645l68 86h140l-119 -146h-178l-119 146h140z" />
    <glyph glyph-name="uni01D1" unicode="&#x1d1;" horiz-adv-x="759" 
d="M46 350q0 105 39.5 185t114 124.5t179.5 44.5q106 0 180.5 -44.5t114 -124.5t39.5 -185q0 -107 -38 -188.5t-112.5 -127.5t-183.5 -46q-108 0 -182.5 46t-112.5 127.5t-38 188.5zM207 349q0 -111 46.5 -175t125.5 -64q80 0 126.5 64t46.5 175q0 107 -46.5 170t-126.5 63
q-79 0 -125.5 -63t-46.5 -170zM380 815l68 86h140l-119 -146h-178l-119 146h140z" />
    <glyph glyph-name="uni01D2" unicode="&#x1d2;" horiz-adv-x="609" 
d="M41 259q0 125 68.5 195t194.5 70t195 -70t69 -195t-66.5 -198t-197.5 -73q-130 0 -196.5 73t-66.5 198zM197 258q0 -78 27.5 -119t79.5 -41t80 41t28 119q0 75 -28.5 115.5t-79.5 40.5t-79 -40.5t-28 -115.5zM305 645l68 86h140l-119 -146h-178l-119 146h140z" />
    <glyph glyph-name="uni01D3" unicode="&#x1d3;" horiz-adv-x="721" 
d="M76 309v383h156v-402q0 -104 22 -134q15 -21 43.5 -33.5t63.5 -12.5q40 0 71.5 15t44.5 40q17 32 17 125v402h151v-383q0 -72 -3 -114.5t-12 -69t-27 -49.5q-67 -88 -242 -88q-187 0 -250 99q-14 22 -21.5 47.5t-10.5 66.5t-3 108zM361 815l68 86h140l-119 -146h-178
l-119 146h140z" />
    <glyph glyph-name="uni01D4" unicode="&#x1d4;" horiz-adv-x="635" 
d="M75 195v317h151v-305q0 -49 12.5 -78t55.5 -29q58 0 110 80v332h151v-322q0 -35 0.5 -60t1.5 -53.5t3 -76.5h-139l-5 71q-45 -46 -83.5 -64.5t-91.5 -18.5q-64 0 -100.5 24.5t-51 71t-14.5 111.5zM318 645l68 86h140l-119 -146h-178l-119 146h140z" />
    <glyph glyph-name="uni01DD" unicode="&#x1dd;" horiz-adv-x="600" 
d="M41 306h363q-8 52 -38 81t-97 29q-80 0 -163 -50l-51 107q50 26 102 38.5t114 12.5q143 0 216.5 -67.5t73.5 -198.5q0 -124 -69.5 -197t-194.5 -73q-184 0 -234 136q-8 24 -13 47t-7 54.5t-2 80.5zM222 123.5q27 -29.5 73 -29.5q37 0 59.5 15.5t34 41.5t15.5 56h-211
q2 -54 29 -83.5z" />
    <glyph glyph-name="Gcaron" unicode="&#x1e6;" horiz-adv-x="734" 
d="M46 338q0 172 94.5 269t269.5 97q68 0 126 -11.5t116 -35.5l-53 -122q-52 26 -92 36.5t-87 10.5q-103 0 -158 -61.5t-55 -176.5q0 -107 55 -170.5t149 -63.5q48 0 90 16v139h-119v122h270v-353q-54 -18 -93 -28t-74.5 -14t-79.5 -4q-174 0 -266.5 92t-92.5 258zM391 815
l68 86h140l-119 -146h-178l-119 146h140z" />
    <glyph glyph-name="gcaron" unicode="&#x1e7;" horiz-adv-x="633" 
d="M401 52v32q-31 -37 -66 -53.5t-82 -16.5q-98 0 -155 68t-57 186q0 78 26 135.5t73.5 89t111.5 31.5q102 0 158 -77l4 65h144q-2 -46 -3 -79.5t-1.5 -61.5t-1.5 -60v-249q0 -61 -4 -99t-14 -62.5t-29 -47.5q-65 -80 -236 -80q-111 0 -203 38l40 109q38 -19 73.5 -28
t74.5 -9q60 0 91.5 18t43.5 55.5t12 95.5zM401 322q-14 41 -44 65.5t-66 24.5q-43 0 -68.5 -39t-25.5 -107q0 -65 25.5 -102.5t70.5 -37.5q32 0 60.5 22.5t47.5 62.5v111zM298 645l68 86h140l-119 -146h-178l-119 146h140z" />
    <glyph glyph-name="uni01F4" unicode="&#x1f4;" horiz-adv-x="734" 
d="M46 338q0 172 94.5 269t269.5 97q68 0 126 -11.5t116 -35.5l-53 -122q-52 26 -92 36.5t-87 10.5q-103 0 -158 -61.5t-55 -176.5q0 -107 55 -170.5t149 -63.5q48 0 90 16v139h-119v122h270v-353q-54 -18 -93 -28t-74.5 -14t-79.5 -4q-174 0 -266.5 92t-92.5 258zM414 901
h180l-161 -146h-139z" />
    <glyph glyph-name="uni01F5" unicode="&#x1f5;" horiz-adv-x="633" 
d="M401 52v32q-31 -37 -66 -53.5t-82 -16.5q-98 0 -155 68t-57 186q0 78 26 135.5t73.5 89t111.5 31.5q102 0 158 -77l4 65h144q-2 -46 -3 -79.5t-1.5 -61.5t-1.5 -60v-249q0 -61 -4 -99t-14 -62.5t-29 -47.5q-65 -80 -236 -80q-111 0 -203 38l40 109q38 -19 73.5 -28
t74.5 -9q60 0 91.5 18t43.5 55.5t12 95.5zM401 322q-14 41 -44 65.5t-66 24.5q-43 0 -68.5 -39t-25.5 -107q0 -65 25.5 -102.5t70.5 -37.5q32 0 60.5 22.5t47.5 62.5v111zM320 731h180l-161 -146h-139z" />
    <glyph glyph-name="Aringacute" unicode="&#x1fa;" horiz-adv-x="712" 
d="M482 165h-262l-59 -165h-155l264 692h163l273 -692h-165zM350 539q-6 -21 -9.5 -34t-9 -28.5t-16.5 -44.5l-53 -150h178l-54 150q-7 21 -12 35t-10.5 29.5t-13.5 42.5zM241 830q0 47 33 79t82 32q50 0 82.5 -32t32.5 -81t-32.5 -81t-82.5 -32t-82.5 32t-32.5 83zM312 828
q0 -48 44 -48t44 48t-44 48q-20 0 -32 -12.5t-12 -35.5zM379 1110h180l-161 -146h-139z" />
    <glyph glyph-name="aringacute" unicode="&#x1fb;" horiz-adv-x="589" 
d="M32 146q0 94 72 139q26 16 65 23.5t97 7.5q21 0 42 -1t49 -3v6q0 47 -29.5 73.5t-82.5 26.5q-33 0 -66 -9.5t-77 -31.5l-29 106q46 21 94.5 31t100.5 10q129 0 191 -65q20 -20 30.5 -42.5t14.5 -55.5t4 -86v-142q0 -49 2 -82.5t4 -50.5h-145l-5 57q-38 -39 -74.5 -54
t-88.5 -15q-79 0 -124 42t-45 116zM188 150q0 -31 18.5 -49.5t48.5 -18.5q57 0 102 66v80l-28.5 1.5t-20.5 0.5q-120 0 -120 -80zM158 680q0 47 33 79t82 32q50 0 82.5 -32t32.5 -81t-32.5 -81t-82.5 -32t-82.5 32t-32.5 83zM229 678q0 -48 44 -48t44 48t-44 48
q-20 0 -32 -12.5t-12 -35.5zM295 964h180l-161 -146h-139z" />
    <glyph glyph-name="AEacute" unicode="&#x1fc;" horiz-adv-x="947" 
d="M881 570h-282v-158h268v-122h-268v-168h297v-122h-453v164h-227l-85 -164h-175l392 692h533v-122zM443 584h-8l-158 -303h166v303zM555 901h180l-161 -146h-139z" />
    <glyph glyph-name="aeacute" unicode="&#x1fd;" horiz-adv-x="911" 
d="M32 146q0 66 30 103t83 52t121 15q22 0 40.5 -1t50.5 -3v6q0 46 -30.5 73t-82.5 27q-34 0 -67.5 -9.5t-74.5 -31.5l-29 106q91 41 195 41q120 0 184 -57q35 30 73.5 43.5t90.5 13.5q101 0 156.5 -35.5t77.5 -106t22 -176.5h-362q8 -55 39 -82.5t95 -27.5q80 0 163 50
l51 -107q-50 -26 -102.5 -38.5t-119.5 -12.5q-61 0 -102 8.5t-69 28t-50 51.5q-35 -49 -80 -68.5t-119 -19.5q-88 0 -136 40t-48 118zM188 150q0 -30 18.5 -49t47.5 -19q58 0 103 66v80q-19 2 -28.5 2h-20.5q-120 0 -120 -80zM691.5 388.5q-26.5 29.5 -73.5 29.5
q-50 0 -76.5 -30t-33.5 -83h212q-2 54 -28.5 83.5zM469 731h180l-161 -146h-139z" />
    <glyph glyph-name="Oslashacute" unicode="&#x1fe;" horiz-adv-x="759" 
d="M46 350q0 105 39.5 185t114 124.5t179.5 44.5q63 0 115 -16.5t93 -46.5l67 75l61 -55l-70 -79q68 -92 68 -232q0 -107 -38 -188.5t-112.5 -127.5t-183.5 -46q-64 0 -115.5 16.5t-91.5 46.5l-67 -75l-61 55l70 79q-68 94 -68 240zM207 349q0 -65 17 -116l268 301
q-45 48 -113 48q-79 0 -125.5 -63t-46.5 -170zM267 158q44 -48 112 -48q80 0 126.5 64t46.5 175q0 62 -16 110zM403 901h180l-161 -146h-139z" />
    <glyph glyph-name="oslashacute" unicode="&#x1ff;" horiz-adv-x="609" 
d="M41 259q0 125 68.5 195t194.5 70q100 0 166 -46l61 61l55 -56l-61 -61q43 -65 43 -163q0 -125 -66.5 -198t-197.5 -73q-103 0 -169 48l-63 -63l-55 56l65 65q-41 65 -41 165zM408 307l-177 -176q27 -33 73 -33q52 0 80 41t28 119q0 26 -4 49zM375 384q-27 30 -71 30
q-51 0 -79 -40.5t-28 -115.5q0 -26 3 -47zM327 731h180l-161 -146h-139z" />
    <glyph glyph-name="uni0200" unicode="&#x200;" horiz-adv-x="712" 
d="M482 165h-262l-59 -165h-155l264 692h163l273 -692h-165zM350 539q-6 -21 -9.5 -34t-9 -28.5t-16.5 -44.5l-53 -150h178l-54 150q-7 21 -12 35t-10.5 29.5t-13.5 42.5zM534 755h-139l-161 146h180zM299 755h-136l-163 146h180z" />
    <glyph glyph-name="uni0201" unicode="&#x201;" horiz-adv-x="589" 
d="M32 146q0 94 72 139q26 16 65 23.5t97 7.5q21 0 42 -1t49 -3v6q0 47 -29.5 73.5t-82.5 26.5q-33 0 -66 -9.5t-77 -31.5l-29 106q46 21 94.5 31t100.5 10q129 0 191 -65q20 -20 30.5 -42.5t14.5 -55.5t4 -86v-142q0 -49 2 -82.5t4 -50.5h-145l-5 57q-38 -39 -74.5 -54
t-88.5 -15q-79 0 -124 42t-45 116zM188 150q0 -31 18.5 -49.5t48.5 -18.5q57 0 102 66v80l-28.5 1.5t-20.5 0.5q-120 0 -120 -80zM471 585h-139l-161 146h180zM236 585h-136l-163 146h180z" />
    <glyph glyph-name="uni0218" unicode="&#x218;" horiz-adv-x="578" 
d="M371 192q0 20 -8.5 33.5t-35.5 28t-83 36.5q-65 27 -109 50.5t-66 57.5t-22 90q0 103 66.5 159.5t175.5 56.5q53 0 105 -9t116 -29l-32 -126q-46 17 -76.5 26t-53.5 12.5t-49 3.5q-43 0 -67 -19.5t-24 -53.5q0 -18 8 -30.5t33 -26t76 -34.5q56 -23 95.5 -42t64.5 -40.5
t37 -52.5t12 -78q0 -106 -65.5 -161.5t-190.5 -55.5q-66 0 -119.5 9t-112.5 30l22 133q66 -28 111.5 -39t90.5 -11q47 0 74 22t27 60zM227 -53h166l-145 -153h-138z" />
    <glyph glyph-name="uni0219" unicode="&#x219;" horiz-adv-x="484" 
d="M297 147q0 28 -26.5 39t-76.5 27q-49 17 -82 34t-50 43.5t-17 70.5q0 77 54.5 120t151.5 43q46 0 87.5 -8t96.5 -28l-37 -112q-37 20 -74 30.5t-68 10.5t-48.5 -12.5t-17.5 -33.5q0 -16 13 -25.5t51 -23.5q60 -19 102 -38.5t64.5 -48t22.5 -74.5q0 -56 -28 -95
t-76.5 -58.5t-111.5 -19.5q-107 0 -186 44l38 112q38 -25 72 -36.5t74 -11.5q72 0 72 51zM179 -53h166l-145 -153h-138z" />
    <glyph glyph-name="uni021A" unicode="&#x21a;" horiz-adv-x="570" 
d="M207 570h-200v122h556v-122h-200v-570h-156v570zM222 -53h166l-145 -153h-138z" />
    <glyph glyph-name="uni021B" unicode="&#x21b;" horiz-adv-x="397" 
d="M106 196v206h-82v110h82v110l151 28v-138h113v-110h-113v-206q0 -49 15.5 -69t51.5 -20q12 0 23.5 2.5t30.5 7.5l13 -111q-63 -18 -124 -18q-66 0 -100.5 23.5t-47.5 70t-13 114.5zM167 -53h166l-145 -153h-138z" />
    <glyph glyph-name="uni0226" unicode="&#x226;" horiz-adv-x="712" 
d="M482 165h-262l-59 -165h-155l264 692h163l273 -692h-165zM350 539q-6 -21 -9.5 -34t-9 -28.5t-16.5 -44.5l-53 -150h178l-54 150q-7 21 -12 35t-10.5 29.5t-13.5 42.5zM270 835q0 37 24.5 61t61.5 24q38 0 62 -24t24 -62q0 -37 -24 -61.5t-62 -24.5t-62 24.5t-24 62.5z
" />
    <glyph glyph-name="uni0227" unicode="&#x227;" horiz-adv-x="589" 
d="M32 146q0 94 72 139q26 16 65 23.5t97 7.5q21 0 42 -1t49 -3v6q0 47 -29.5 73.5t-82.5 26.5q-33 0 -66 -9.5t-77 -31.5l-29 106q46 21 94.5 31t100.5 10q129 0 191 -65q20 -20 30.5 -42.5t14.5 -55.5t4 -86v-142q0 -49 2 -82.5t4 -50.5h-145l-5 57q-38 -39 -74.5 -54
t-88.5 -15q-79 0 -124 42t-45 116zM188 150q0 -31 18.5 -49.5t48.5 -18.5q57 0 102 66v80l-28.5 1.5t-20.5 0.5q-120 0 -120 -80zM185 667q0 38 25 62.5t63 24.5t62.5 -25t24.5 -63t-24.5 -63t-62.5 -25q-39 0 -63.5 25t-24.5 64z" />
    <glyph glyph-name="uni0237" unicode="&#x237;" horiz-adv-x="322" 
d="M93 14v498h151v-509q0 -68 -7.5 -106t-27.5 -65q-44 -59 -143 -59q-49 0 -106 15l12 112q36 -11 56 -11q36 0 50.5 27.5t14.5 97.5z" />
    <glyph glyph-name="uni0259" unicode="&#x259;" horiz-adv-x="600" 
d="M41 306h362q-8 55 -39 82.5t-95 27.5q-80 0 -163 -50l-51 107q50 26 102 38.5t114 12.5q143 0 216.5 -67.5t73.5 -198.5q0 -124 -69.5 -197t-194.5 -73q-100 0 -156 35.5t-78 106.5t-22 176zM221.5 123.5q26.5 -29.5 73.5 -29.5q50 0 76.5 30t33.5 83h-212
q2 -54 28.5 -83.5z" />
    <glyph glyph-name="uni02B0" unicode="&#x2b0;" horiz-adv-x="373" 
d="M54 807h95v-149q22 22 41.5 30.5t46.5 8.5q61 0 84 -40q14 -22 14 -76v-176h-95v170q0 26 -8 37.5t-26 11.5q-28 0 -57 -37v-182h-95v402z" />
    <glyph glyph-name="uni02BB" unicode="&#x2bb;" horiz-adv-x="272" 
d="M168 448h-166l111 283h142z" />
    <glyph glyph-name="uni02BC" unicode="&#x2bc;" horiz-adv-x="253" 
d="M87 731h166l-112 -283h-141z" />
    <glyph glyph-name="circumflex" unicode="&#x2c6;" horiz-adv-x="500" 
d="M250 671l-68 -86h-140l119 146h178l119 -146h-140z" />
    <glyph glyph-name="caron" unicode="&#x2c7;" horiz-adv-x="500" 
d="M250 645l68 86h140l-119 -146h-178l-119 146h140z" />
    <glyph glyph-name="uni02C9" unicode="&#x2c9;" horiz-adv-x="500" 
d="M68 702h364v-88h-364v88z" />
    <glyph glyph-name="uni02CB" unicode="&#x2cb;" horiz-adv-x="500" 
d="M359 585h-139l-161 146h180z" />
    <glyph glyph-name="breve" unicode="&#x2d8;" horiz-adv-x="500" 
d="M71 731h82q3 -38 23.5 -52t73.5 -14t73.5 14t23.5 52h82q0 -87 -43.5 -124t-135.5 -37q-91 0 -135 37t-44 124z" />
    <glyph glyph-name="dotaccent" unicode="&#x2d9;" horiz-adv-x="500" 
d="M162 667q0 38 25 62.5t63 24.5t62.5 -25t24.5 -63t-24.5 -63t-62.5 -25q-39 0 -63.5 25t-24.5 64z" />
    <glyph glyph-name="ring" unicode="&#x2da;" horiz-adv-x="500" 
d="M135 680q0 47 33 79t82 32q50 0 82.5 -32t32.5 -81t-32.5 -81t-82.5 -32t-82.5 32t-32.5 83zM206 678q0 -48 44 -48t44 48t-44 48q-20 0 -32 -12.5t-12 -35.5z" />
    <glyph glyph-name="ogonek" unicode="&#x2db;" horiz-adv-x="500" 
d="M99 -120q0 41 35 82.5t93 66.5l100 -29q-50 0 -80 -28t-30 -68q0 -26 18 -41t49 -15q11 0 19 1t18 5l5 -67q-21 -4 -38.5 -6t-31.5 -2q-157 0 -157 101z" />
    <glyph glyph-name="tilde" unicode="&#x2dc;" horiz-adv-x="500" 
d="M82.5 687.5q28.5 37.5 73.5 37.5q17 0 41 -5t59 -17q38 -13 50 -16t25 -3q18 0 26 9t11 31h82q-4 -63 -32.5 -100.5t-73.5 -37.5q-31 0 -100 22q-37 12 -49.5 15.5t-25.5 3.5q-18 0 -26 -8.5t-11 -31.5h-82q4 63 32.5 100.5z" />
    <glyph glyph-name="hungarumlaut" unicode="&#x2dd;" horiz-adv-x="500" 
d="M174 731h180l-161 -146h-139zM408 731h180l-163 -146h-136z" />
    <glyph glyph-name="uni02E3" unicode="&#x2e3;" horiz-adv-x="373" 
d="M188 611l63 81h107l-116 -140l116 -147h-109l-62 86l-66 -86h-106l119 146l-112 141h109z" />
    <glyph glyph-name="gravecomb" unicode="&#x300;" 
d="M108 585h-139l-161 146h180z" />
    <glyph glyph-name="acutecomb" unicode="&#x301;" 
d="M22 731h180l-161 -146h-139z" />
    <glyph glyph-name="uni0302" unicode="&#x302;" 
d="M0 671l-68 -86h-140l119 146h178l119 -146h-140z" />
    <glyph glyph-name="tildecomb" unicode="&#x303;" 
d="M-167.5 687.5q28.5 37.5 73.5 37.5q17 0 41 -5t59 -17q38 -13 50 -16t25 -3q18 0 26 9t11 31h82q-4 -63 -32.5 -100.5t-73.5 -37.5q-31 0 -100 22q-37 12 -49.5 15.5t-25.5 3.5q-18 0 -26 -8.5t-11 -31.5h-82q4 63 32.5 100.5z" />
    <glyph glyph-name="uni0304" unicode="&#x304;" 
d="M-182 702h364v-88h-364v88z" />
    <glyph glyph-name="uni0305" unicode="&#x305;" 
d="M-542 702h494v-88h-494v88z" />
    <glyph glyph-name="uni0306" unicode="&#x306;" 
d="M-179 731h82q3 -38 23.5 -52t73.5 -14t73.5 14t23.5 52h82q0 -87 -43.5 -124t-135.5 -37q-91 0 -135 37t-44 124z" />
    <glyph glyph-name="uni0307" unicode="&#x307;" 
d="M-88 667q0 38 25 62.5t63 24.5t62.5 -25t24.5 -63t-24.5 -63t-62.5 -25q-39 0 -63.5 25t-24.5 64z" />
    <glyph glyph-name="uni0308" unicode="&#x308;" 
d="M-193 669q0 35 23.5 58t58.5 23q36 0 59 -23t23 -59t-23 -59t-59 -23t-59 23t-23 60zM52.5 727q23.5 23 58.5 23q36 0 59 -23t23 -59t-23 -59t-59 -23t-59 23t-23 60q0 35 23.5 58z" />
    <glyph glyph-name="hookabovecomb" unicode="&#x309;" 
d="M-38 577q0 18 4.5 30t17 25.5t34.5 34.5q15 15 15 32q0 15 -10 24.5t-27 9.5q-15 0 -27.5 -8t-35.5 -31l-34 71q33 24 56 33t51 9q49 0 79 -26.5t30 -69.5q0 -26 -9.5 -43.5t-36.5 -40.5q-19 -17 -25 -30.5t-6 -26.5v-4h-76v11z" />
    <glyph glyph-name="uni030A" unicode="&#x30a;" 
d="M-115 680q0 47 33 79t82 32q50 0 82.5 -32t32.5 -81t-32.5 -81t-82.5 -32t-82.5 32t-32.5 83zM-44 678q0 -48 44 -48t44 48t-44 48q-20 0 -32 -12.5t-12 -35.5z" />
    <glyph glyph-name="uni030B" unicode="&#x30b;" 
d="M-77 731h180l-161 -146h-139zM157 731h180l-163 -146h-136z" />
    <glyph glyph-name="uni030C" unicode="&#x30c;" 
d="M0 645l68 86h140l-119 -146h-178l-119 146h140z" />
    <glyph glyph-name="uni030D" unicode="&#x30d;" 
d="M-355 775h150l-5 -283h-140z" />
    <glyph glyph-name="uni030E" unicode="&#x30e;" 
d="M-488 775h151l-5 -283h-141zM-280 775h151l-5 -283h-141z" />
    <glyph glyph-name="uni030F" unicode="&#x30f;" 
d="M198 585h-139l-161 146h180zM-37 585h-136l-163 146h180z" />
    <glyph glyph-name="uni0310" unicode="&#x310;" 
d="M-466 731h82q3 -38 23 -52t72 -14t72 14t23 52h82q0 -88 -42.5 -124.5t-134.5 -36.5t-134.5 36.5t-42.5 124.5zM-350.5 846q24.5 24 61.5 24q38 0 62 -24t24 -62q0 -37 -24 -61.5t-62 -24.5q-37 0 -61.5 24.5t-24.5 61.5q0 38 24.5 62z" />
    <glyph glyph-name="uni0311" unicode="&#x311;" 
d="M-435 694.5q43 36.5 137 36.5q95 0 137.5 -36.5t42.5 -124.5h-82q-3 38 -23.5 52t-74.5 14t-74.5 -14t-23.5 -52h-82q0 88 43 124.5z" />
    <glyph glyph-name="uni0312" unicode="&#x312;" 
d="M74 583h-165l145 153h138z" />
    <glyph glyph-name="uni0313" unicode="&#x313;" 
d="M-307 731h146l-112 -283h-121z" />
    <glyph glyph-name="uni0314" unicode="&#x314;" 
d="M-137 448h-122l-111 283h146z" />
    <glyph glyph-name="uni0315" unicode="&#x315;" 
d="M74 731h146l-112 -283h-121z" />
    <glyph glyph-name="uni0316" unicode="&#x316;" 
d="M-126 -199h-139l-161 146h180z" />
    <glyph glyph-name="uni0317" unicode="&#x317;" 
d="M-294 -53h180l-161 -146h-139z" />
    <glyph glyph-name="uni0318" unicode="&#x318;" 
d="M-281 -172h-98v70h98v61h77v-193h-77v62z" />
    <glyph glyph-name="uni0319" unicode="&#x319;" 
d="M-329 -41h77v-61h97v-70h-97v-62h-77v193z" />
    <glyph glyph-name="uni031A" unicode="&#x31a;" 
d="M-118 595h-208v70h285v-174h-77v104z" />
    <glyph glyph-name="uni031B" unicode="&#x31b;" 
d="M41 510v73h107v-85q0 -64 -29 -98t-91 -34q-6 0 -22 0.5t-39 1.5l-39 93q31 -4 40.5 -4.5t19.5 -0.5q34 0 43.5 10t9.5 44z" />
    <glyph glyph-name="uni031C" unicode="&#x31c;" 
d="M-370 -134q0 46 20.5 69.5t56.5 32t84 8.5v-50q-38 -2 -52 -14.5t-14 -44.5q0 -33 14 -45.5t52 -14.5v-50q-73 0 -117 21.5t-44 87.5z" />
    <glyph glyph-name="uni031D" unicode="&#x31d;" 
d="M-366 -125h61v85h77v-85h61v-70h-199v70z" />
    <glyph glyph-name="uni031E" unicode="&#x31e;" 
d="M-305 -111h-61v70h199v-70h-61v-84h-77v84z" />
    <glyph glyph-name="uni031F" unicode="&#x31f;" 
d="M-305 -172h-58v70h58v61h76v-61h58v-70h-58v-61h-76v61z" />
    <glyph glyph-name="uni0320" unicode="&#x320;" 
d="M-448 -53h364v-88h-364v88z" />
    <glyph glyph-name="uni0321" unicode="&#x321;" 
d="M-177 -61v72h107v-84q0 -40 -8.5 -64.5t-28.5 -41.5q-32 -27 -85 -27q-17 0 -29.5 1t-27 5.5t-40.5 12.5l15 87q2 -1 14 -4.5t26.5 -6t21.5 -2.5q22 0 28.5 10.5t6.5 41.5z" />
    <glyph glyph-name="uni0322" unicode="&#x322;" 
d="M-212 -73v84h107v-72q0 -31 6.5 -41.5t28.5 -10.5q7 0 21.5 2.5t27 6t13.5 4.5l15 -87q-25 -8 -40 -12.5t-27 -5.5t-30 -1q-53 0 -85 27q-19 17 -28 41.5t-9 64.5z" />
    <glyph glyph-name="dotbelowcomb" unicode="&#x323;" 
d="M-86 -154q0 37 24.5 61t61.5 24q38 0 62 -24t24 -62q0 -37 -24 -61.5t-62 -24.5t-62 24.5t-24 62.5z" />
    <glyph glyph-name="uni0324" unicode="&#x324;" 
d="M-466 -145q0 35 23.5 58t58.5 23q36 0 59 -23t23 -59t-23 -59t-59 -23t-59 23t-23 60zM-220.5 -87q23.5 23 58.5 23q36 0 59 -23t23 -59t-23 -59t-59 -23t-59 23t-23 60q0 35 23.5 58z" />
    <glyph glyph-name="uni0325" unicode="&#x325;" 
d="M-385 -165q0 47 33 79t82 32q50 0 82.5 -32t32.5 -81t-32.5 -81t-82.5 -32t-82.5 32t-32.5 83zM-314 -167q0 -48 44 -48t44 48t-44 48q-20 0 -32 -12.5t-12 -35.5z" />
    <glyph glyph-name="uni0326" unicode="&#x326;" 
d="M-56 -53h166l-145 -153h-138z" />
    <glyph glyph-name="uni0327" unicode="&#x327;" 
d="M37 -118q0 26 -39 26q-13 0 -24 -2t-26 -7l22 108h68l-8 -41q5 1 8 1h5q51 0 81.5 -22t30.5 -60q0 -59 -41.5 -82.5t-106.5 -23.5q-34 0 -79 6l5 67q20 -4 38 -4q31 0 48.5 7.5t17.5 26.5z" />
    <glyph glyph-name="uni0328" unicode="&#x328;" 
d="M-228 -120q0 41 35 82.5t93 66.5l100 -29q-50 0 -80 -28t-30 -68q0 -26 18 -41t49 -15q11 0 19 1t18 5l5 -67q-21 -4 -38.5 -6t-31.5 -2q-157 0 -157 101z" />
    <glyph glyph-name="uni0329" unicode="&#x329;" 
d="M-304 -48h74v-153h-74v153z" />
    <glyph glyph-name="uni032A" unicode="&#x32a;" 
d="M-397 -41h260v-143h-77v73h-106v-73h-77v143z" />
    <glyph glyph-name="uni032B" unicode="&#x32b;" 
d="M-406 -98v57h64v-46q0 -16 20 -16q23 0 23 16v46h64v-46q0 -16 23 -16q20 0 20 16v46h64v-57q0 -32 -21 -50.5t-59 -18.5q-20 0 -33 4t-26 14q-13 -10 -26 -14t-33 -4q-37 0 -58.5 18.5t-21.5 50.5z" />
    <glyph glyph-name="uni032C" unicode="&#x32c;" 
d="M-280 -126l68 86h140l-119 -146h-178l-119 146h140z" />
    <glyph glyph-name="uni032D" unicode="&#x32d;" 
d="M-287 -100l-68 -86h-140l119 146h178l119 -146h-140z" />
    <glyph glyph-name="uni032E" unicode="&#x32e;" 
d="M-469 -60h82q3 -38 23.5 -52t73.5 -14t73.5 14t23.5 52h82q0 -87 -43.5 -124t-135.5 -37q-91 0 -135 37t-44 124z" />
    <glyph glyph-name="uni032F" unicode="&#x32f;" 
d="M-433 -91.5q43 36.5 137 36.5q95 0 137.5 -36.5t42.5 -124.5h-82q-3 38 -23.5 52t-74.5 14t-74.5 -14t-23.5 -52h-82q0 88 43 124.5z" />
    <glyph glyph-name="uni0330" unicode="&#x330;" 
d="M-466.5 -107.5q28.5 37.5 73.5 37.5q17 0 41 -5t59 -17q38 -13 50 -16t25 -3q18 0 26 9t11 31h82q-4 -63 -32.5 -100.5t-73.5 -37.5q-31 0 -100 22q-37 12 -49.5 15.5t-25.5 3.5q-18 0 -26 -8.5t-11 -31.5h-82q4 63 32.5 100.5z" />
    <glyph glyph-name="uni0331" unicode="&#x331;" 
d="M-448 -55h364v-88h-364v88z" />
    <glyph glyph-name="uni0332" unicode="&#x332;" 
d="M-622 -51h494v-88h-494v88z" />
    <glyph glyph-name="uni0333" unicode="&#x333;" 
d="M-629 -155h580v-88h-580v88zM-629 -39h580v-88h-580v88z" />
    <glyph glyph-name="uni0334" unicode="&#x334;" 
d="M-440.5 282.5q28.5 37.5 73.5 37.5q17 0 41 -5t59 -17q38 -13 50 -16t25 -3q18 0 26 9t11 31h82q-4 -63 -32.5 -100.5t-73.5 -37.5q-31 0 -100 22q-37 12 -49.5 15.5t-25.5 3.5q-18 0 -26 -8.5t-11 -31.5h-82q4 63 32.5 100.5z" />
    <glyph glyph-name="uni0335" unicode="&#x335;" 
d="M-460 281h364v-88h-364v88z" />
    <glyph glyph-name="uni0336" unicode="&#x336;" 
d="M-554 281h524v-88h-524v88z" />
    <glyph glyph-name="uni0337" unicode="&#x337;" 
d="M-144 418l39 -33l-296 -334l-35 37z" />
    <glyph glyph-name="uni0338" unicode="&#x338;" 
d="M-54 519l38 -33l-462 -522l-38 33z" />
    <glyph glyph-name="uni0339" unicode="&#x339;" 
d="M-370 -193q38 2 52 14.5t14 45.5q0 32 -14 44.5t-52 14.5v50q48 0 84.5 -8.5t56.5 -32t20 -69.5q0 -66 -43.5 -87.5t-117.5 -21.5v50z" />
    <glyph glyph-name="uni033A" unicode="&#x33a;" 
d="M-397 -41h77v-73h106v73h77v-143h-260v143z" />
    <glyph glyph-name="uni033B" unicode="&#x33b;" 
d="M-368 -40h204v-191h-204v191zM-234 -104h-64v-63h64v63z" />
    <glyph glyph-name="uni033C" unicode="&#x33c;" 
d="M-277 -144q-27 28 -57 28q-15 0 -24.5 -5.5t-28.5 -25.5l-48 49q28 23 44.5 34.5t28.5 15t28 3.5q20 0 34 -5t33 -19q19 14 33 19t34 5q16 0 28.5 -3.5t28.5 -15t44 -34.5l-48 -49q-19 20 -28.5 25.5t-24.5 5.5q-14 0 -29 -7t-28 -21l-10 -11z" />
    <glyph glyph-name="uni033D" unicode="&#x33d;" 
d="M-425 581l74 28l-74 28l28 58l130 -52l131 52l28 -58l-74 -28l74 -28l-28 -58l-131 52l-130 -52z" />
    <glyph glyph-name="uni033E" unicode="&#x33e;" 
d="M-327 538q39 6 39 35q0 6 -1 11.5t-5 20.5t-15 47q-9 30 -13.5 45.5t-5.5 25.5t-1 22q0 102 139 110v-82q-22 -3 -31 -11t-9 -26q0 -13 3 -25.5t16 -50.5q12 -34 17 -58t5 -41q0 -45 -37.5 -74t-100.5 -32v83z" />
    <glyph glyph-name="uni033F" unicode="&#x33f;" 
d="M-627 650h580v-88h-580v88zM-627 766h580v-88h-580v88z" />
    <glyph glyph-name="uni0340" unicode="&#x340;" 
d="M-161 585h-139l-161 146h180z" />
    <glyph glyph-name="uni0341" unicode="&#x341;" 
d="M-261 731h180l-161 -146h-139z" />
    <glyph glyph-name="uni0342" unicode="&#x342;" 
d="M-466.5 687.5q28.5 37.5 73.5 37.5q17 0 41 -5t59 -17q38 -13 50 -16t25 -3q18 0 26 9t11 31h82q-4 -63 -32.5 -100.5t-73.5 -37.5q-31 0 -100 22q-37 12 -49.5 15.5t-25.5 3.5q-18 0 -26 -8.5t-11 -31.5h-82q4 63 32.5 100.5z" />
    <glyph glyph-name="uni0343" unicode="&#x343;" 
d="M-316 731h146l-112 -283h-121z" />
    <glyph glyph-name="uni0344" unicode="&#x344;" 
d="M-35 784h144l-85 -184h-93zM-244 668q0 35 22 57t57 22t57 -22t22 -57t-22 -57t-57 -22t-57 22t-22 57zM116 725q22 22 57 22t57 -22t22 -57t-22 -57t-57 -22t-57 22t-22 57t22 57z" />
    <glyph glyph-name="uni0345" unicode="&#x345;" 
d="M-339 -85v51h107v-39q0 -31 6.5 -41.5t27.5 -10.5q14 0 26.5 3t36.5 10l15 -87q-24 -8 -46.5 -13.5t-50.5 -5.5q-53 0 -85 27q-19 17 -28 41.5t-9 64.5z" />
    <glyph glyph-name="uni037A" unicode="&#x37a;" horiz-adv-x="267" 
d="M18 -85v85h107v-73q0 -31 6.5 -41.5t27.5 -10.5q14 0 26.5 3t36.5 10l15 -87q-24 -8 -46.5 -13.5t-50.5 -5.5q-53 0 -85 27q-19 17 -28 41.5t-9 64.5z" />
    <glyph glyph-name="uni037E" unicode="&#x37e;" horiz-adv-x="316" 
d="M74 432q0 40 26.5 66t66.5 26q41 0 67 -26t26 -67q0 -40 -26.5 -66t-66.5 -26t-66.5 26.5t-26.5 66.5zM91 168h166l-112 -290h-141z" />
    <glyph glyph-name="tonos" unicode="&#x384;" horiz-adv-x="500" 
d="M152 751h180l-83 -174h-129z" />
    <glyph glyph-name="dieresistonos" unicode="&#x385;" horiz-adv-x="500" 
d="M215 784h144l-85 -184h-93zM6 668q0 35 22 57t57 22t57 -22t22 -57t-22 -57t-57 -22t-57 22t-22 57zM366 725q22 22 57 22t57 -22t22 -57t-22 -57t-57 -22t-57 22t-22 57t22 57z" />
    <glyph glyph-name="Alphatonos" unicode="&#x386;" horiz-adv-x="712" 
d="M482 165h-262l-59 -165h-155l264 692h163l273 -692h-165zM350 539q-6 -21 -9.5 -34t-9 -28.5t-16.5 -44.5l-53 -150h178l-54 150q-7 21 -12 35t-10.5 29.5t-13.5 42.5zM-18 692h188l-105 -224h-137z" />
    <glyph glyph-name="anoteleia" unicode="&#x387;" horiz-adv-x="316" 
d="M65 432q0 40 26.5 66t66.5 26q41 0 67 -26t26 -67q0 -40 -26.5 -66t-66.5 -26t-66.5 26.5t-26.5 66.5z" />
    <glyph glyph-name="Epsilontonos" unicode="&#x388;" horiz-adv-x="586" 
d="M82 692h438v-122h-282v-158h268v-122h-268v-168h297v-122h-453v692zM-168 692h188l-105 -224h-137z" />
    <glyph glyph-name="Etatonos" unicode="&#x389;" horiz-adv-x="729" 
d="M82 692h156v-278h253v278h156v-692h-156v292h-253v-292h-156v692zM-168 692h188l-105 -224h-137z" />
    <glyph glyph-name="Iotatonos" unicode="&#x38a;" horiz-adv-x="320" 
d="M82 692h156v-692h-156v692zM-168 692h188l-105 -224h-137z" />
    <glyph glyph-name="Omicrontonos" unicode="&#x38c;" horiz-adv-x="759" 
d="M46 350q0 105 39.5 185t114 124.5t179.5 44.5q106 0 180.5 -44.5t114 -124.5t39.5 -185q0 -107 -38 -188.5t-112.5 -127.5t-183.5 -46q-108 0 -182.5 46t-112.5 127.5t-38 188.5zM207 349q0 -111 46.5 -175t125.5 -64q80 0 126.5 64t46.5 175q0 107 -46.5 170t-126.5 63
q-79 0 -125.5 -63t-46.5 -170zM-118 692h188l-105 -224h-137z" />
    <glyph glyph-name="Upsilontonos" unicode="&#x38e;" horiz-adv-x="661" 
d="M254 284l-264 408h181l114 -183q15 -25 25 -42.5t26 -47.5q16 32 26.5 50t25.5 41l113 182h170l-261 -408v-284h-156v284zM-258 692h188l-105 -224h-137z" />
    <glyph glyph-name="Omegatonos" unicode="&#x38f;" horiz-adv-x="758" 
d="M46 122h159v33q-155 74 -155 249q0 90 41 157.5t115 105t173 37.5t173 -37.5t115 -105t41 -157.5q0 -175 -155 -249v-33h159v-122h-285v202q56 24 88 76.5t32 121.5q0 83 -45.5 132.5t-122.5 49.5t-122.5 -49.5t-45.5 -132.5q0 -69 32 -121.5t88 -76.5v-202h-285v122z
M-123 692h188l-105 -224h-137z" />
    <glyph glyph-name="iotadieresistonos" unicode="&#x390;" horiz-adv-x="365" 
d="M75 196v316h151v-316q0 -49 15.5 -69t51.5 -20q12 0 23.5 2.5t30.5 7.5l13 -111q-63 -18 -121 -18q-67 0 -102.5 23.5t-48.5 70t-13 114.5zM115 784h144l-85 -184h-93zM-94 668q0 35 22 57t57 22t57 -22t22 -57t-22 -57t-57 -22t-57 22t-22 57zM266 725q22 22 57 22
t57 -22t22 -57t-22 -57t-57 -22t-57 22t-22 57t22 57z" />
    <glyph glyph-name="Alpha" unicode="&#x391;" horiz-adv-x="712" 
d="M482 165h-262l-59 -165h-155l264 692h163l273 -692h-165zM350 539q-6 -21 -9.5 -34t-9 -28.5t-16.5 -44.5l-53 -150h178l-54 150q-7 21 -12 35t-10.5 29.5t-13.5 42.5z" />
    <glyph glyph-name="Beta" unicode="&#x392;" horiz-adv-x="633" 
d="M82 692h249q49 0 81.5 -3.5t55.5 -12t42 -23.5q31 -23 48.5 -62.5t17.5 -83.5q0 -117 -105 -153q116 -37 116 -158q0 -48 -18.5 -89t-52.5 -66q-29 -22 -69 -31.5t-99 -9.5h-266v692zM429 203q0 50 -31.5 73t-87.5 23h-76v-187h74q59 0 90 18t31 73zM388 562.5
q-34 17.5 -90 17.5h-64v-178h72q56 0 86 17t30 69q0 57 -34 74.5z" />
    <glyph glyph-name="Gamma" unicode="&#x393;" horiz-adv-x="511" 
d="M82 692h423v-122h-267v-570h-156v692z" />
    <glyph glyph-name="uni0394" unicode="&#x394;" horiz-adv-x="681" 
d="M25 110l234 582h163l234 -582v-110h-631v110zM333 532q-7 -20 -15 -42.5t-19 -52.5l-121 -320h310l-121 320q-11 30 -19 52.5t-15 42.5z" />
    <glyph glyph-name="Epsilon" unicode="&#x395;" horiz-adv-x="586" 
d="M82 692h438v-122h-282v-158h268v-122h-268v-168h297v-122h-453v692z" />
    <glyph glyph-name="Zeta" unicode="&#x396;" horiz-adv-x="596" 
d="M26 110l338 460h-326v122h520v-110l-338 -460h350v-122h-544v110z" />
    <glyph glyph-name="Eta" unicode="&#x397;" horiz-adv-x="729" 
d="M82 692h156v-278h253v278h156v-692h-156v292h-253v-292h-156v692z" />
    <glyph glyph-name="Theta" unicode="&#x398;" horiz-adv-x="759" 
d="M46 350q0 105 39.5 185t114 124.5t179.5 44.5q106 0 180.5 -44.5t114 -124.5t39.5 -185q0 -107 -38 -188.5t-112.5 -127.5t-183.5 -46q-108 0 -182.5 46t-112.5 127.5t-38 188.5zM204 346q0 -110 47 -174.5t129 -64.5q81 0 128 64.5t47 174.5t-47 174.5t-128 64.5
q-82 0 -129 -64.5t-47 -174.5zM258 410h243v-118h-243v118z" />
    <glyph glyph-name="Iota" unicode="&#x399;" horiz-adv-x="320" 
d="M82 692h156v-692h-156v692z" />
    <glyph glyph-name="Kappa" unicode="&#x39a;" horiz-adv-x="682" 
d="M238 0h-156v692h156v-322l256 322h176l-261 -320l271 -372h-186l-256 362v-362z" />
    <glyph glyph-name="Lambda" unicode="&#x39b;" horiz-adv-x="684" 
d="M338 506q-9 -31 -24 -74l-151 -432h-157l255 692h162l255 -692h-165l-151 432q-15 43 -24 74z" />
    <glyph glyph-name="Mu" unicode="&#x39c;" horiz-adv-x="945" 
d="M82 692h231l120 -374q11 -34 19.5 -64t20.5 -76q12 45 20.5 75.5t19.5 64.5l121 374h229v-692h-150v557q-7 -29 -11.5 -45t-10 -33.5t-16.5 -50.5l-139 -428h-133l-135 417q-9 29 -20.5 66t-21.5 75v-558h-144v692z" />
    <glyph glyph-name="Nu" unicode="&#x39d;" horiz-adv-x="752" 
d="M82 692h172l184 -311q19 -32 32.5 -57t26 -50t26.5 -56q-1 19 -2 35t-1 38v59v342h150v-692h-169l-173 290q-24 39 -39 66.5t-28.5 54.5t-31.5 65q1 -29 2 -49.5t1 -46v-70.5v-310h-150v692z" />
    <glyph glyph-name="Xi" unicode="&#x39e;" horiz-adv-x="593" 
d="M51 126h491v-126h-491v126zM66 692h461v-126h-461v126zM126 414h341v-122h-341v122z" />
    <glyph glyph-name="Omicron" unicode="&#x39f;" horiz-adv-x="759" 
d="M46 350q0 105 39.5 185t114 124.5t179.5 44.5q106 0 180.5 -44.5t114 -124.5t39.5 -185q0 -107 -38 -188.5t-112.5 -127.5t-183.5 -46q-108 0 -182.5 46t-112.5 127.5t-38 188.5zM207 349q0 -111 46.5 -175t125.5 -64q80 0 126.5 64t46.5 175q0 107 -46.5 170t-126.5 63
q-79 0 -125.5 -63t-46.5 -170z" />
    <glyph glyph-name="Pi" unicode="&#x3a0;" horiz-adv-x="701" 
d="M82 692h537v-692h-156v570h-225v-570h-156v692z" />
    <glyph glyph-name="Rho" unicode="&#x3a1;" horiz-adv-x="586" 
d="M82 692h195q61 0 100.5 -4t67 -13.5t50.5 -27.5q75 -56 75 -168q0 -109 -73 -168q-32 -25 -77 -36t-117 -11h-65v-264h-156v692zM414 474q0 61 -37 81t-98 20h-45v-194h45q65 0 100 17.5t35 75.5z" />
    <glyph glyph-name="Sigma" unicode="&#x3a3;" horiz-adv-x="585" 
d="M26 110l210 239l-198 233v110h492v-122h-286l178 -210l-209 -238h332v-122h-519v110z" />
    <glyph glyph-name="Tau" unicode="&#x3a4;" horiz-adv-x="570" 
d="M207 570h-200v122h556v-122h-200v-570h-156v570z" />
    <glyph glyph-name="Upsilon" unicode="&#x3a5;" horiz-adv-x="661" 
d="M254 284l-264 408h181l114 -183q15 -25 25 -42.5t26 -47.5q16 32 26.5 50t25.5 41l113 182h170l-261 -408v-284h-156v284z" />
    <glyph glyph-name="Phi" unicode="&#x3a6;" horiz-adv-x="895" 
d="M377 44q-104 9 -178 48.5t-113.5 104.5t-39.5 149t39.5 149t113.5 104.5t178 48.5v66h142v-66q104 -9 178 -48.5t113.5 -104.5t39.5 -149t-39.5 -149t-113.5 -104.5t-178 -48.5v-66h-142v66zM689 346q0 74 -43.5 124t-126.5 64v-376q83 14 126.5 64t43.5 124zM207 346
q0 -74 43.5 -124t126.5 -64v376q-83 -14 -126.5 -64t-43.5 -124z" />
    <glyph glyph-name="Chi" unicode="&#x3a7;" horiz-adv-x="734" 
d="M200 0h-184l256 355l-243 337h181l161 -226l163 226h178l-251 -341l254 -351h-188l-164 231z" />
    <glyph glyph-name="Psi" unicode="&#x3a8;" horiz-adv-x="870" 
d="M357 169q-155 4 -228.5 82.5t-73.5 242.5v198h156v-198q0 -102 34 -149.5t112 -52.5v400h156v-400q78 5 112 52.5t34 149.5v198h156v-198q0 -164 -73.5 -242.5t-228.5 -82.5v-169h-156v169z" />
    <glyph glyph-name="uni03A9" unicode="&#x3a9;" horiz-adv-x="758" 
d="M46 122h159v33q-155 74 -155 249q0 90 41 157.5t115 105t173 37.5t173 -37.5t115 -105t41 -157.5q0 -175 -155 -249v-33h159v-122h-285v202q56 24 88 76.5t32 121.5q0 83 -45.5 132.5t-122.5 49.5t-122.5 -49.5t-45.5 -132.5q0 -69 32 -121.5t88 -76.5v-202h-285v122z
" />
    <glyph glyph-name="Iotadieresis" unicode="&#x3aa;" horiz-adv-x="320" 
d="M82 692h156v-692h-156v692zM-37 835q0 37 24.5 61t61.5 24q38 0 62 -24t24 -62q0 -37 -24 -61.5t-62 -24.5t-62 24.5t-24 62.5zM209.5 896q24.5 24 61.5 24q38 0 62 -24t24 -62q0 -37 -24 -61.5t-62 -24.5t-62 24.5t-24 62.5q0 37 24.5 61z" />
    <glyph glyph-name="Upsilondieresis" unicode="&#x3ab;" horiz-adv-x="661" 
d="M254 284l-264 408h181l114 -183q15 -25 25 -42.5t26 -47.5q16 32 26.5 50t25.5 41l113 182h170l-261 -408v-284h-156v284zM134 835q0 37 24.5 61t61.5 24q38 0 62 -24t24 -62q0 -37 -24 -61.5t-62 -24.5t-62 24.5t-24 62.5zM380.5 896q24.5 24 61.5 24q38 0 62 -24
t24 -62q0 -37 -24 -61.5t-62 -24.5t-62 24.5t-24 62.5q0 37 24.5 61z" />
    <glyph glyph-name="alphatonos" unicode="&#x3ac;" horiz-adv-x="652" 
d="M41 257q0 125 57 196t157 71q45 0 79 -17t71 -60l5 65h146q-2 -24 -3 -48t-1.5 -60t-0.5 -96v-147q0 -54 41 -54q18 0 33 7l12 -109q-23 -7 -50.5 -12t-53.5 -5q-52 0 -82.5 20.5t-42.5 64.5q-55 -85 -155 -85q-98 0 -155 72t-57 197zM197 257q0 -70 26.5 -113.5
t69.5 -43.5q60 0 107 82v153q-49 77 -104 77q-45 0 -72 -42t-27 -113zM259 751h180l-83 -174h-129z" />
    <glyph glyph-name="epsilontonos" unicode="&#x3ad;" horiz-adv-x="513" 
d="M47 381q0 70 58.5 106.5t167.5 36.5q56 0 103 -10t94 -31l-38 -107q-74 43 -148 43q-86 0 -86 -54q0 -26 26 -40t90 -14q15 0 35 0.5t42 1.5v-100q-13 1 -31.5 1.5t-34.5 0.5q-67 0 -98.5 -14.5t-31.5 -45.5q0 -59 94 -59q38 0 76 12t81 38l51 -107q-44 -23 -104.5 -37
t-131.5 -14q-220 0 -220 147q0 52 26.5 85t72.5 45q-44 11 -68.5 41t-24.5 75zM245 751h180l-83 -174h-129z" />
    <glyph glyph-name="etatonos" unicode="&#x3ae;" horiz-adv-x="661" 
d="M101 351q0 54 -41 54q-18 0 -33 -7l-12 109q23 8 50.5 12.5t53.5 4.5q50 0 80.5 -19t42.5 -60q45 43 84 61t91 18q89 0 129 -48.5t40 -158.5v-532h-151v520q0 58 -15 82.5t-51 24.5q-64 0 -117 -79v-333h-151v351zM272 751h180l-83 -174h-129z" />
    <glyph glyph-name="iotatonos" unicode="&#x3af;" horiz-adv-x="365" 
d="M75 196v316h151v-316q0 -49 15.5 -69t51.5 -20q12 0 23.5 2.5t30.5 7.5l13 -111q-63 -18 -121 -18q-67 0 -102.5 23.5t-48.5 70t-13 114.5zM120 751h180l-83 -174h-129z" />
    <glyph glyph-name="upsilondieresistonos" unicode="&#x3b0;" horiz-adv-x="602" 
d="M242 366v-115q0 -80 18.5 -116.5t58.5 -36.5q88 0 88 180q0 63 -11 114t-37 101l143 32q32 -61 45.5 -116t13.5 -119q0 -146 -64.5 -224t-186.5 -78q-219 0 -219 261v102q0 54 -41 54q-18 0 -33 -7l-12 109q23 8 50.5 12.5t53.5 4.5q70 0 101.5 -37t31.5 -121zM244 784
h144l-85 -184h-93zM35 668q0 35 22 57t57 22t57 -22t22 -57t-22 -57t-57 -22t-57 22t-22 57zM395 725q22 22 57 22t57 -22t22 -57t-22 -57t-57 -22t-57 22t-22 57t22 57z" />
    <glyph glyph-name="alpha" unicode="&#x3b1;" horiz-adv-x="652" 
d="M41 257q0 125 57 196t157 71q45 0 79 -17t71 -60l5 65h146q-2 -24 -3 -48t-1.5 -60t-0.5 -96v-147q0 -54 41 -54q18 0 33 7l12 -109q-23 -7 -50.5 -12t-53.5 -5q-52 0 -82.5 20.5t-42.5 64.5q-55 -85 -155 -85q-98 0 -155 72t-57 197zM197 257q0 -70 26.5 -113.5
t69.5 -43.5q60 0 107 82v153q-49 77 -104 77q-45 0 -72 -42t-27 -113z" />
    <glyph glyph-name="beta" unicode="&#x3b2;" horiz-adv-x="646" 
d="M80 493q0 127 60 189t186 62q116 0 179.5 -50t63.5 -144q0 -109 -86 -153q124 -51 124 -193q0 -98 -59.5 -157t-163.5 -59q-98 0 -153 62v-265h-151v708zM453 211q0 56 -32 88t-91 32h-5.5t-9.5 -1v112q5 -1 7.5 -1h5.5q87 0 87 98q0 95 -88 95q-52 0 -74 -37t-22 -122
v-307q47 -68 118 -68q50 0 77 29.5t27 81.5z" />
    <glyph glyph-name="gamma" unicode="&#x3b3;" horiz-adv-x="608" 
d="M234 15q-23 75 -42.5 128t-39 100t-44.5 102q-16 35 -29 47.5t-30 12.5q-14 0 -29 -7l-12 111q36 15 83 15q53 0 85.5 -25t60.5 -88t45.5 -108t31.5 -94q4 -14 7.5 -27.5t6.5 -26.5q42 99 69 181.5t46 175.5h140q-15 -63 -32.5 -120.5t-40 -115.5t-53.5 -124t-72 -147
v-220h-151v230z" />
    <glyph glyph-name="delta" unicode="&#x3b4;" horiz-adv-x="609" 
d="M101 584q0 74 58 117t157 43q49 0 99 -10.5t89 -29.5l-38 -108q-76 41 -141 41q-35 0 -55.5 -12.5t-20.5 -35.5q0 -20 19.5 -35t70.5 -34l19 -7q110 -40 160 -104.5t50 -162.5q0 -121 -70 -189.5t-195 -68.5q-123 0 -192.5 66t-69.5 178q0 80 35.5 138t102.5 91
q-78 44 -78 123zM224.5 136.5q27.5 -38.5 78.5 -38.5t80 38t29 105q0 64 -31 105t-106 73q-41 -39 -59.5 -80t-18.5 -95q0 -69 27.5 -107.5z" />
    <glyph glyph-name="epsilon" unicode="&#x3b5;" horiz-adv-x="513" 
d="M47 381q0 70 58.5 106.5t167.5 36.5q56 0 103 -10t94 -31l-38 -107q-74 43 -148 43q-86 0 -86 -54q0 -26 26 -40t90 -14q15 0 35 0.5t42 1.5v-100q-13 1 -31.5 1.5t-34.5 0.5q-67 0 -98.5 -14.5t-31.5 -45.5q0 -59 94 -59q38 0 76 12t81 38l51 -107q-44 -23 -104.5 -37
t-131.5 -14q-220 0 -220 147q0 52 26.5 85t72.5 45q-44 11 -68.5 41t-24.5 75z" />
    <glyph glyph-name="zeta" unicode="&#x3b6;" horiz-adv-x="463" 
d="M320 -63q0 22 -11.5 33.5t-42.5 21.5l-50 16q-92 29 -133.5 82.5t-41.5 132.5q0 103 64 200.5t192 193.5h-240v114h395v-100q-91 -78 -147.5 -141.5t-82 -119t-25.5 -110.5t26 -86.5t87 -51.5l19 -6q69 -22 101.5 -57.5t32.5 -89.5q0 -84 -64 -184l-123 41q44 66 44 111z
" />
    <glyph glyph-name="eta" unicode="&#x3b7;" horiz-adv-x="661" 
d="M101 351q0 54 -41 54q-18 0 -33 -7l-12 109q23 8 50.5 12.5t53.5 4.5q50 0 80.5 -19t42.5 -60q45 43 84 61t91 18q89 0 129 -48.5t40 -158.5v-532h-151v520q0 58 -15 82.5t-51 24.5q-64 0 -117 -79v-333h-151v351z" />
    <glyph glyph-name="theta" unicode="&#x3b8;" horiz-adv-x="602" 
d="M41 366q0 186 66 282t194 96t194 -96t66 -282t-66 -282t-194 -96t-194 96t-66 282zM410 332h-218q3 -123 29.5 -178.5t79.5 -55.5t79.5 55.5t29.5 178.5zM377 585.5q-26 48.5 -76 48.5t-76 -48.5t-32 -155.5h216q-6 107 -32 155.5z" />
    <glyph glyph-name="iota" unicode="&#x3b9;" horiz-adv-x="365" 
d="M75 196v316h151v-316q0 -49 15.5 -69t51.5 -20q12 0 23.5 2.5t30.5 7.5l13 -111q-63 -18 -121 -18q-67 0 -102.5 23.5t-48.5 70t-13 114.5z" />
    <glyph glyph-name="kappa" unicode="&#x3ba;" horiz-adv-x="599" 
d="M226 0h-151v512h151v-216l125 151q36 44 64.5 60.5t68.5 16.5q39 0 68 -14l-12 -113q-16 8 -33 8q-16 0 -30 -8.5t-33 -30.5l-68 -79l208 -287h-175l-183 261v-261z" />
    <glyph glyph-name="lambda" unicode="&#x3bb;" horiz-adv-x="596" 
d="M41 729q57 15 106 15q56 0 95.5 -21.5t71.5 -72t63 -138.5l127 -354q11 -29 21 -40t29 -11q14 0 29 7l12 -111q-36 -15 -83 -15q-55 0 -87.5 25.5t-54.5 87.5l-43 122q-7 20 -18 52t-20 63q-10 -29 -21.5 -62t-23.5 -64l-79 -212h-145l204 508l-9 25q-19 51 -41 71.5
t-60 20.5q-32 0 -61 -10z" />
    <glyph glyph-name="uni03BC" unicode="&#x3bc;" horiz-adv-x="656" 
d="M75 512h151v-305q0 -107 70 -107q63 0 108 79v333h151v-351q0 -54 41 -54q18 0 33 7l12 -109q-23 -7 -50.5 -12t-53.5 -5q-50 0 -80 18.5t-43 58.5q-32 -41 -61 -59t-61 -18q-45 0 -68 30q2 -37 2 -83v-150h-151v727z" />
    <glyph glyph-name="nu" unicode="&#x3bd;" horiz-adv-x="588" 
d="M8 509q36 15 83 15q53 0 85.5 -25t60.5 -88t44.5 -108t30.5 -94q4 -13 7.5 -26t6.5 -25q26 66 43 123.5t29.5 113.5t24.5 117h140q-16 -68 -32 -128.5t-36.5 -119.5t-48 -123.5t-66.5 -140.5h-161q-22 85 -38.5 144t-33.5 106t-39 95q-16 35 -29 47.5t-30 12.5
q-14 0 -29 -7z" />
    <glyph glyph-name="xi" unicode="&#x3be;" horiz-adv-x="505" 
d="M357 -64q0 23 -11.5 34.5t-42.5 21.5l-50 16q-113 36 -162.5 86t-49.5 123t40.5 120.5t107.5 59.5q-57 8 -89.5 39t-32.5 78q0 38 22 65.5t62 40.5h-100v111h423v-114h-64q-100 0 -146 -21t-46 -67q0 -37 29.5 -57.5t82.5 -20.5q15 0 37 0.5t44 1.5v-114q-13 1 -34.5 1.5
t-43.5 0.5q-136 0 -136 -101q0 -40 25 -63t94 -45l50 -16q70 -22 102 -57.5t32 -88.5q0 -41 -17 -89.5t-47 -95.5l-123 41q23 36 33.5 62t10.5 48z" />
    <glyph glyph-name="omicron" unicode="&#x3bf;" horiz-adv-x="609" 
d="M41 259q0 125 68.5 195t194.5 70t195 -70t69 -195t-66.5 -198t-197.5 -73q-130 0 -196.5 73t-66.5 198zM197 258q0 -78 27.5 -119t79.5 -41t80 41t28 119q0 75 -28.5 115.5t-79.5 40.5t-79 -40.5t-28 -115.5z" />
    <glyph glyph-name="pi" unicode="&#x3c0;" horiz-adv-x="716" 
d="M411 179v219h-124v-39q0 -194 -43 -359h-151q43 163 43 357v37q-53 -4 -122 -14v114q116 18 250 18h396v-114h-98v-222q0 -37 12.5 -53t40.5 -16q24 0 48 10l13 -111q-26 -8 -57.5 -13t-60.5 -5q-80 0 -113.5 43.5t-33.5 147.5z" />
    <glyph glyph-name="rho" unicode="&#x3c1;" horiz-adv-x="626" 
d="M75 268q0 121 68 188.5t189 67.5q122 0 187.5 -70t65.5 -203q0 -123 -55.5 -193t-154.5 -70q-93 0 -149 73v-276h-151v483zM429 259q0 74 -28 114.5t-79 40.5q-46 0 -71 -35t-25 -101v-96q47 -82 108 -82q43 0 69 43.5t26 115.5z" />
    <glyph glyph-name="sigma1" unicode="&#x3c2;" horiz-adv-x="484" 
d="M337 -64q0 23 -11.5 34.5t-42.5 21.5l-50 16q-192 62 -192 260q0 122 67.5 189t191.5 67q43 0 85 -8.5t85 -28.5l-40 -108q-31 19 -57.5 27t-52.5 8q-61 0 -92 -38t-31 -109q0 -57 22.5 -87.5t76.5 -47.5l50 -16q70 -22 102 -57.5t32 -88.5q0 -41 -17 -89.5t-47 -95.5
l-123 41q23 36 33.5 62t10.5 48z" />
    <glyph glyph-name="sigma" unicode="&#x3c3;" horiz-adv-x="608" 
d="M550 213q0 -67 -32 -118t-89.5 -79t-134.5 -28q-120 0 -186.5 69t-66.5 192q0 129 75.5 196t218.5 67h257v-114h-122q80 -83 80 -185zM404 254q0 91 -52 144h-17q-138 0 -138 -152q0 -70 26 -109t75 -39q50 0 78 41t28 115z" />
    <glyph glyph-name="tau" unicode="&#x3c4;" horiz-adv-x="517" 
d="M0 494q116 18 250 18h227v-114h-175v-202q0 -49 15.5 -69t51.5 -20q12 0 23.5 2.5t30.5 7.5l13 -111q-63 -18 -121 -18q-67 0 -102.5 23.5t-48.5 70t-13 114.5v200q-35 -2 -71 -6t-80 -10v114z" />
    <glyph glyph-name="upsilon" unicode="&#x3c5;" horiz-adv-x="602" 
d="M242 366v-115q0 -80 18.5 -116.5t58.5 -36.5q88 0 88 180q0 63 -11 114t-37 101l143 32q32 -61 45.5 -116t13.5 -119q0 -146 -64.5 -224t-186.5 -78q-219 0 -219 261v102q0 54 -41 54q-18 0 -33 -7l-12 109q23 8 50.5 12.5t53.5 4.5q70 0 101.5 -37t31.5 -121z" />
    <glyph glyph-name="phi" unicode="&#x3c6;" horiz-adv-x="773" 
d="M312 -10q-131 10 -201 85.5t-70 204.5q0 72 23.5 131t72.5 114l119 -62q-63 -69 -63 -177q0 -156 119 -186v207q0 107 48.5 162t140.5 55q71 0 122.5 -31t80 -88t28.5 -134q0 -123 -71.5 -196.5t-199.5 -84.5v-205h-149v205zM580 285q0 60 -17.5 94.5t-47.5 34.5
q-26 0 -40 -27.5t-14 -79.5v-207q119 30 119 185z" />
    <glyph glyph-name="chi" unicode="&#x3c7;" horiz-adv-x="590" 
d="M18 506q42 18 84 18q47 0 79.5 -24t58.5 -78l35 -73q7 -14 14.5 -31t14.5 -34q8 16 15.5 32t16.5 34l83 162h156l-189 -348l119 -221q16 -29 27 -40t26 -11q12 0 27 8l13 -109q-42 -18 -84 -18q-47 0 -79.5 24t-58.5 78l-31 66q-10 22 -20.5 45.5t-20.5 47.5
q-15 -37 -35 -75l-89 -174h-156l198 363l-111 206q-16 29 -27 40t-26 11q-12 0 -27 -8z" />
    <glyph glyph-name="psi" unicode="&#x3c8;" horiz-adv-x="784" 
d="M336 -10q-116 10 -180.5 80.5t-64.5 188.5v92q0 54 -41 54q-18 0 -33 -7l-12 109q23 8 50.5 12.5t53.5 4.5q70 0 101.5 -37t31.5 -121v-106q0 -132 94 -159v540h149v-540q107 27 107 193q0 102 -43 197l141 33q28 -56 40.5 -110t12.5 -114q0 -143 -66 -221.5t-192 -89.5
v-204h-149v205z" />
    <glyph glyph-name="omega" unicode="&#x3c9;" horiz-adv-x="767" 
d="M41 243q0 75 19 148.5t54 132.5l144 -40q-32 -49 -47.5 -107.5t-15.5 -135.5q0 -74 14.5 -108.5t44.5 -34.5q29 0 41.5 29.5t12.5 93.5v164h151v-164q0 -123 55 -123q30 0 44 34.5t14 107.5q0 77 -15.5 136t-47.5 108l144 40q35 -59 54 -132.5t19 -148.5
q0 -122 -50 -188.5t-141 -66.5q-58 0 -98 26t-53 72q-14 -46 -54 -72t-98 -26q-91 0 -141 66.5t-50 188.5z" />
    <glyph glyph-name="iotadieresis" unicode="&#x3ca;" horiz-adv-x="365" 
d="M75 196v316h151v-316q0 -49 15.5 -69t51.5 -20q12 0 23.5 2.5t30.5 7.5l13 -111q-63 -18 -121 -18q-67 0 -102.5 23.5t-48.5 70t-13 114.5zM-43 669q0 35 23.5 58t58.5 23q36 0 59 -23t23 -59t-23 -59t-59 -23t-59 23t-23 60zM202.5 727q23.5 23 58.5 23q36 0 59 -23
t23 -59t-23 -59t-59 -23t-59 23t-23 60q0 35 23.5 58z" />
    <glyph glyph-name="upsilondieresis" unicode="&#x3cb;" horiz-adv-x="602" 
d="M242 366v-115q0 -80 18.5 -116.5t58.5 -36.5q88 0 88 180q0 63 -11 114t-37 101l143 32q32 -61 45.5 -116t13.5 -119q0 -146 -64.5 -224t-186.5 -78q-219 0 -219 261v102q0 54 -41 54q-18 0 -33 -7l-12 109q23 8 50.5 12.5t53.5 4.5q70 0 101.5 -37t31.5 -121zM86 669
q0 35 23.5 58t58.5 23q36 0 59 -23t23 -59t-23 -59t-59 -23t-59 23t-23 60zM331.5 727q23.5 23 58.5 23q36 0 59 -23t23 -59t-23 -59t-59 -23t-59 23t-23 60q0 35 23.5 58z" />
    <glyph glyph-name="omicrontonos" unicode="&#x3cc;" horiz-adv-x="609" 
d="M41 259q0 125 68.5 195t194.5 70t195 -70t69 -195t-66.5 -198t-197.5 -73q-130 0 -196.5 73t-66.5 198zM197 258q0 -78 27.5 -119t79.5 -41t80 41t28 119q0 75 -28.5 115.5t-79.5 40.5t-79 -40.5t-28 -115.5zM275 751h180l-83 -174h-129z" />
    <glyph glyph-name="upsilontonos" unicode="&#x3cd;" horiz-adv-x="602" 
d="M242 366v-115q0 -80 18.5 -116.5t58.5 -36.5q88 0 88 180q0 63 -11 114t-37 101l143 32q32 -61 45.5 -116t13.5 -119q0 -146 -64.5 -224t-186.5 -78q-219 0 -219 261v102q0 54 -41 54q-18 0 -33 -7l-12 109q23 8 50.5 12.5t53.5 4.5q70 0 101.5 -37t31.5 -121zM249 751
h180l-83 -174h-129z" />
    <glyph glyph-name="omegatonos" unicode="&#x3ce;" horiz-adv-x="767" 
d="M41 243q0 75 19 148.5t54 132.5l144 -40q-32 -49 -47.5 -107.5t-15.5 -135.5q0 -74 14.5 -108.5t44.5 -34.5q29 0 41.5 29.5t12.5 93.5v164h151v-164q0 -123 55 -123q30 0 44 34.5t14 107.5q0 77 -15.5 136t-47.5 108l144 40q35 -59 54 -132.5t19 -148.5
q0 -122 -50 -188.5t-141 -66.5q-58 0 -98 26t-53 72q-14 -46 -54 -72t-98 -26q-91 0 -141 66.5t-50 188.5zM354 751h180l-83 -174h-129z" />
    <glyph glyph-name="theta1" unicode="&#x3d1;" horiz-adv-x="588" 
d="M91 192v5q0 54 -41 54q-18 0 -33 -7l-12 109q23 8 50.5 12.5t53.5 4.5q70 0 101.5 -37t31.5 -121v-24q0 -90 59 -90q58 0 58 93v153h-7q-109 0 -171.5 50t-62.5 138q0 80 52 126t142 46q195 0 195 -222v-28h66v-110h-66v-152q0 -95 -56 -149.5t-154 -54.5
q-97 0 -151.5 54t-54.5 150zM246 534q0 -37 28.5 -58.5t77.5 -21.5h7v44q0 96 -60 96q-25 0 -39 -16t-14 -44z" />
    <glyph glyph-name="phi1" unicode="&#x3d5;" horiz-adv-x="771" 
d="M311 -12q-128 5 -199 75.5t-71 192.5t71 192.5t199 75.5v117h149v-117q128 -5 199 -75.5t71 -192.5t-71 -192.5t-199 -75.5v-203h-149v203zM578 256q0 70 -32 112t-89 47v-318q57 5 89 47t32 112zM193 256q0 -70 32 -112t89 -47v318q-57 -5 -89 -47t-32 -112z" />
    <glyph glyph-name="uni0400" unicode="&#x400;" horiz-adv-x="586" 
d="M82 692h438v-122h-282v-158h268v-122h-268v-168h297v-122h-453v692zM409 755h-139l-161 146h180z" />
    <glyph glyph-name="uni0401" unicode="&#x401;" horiz-adv-x="586" 
d="M82 692h438v-122h-282v-158h268v-122h-268v-168h297v-122h-453v692zM104 835q0 37 24.5 61t61.5 24q38 0 62 -24t24 -62q0 -37 -24 -61.5t-62 -24.5t-62 24.5t-24 62.5zM350.5 896q24.5 24 61.5 24q38 0 62 -24t24 -62q0 -37 -24 -61.5t-62 -24.5t-62 24.5t-24 62.5
q0 37 24.5 61z" />
    <glyph glyph-name="uni0402" unicode="&#x402;" horiz-adv-x="819" 
d="M596 147q0 71 -9.5 111t-33 57t-65.5 17q-65 0 -128 -34v-298h-157v570h-197v122h600v-122h-246v-154q80 38 168 38q85 0 134 -27.5t70 -92t21 -176.5q0 -108 -14 -180.5t-47 -114.5t-89.5 -60t-141.5 -18l-14 129q49 5 78.5 15.5t45 34t20.5 67.5t5 116z" />
    <glyph glyph-name="uni0403" unicode="&#x403;" horiz-adv-x="511" 
d="M82 692h423v-122h-267v-570h-156v692zM313 901h180l-161 -146h-139z" />
    <glyph glyph-name="uni0404" unicode="&#x404;" horiz-adv-x="631" 
d="M46 340q0 114 41 195.5t118 125t184 43.5q59 0 108.5 -11t110.5 -38l-52 -118q-81 45 -158 45q-76 0 -124.5 -44t-62.5 -124h325v-122h-327q12 -87 64 -134.5t134 -47.5q43 0 78.5 11.5t86.5 41.5l45 -124q-41 -20 -74 -31t-67 -15.5t-79 -4.5q-172 0 -261.5 93
t-89.5 259z" />
    <glyph glyph-name="uni0405" unicode="&#x405;" horiz-adv-x="578" 
d="M371 192q0 20 -8.5 33.5t-35.5 28t-83 36.5q-65 27 -109 50.5t-66 57.5t-22 90q0 103 66.5 159.5t175.5 56.5q53 0 105 -9t116 -29l-32 -126q-46 17 -76.5 26t-53.5 12.5t-49 3.5q-43 0 -67 -19.5t-24 -53.5q0 -18 8 -30.5t33 -26t76 -34.5q56 -23 95.5 -42t64.5 -40.5
t37 -52.5t12 -78q0 -106 -65.5 -161.5t-190.5 -55.5q-66 0 -119.5 9t-112.5 30l22 133q66 -28 111.5 -39t90.5 -11q47 0 74 22t27 60z" />
    <glyph glyph-name="uni0406" unicode="&#x406;" horiz-adv-x="320" 
d="M82 692h156v-692h-156v692z" />
    <glyph glyph-name="uni0407" unicode="&#x407;" horiz-adv-x="320" 
d="M82 692h156v-692h-156v692zM-37 835q0 37 24.5 61t61.5 24q38 0 62 -24t24 -62q0 -37 -24 -61.5t-62 -24.5t-62 24.5t-24 62.5zM209.5 896q24.5 24 61.5 24q38 0 62 -24t24 -62q0 -37 -24 -61.5t-62 -24.5t-62 24.5t-24 62.5q0 37 24.5 61z" />
    <glyph glyph-name="uni0408" unicode="&#x408;" horiz-adv-x="431" 
d="M199 250v442h156v-408q0 -73 -3 -115t-12 -67t-27 -47q-52 -67 -173 -67q-74 0 -130 21l13 128q28 -13 48 -18t40 -5q57 0 72.5 34t15.5 102z" />
    <glyph glyph-name="uni0409" unicode="&#x409;" horiz-adv-x="1008" 
d="M146 599v93h475v-250h77q74 0 121.5 -11t80.5 -37q37 -29 55.5 -74t18.5 -100q0 -114 -76 -173q-23 -19 -52 -29t-70.5 -14t-104.5 -4h-206v570h-173v-51q0 -148 -9 -247t-36 -158t-81 -85t-145 -29l-15 131q39 2 64.5 10t40.5 32.5t22.5 74.5t10 135.5t2.5 215.5z
M621 117h41q46 0 80.5 8t54 31.5t19.5 68.5q0 44 -18 65.5t-52.5 28t-83.5 6.5h-41v-208z" />
    <glyph glyph-name="uni040A" unicode="&#x40a;" horiz-adv-x="1021" 
d="M82 692h156v-266h234v266h156v-266h93q71 0 117.5 -10t77.5 -36q35 -28 53 -71.5t18 -96.5t-18.5 -96.5t-54.5 -70.5q-23 -17 -51 -27t-68 -14t-100 -4h-223v304h-234v-304h-156v692zM628 112h84q56 0 86.5 22t30.5 79q0 58 -31 79.5t-86 21.5h-84v-202z" />
    <glyph glyph-name="uni040B" unicode="&#x40b;" horiz-adv-x="819" 
d="M203 570h-197v122h600v-122h-246v-154q80 38 168 38q216 0 216 -217v-237h-156v214q0 118 -100 118q-65 0 -128 -34v-298h-157v570z" />
    <glyph glyph-name="uni040C" unicode="&#x40c;" horiz-adv-x="658" 
d="M235 0h-153v692h153v-289h40q29 0 49.5 10.5t40 41t44.5 91.5l61 146h154l-83 -185q-21 -47 -37 -75t-34.5 -44.5t-47.5 -27.5q32 -11 52.5 -26.5t36.5 -41t34 -66.5l99 -226h-164l-61 146q-25 61 -44.5 92.5t-41.5 43t-56 11.5h-42v-293zM374 901h180l-161 -146h-139z
" />
    <glyph glyph-name="uni040D" unicode="&#x40d;" horiz-adv-x="737" 
d="M82 692h150v-342v-50t-1 -37t-2 -47q18 38 31.5 65t28.5 54t39 67l173 290h154v-692h-150v310v70.5t1 46t2 49.5q-18 -38 -31.5 -65t-28.5 -54.5t-39 -66.5l-173 -290h-154v692zM472 755h-139l-161 146h180z" />
    <glyph glyph-name="uni040E" unicode="&#x40e;" horiz-adv-x="639" 
d="M75 128q53 -18 100 -18q38 0 59 16t35 49l-259 517h172l87 -200q24 -56 42 -95.5t35 -85.5q11 31 19 53.5t19 50.5t30 73l83 204h152l-218 -510q-31 -73 -64 -115.5t-75 -60.5t-101 -18q-37 0 -67.5 5t-68.5 18zM160 913h125q1 -38 13.5 -57t41.5 -19t41.5 19t13.5 57
h125q0 -85 -45.5 -130t-134.5 -45t-134.5 45t-45.5 130z" />
    <glyph glyph-name="uni040F" unicode="&#x40f;" horiz-adv-x="692" 
d="M278 0h-196v692h156v-570h216v570h156v-692h-196v-173h-136v173z" />
    <glyph glyph-name="uni0410" unicode="&#x410;" horiz-adv-x="712" 
d="M482 165h-262l-59 -165h-155l264 692h163l273 -692h-165zM350 539q-6 -21 -9.5 -34t-9 -28.5t-16.5 -44.5l-53 -150h178l-54 150q-7 21 -12 35t-10.5 29.5t-13.5 42.5z" />
    <glyph glyph-name="uni0411" unicode="&#x411;" horiz-adv-x="625" 
d="M82 692h462v-122h-306v-138h114q59 0 99 -10.5t69 -33.5q71 -57 71 -172t-71 -172q-29 -23 -68.5 -33.5t-99.5 -10.5h-270v692zM238 112h60q65 0 100 21.5t35 86.5q0 62 -32.5 81t-102.5 19h-60v-208z" />
    <glyph glyph-name="uni0412" unicode="&#x412;" horiz-adv-x="633" 
d="M82 692h249q49 0 81.5 -3.5t55.5 -12t42 -23.5q31 -23 48.5 -62.5t17.5 -83.5q0 -117 -105 -153q116 -37 116 -158q0 -48 -18.5 -89t-52.5 -66q-29 -22 -69 -31.5t-99 -9.5h-266v692zM429 203q0 50 -31.5 73t-87.5 23h-76v-187h74q59 0 90 18t31 73zM388 562.5
q-34 17.5 -90 17.5h-64v-178h72q56 0 86 17t30 69q0 57 -34 74.5z" />
    <glyph glyph-name="uni0413" unicode="&#x413;" horiz-adv-x="511" 
d="M82 692h423v-122h-267v-570h-156v692z" />
    <glyph glyph-name="uni0414" unicode="&#x414;" horiz-adv-x="747" 
d="M19 122h66q37 63 54.5 178t17.5 299v93h500v-570h76v-295h-136v173h-442v-173h-136v295zM501 570h-198v-51q0 -133 -16 -236.5t-40 -163.5h254v451z" />
    <glyph glyph-name="uni0415" unicode="&#x415;" horiz-adv-x="586" 
d="M82 692h438v-122h-282v-158h268v-122h-268v-168h297v-122h-453v692z" />
    <glyph glyph-name="uni0416" unicode="&#x416;" horiz-adv-x="939" 
d="M544 0h-149v293h-34q-29 0 -46.5 -11.5t-33.5 -43t-42 -92.5l-61 -146h-164l99 226q18 40 33 65t35 40.5t50 26.5q-31 11 -50.5 27.5t-36 45t-37.5 76.5l-83 185h154l61 -146q26 -61 42.5 -91.5t34.5 -41t47 -10.5h32v289h149v-289h32q29 0 47 10.5t35 41t42 91.5l61 146
h154l-83 -185q-21 -48 -37.5 -76.5t-36 -45t-50.5 -27.5q30 -11 50 -26.5t35 -40.5t33 -65l99 -226h-164l-61 146q-25 61 -41.5 92.5t-34 43t-46.5 11.5h-34v-293z" />
    <glyph glyph-name="uni0417" unicode="&#x417;" horiz-adv-x="604" 
d="M400 204q0 51 -44.5 74t-143.5 23h-25t-24.5 -0.5t-37.5 -1.5v114q15 -1 25 -1h29q110 0 158.5 20.5t48.5 67.5q0 40 -33.5 61t-97.5 21q-39 0 -76.5 -9t-87.5 -31l-37 119q56 22 109.5 32.5t111.5 10.5q130 0 198.5 -49t68.5 -142q0 -132 -138 -156q154 -23 154 -160
q0 -102 -76 -155.5t-221 -53.5q-69 0 -123 9t-112 30l40 122q75 -39 178 -39q75 0 115.5 24.5t40.5 69.5z" />
    <glyph glyph-name="uni0418" unicode="&#x418;" horiz-adv-x="737" 
d="M82 692h150v-342v-50t-1 -37t-2 -47q18 38 31.5 65t28.5 54t39 67l173 290h154v-692h-150v310v70.5t1 46t2 49.5q-18 -38 -31.5 -65t-28.5 -54.5t-39 -66.5l-173 -290h-154v692z" />
    <glyph glyph-name="uni0419" unicode="&#x419;" horiz-adv-x="737" 
d="M82 692h150v-342v-50t-1 -37t-2 -47q18 38 31.5 65t28.5 54t39 67l173 290h154v-692h-150v310v70.5t1 46t2 49.5q-18 -38 -31.5 -65t-28.5 -54.5t-39 -66.5l-173 -290h-154v692zM184 913h125q1 -38 13.5 -57t41.5 -19t41.5 19t13.5 57h125q0 -85 -45.5 -130t-134.5 -45
t-134.5 45t-45.5 130z" />
    <glyph glyph-name="uni041A" unicode="&#x41a;" horiz-adv-x="658" 
d="M235 0h-153v692h153v-289h40q29 0 49.5 10.5t40 41t44.5 91.5l61 146h154l-83 -185q-21 -47 -37 -75t-34.5 -44.5t-47.5 -27.5q32 -11 52.5 -26.5t36.5 -41t34 -66.5l99 -226h-164l-61 146q-25 61 -44.5 92.5t-41.5 43t-56 11.5h-42v-293z" />
    <glyph glyph-name="uni041B" unicode="&#x41b;" horiz-adv-x="718" 
d="M146 599v93h490v-692h-156v570h-188v-51q0 -148 -9 -247t-36 -158t-81 -85t-145 -29l-15 131q39 2 64.5 10t40.5 32.5t22.5 74.5t10 135.5t2.5 215.5z" />
    <glyph glyph-name="uni041C" unicode="&#x41c;" horiz-adv-x="945" 
d="M82 692h231l120 -374q11 -34 19.5 -64t20.5 -76q12 45 20.5 75.5t19.5 64.5l121 374h229v-692h-150v557q-7 -29 -11.5 -45t-10 -33.5t-16.5 -50.5l-139 -428h-133l-135 417q-9 29 -20.5 66t-21.5 75v-558h-144v692z" />
    <glyph glyph-name="uni041D" unicode="&#x41d;" horiz-adv-x="729" 
d="M82 692h156v-278h253v278h156v-692h-156v292h-253v-292h-156v692z" />
    <glyph glyph-name="uni041E" unicode="&#x41e;" horiz-adv-x="759" 
d="M46 350q0 105 39.5 185t114 124.5t179.5 44.5q106 0 180.5 -44.5t114 -124.5t39.5 -185q0 -107 -38 -188.5t-112.5 -127.5t-183.5 -46q-108 0 -182.5 46t-112.5 127.5t-38 188.5zM207 349q0 -111 46.5 -175t125.5 -64q80 0 126.5 64t46.5 175q0 107 -46.5 170t-126.5 63
q-79 0 -125.5 -63t-46.5 -170z" />
    <glyph glyph-name="uni041F" unicode="&#x41f;" horiz-adv-x="701" 
d="M82 692h537v-692h-156v570h-225v-570h-156v692z" />
    <glyph glyph-name="uni0420" unicode="&#x420;" horiz-adv-x="586" 
d="M82 692h195q61 0 100.5 -4t67 -13.5t50.5 -27.5q75 -56 75 -168q0 -109 -73 -168q-32 -25 -77 -36t-117 -11h-65v-264h-156v692zM414 474q0 61 -37 81t-98 20h-45v-194h45q65 0 100 17.5t35 75.5z" />
    <glyph glyph-name="uni0421" unicode="&#x421;" horiz-adv-x="631" 
d="M46 340q0 114 41 195.5t118 125t184 43.5q59 0 108.5 -11t110.5 -38l-52 -118q-81 45 -158 45q-90 0 -140.5 -62.5t-50.5 -172.5q0 -112 53 -174.5t147 -62.5q43 0 78.5 11.5t86.5 41.5l45 -124q-41 -20 -74 -31t-67 -15.5t-79 -4.5q-172 0 -261.5 93t-89.5 259z" />
    <glyph glyph-name="uni0422" unicode="&#x422;" horiz-adv-x="570" 
d="M207 570h-200v122h556v-122h-200v-570h-156v570z" />
    <glyph glyph-name="uni0423" unicode="&#x423;" horiz-adv-x="639" 
d="M75 128q53 -18 100 -18q38 0 59 16t35 49l-259 517h172l87 -200q24 -56 42 -95.5t35 -85.5q11 31 19 53.5t19 50.5t30 73l83 204h152l-218 -510q-31 -73 -64 -115.5t-75 -60.5t-101 -18q-37 0 -67.5 5t-68.5 18z" />
    <glyph glyph-name="uni0424" unicode="&#x424;" horiz-adv-x="895" 
d="M377 44q-104 9 -178 48.5t-113.5 104.5t-39.5 149t39.5 149t113.5 104.5t178 48.5v66h142v-66q104 -9 178 -48.5t113.5 -104.5t39.5 -149t-39.5 -149t-113.5 -104.5t-178 -48.5v-66h-142v66zM689 346q0 74 -43.5 124t-126.5 64v-376q83 14 126.5 64t43.5 124zM207 346
q0 -74 43.5 -124t126.5 -64v376q-83 -14 -126.5 -64t-43.5 -124z" />
    <glyph glyph-name="uni0425" unicode="&#x425;" horiz-adv-x="734" 
d="M200 0h-184l256 355l-243 337h181l161 -226l163 226h178l-251 -341l254 -351h-188l-164 231z" />
    <glyph glyph-name="uni0426" unicode="&#x426;" horiz-adv-x="700" 
d="M550 0h-468v692h156v-570h216v570h156v-571h76v-294h-136v173z" />
    <glyph glyph-name="uni0427" unicode="&#x427;" horiz-adv-x="704" 
d="M466 219q-35 -15 -72 -21t-87 -6q-116 0 -176.5 53t-60.5 154v293h156v-271q0 -56 26.5 -81.5t86.5 -25.5q73 0 127 24v354h156v-692h-156v219z" />
    <glyph glyph-name="uni0428" unicode="&#x428;" horiz-adv-x="1044" 
d="M82 692h156v-570h206v570h156v-570h206v570h156v-692h-880v692z" />
    <glyph glyph-name="uni0429" unicode="&#x429;" horiz-adv-x="1052" 
d="M902 0h-820v692h156v-570h206v570h156v-570h206v570h156v-571h76v-294h-136v173z" />
    <glyph glyph-name="uni042A" unicode="&#x42a;" horiz-adv-x="756" 
d="M213 570h-207v122h363v-250h77q74 0 121.5 -11t80.5 -37q37 -29 55.5 -74t18.5 -100q0 -114 -76 -173q-23 -19 -52 -29t-70.5 -14t-104.5 -4h-206v570zM369 117h41q46 0 80.5 8t54 31.5t19.5 68.5q0 44 -18 65.5t-52.5 28t-83.5 6.5h-41v-208z" />
    <glyph glyph-name="uni042B" unicode="&#x42b;" horiz-adv-x="915" 
d="M82 692h156v-250h77q74 0 121.5 -11t80.5 -37q37 -29 55.5 -74t18.5 -100q0 -114 -76 -173q-23 -19 -52 -29t-70.5 -14t-104.5 -4h-206v692zM238 117h41q46 0 80.5 8t54 31.5t19.5 68.5q0 44 -18 65.5t-52.5 28t-83.5 6.5h-41v-208zM677 692h156v-692h-156v692z" />
    <glyph glyph-name="uni042C" unicode="&#x42c;" horiz-adv-x="625" 
d="M82 692h156v-250h77q74 0 121.5 -11t80.5 -37q37 -29 55.5 -74t18.5 -100q0 -114 -76 -173q-23 -19 -52 -29t-70.5 -14t-104.5 -4h-206v692zM238 117h41q46 0 80.5 8t54 31.5t19.5 68.5q0 44 -18 65.5t-52.5 28t-83.5 6.5h-41v-208z" />
    <glyph glyph-name="uni042D" unicode="&#x42d;" horiz-adv-x="646" 
d="M110 414h326q-25 168 -186 168q-73 0 -162 -49l-43 116q103 55 214 55q164 0 252.5 -94.5t88.5 -269.5q0 -172 -87.5 -262t-254.5 -90q-127 0 -228 52l48 115q40 -22 83.5 -33.5t81.5 -11.5q172 0 195 182h-328v122z" />
    <glyph glyph-name="uni042E" unicode="&#x42e;" horiz-adv-x="1053" 
d="M82 692h156v-278h131q11 86 51 151.5t106.5 102t159.5 36.5q105 0 176.5 -46t108 -127t36.5 -185q0 -105 -37 -186t-108.5 -126.5t-175.5 -45.5q-95 0 -163 38t-107 106.5t-48 159.5h-130v-292h-156v692zM846 346q0 109 -43 172.5t-117 63.5q-73 0 -116.5 -63.5
t-43.5 -172.5t43.5 -172.5t116.5 -63.5q74 0 117 63.5t43 172.5z" />
    <glyph glyph-name="uni042F" unicode="&#x42f;" horiz-adv-x="644" 
d="M62 494q0 48 20.5 88.5t51.5 65.5q29 23 69.5 33.5t105.5 10.5h253v-692h-156v271h-31q-36 0 -58.5 -10.5t-42 -41t-46.5 -91.5l-56 -128h-166l87 189q19 42 33.5 68t29 41t34.5 24q-60 18 -94 60.5t-34 111.5zM410 577h-62q-62 0 -96 -18t-34 -76q0 -97 130 -97h62v191z
" />
    <glyph glyph-name="uni0430" unicode="&#x430;" horiz-adv-x="589" 
d="M32 146q0 94 72 139q26 16 65 23.5t97 7.5q21 0 42 -1t49 -3v6q0 47 -29.5 73.5t-82.5 26.5q-33 0 -66 -9.5t-77 -31.5l-29 106q46 21 94.5 31t100.5 10q129 0 191 -65q20 -20 30.5 -42.5t14.5 -55.5t4 -86v-142q0 -49 2 -82.5t4 -50.5h-145l-5 57q-38 -39 -74.5 -54
t-88.5 -15q-79 0 -124 42t-45 116zM188 150q0 -31 18.5 -49.5t48.5 -18.5q57 0 102 66v80l-28.5 1.5t-20.5 0.5q-120 0 -120 -80z" />
    <glyph glyph-name="uni0431" unicode="&#x431;" horiz-adv-x="601" 
d="M44 316q0 152 31.5 238t95.5 123q44 24 100 35.5t130 17.5l109 9l8 -133l-115 -13q-78 -9 -120 -18t-63 -30q-20 -20 -29 -44t-17 -77q32 47 71.5 68.5t94.5 21.5q68 0 117 -32t76 -90t27 -135q0 -125 -65.5 -197t-192.5 -72q-99 0 -155.5 38.5t-79.5 112t-23 177.5z
M201 266q0 -89 23.5 -128.5t77.5 -39.5q50 0 76 41t26 117q0 68 -25 108t-72 40q-71 0 -106 -81v-57z" />
    <glyph glyph-name="uni0432" unicode="&#x432;" horiz-adv-x="592" 
d="M77 512h252q63 0 109.5 -11.5t72.5 -41.5t26 -86q0 -40 -18 -66t-61 -45q47 -18 67.5 -44.5t20.5 -69.5q0 -56 -26 -88.5t-72 -46t-106 -13.5h-265v512zM388 158q0 29 -15 42t-49 13h-99v-110h99q34 0 49 13.5t15 41.5zM324 409h-99v-104h99q63 0 63 52t-63 52z" />
    <glyph glyph-name="uni0433" unicode="&#x433;" horiz-adv-x="443" 
d="M77 512h362v-110h-211v-402h-151v512z" />
    <glyph glyph-name="uni0434" unicode="&#x434;" horiz-adv-x="629" 
d="M15 110h55q29 43 42.5 122t13.5 203v77h423v-402h61v-258h-126v148h-343v-148h-126v258zM398 402h-130v-24q0 -86 -11 -156.5t-27 -113.5h168v294z" />
    <glyph glyph-name="uni0435" unicode="&#x435;" horiz-adv-x="600" 
d="M41 254q0 124 69.5 197t194.5 73q101 0 156.5 -35.5t77.5 -106t22 -176.5h-362q8 -55 39 -82.5t95 -27.5q80 0 163 50l51 -107q-50 -26 -102 -38.5t-114 -12.5q-142 0 -216 67.5t-74 198.5zM380.5 388.5q-26.5 29.5 -73.5 29.5q-50 0 -76.5 -30t-33.5 -83h212
q-2 54 -28.5 83.5z" />
    <glyph glyph-name="uni0436" unicode="&#x436;" horiz-adv-x="823" 
d="M484 0h-145v215h-22q-24 0 -42 -19.5t-46 -79.5l-54 -116h-161l84 166q23 45 40.5 65t42.5 32q-23 11 -40.5 31t-39.5 64l-78 154h151l48 -104q28 -60 46 -79.5t42 -19.5h29v203h145v-203h29q24 0 42 19.5t46 79.5l48 104h151l-78 -154q-22 -44 -39.5 -64t-40.5 -31
q25 -12 42.5 -32t40.5 -65l84 -166h-161l-54 116q-28 60 -46 79.5t-42 19.5h-22v-215z" />
    <glyph glyph-name="uni0437" unicode="&#x437;" horiz-adv-x="515" 
d="M317 157q0 32 -30.5 45t-99.5 13h-29t-53 -1v99q26 -1 35 -1.5t25 -0.5q81 0 114.5 12t33.5 40q0 26 -22.5 39.5t-63.5 13.5q-33 0 -69.5 -8.5t-77.5 -28.5l-34 110q54 19 96 27t98 8q224 0 224 -149q0 -41 -19.5 -66.5t-64.5 -42.5q47 -17 68.5 -44.5t21.5 -72.5
q0 -161 -237 -161q-64 0 -109.5 8t-99.5 26l35 113q45 -19 79.5 -28t77.5 -9q48 0 74.5 15t26.5 44z" />
    <glyph glyph-name="uni0438" unicode="&#x438;" horiz-adv-x="634" 
d="M77 512h150v-314q11 25 30 61t36 66l107 187h157v-512h-150v314q-11 -25 -30 -61t-36 -66l-107 -187h-157v512z" />
    <glyph glyph-name="uni0439" unicode="&#x439;" horiz-adv-x="634" 
d="M77 512h150v-314q11 25 30 61t36 66l107 187h157v-512h-150v314q-11 -25 -30 -61t-36 -66l-107 -187h-157v512zM132 731h126q0 -44 15 -58.5t39 -14.5t39 14.5t15 58.5h126q0 -79 -42 -124t-138 -45t-138 45t-42 124z" />
    <glyph glyph-name="uni043A" unicode="&#x43a;" horiz-adv-x="583" 
d="M226 0h-149v512h149v-203h37q21 0 36 8t29.5 29.5t32.5 61.5l48 104h151l-78 -154q-22 -44 -39.5 -64t-40.5 -31q25 -12 42.5 -32t40.5 -65l84 -166h-161l-54 116q-18 40 -32.5 61.5t-29.5 29.5t-36 8h-30v-215z" />
    <glyph glyph-name="uni043B" unicode="&#x43b;" horiz-adv-x="615" 
d="M116 395v117h422v-512h-151v402h-129v-24q0 -110 -11 -183t-37.5 -115t-73.5 -60t-119 -20l-13 113q33 2 55 11t34.5 37t17.5 83.5t5 150.5z" />
    <glyph glyph-name="uni043C" unicode="&#x43c;" horiz-adv-x="802" 
d="M77 512h211l89 -288q6 -18 11 -35.5t13 -49.5q9 33 14 50t10 33l91 290h209v-512h-146v377q-10 -41 -15 -62t-12 -41l-89 -274h-129l-89 272q-5 15 -8.5 26.5t-7.5 29.5t-12 49v-377h-140v512z" />
    <glyph glyph-name="uni043D" unicode="&#x43d;" horiz-adv-x="630" 
d="M402 204h-174v-204h-151v512h151v-194h174v194h151v-512h-151v204z" />
    <glyph glyph-name="uni043E" unicode="&#x43e;" horiz-adv-x="609" 
d="M41 259q0 125 68.5 195t194.5 70t195 -70t69 -195t-66.5 -198t-197.5 -73q-130 0 -196.5 73t-66.5 198zM197 258q0 -78 27.5 -119t79.5 -41t80 41t28 119q0 75 -28.5 115.5t-79.5 40.5t-79 -40.5t-28 -115.5z" />
    <glyph glyph-name="uni043F" unicode="&#x43f;" horiz-adv-x="624" 
d="M77 512h470v-512h-151v402h-168v-402h-151v512z" />
    <glyph glyph-name="uni0440" unicode="&#x440;" horiz-adv-x="626" 
d="M75 308q0 62 -0.5 98t-1.5 59.5t-3 46.5h146l5 -65q37 42 71.5 59.5t82.5 17.5q98 0 154 -72.5t56 -198.5q0 -74 -22.5 -134.5t-68.5 -95.5t-116 -35q-99 0 -152 74v-277h-151v523zM429 259q0 70 -27 111.5t-72 41.5q-55 0 -104 -77v-153q22 -39 50.5 -60.5t59.5 -21.5
q41 0 67 44t26 115z" />
    <glyph glyph-name="uni0441" unicode="&#x441;" horiz-adv-x="499" 
d="M41 257q0 122 64.5 194.5t187.5 72.5q47 0 90 -8.5t87 -28.5l-40 -108q-31 19 -58 27t-56 8q-58 0 -88.5 -41.5t-30.5 -119.5q0 -74 33.5 -113.5t97.5 -39.5q30 0 55.5 8.5t53.5 27.5l46 -107q-74 -41 -176 -41q-125 0 -195.5 71t-70.5 198z" />
    <glyph glyph-name="uni0442" unicode="&#x442;" horiz-adv-x="479" 
d="M163 402h-159v110h471v-110h-161v-402h-151v402z" />
    <glyph glyph-name="uni0443" unicode="&#x443;" horiz-adv-x="577" 
d="M30 -90q40 -17 69 -17q24 0 42.5 11t35.5 38t37 77l-210 493h160l91 -224q10 -24 16 -40t12.5 -33t15.5 -44q8 24 13 38.5t9 25.5t9 24.5t13 35.5l82 217h149l-206 -499q-25 -61 -46.5 -106t-47 -75t-59.5 -44.5t-85 -14.5q-34 0 -65 6t-61 17z" />
    <glyph glyph-name="uni0444" unicode="&#x444;" horiz-adv-x="873" 
d="M366 62q-48 -74 -137 -74t-138.5 69.5t-49.5 193.5q0 128 52.5 200.5t143.5 72.5q82 0 129 -69v276h141v-276q30 37 61 53t72 16q89 0 140.5 -72.5t51.5 -198.5q0 -124 -50.5 -194.5t-139.5 -70.5q-86 0 -135 74v-277h-141v277zM366 335q-41 77 -87 77q-40 0 -63 -41.5
t-23 -112.5q0 -73 21.5 -115.5t58.5 -42.5q54 0 93 82v153zM657 370.5q-23 41.5 -63 41.5q-46 0 -87 -77v-153q39 -82 93 -82q35 0 57.5 44t22.5 114q0 71 -23 112.5z" />
    <glyph glyph-name="uni0445" unicode="&#x445;" horiz-adv-x="599" 
d="M303 358l116 154h169l-200 -248l203 -264h-172l-116 164l-124 -164h-168l207 260l-194 252h173z" />
    <glyph glyph-name="uni0446" unicode="&#x446;" horiz-adv-x="618" 
d="M473 0h-396v512h151v-402h159v402h151v-402h61v-258h-126v148z" />
    <glyph glyph-name="uni0447" unicode="&#x447;" horiz-adv-x="621" 
d="M393 156q-33 -13 -65.5 -17.5t-62.5 -4.5q-78 0 -122 22.5t-62.5 65.5t-18.5 104v186h151v-174q0 -49 17.5 -70.5t65.5 -21.5q20 0 46 4t51 17v245h151v-512h-151v156z" />
    <glyph glyph-name="uni0448" unicode="&#x448;" horiz-adv-x="913" 
d="M77 512h151v-402h153v402h151v-402h153v402h151v-512h-759v512z" />
    <glyph glyph-name="uni0449" unicode="&#x449;" horiz-adv-x="916" 
d="M771 0h-694v512h151v-402h153v402h151v-402h153v402h151v-402h61v-258h-126v148z" />
    <glyph glyph-name="uni044A" unicode="&#x44a;" horiz-adv-x="613" 
d="M143 402h-139v110h287v-158h87q53 0 86 -8t58 -27q59 -45 59 -142t-59 -142q-25 -19 -58.5 -27t-85.5 -8h-235v402zM291 103h60q41 0 59 17.5t18 56.5q0 40 -18 58t-59 18h-60v-150z" />
    <glyph glyph-name="uni044B" unicode="&#x44b;" horiz-adv-x="819" 
d="M77 512h151v-158h87q53 0 86 -8t58 -27q59 -45 59 -142t-59 -142q-25 -19 -58.5 -27t-85.5 -8h-238v512zM228 103h60q41 0 59 17.5t18 56.5q0 40 -18 58t-59 18h-60v-150zM591 512h151v-512h-151v512z" />
    <glyph glyph-name="uni044C" unicode="&#x44c;" horiz-adv-x="550" 
d="M77 512h151v-158h87q53 0 86 -8t58 -27q59 -45 59 -142t-59 -142q-25 -19 -58.5 -27t-85.5 -8h-238v512zM228 103h60q41 0 59 17.5t18 56.5q0 40 -18 58t-59 18h-60v-150z" />
    <glyph glyph-name="uni044D" unicode="&#x44d;" horiz-adv-x="530" 
d="M106 310h222q-9 54 -36.5 79t-76.5 25q-66 0 -137 -37l-43 104q49 23 95 33t98 10q125 0 193 -71t68 -199q0 -130 -70.5 -198t-206.5 -68q-54 0 -104 10.5t-84 28.5l45 107q33 -19 61 -26.5t62 -7.5q65 0 98 27t41 81h-225v102z" />
    <glyph glyph-name="uni044E" unicode="&#x44e;" horiz-adv-x="877" 
d="M228 0h-151v512h151v-194h109q14 95 76 150.5t171 55.5q126 0 189 -73t63 -195q0 -123 -63.5 -195.5t-188.5 -72.5q-111 0 -173.5 58t-75.5 158h-107v-204zM655.5 373.5q-24.5 40.5 -71.5 40.5q-46 0 -71 -40.5t-25 -117.5q0 -76 25 -117t71 -41q47 0 71.5 41t24.5 117
q0 77 -24.5 117.5z" />
    <glyph glyph-name="uni044F" unicode="&#x44f;" horiz-adv-x="596" 
d="M59 359q0 80 49.5 116.5t155.5 36.5h255v-512h-151v179h-58q-29 0 -47 -19t-46 -71l-47 -89h-166l92 145q19 30 29 44.5t17 21t17 13.5q-55 22 -77.5 53t-22.5 82zM371 407h-72q-49 0 -69 -13.5t-20 -47.5t20 -48t69 -14h72v123z" />
    <glyph glyph-name="uni0450" unicode="&#x450;" horiz-adv-x="600" 
d="M41 254q0 124 69.5 197t194.5 73q101 0 156.5 -35.5t77.5 -106t22 -176.5h-362q8 -55 39 -82.5t95 -27.5q80 0 163 50l51 -107q-50 -26 -102 -38.5t-114 -12.5q-142 0 -216 67.5t-74 198.5zM380.5 388.5q-26.5 29.5 -73.5 29.5q-50 0 -76.5 -30t-33.5 -83h212
q-2 54 -28.5 83.5zM409 585h-139l-161 146h180z" />
    <glyph glyph-name="uni0451" unicode="&#x451;" horiz-adv-x="600" 
d="M41 254q0 124 69.5 197t194.5 73q101 0 156.5 -35.5t77.5 -106t22 -176.5h-362q8 -55 39 -82.5t95 -27.5q80 0 163 50l51 -107q-50 -26 -102 -38.5t-114 -12.5q-142 0 -216 67.5t-74 198.5zM380.5 388.5q-26.5 29.5 -73.5 29.5q-50 0 -76.5 -30t-33.5 -83h212
q-2 54 -28.5 83.5zM108 669q0 35 23.5 58t58.5 23q36 0 59 -23t23 -59t-23 -59t-59 -23t-59 23t-23 60zM353.5 727q23.5 23 58.5 23q36 0 59 -23t23 -59t-23 -59t-59 -23t-59 23t-23 60q0 35 23.5 58z" />
    <glyph glyph-name="uni0452" unicode="&#x452;" horiz-adv-x="640" 
d="M414 109v178q0 49 -13 78t-57 29q-60 0 -113 -80v-314h-152v568h-72v100h72v63h152v-63h151v-100h-151v-134q37 38 76.5 55t89.5 17q65 0 101.5 -24t51.5 -70.5t15 -112.5v-126q0 -114 -7 -189t-33 -118.5t-82 -62t-155 -18.5l-13 113q47 1 74.5 7.5t41.5 26.5t18.5 62
t4.5 115z" />
    <glyph glyph-name="uni0453" unicode="&#x453;" horiz-adv-x="443" 
d="M77 512h362v-110h-211v-402h-151v512zM263 731h180l-161 -146h-139z" />
    <glyph glyph-name="uni0454" unicode="&#x454;" horiz-adv-x="531" 
d="M41 254q0 128 68.5 199t192.5 71q52 0 98 -10t95 -33l-43 -104q-67 37 -127 37q-57 0 -86 -29.5t-37 -74.5h222v-102h-222q9 -52 41 -80t95 -28q34 0 62 7.5t61 26.5l45 -107q-38 -19 -86 -29t-102 -10q-136 0 -206.5 68t-70.5 198z" />
    <glyph glyph-name="uni0455" unicode="&#x455;" horiz-adv-x="484" 
d="M297 147q0 28 -26.5 39t-76.5 27q-49 17 -82 34t-50 43.5t-17 70.5q0 77 54.5 120t151.5 43q46 0 87.5 -8t96.5 -28l-37 -112q-37 20 -74 30.5t-68 10.5t-48.5 -12.5t-17.5 -33.5q0 -16 13 -25.5t51 -23.5q60 -19 102 -38.5t64.5 -48t22.5 -74.5q0 -56 -28 -95
t-76.5 -58.5t-111.5 -19.5q-107 0 -186 44l38 112q38 -25 72 -36.5t74 -11.5q72 0 72 51z" />
    <glyph glyph-name="uni0456" unicode="&#x456;" horiz-adv-x="305" 
d="M65 667q0 38 25 62.5t63 24.5t62.5 -25t24.5 -63t-24.5 -63t-62.5 -25q-39 0 -63.5 25t-24.5 64zM77 512h151v-512h-151v512z" />
    <glyph glyph-name="uni0457" unicode="&#x457;" horiz-adv-x="305" 
d="M77 512h151v-512h-151v512zM-40 669q0 35 23.5 58t58.5 23q36 0 59 -23t23 -59t-23 -59t-59 -23t-59 23t-23 60zM205.5 727q23.5 23 58.5 23q36 0 59 -23t23 -59t-23 -59t-59 -23t-59 23t-23 60q0 35 23.5 58z" />
    <glyph glyph-name="uni0458" unicode="&#x458;" horiz-adv-x="322" 
d="M93 14v498h151v-509q0 -68 -7.5 -106t-27.5 -65q-44 -59 -143 -59q-49 0 -106 15l12 112q36 -11 56 -11q36 0 50.5 27.5t14.5 97.5zM81 667q0 38 25 62.5t63 24.5t62.5 -25t24.5 -63t-24.5 -63t-62.5 -25q-39 0 -63.5 25t-24.5 64z" />
    <glyph glyph-name="uni0459" unicode="&#x459;" horiz-adv-x="845" 
d="M116 395v117h417v-158h77q53 0 86 -8t58 -27q59 -45 59 -142t-59 -142q-25 -19 -58.5 -27t-85.5 -8h-228v402h-124v-24q0 -110 -11 -183t-37.5 -115t-73.5 -60t-119 -20l-13 113q33 2 55 11t34.5 37t17.5 83.5t5 150.5zM533 103h50q41 0 59 17.5t18 56.5q0 40 -18 58
t-59 18h-50v-150z" />
    <glyph glyph-name="uni045A" unicode="&#x45a;" horiz-adv-x="862" 
d="M77 512h151v-174h171v174h151v-158h77q52 0 85.5 -8t58.5 -27q59 -45 59 -142t-59 -142q-25 -19 -58.5 -27t-85.5 -8h-228v228h-171v-228h-151v512zM550 103h50q41 0 59 17.5t18 56.5q0 40 -18 58t-59 18h-50v-150z" />
    <glyph glyph-name="uni045B" unicode="&#x45b;" horiz-adv-x="640" 
d="M79 568h-72v100h72v63h152v-63h151v-100h-151v-134q37 38 76.5 55t89.5 17q65 0 101.5 -24t51.5 -70.5t15 -112.5v-299h-151v287q0 49 -13 78t-57 29q-60 0 -113 -80v-314h-152v568z" />
    <glyph glyph-name="uni045C" unicode="&#x45c;" horiz-adv-x="583" 
d="M226 0h-149v512h149v-203h37q21 0 36 8t29.5 29.5t32.5 61.5l48 104h151l-78 -154q-22 -44 -39.5 -64t-40.5 -31q25 -12 42.5 -32t40.5 -65l84 -166h-161l-54 116q-18 40 -32.5 61.5t-29.5 29.5t-36 8h-30v-215zM353 731h180l-161 -146h-139z" />
    <glyph glyph-name="uni045D" unicode="&#x45d;" horiz-adv-x="634" 
d="M77 512h150v-314q11 25 30 61t36 66l107 187h157v-512h-150v314q-11 -25 -30 -61t-36 -66l-107 -187h-157v512zM420 585h-139l-161 146h180z" />
    <glyph glyph-name="uni045E" unicode="&#x45e;" horiz-adv-x="577" 
d="M30 -90q40 -17 69 -17q24 0 42.5 11t35.5 38t37 77l-210 493h160l91 -224q10 -24 16 -40t12.5 -33t15.5 -44q8 24 13 38.5t9 25.5t9 24.5t13 35.5l82 217h149l-206 -499q-25 -61 -46.5 -106t-47 -75t-59.5 -44.5t-85 -14.5q-34 0 -65 6t-61 17zM109 731h126
q0 -44 15 -58.5t39 -14.5t39 14.5t15 58.5h126q0 -79 -42 -124t-138 -45t-138 45t-42 124z" />
    <glyph glyph-name="uni045F" unicode="&#x45f;" horiz-adv-x="626" 
d="M250 0h-170v512h151v-402h164v402h151v-512h-170v-148h-126v148z" />
    <glyph glyph-name="uni0462" unicode="&#x462;" horiz-adv-x="741" 
d="M6 616h172v76h156v-76h247v-118h-247v-86h134q59 0 99 -10.5t69 -33.5q71 -54 71 -162t-71 -162q-30 -22 -69 -33t-99 -11h-290v498h-172v118zM334 112h80q65 0 100 19.5t35 78.5q0 56 -32.5 73t-102.5 17h-80v-188z" />
    <glyph glyph-name="uni0463" unicode="&#x463;" horiz-adv-x="599" 
d="M106 402h-82v110h82v219h151v-219h133v-110h-133v-58h107q53 0 86 -6.5t58 -25.5q59 -45 59 -140t-59 -140q-25 -19 -58.5 -25.5t-85.5 -6.5h-258v402zM257 103h80q41 0 59 15t18 54q0 40 -18 55.5t-59 15.5h-80v-140z" />
    <glyph glyph-name="uni0472" unicode="&#x472;" horiz-adv-x="759" 
d="M46 350q0 105 39.5 185t114 124.5t179.5 44.5q106 0 180.5 -44.5t114 -124.5t39.5 -185q0 -107 -38 -188.5t-112.5 -127.5t-183.5 -46q-108 0 -182.5 46t-112.5 127.5t-38 188.5zM496 530q-45 52 -117 52q-70 0 -115 -51t-55 -138q28 15 47.5 20t41.5 5q23 0 43.5 -5
t42.5 -17l40 -22q21 -11 48 -11q16 0 34.5 5t43.5 21q-9 89 -54 141zM549 293q-25 -14 -44 -18t-39 -4q-23 0 -43.5 5t-42.5 17l-40 22q-21 11 -48 11q-17 0 -36 -5.5t-46 -23.5q10 -88 54.5 -137.5t114.5 -49.5t114 48.5t56 134.5z" />
    <glyph glyph-name="uni0473" unicode="&#x473;" horiz-adv-x="609" 
d="M41 259q0 126 69.5 195.5t193.5 69.5q125 0 194.5 -70t69.5 -195q0 -130 -69 -200.5t-195 -70.5t-194.5 70.5t-68.5 200.5zM304 98q87 0 104 107q-19 -11 -40 -11q-19 0 -33.5 6t-28.5 12l-22 10q-25 11 -38 11t-23.5 -4.5t-23.5 -12.5q15 -118 105 -118zM200 306
q22 13 44 13q19 0 34 -6t28 -12l22 -10q25 -11 38 -11q12 0 22.5 4t21.5 11q-7 57 -34 88t-72 31q-42 0 -68.5 -28t-35.5 -80z" />
    <glyph glyph-name="uni0474" unicode="&#x474;" horiz-adv-x="715" 
d="M688 544q-10 4 -18.5 6t-19.5 2q-17 0 -27.5 -12t-24.5 -50l-184 -490h-156l-262 692h162l115 -311q19 -49 36.5 -101.5t29.5 -93.5q12 36 21 64t19 57t24 68l59 158q18 50 36 86t45.5 56t71.5 20q25 0 50 -5.5t44 -13.5z" />
    <glyph glyph-name="uni0475" unicode="&#x475;" horiz-adv-x="593" 
d="M572 384q-4 1 -9.5 2t-13.5 1q-16 0 -27.5 -11.5t-25.5 -47.5l-125 -328h-162l-201 512h155l90 -236q12 -32 24.5 -67.5t18.5 -54.5q6 22 18 56.5t25 69.5l38 95q27 68 57 108.5t86 40.5q15 0 31 -3t36 -9z" />
    <glyph glyph-name="uni0490" unicode="&#x490;" horiz-adv-x="535" 
d="M82 692h287v121h136v-243h-267v-570h-156v692z" />
    <glyph glyph-name="uni0491" unicode="&#x491;" horiz-adv-x="466" 
d="M80 512h236v106h126v-216h-211v-402h-151v512z" />
    <glyph glyph-name="uni0492" unicode="&#x492;" horiz-adv-x="612" 
d="M126 291h-120v120h120v281h440v-122h-284v-159h200v-120h-200v-291h-156v291z" />
    <glyph glyph-name="uni0493" unicode="&#x493;" horiz-adv-x="495" 
d="M109 179h-85v110h85v223h362v-110h-211v-113h149v-110h-149v-179h-151v179z" />
    <glyph glyph-name="uni0496" unicode="&#x496;" horiz-adv-x="971" 
d="M825 0h-64l-61 146q-25 61 -41.5 92.5t-34 43t-46.5 11.5h-34v-293h-149v293h-34q-29 0 -46.5 -11.5t-33.5 -43t-42 -92.5l-61 -146h-164l99 226q18 40 33 65t35 40.5t50 26.5q-31 11 -50.5 27.5t-36 45t-37.5 76.5l-83 185h154l61 -146q26 -61 42.5 -91.5t34.5 -41
t47 -10.5h32v289h149v-289h32q29 0 47 10.5t35 41t42 91.5l61 146h154l-83 -185q-21 -48 -37.5 -76.5t-36 -45t-50.5 -27.5q30 -11 50 -26.5t35 -40.5t33 -65l51 -116h84v-283h-136v173z" />
    <glyph glyph-name="uni0497" unicode="&#x497;" horiz-adv-x="843" 
d="M702 0h-54l-54 116q-28 60 -46 79.5t-42 19.5h-22v-215h-145v215h-22q-24 0 -42 -19.5t-46 -79.5l-54 -116h-161l84 166q23 45 40.5 65t42.5 32q-23 11 -40.5 31t-39.5 64l-78 154h151l48 -104q28 -60 46 -79.5t42 -19.5h29v203h145v-203h29q24 0 42 19.5t46 79.5l48 104
h151l-78 -154q-22 -44 -39.5 -64t-40.5 -31q25 -12 42.5 -32t40.5 -65l28 -56h75v-258h-126v148z" />
    <glyph glyph-name="uni0498" unicode="&#x498;" horiz-adv-x="604" 
d="M400 204q0 51 -44.5 74t-143.5 23h-25t-24.5 -0.5t-37.5 -1.5v114q15 -1 25 -1h29q110 0 158.5 20.5t48.5 67.5q0 40 -33.5 61t-97.5 21q-39 0 -76.5 -9t-87.5 -31l-37 119q56 22 109.5 32.5t111.5 10.5q130 0 198.5 -49t68.5 -142q0 -132 -138 -156q154 -23 154 -160
q0 -102 -76 -155.5t-221 -53.5q-69 0 -123 9t-112 30l40 122q75 -39 178 -39q75 0 115.5 24.5t40.5 69.5zM233 34h136v-207h-136v207z" />
    <glyph glyph-name="uni0499" unicode="&#x499;" horiz-adv-x="515" 
d="M317 157q0 32 -30.5 45t-99.5 13h-29t-53 -1v99q26 -1 35 -1.5t25 -0.5q81 0 114.5 12t33.5 40q0 26 -22.5 39.5t-63.5 13.5q-33 0 -69.5 -8.5t-77.5 -28.5l-34 110q54 19 96 27t98 8q224 0 224 -149q0 -41 -19.5 -66.5t-64.5 -42.5q47 -17 68.5 -44.5t21.5 -72.5
q0 -161 -237 -161q-64 0 -109.5 8t-99.5 26l35 113q45 -19 79.5 -28t77.5 -9q48 0 74.5 15t26.5 44zM197 34h126v-182h-126v182z" />
    <glyph glyph-name="uni049A" unicode="&#x49a;" horiz-adv-x="701" 
d="M555 0h-75l-61 146q-25 61 -44.5 92.5t-41.5 43t-56 11.5h-42v-293h-153v692h153v-289h40q29 0 49.5 10.5t40 41t44.5 91.5l61 146h154l-83 -185q-21 -47 -37 -75t-34.5 -44.5t-47.5 -27.5q32 -11 52.5 -26.5t36.5 -41t34 -66.5l51 -116h95v-283h-136v173z" />
    <glyph glyph-name="uni049B" unicode="&#x49b;" horiz-adv-x="621" 
d="M480 0h-72l-54 116q-18 40 -32.5 61.5t-29.5 29.5t-36 8h-30v-215h-149v512h149v-203h37q21 0 36 8t29.5 29.5t32.5 61.5l48 104h151l-78 -154q-22 -44 -39.5 -64t-40.5 -31q25 -12 42.5 -32t40.5 -65l28 -56h93v-258h-126v148z" />
    <glyph glyph-name="uni049C" unicode="&#x49c;" horiz-adv-x="673" 
d="M341 158h-69v135h-37v-293h-153v692h153v-289h37v130h69v-119q21 12 39.5 42t43.5 90l61 146h154l-83 -185q-21 -47 -37 -75t-34.5 -44.5t-47.5 -27.5q32 -11 52.5 -26.5t36.5 -41t34 -66.5l99 -226h-164l-61 146q-27 65 -47 96.5t-46 42.5v-127z" />
    <glyph glyph-name="uni049D" unicode="&#x49d;" horiz-adv-x="598" 
d="M319 88h-58v127h-35v-215h-149v512h149v-203h35v123h58v-112q14 10 27 30.5t30 57.5l48 104h151l-78 -154q-22 -44 -39.5 -64t-40.5 -31q25 -12 42.5 -32t40.5 -65l84 -166h-161l-54 116q-15 32 -26.5 52t-23.5 30v-110z" />
    <glyph glyph-name="uni04A0" unicode="&#x4a0;" horiz-adv-x="699" 
d="M6 692h270v-289h40q29 0 49.5 10.5t40 41t44.5 91.5l61 146h154l-83 -185q-21 -47 -37 -75t-34.5 -44.5t-47.5 -27.5q32 -11 52.5 -26.5t36.5 -41t34 -66.5l99 -226h-164l-61 146q-25 61 -44.5 92.5t-41.5 43t-56 11.5h-42v-293h-153v570h-117v122z" />
    <glyph glyph-name="uni04A1" unicode="&#x4a1;" horiz-adv-x="649" 
d="M143 402h-139v110h288v-203h37q21 0 36 8t29.5 29.5t32.5 61.5l48 104h151l-78 -154q-22 -44 -39.5 -64t-40.5 -31q25 -12 42.5 -32t40.5 -65l84 -166h-161l-54 116q-18 40 -32.5 61.5t-29.5 29.5t-36 8h-30v-215h-149v402z" />
    <glyph glyph-name="uni04A2" unicode="&#x4a2;" horiz-adv-x="729" 
d="M575 0h-84v292h-253v-292h-156v692h156v-278h253v278h156v-582h64v-283h-136v173z" />
    <glyph glyph-name="uni04A3" unicode="&#x4a3;" horiz-adv-x="633" 
d="M489 0h-87v204h-174v-204h-151v512h151v-194h174v194h151v-402h62v-258h-126v148z" />
    <glyph glyph-name="uni04AA" unicode="&#x4aa;" horiz-adv-x="631" 
d="M46 340q0 114 41 195.5t118 125t184 43.5q59 0 108.5 -11t110.5 -38l-52 -118q-81 45 -158 45q-90 0 -140.5 -62.5t-50.5 -172.5q0 -112 53 -174.5t147 -62.5q43 0 78.5 11.5t86.5 41.5l45 -124q-41 -20 -74 -31t-67 -15.5t-79 -4.5q-172 0 -261.5 93t-89.5 259zM304 34
h136v-207h-136v207z" />
    <glyph glyph-name="uni04AB" unicode="&#x4ab;" horiz-adv-x="499" 
d="M41 257q0 122 64.5 194.5t187.5 72.5q47 0 90 -8.5t87 -28.5l-40 -108q-31 19 -58 27t-56 8q-58 0 -88.5 -41.5t-30.5 -119.5q0 -74 33.5 -113.5t97.5 -39.5q30 0 55.5 8.5t53.5 27.5l46 -107q-74 -41 -176 -41q-125 0 -195.5 71t-70.5 198zM199 34h126v-182h-126v182z
" />
    <glyph glyph-name="uni04AE" unicode="&#x4ae;" horiz-adv-x="661" 
d="M254 284l-264 408h181l114 -183q15 -25 25 -42.5t26 -47.5q16 32 26.5 50t25.5 41l113 182h170l-261 -408v-284h-156v284z" />
    <glyph glyph-name="uni04AF" unicode="&#x4af;" horiz-adv-x="577" 
d="M210 0l-206 512h160l91 -237q9 -24 15.5 -40t13 -33t15.5 -44q9 27 15.5 46t13.5 37t15 41l82 230h149l-213 -512v-194h-151v194z" />
    <glyph glyph-name="uni04B0" unicode="&#x4b0;" horiz-adv-x="661" 
d="M149 212h105v72l-264 408h181l114 -183q15 -25 25 -42.5t26 -47.5q16 32 26.5 50t25.5 41l113 182h170l-261 -408v-72h103v-88h-103v-124h-156v124h-105v88z" />
    <glyph glyph-name="uni04B1" unicode="&#x4b1;" horiz-adv-x="577" 
d="M107 18h96l-199 494h160l91 -237q9 -24 15.5 -40t13 -33t15.5 -44q9 27 15.5 46t13.5 37t15 41l82 230h149l-206 -494h103v-88h-110v-124h-151v124h-103v88z" />
    <glyph glyph-name="uni04B2" unicode="&#x4b2;" horiz-adv-x="744" 
d="M598 0h-71l-164 231l-163 -231h-184l256 355l-243 337h181l161 -226l163 226h178l-251 -341l174 -241h99v-283h-136v173z" />
    <glyph glyph-name="uni04B3" unicode="&#x4b3;" horiz-adv-x="631" 
d="M490 0h-71l-116 164l-124 -164h-168l207 260l-194 252h173l106 -154l116 154h169l-200 -247l119 -155h109v-258h-126v148z" />
    <glyph glyph-name="uni04B6" unicode="&#x4b6;" horiz-adv-x="704" 
d="M550 0h-84v219q-35 -15 -72 -21t-87 -6q-116 0 -176.5 53t-60.5 154v293h156v-271q0 -56 26.5 -81.5t86.5 -25.5q73 0 127 24v354h156v-582h64v-283h-136v173z" />
    <glyph glyph-name="uni04B7" unicode="&#x4b7;" horiz-adv-x="624" 
d="M480 0h-87v156q-33 -13 -65.5 -17.5t-62.5 -4.5q-78 0 -122 22.5t-62.5 65.5t-18.5 104v186h151v-174q0 -49 17.5 -70.5t65.5 -21.5q20 0 46 4t51 17v245h151v-402h62v-258h-126v148z" />
    <glyph glyph-name="uni04B8" unicode="&#x4b8;" horiz-adv-x="704" 
d="M299 192q-112 2 -170.5 55t-58.5 152v293h156v-271q0 -46 17.5 -71t55.5 -33v98h88v-98q43 5 79 21v354h156v-692h-156v219q-38 -16 -79 -22v-146h-88v141z" />
    <glyph glyph-name="uni04B9" unicode="&#x4b9;" horiz-adv-x="624" 
d="M257 134q-75 1 -117.5 24t-60 65.5t-17.5 102.5v186h151v-174q0 -37 9.5 -58t34.5 -29v150h88v-151q12 3 24 7t24 10v245h151v-512h-151v156q-23 -9 -48 -14v-105h-88v97z" />
    <glyph glyph-name="uni04BA" unicode="&#x4ba;" horiz-adv-x="693" 
d="M82 692h157v-266q80 38 168 38q216 0 216 -217v-247h-156v224q0 118 -100 118q-65 0 -128 -34v-308h-157v692z" />
    <glyph glyph-name="uni04BB" unicode="&#x4bb;" horiz-adv-x="640" 
d="M79 731h152v-279q37 38 76.5 55t89.5 17q65 0 101.5 -24t51.5 -70.5t15 -112.5v-317h-151v305q0 49 -13 78t-57 29q-60 0 -113 -80v-332h-152v731z" />
    <glyph glyph-name="uni04C0" unicode="&#x4c0;" horiz-adv-x="320" 
d="M82 692h156v-692h-156v692z" />
    <glyph glyph-name="uni04CB" unicode="&#x4cb;" horiz-adv-x="704" 
d="M402 110h64v109q-35 -15 -72 -21t-87 -6q-116 0 -176.5 53t-60.5 154v293h156v-271q0 -56 26.5 -81.5t86.5 -25.5q73 0 127 24v354h156v-692h-84v-173h-136v283z" />
    <glyph glyph-name="uni04CC" unicode="&#x4cc;" horiz-adv-x="624" 
d="M332 90h61v66q-33 -13 -65.5 -17.5t-62.5 -4.5q-78 0 -122 22.5t-62.5 65.5t-18.5 104v186h151v-174q0 -49 17.5 -70.5t65.5 -21.5q20 0 46 4t51 17v245h151v-512h-86v-148h-126v238z" />
    <glyph glyph-name="uni04CF" unicode="&#x4cf;" horiz-adv-x="320" 
d="M82 692h156v-692h-156v692z" />
    <glyph glyph-name="uni04D8" unicode="&#x4d8;" horiz-adv-x="680" 
d="M51 393h420q-8 92 -49 140.5t-136 48.5q-81 0 -162 -45l-52 118q62 27 111.5 38t111.5 11q125 0 199.5 -43.5t107 -124.5t32.5 -193q0 -167 -79 -261t-220 -94q-148 0 -216 102t-68 303zM334 110q119 0 136 161h-259q7 -161 123 -161z" />
    <glyph glyph-name="uni04D9" unicode="&#x4d9;" horiz-adv-x="600" 
d="M41 306h362q-8 55 -39 82.5t-95 27.5q-80 0 -163 -50l-51 107q50 26 102 38.5t114 12.5q143 0 216.5 -67.5t73.5 -198.5q0 -124 -69.5 -197t-194.5 -73q-100 0 -156 35.5t-78 106.5t-22 176zM221.5 123.5q26.5 -29.5 73.5 -29.5q50 0 76.5 30t33.5 83h-212
q2 -54 28.5 -83.5z" />
    <glyph glyph-name="uni04E2" unicode="&#x4e2;" horiz-adv-x="737" 
d="M82 692h150v-342v-50t-1 -37t-2 -47q18 38 31.5 65t28.5 54t39 67l173 290h154v-692h-150v310v70.5t1 46t2 49.5q-18 -38 -31.5 -65t-28.5 -54.5t-39 -66.5l-173 -290h-154v692zM182 870h364v-88h-364v88z" />
    <glyph glyph-name="uni04E3" unicode="&#x4e3;" horiz-adv-x="634" 
d="M77 512h150v-314q11 25 30 61t36 66l107 187h157v-512h-150v314q-11 -25 -30 -61t-36 -66l-107 -187h-157v512zM130 702h364v-88h-364v88z" />
    <glyph glyph-name="uni04E8" unicode="&#x4e8;" horiz-adv-x="759" 
d="M46 350q0 105 39.5 185t114 124.5t179.5 44.5q106 0 180.5 -44.5t114 -124.5t39.5 -185q0 -107 -38 -188.5t-112.5 -127.5t-183.5 -46q-108 0 -182.5 46t-112.5 127.5t-38 188.5zM496.5 530q-45.5 52 -117.5 52q-71 0 -116.5 -52t-53.5 -142h341q-8 90 -53.5 142z
M549 300h-339q10 -89 54.5 -139.5t114.5 -50.5q71 0 115.5 50.5t54.5 139.5z" />
    <glyph glyph-name="uni04E9" unicode="&#x4e9;" horiz-adv-x="609" 
d="M41 259q0 125 68.5 195t194.5 70t195 -70t69 -195t-66.5 -198t-197.5 -73q-130 0 -196.5 73t-66.5 198zM375 384.5q-27 29.5 -71 29.5t-70.5 -29.5t-34.5 -85.5h210q-7 56 -34 85.5zM409 211h-209q16 -113 104 -113q89 0 105 113z" />
    <glyph glyph-name="uni04EE" unicode="&#x4ee;" horiz-adv-x="639" 
d="M75 128q53 -18 100 -18q38 0 59 16t35 49l-259 517h172l87 -200q24 -56 42 -95.5t35 -85.5q11 31 19 53.5t19 50.5t30 73l83 204h152l-218 -510q-31 -73 -64 -115.5t-75 -60.5t-101 -18q-37 0 -67.5 5t-68.5 18zM158 870h364v-88h-364v88z" />
    <glyph glyph-name="uni04EF" unicode="&#x4ef;" horiz-adv-x="577" 
d="M30 -90q40 -17 69 -17q24 0 42.5 11t35.5 38t37 77l-210 493h160l91 -224q10 -24 16 -40t12.5 -33t15.5 -44q8 24 13 38.5t9 25.5t9 24.5t13 35.5l82 217h149l-206 -499q-25 -61 -46.5 -106t-47 -75t-59.5 -44.5t-85 -14.5q-34 0 -65 6t-61 17zM107 702h364v-88h-364v88z
" />
    <glyph glyph-name="uni1D48" unicode="&#x1d48;" horiz-adv-x="375" 
d="M28 548q0 70 32.5 109.5t88.5 39.5q49 0 80 -37v147h95v-301q0 -33 1 -54t3 -47h-93l-2 34q-17 -22 -36.5 -31t-47.5 -9q-58 0 -89.5 39.5t-31.5 109.5zM125 548q0 -36 13 -56t37 -20q29 0 54 29v87q-26 36 -54 36q-22 0 -36 -20.5t-14 -55.5z" />
    <glyph glyph-name="uni1D48" unicode="&#xf6eb;" horiz-adv-x="375" 
d="M28 548q0 70 32.5 109.5t88.5 39.5q49 0 80 -37v147h95v-301q0 -33 1 -54t3 -47h-93l-2 34q-17 -22 -36.5 -31t-47.5 -9q-58 0 -89.5 39.5t-31.5 109.5zM125 548q0 -36 13 -56t37 -20q29 0 54 29v87q-26 36 -54 36q-22 0 -36 -20.5t-14 -55.5z" />
    <glyph glyph-name="uni1E02" unicode="&#x1e02;" horiz-adv-x="633" 
d="M82 692h249q49 0 81.5 -3.5t55.5 -12t42 -23.5q31 -23 48.5 -62.5t17.5 -83.5q0 -117 -105 -153q116 -37 116 -158q0 -48 -18.5 -89t-52.5 -66q-29 -22 -69 -31.5t-99 -9.5h-266v692zM429 203q0 50 -31.5 73t-87.5 23h-76v-187h74q59 0 90 18t31 73zM388 562.5
q-34 17.5 -90 17.5h-64v-178h72q56 0 86 17t30 69q0 57 -34 74.5zM249 835q0 37 24.5 61t61.5 24q38 0 62 -24t24 -62q0 -37 -24 -61.5t-62 -24.5t-62 24.5t-24 62.5z" />
    <glyph glyph-name="uni1E03" unicode="&#x1e03;" horiz-adv-x="626" 
d="M75 176v555h151v-279q60 72 149 72q98 0 154 -72t56 -199q0 -74 -22.5 -134.5t-68.5 -95.5t-116 -35q-52 0 -90 19.5t-67 62.5l-5 -70h-146q2 22 3 42.5t1.5 51t0.5 82.5zM402 370.5q-27 41.5 -72 41.5q-55 0 -104 -77v-153q22 -39 50.5 -60.5t59.5 -21.5q41 0 67 44
t26 115q0 70 -27 111.5zM270 667q0 38 25 62.5t63 24.5t62.5 -25t24.5 -63t-24.5 -63t-62.5 -25q-39 0 -63.5 25t-24.5 64z" />
    <glyph glyph-name="uni1E0A" unicode="&#x1e0a;" horiz-adv-x="712" 
d="M82 692h192q76 0 130 -8t94 -26t72 -48q96 -88 96 -264q0 -211 -132 -294q-31 -19 -67.5 -30.5t-85.5 -16.5t-118 -5h-181v692zM505 348q0 56 -17 104t-47 74q-19 17 -40.5 26.5t-52.5 13.5t-80 4h-30v-448h30q107 0 158 35q38 25 58.5 75t20.5 116zM288 835
q0 37 24.5 61t61.5 24q38 0 62 -24t24 -62q0 -37 -24 -61.5t-62 -24.5t-62 24.5t-24 62.5z" />
    <glyph glyph-name="uni1E0B" unicode="&#x1e0b;" horiz-adv-x="626" 
d="M41 253q0 126 56.5 198.5t153.5 72.5q45 0 82 -17t67 -55v279h151v-555q0 -52 0.5 -82.5t1.5 -51t3 -42.5h-146l-5 71q-29 -44 -66.5 -63.5t-90.5 -19.5q-70 0 -116 36t-68.5 96.5t-22.5 132.5zM197 253q0 -70 27 -111.5t72 -41.5q55 0 104 77v153q-22 39 -50.5 60.5
t-59.5 21.5q-41 0 -67 -44t-26 -115zM181 667q0 38 25 62.5t63 24.5t62.5 -25t24.5 -63t-24.5 -63t-62.5 -25q-39 0 -63.5 25t-24.5 64z" />
    <glyph glyph-name="uni1E1E" unicode="&#x1e1e;" horiz-adv-x="568" 
d="M82 692h440v-122h-284v-158h270v-122h-270v-290h-156v692zM216 835q0 37 24.5 61t61.5 24q38 0 62 -24t24 -62q0 -37 -24 -61.5t-62 -24.5t-62 24.5t-24 62.5z" />
    <glyph glyph-name="uni1E1F" unicode="&#x1e1f;" horiz-adv-x="397" 
d="M105 402h-81v110h81v23q0 109 43 159t136 50q51 0 111 -17l-12 -114q-21 8 -33.5 10.5t-26.5 2.5q-35 0 -51 -25t-16 -81v-8h114v-110h-114v-402h-151v402zM177 861q0 38 25 62.5t63 24.5t62.5 -25t24.5 -63t-24.5 -63t-62.5 -25q-39 0 -63.5 25t-24.5 64z" />
    <glyph glyph-name="uni1E22" unicode="&#x1e22;" horiz-adv-x="729" 
d="M82 692h156v-278h253v278h156v-692h-156v292h-253v-292h-156v692zM279 835q0 37 24.5 61t61.5 24q38 0 62 -24t24 -62q0 -37 -24 -61.5t-62 -24.5t-62 24.5t-24 62.5z" />
    <glyph glyph-name="uni1E23" unicode="&#x1e23;" horiz-adv-x="640" 
d="M79 731h152v-279q37 38 76.5 55t89.5 17q65 0 101.5 -24t51.5 -70.5t15 -112.5v-317h-151v305q0 49 -13 78t-57 29q-60 0 -113 -80v-332h-152v731zM67 861q0 38 25 62.5t63 24.5t62.5 -25t24.5 -63t-24.5 -63t-62.5 -25q-39 0 -63.5 25t-24.5 64z" />
    <glyph glyph-name="uni1E24" unicode="&#x1e24;" horiz-adv-x="729" 
d="M82 692h156v-278h253v278h156v-692h-156v292h-253v-292h-156v692zM279 -154q0 37 24.5 61t61.5 24q38 0 62 -24t24 -62q0 -37 -24 -61.5t-62 -24.5t-62 24.5t-24 62.5z" />
    <glyph glyph-name="uni1E25" unicode="&#x1e25;" horiz-adv-x="640" 
d="M79 731h152v-279q37 38 76.5 55t89.5 17q65 0 101.5 -24t51.5 -70.5t15 -112.5v-317h-151v305q0 49 -13 78t-57 29q-60 0 -113 -80v-332h-152v731zM236 -154q0 37 24.5 61t61.5 24q38 0 62 -24t24 -62q0 -37 -24 -61.5t-62 -24.5t-62 24.5t-24 62.5z" />
    <glyph glyph-name="uni1E36" unicode="&#x1e36;" horiz-adv-x="531" 
d="M82 692h156v-570h297v-122h-453v692zM223 -154q0 37 24.5 61t61.5 24q38 0 62 -24t24 -62q0 -37 -24 -61.5t-62 -24.5t-62 24.5t-24 62.5z" />
    <glyph glyph-name="uni1E37" unicode="&#x1e37;" horiz-adv-x="309" 
d="M79 731h151v-731h-151v731zM69 -154q0 37 24.5 61t61.5 24q38 0 62 -24t24 -62q0 -37 -24 -61.5t-62 -24.5t-62 24.5t-24 62.5z" />
    <glyph glyph-name="uni1E56" unicode="&#x1e56;" horiz-adv-x="586" 
d="M82 692h195q61 0 100.5 -4t67 -13.5t50.5 -27.5q75 -56 75 -168q0 -109 -73 -168q-32 -25 -77 -36t-117 -11h-65v-264h-156v692zM414 474q0 61 -37 81t-98 20h-45v-194h45q65 0 100 17.5t35 75.5zM240 835q0 37 24.5 61t61.5 24q38 0 62 -24t24 -62q0 -37 -24 -61.5
t-62 -24.5t-62 24.5t-24 62.5z" />
    <glyph glyph-name="uni1E57" unicode="&#x1e57;" horiz-adv-x="626" 
d="M75 308q0 62 -0.5 98t-1.5 59.5t-3 46.5h146l5 -65q37 42 71.5 59.5t82.5 17.5q98 0 154 -72.5t56 -198.5q0 -74 -22.5 -134.5t-68.5 -95.5t-116 -35q-99 0 -152 74v-277h-151v523zM429 259q0 70 -27 111.5t-72 41.5q-55 0 -104 -77v-153q22 -39 50.5 -60.5t59.5 -21.5
q41 0 67 44t26 115zM240 667q0 38 25 62.5t63 24.5t62.5 -25t24.5 -63t-24.5 -63t-62.5 -25q-39 0 -63.5 25t-24.5 64z" />
    <glyph glyph-name="uni1E60" unicode="&#x1e60;" horiz-adv-x="578" 
d="M371 192q0 20 -8.5 33.5t-35.5 28t-83 36.5q-65 27 -109 50.5t-66 57.5t-22 90q0 103 66.5 159.5t175.5 56.5q53 0 105 -9t116 -29l-32 -126q-46 17 -76.5 26t-53.5 12.5t-49 3.5q-43 0 -67 -19.5t-24 -53.5q0 -18 8 -30.5t33 -26t76 -34.5q56 -23 95.5 -42t64.5 -40.5
t37 -52.5t12 -78q0 -106 -65.5 -161.5t-190.5 -55.5q-66 0 -119.5 9t-112.5 30l22 133q66 -28 111.5 -39t90.5 -11q47 0 74 22t27 60zM234 835q0 37 24.5 61t61.5 24q38 0 62 -24t24 -62q0 -37 -24 -61.5t-62 -24.5t-62 24.5t-24 62.5z" />
    <glyph glyph-name="uni1E61" unicode="&#x1e61;" horiz-adv-x="484" 
d="M297 147q0 28 -26.5 39t-76.5 27q-49 17 -82 34t-50 43.5t-17 70.5q0 77 54.5 120t151.5 43q46 0 87.5 -8t96.5 -28l-37 -112q-37 20 -74 30.5t-68 10.5t-48.5 -12.5t-17.5 -33.5q0 -16 13 -25.5t51 -23.5q60 -19 102 -38.5t64.5 -48t22.5 -74.5q0 -56 -28 -95
t-76.5 -58.5t-111.5 -19.5q-107 0 -186 44l38 112q38 -25 72 -36.5t74 -11.5q72 0 72 51zM154 667q0 38 25 62.5t63 24.5t62.5 -25t24.5 -63t-24.5 -63t-62.5 -25q-39 0 -63.5 25t-24.5 64z" />
    <glyph glyph-name="uni1E6A" unicode="&#x1e6a;" horiz-adv-x="570" 
d="M207 570h-200v122h556v-122h-200v-570h-156v570zM201 835q0 37 24.5 61t61.5 24q38 0 62 -24t24 -62q0 -37 -24 -61.5t-62 -24.5t-62 24.5t-24 62.5z" />
    <glyph glyph-name="uni1E6B" unicode="&#x1e6b;" horiz-adv-x="397" 
d="M106 196v206h-82v110h82v110l151 28v-138h113v-110h-113v-206q0 -49 15.5 -69t51.5 -20q12 0 23.5 2.5t30.5 7.5l13 -111q-63 -18 -124 -18q-66 0 -100.5 23.5t-47.5 70t-13 114.5zM93 760q0 38 25 62.5t63 24.5t62.5 -25t24.5 -63t-24.5 -63t-62.5 -25q-39 0 -63.5 25
t-24.5 64z" />
    <glyph glyph-name="Wgrave" unicode="&#x1e80;" horiz-adv-x="979" 
d="M706.5 270.5q3.5 17.5 7 33.5t8.5 37t13 53l71 298h147l-175 -692h-151l-86 301q-9 31 -16 55.5t-14.5 54.5t-19.5 75q-10 -37 -17.5 -65t-15.5 -55t-19 -61l-93 -305h-152l-168 692h153l71 -308q9 -39 14 -62.5t9.5 -45.5t11.5 -57q8 31 14 54.5t12.5 46.5t15.5 54
l93 318h150l84 -298q11 -38 17.5 -61t12 -45.5t14.5 -60.5q5 26 8.5 43.5zM598 755h-139l-161 146h180z" />
    <glyph glyph-name="wgrave" unicode="&#x1e81;" horiz-adv-x="863" 
d="M259 167q12 49 20.5 83.5t20.5 74.5l57 187h149l60 -189q8 -27 14.5 -47.5t13.5 -44.5t16 -63q9 39 14.5 63t11 44t13.5 46l56 191h138l-157 -512h-148l-59 185q-12 38 -19.5 61.5t-14 48.5t-17.5 66q-7 -31 -14 -57t-14.5 -53.5t-19.5 -64.5l-57 -186h-150l-153 512h148
l54 -191q7 -26 13 -47.5t11.5 -46.5t12.5 -60zM540 585h-139l-161 146h180z" />
    <glyph glyph-name="Wacute" unicode="&#x1e82;" horiz-adv-x="979" 
d="M706.5 270.5q3.5 17.5 7 33.5t8.5 37t13 53l71 298h147l-175 -692h-151l-86 301q-9 31 -16 55.5t-14.5 54.5t-19.5 75q-10 -37 -17.5 -65t-15.5 -55t-19 -61l-93 -305h-152l-168 692h153l71 -308q9 -39 14 -62.5t9.5 -45.5t11.5 -57q8 31 14 54.5t12.5 46.5t15.5 54
l93 318h150l84 -298q11 -38 17.5 -61t12 -45.5t14.5 -60.5q5 26 8.5 43.5zM513 901h180l-161 -146h-139z" />
    <glyph glyph-name="wacute" unicode="&#x1e83;" horiz-adv-x="863" 
d="M259 167q12 49 20.5 83.5t20.5 74.5l57 187h149l60 -189q8 -27 14.5 -47.5t13.5 -44.5t16 -63q9 39 14.5 63t11 44t13.5 46l56 191h138l-157 -512h-148l-59 185q-12 38 -19.5 61.5t-14 48.5t-17.5 66q-7 -31 -14 -57t-14.5 -53.5t-19.5 -64.5l-57 -186h-150l-153 512h148
l54 -191q7 -26 13 -47.5t11.5 -46.5t12.5 -60zM454 731h180l-161 -146h-139z" />
    <glyph glyph-name="Wdieresis" unicode="&#x1e84;" horiz-adv-x="979" 
d="M706.5 270.5q3.5 17.5 7 33.5t8.5 37t13 53l71 298h147l-175 -692h-151l-86 301q-9 31 -16 55.5t-14.5 54.5t-19.5 75q-10 -37 -17.5 -65t-15.5 -55t-19 -61l-93 -305h-152l-168 692h153l71 -308q9 -39 14 -62.5t9.5 -45.5t11.5 -57q8 31 14 54.5t12.5 46.5t15.5 54
l93 318h150l84 -298q11 -38 17.5 -61t12 -45.5t14.5 -60.5q5 26 8.5 43.5zM293 835q0 37 24.5 61t61.5 24q38 0 62 -24t24 -62q0 -37 -24 -61.5t-62 -24.5t-62 24.5t-24 62.5zM539.5 896q24.5 24 61.5 24q38 0 62 -24t24 -62q0 -37 -24 -61.5t-62 -24.5t-62 24.5t-24 62.5
q0 37 24.5 61z" />
    <glyph glyph-name="wdieresis" unicode="&#x1e85;" horiz-adv-x="863" 
d="M259 167q12 49 20.5 83.5t20.5 74.5l57 187h149l60 -189q8 -27 14.5 -47.5t13.5 -44.5t16 -63q9 39 14.5 63t11 44t13.5 46l56 191h138l-157 -512h-148l-59 185q-12 38 -19.5 61.5t-14 48.5t-17.5 66q-7 -31 -14 -57t-14.5 -53.5t-19.5 -64.5l-57 -186h-150l-153 512h148
l54 -191q7 -26 13 -47.5t11.5 -46.5t12.5 -60zM239 669q0 35 23.5 58t58.5 23q36 0 59 -23t23 -59t-23 -59t-59 -23t-59 23t-23 60zM484.5 727q23.5 23 58.5 23q36 0 59 -23t23 -59t-23 -59t-59 -23t-59 23t-23 60q0 35 23.5 58z" />
    <glyph glyph-name="uni1E9E" unicode="&#x1e9e;" horiz-adv-x="659" 
d="M76 495q0 98 65 153.5t179 55.5q201 0 261 -171l-121 -127q72 -23 112.5 -76t40.5 -128q0 -97 -59 -155.5t-158 -58.5q-34 0 -59.5 3.5t-62.5 12.5l14 120q25 -10 39.5 -13t33.5 -3q45 0 70 24t25 67q0 110 -147 110h-13v79l136 150q-34 46 -102 46q-99 0 -99 -124
l1 -460h-156v495z" />
    <glyph glyph-name="uni1EA0" unicode="&#x1ea0;" horiz-adv-x="712" 
d="M482 165h-262l-59 -165h-155l264 692h163l273 -692h-165zM350 539q-6 -21 -9.5 -34t-9 -28.5t-16.5 -44.5l-53 -150h178l-54 150q-7 21 -12 35t-10.5 29.5t-13.5 42.5zM270 -154q0 37 24.5 61t61.5 24q38 0 62 -24t24 -62q0 -37 -24 -61.5t-62 -24.5t-62 24.5t-24 62.5z
" />
    <glyph glyph-name="uni1EA1" unicode="&#x1ea1;" horiz-adv-x="589" 
d="M32 146q0 94 72 139q26 16 65 23.5t97 7.5q21 0 42 -1t49 -3v6q0 47 -29.5 73.5t-82.5 26.5q-33 0 -66 -9.5t-77 -31.5l-29 106q46 21 94.5 31t100.5 10q129 0 191 -65q20 -20 30.5 -42.5t14.5 -55.5t4 -86v-142q0 -49 2 -82.5t4 -50.5h-145l-5 57q-38 -39 -74.5 -54
t-88.5 -15q-79 0 -124 42t-45 116zM188 150q0 -31 18.5 -49.5t48.5 -18.5q57 0 102 66v80l-28.5 1.5t-20.5 0.5q-120 0 -120 -80zM187 -154q0 37 24.5 61t61.5 24q38 0 62 -24t24 -62q0 -37 -24 -61.5t-62 -24.5t-62 24.5t-24 62.5z" />
    <glyph glyph-name="uni1EA2" unicode="&#x1ea2;" horiz-adv-x="712" 
d="M482 165h-262l-59 -165h-155l264 692h163l273 -692h-165zM350 539q-6 -21 -9.5 -34t-9 -28.5t-16.5 -44.5l-53 -150h178l-54 150q-7 21 -12 35t-10.5 29.5t-13.5 42.5zM318 760q0 18 4.5 30t17 25.5t34.5 34.5q15 15 15 32q0 15 -10 24.5t-27 9.5q-15 0 -27.5 -8
t-35.5 -31l-34 71q33 24 56 33t51 9q49 0 79 -26.5t30 -69.5q0 -26 -9.5 -43.5t-36.5 -40.5q-19 -17 -25 -30.5t-6 -26.5v-4h-76v11z" />
    </font>
</defs>
</svg>
